<?xml version="1.0" encoding="UTF-8"?>
<svg width="243px" height="230px" viewBox="0 0 243 230" version="1.1" xmlns="http://www.w3.org/2000/svg" xmlns:xlink="http://www.w3.org/1999/xlink">
    <!-- Generator: Sketch 47.1 (45422) - http://www.bohemiancoding.com/sketch -->
    <title>Alternative Investment</title>
    <desc>Created with Sketch.</desc>
    <defs></defs>
    <g id="Welcome" stroke="none" stroke-width="1" fill="none" fill-rule="evenodd">
        <g id="What-We-Offer" transform="translate(-853.000000, -2767.000000)" fill-rule="nonzero" fill="#96CCFF">
            <g id="Group-14" transform="translate(193.000000, 2767.000000)">
                <g id="Alternative-Investment" transform="translate(660.000000, 0.000000)">
                    <g id="Group" transform="translate(-0.000000, 0.000000)">
                        <path d="M130.590618,90.1308959 C132.502454,92.2222403 135.179024,92.4123626 138.620328,90.3210181 L143.973468,96.0246848 C142.252816,97.1654181 140.532164,96.9752959 138.811511,95.2641959 L136.708492,97.1654181 C139.385062,99.637007 142.252816,99.8271292 145.311753,97.5456625 L146.841221,99.0666403 L147.988323,98.1160292 L146.267671,96.7851737 C147.605956,95.4543181 148.179506,93.9333403 148.179506,92.4123626 C148.179506,90.8913848 147.605956,89.370407 146.458854,88.2296737 C145.311753,87.0889404 144.164651,86.5185737 143.01755,86.3284515 C141.870449,86.1383292 140.149796,86.7086959 138.046777,88.0395515 L133.267188,82.9062515 C134.605473,81.9556404 135.943758,82.1457626 137.282043,83.2864959 L139.385062,81.3852737 C137.090859,79.2939293 134.605473,79.2939293 131.928903,81.3852737 L130.399435,79.8642959 L129.443517,80.4346626 L130.972985,81.9556404 C129.825884,83.2864959 129.252333,84.6173515 129.06115,85.948207 C128.869966,87.659307 129.443517,88.9901626 130.590618,90.1308959 Z M142.635183,88.8000403 C143.399917,88.8000403 143.973468,89.370407 144.547019,89.9407737 C146.076487,91.6518737 146.267671,93.3629737 144.929386,95.0740737 L139.767429,89.5605292 C140.914531,88.9901626 141.870449,88.8000403 142.635183,88.8000403 Z M132.31127,83.6667404 L136.899676,88.6099181 C136.134942,88.9901626 135.370207,89.1802848 134.605473,89.370407 C133.840739,89.370407 133.076004,88.9901626 132.502454,88.2296737 C130.972985,86.7086959 130.972985,85.1877181 132.31127,83.6667404 Z" id="Shape"></path>
                        <path d="M115.487116,103.819696 C113.575281,103.629574 111.854628,104.390063 110.516344,105.530796 C107.64859,108.002385 107.457406,112.375196 110.133976,115.227029 C111.472261,116.748007 113.384097,117.508496 115.295933,117.508496 C117.016585,117.508496 118.546053,116.938129 119.884338,115.797396 C121.222623,114.46654 121.987358,112.945562 122.178541,111.04434 C122.178541,109.143118 121.60499,107.432018 120.457889,106.101163 C118.92842,104.770307 117.207768,104.009818 115.487116,103.819696 Z M117.781319,113.706051 C116.060667,115.227029 113.575281,115.036907 112.045812,113.515929 C110.516344,111.804829 110.707527,109.33324 112.236996,107.812263 C113.00173,107.051774 113.957648,106.861651 114.913566,106.861651 C116.060667,106.861651 117.016585,107.241896 117.972503,108.192507 C118.737237,108.952996 119.119604,110.093729 118.92842,111.04434 C119.119604,111.994951 118.546053,112.945562 117.781319,113.706051 Z" id="Shape"></path>
                        <path d="M161.562356,75.1112404 C161.75354,75.1112404 161.75354,75.1112404 161.944723,75.1112404 C163.665375,75.1112404 165.386027,74.5408737 166.533129,73.4001404 C169.400882,70.9285515 169.592066,66.5557404 166.915496,63.7039071 C165.577211,62.3730515 164.047742,61.6125627 162.135907,61.4224404 C160.224071,61.2323182 158.503419,61.9928071 157.165134,63.1335404 C155.826849,64.464396 155.062115,65.9853738 154.870931,67.886596 C154.870931,69.7878182 155.444482,71.4989182 156.591583,72.8297737 C158.121052,74.1606293 159.841704,74.9211182 161.562356,75.1112404 Z M159.268153,65.2248849 C160.032887,64.464396 160.988805,64.2742738 161.944723,64.2742738 C163.091825,64.2742738 164.047742,64.6545182 165.00366,65.6051293 C166.533129,67.3162293 166.341945,69.7878182 164.812477,71.308796 C164.047742,72.0692848 162.900641,72.4495293 161.944723,72.2594071 C160.797622,72.2594071 159.841704,71.6890404 159.07697,70.9285515 C158.312235,70.1680626 157.929868,69.0273293 157.929868,68.0767182 C157.929868,66.9359849 158.503419,65.9853738 159.268153,65.2248849 Z" id="Shape"></path>
                        <path d="M69.6030601,106.101163 C69.6030601,106.481407 69.7942437,106.861651 69.9854272,107.051774 L114.531198,155.53294 C114.722382,155.913185 115.295933,155.913185 115.6783,155.913185 C116.060667,155.913185 116.443034,155.723062 116.634218,155.53294 L207.064045,73.5902626 C207.255229,73.4001404 207.446412,73.019896 207.446412,72.6396515 C207.446412,72.2594071 207.255229,71.8791626 207.064045,71.6890404 L162.518274,23.2078739 C161.944723,22.6375072 160.988805,22.6375072 160.415255,23.2078739 L70.1766108,105.150551 C69.7942437,105.340674 69.6030601,105.720918 69.6030601,106.101163 Z M161.371172,26.2498295 L204.005108,72.6396515 L115.6783,152.681107 L73.0443643,106.291285 L161.371172,26.2498295 Z" id="Shape"></path>
                        <path d="M121.413807,132.908396 C121.60499,133.28864 122.178541,133.28864 122.560908,133.28864 C122.943275,133.28864 123.325643,133.098518 123.516826,132.908396 L183.73965,78.3433182 C183.930833,78.1531959 184.122017,77.7729515 184.122017,77.3927071 C184.122017,77.0124626 183.930833,76.6322182 183.73965,76.4420959 C181.827814,74.3507515 182.018998,71.1186737 184.122017,69.2174515 C184.695568,68.6470849 184.695568,67.6964738 184.122017,67.1261071 L165.00366,46.4027849 C164.43011,45.8324183 163.474192,45.8324183 162.900641,46.4027849 C160.988805,48.1138849 158.121052,48.1138849 156.018033,46.4027849 C156.018033,46.2126627 155.826849,46.2126627 155.635665,46.0225405 C155.062115,45.4521738 154.106197,45.4521738 153.532646,46.0225405 L93.501006,100.587618 C93.3098225,100.77774 93.1186389,101.157985 93.1186389,101.538229 C93.1186389,101.918474 93.3098225,102.298718 93.501006,102.48884 C93.6921896,102.678963 93.8833732,103.059207 94.0745567,103.249329 C94.0745567,103.249329 94.0745567,103.249329 94.0745567,103.439451 C95.0304746,105.150551 94.839291,107.241896 93.8833732,108.762874 C93.8833732,108.762874 93.8833732,108.762874 93.8833732,108.762874 C93.6921896,108.952996 93.501006,109.33324 93.1186389,109.523362 C92.5450882,110.093729 92.5450882,111.04434 93.1186389,111.614707 L112.236996,132.338029 C112.428179,132.528151 112.810546,132.718274 113.192913,132.718274 C113.575281,132.718274 113.957648,132.528151 114.148831,132.338029 C116.251851,130.626929 119.501971,130.817051 121.413807,132.908396 Z M113.384097,129.676318 L95.9863924,110.854218 C96.9423102,109.523362 97.5158609,108.002385 97.5158609,106.481407 C97.5158609,104.770307 97.1334938,103.249329 96.3687595,101.918474 L154.679748,49.064496 C157.356318,51.1558405 160.988805,51.1558405 163.665375,49.4447405 L181.06308,68.2668404 C179.151244,70.9285515 178.960061,74.5408737 180.680713,77.2025848 L122.369725,130.056562 C121.03144,128.915829 119.310788,128.535585 117.590136,128.535585 C116.060667,128.345462 114.722382,128.725707 113.384097,129.676318 Z" id="Shape"></path>
                        <path d="M6.51248289,71.1186737 C7.27721716,71.1186737 8.04195143,70.5483071 8.04195143,69.597696 L8.04195143,43.7410738 C8.04195143,42.980585 7.46840073,42.2200961 6.51248289,42.2200961 C5.55656505,42.2200961 4.98301435,42.7904627 4.98301435,43.7410738 L4.98301435,69.597696 C4.98301435,70.5483071 5.74774862,71.1186737 6.51248289,71.1186737 Z" id="Shape"></path>
                        <path d="M6.51248289,88.0395515 C7.27721716,88.0395515 8.04195143,87.4691848 8.04195143,86.5185737 L8.04195143,78.1531959 C8.04195143,77.3927071 7.46840073,76.6322182 6.51248289,76.6322182 C5.55656505,76.6322182 4.98301435,77.2025848 4.98301435,78.1531959 L4.98301435,86.5185737 C4.98301435,87.4691848 5.74774862,88.0395515 6.51248289,88.0395515 Z" id="Shape"></path>
                        <path d="M231.535542,148.498418 C230.770807,148.498418 230.006073,149.068785 230.006073,150.019396 L230.006073,175.876018 C230.006073,176.636507 230.579624,177.396996 231.535542,177.396996 C232.300276,177.396996 233.06501,176.826629 233.06501,175.876018 L233.06501,150.019396 C233.06501,149.258907 232.300276,148.498418 231.535542,148.498418 Z" id="Shape"></path>
                        <path d="M231.535542,182.91054 C230.770807,182.91054 230.006073,183.480907 230.006073,184.431518 L230.006073,192.796896 C230.006073,193.557384 230.579624,194.317873 231.535542,194.317873 C232.300276,194.317873 233.06501,193.747507 233.06501,192.796896 L233.06501,184.431518 C233.06501,183.671029 232.300276,182.91054 231.535542,182.91054 Z" id="Shape"></path>
                        <path d="M56.7937611,74.3507515 L53.734824,71.308796 C53.1612733,70.7384293 52.2053555,70.7384293 51.6318048,71.308796 C51.0582541,71.8791626 51.0582541,72.8297737 51.6318048,73.4001404 L54.6907419,76.4420959 C54.8819254,76.6322182 55.2642926,76.8223404 55.6466597,76.8223404 C56.0290268,76.8223404 56.411394,76.6322182 56.6025775,76.4420959 C57.3673118,75.8717293 57.3673118,74.9211182 56.7937611,74.3507515 Z" id="Shape"></path>
                        <path d="M63.8675531,81.3852737 C63.2940024,80.814907 62.3380846,80.814907 61.7645338,81.3852737 C61.1909831,81.9556404 61.1909831,82.9062515 61.7645338,83.4766181 L64.8234709,86.5185737 C65.0146545,86.7086959 65.3970216,86.8988181 65.7793888,86.8988181 C66.1617559,86.8988181 66.544123,86.7086959 66.7353066,86.5185737 C67.3088573,85.948207 67.3088573,84.9975959 66.7353066,84.4272292 L63.8675531,81.3852737 Z" id="Shape"></path>
                        <path d="M54.6907419,81.3852737 L51.6318048,84.4272292 C51.0582541,84.9975959 51.0582541,85.948207 51.6318048,86.5185737 C51.8229883,86.7086959 52.2053555,86.8988181 52.5877226,86.8988181 C52.9700898,86.8988181 53.3524569,86.7086959 53.5436405,86.5185737 L56.6025775,83.4766181 C57.1761282,82.9062515 57.1761282,81.9556404 56.6025775,81.3852737 C56.2202104,80.814907 55.2642926,80.814907 54.6907419,81.3852737 Z" id="Shape"></path>
                        <path d="M66.9264902,71.308796 C66.3529395,70.7384293 65.3970216,70.7384293 64.8234709,71.308796 L61.7645338,74.3507515 C61.1909831,74.9211182 61.1909831,75.8717293 61.7645338,76.4420959 C61.9557174,76.6322182 62.3380846,76.8223404 62.7204517,76.8223404 C63.1028188,76.8223404 63.485186,76.6322182 63.6763695,76.4420959 L66.7353066,73.4001404 C67.5000409,72.6396515 67.5000409,71.8791626 66.9264902,71.308796 Z" id="Shape"></path>
                        <path d="M124.090377,17.5042073 C124.28156,17.6943295 124.663928,17.8844517 125.046295,17.8844517 C125.428662,17.8844517 125.811029,17.6943295 126.002212,17.5042073 C126.575763,16.9338406 126.575763,15.9832295 126.002212,15.4128628 L122.943275,12.3709073 C122.369725,11.8005406 121.413807,11.8005406 120.840256,12.3709073 C120.266705,12.9412739 120.266705,13.8918851 120.840256,14.4622517 L124.090377,17.5042073 Z" id="Shape"></path>
                        <path d="M134.223106,27.7708072 C134.414289,27.9609294 134.796657,28.1510517 135.179024,28.1510517 C135.561391,28.1510517 135.943758,27.9609294 136.134942,27.7708072 C136.708492,27.2004406 136.708492,26.2498295 136.134942,25.6794628 L133.076004,22.6375072 C132.502454,22.0671406 131.546536,22.0671406 130.972985,22.6375072 C130.399435,23.2078739 130.399435,24.158485 130.972985,24.7288517 L134.223106,27.7708072 Z" id="Shape"></path>
                        <path d="M121.987358,28.1510517 C122.369725,28.1510517 122.752092,27.9609294 122.943275,27.7708072 L126.002212,24.7288517 C126.575763,24.158485 126.575763,23.2078739 126.002212,22.6375072 C125.428662,22.0671406 124.472744,22.0671406 123.899193,22.6375072 L120.840256,25.6794628 C120.266705,26.2498295 120.266705,27.2004406 120.840256,27.7708072 C121.222623,27.9609294 121.60499,28.1510517 121.987358,28.1510517 Z" id="Shape"></path>
                        <path d="M132.120087,17.8844517 C132.502454,17.8844517 132.884821,17.6943295 133.076004,17.5042073 L136.134942,14.4622517 C136.708492,13.8918851 136.708492,12.9412739 136.134942,12.3709073 C135.561391,11.8005406 134.605473,11.8005406 134.031922,12.3709073 L130.972985,15.4128628 C130.399435,15.9832295 130.399435,16.9338406 130.972985,17.5042073 C131.355352,17.8844517 131.737719,17.8844517 132.120087,17.8844517 Z" id="Shape"></path>
                        <path d="M216.049673,212.189362 C215.476122,211.618995 214.520204,211.618995 213.946653,212.189362 C213.373103,212.759729 213.373103,213.71034 213.946653,214.280707 L217.005591,217.322662 C217.196774,217.512784 217.579141,217.702907 217.961508,217.702907 C218.343875,217.702907 218.726243,217.512784 218.917426,217.322662 C219.490977,216.752295 219.490977,215.801684 218.917426,215.231318 L216.049673,212.189362 Z" id="Shape"></path>
                        <path d="M226.182402,222.26584 C225.608851,221.695473 224.652933,221.695473 224.079383,222.26584 C223.505832,222.836207 223.505832,223.786818 224.079383,224.357184 L227.13832,227.39914 C227.329503,227.589262 227.71187,227.779384 228.094237,227.779384 C228.476605,227.779384 228.858972,227.589262 229.050155,227.39914 C229.623706,226.828773 229.623706,225.878162 229.050155,225.307795 L226.182402,222.26584 Z" id="Shape"></path>
                        <path d="M217.196774,222.26584 L214.137837,225.307795 C213.564286,225.878162 213.564286,226.828773 214.137837,227.39914 C214.329021,227.589262 214.711388,227.779384 215.093755,227.779384 C215.476122,227.779384 215.858489,227.589262 216.049673,227.39914 L219.10861,224.357184 C219.68216,223.786818 219.68216,222.836207 219.10861,222.26584 C218.726243,221.695473 217.770325,221.695473 217.196774,222.26584 Z" id="Shape"></path>
                        <path d="M227.329503,212.189362 L224.270566,215.231318 C223.697015,215.801684 223.697015,216.752295 224.270566,217.322662 C224.46175,217.512784 224.844117,217.702907 225.226484,217.702907 C225.608851,217.702907 225.991218,217.512784 226.182402,217.322662 L229.241339,214.280707 C229.81489,213.71034 229.81489,212.759729 229.241339,212.189362 C228.858972,211.618995 227.903054,211.618995 227.329503,212.189362 Z" id="Shape"></path>
                        <path d="M221.78518,59.7113404 C225.991218,59.7113404 229.241339,56.2891405 229.241339,52.2965738 C229.241339,48.3040072 225.800035,44.8818072 221.78518,44.8818072 C217.579141,44.8818072 214.329021,48.3040072 214.329021,52.2965738 C214.329021,56.2891405 217.579141,59.7113404 221.78518,59.7113404 Z M221.78518,47.7336405 C224.270566,47.7336405 226.373585,49.8249849 226.373585,52.2965738 C226.373585,54.7681627 224.270566,56.8595071 221.78518,56.8595071 C219.299793,56.8595071 217.196774,54.7681627 217.196774,52.2965738 C217.005591,49.6348627 219.10861,47.7336405 221.78518,47.7336405 Z" id="Shape"></path>
                        <path d="M11.8656228,161.806973 C16.0716613,161.806973 19.3217819,158.384773 19.3217819,154.392207 C19.3217819,150.39964 16.0716613,146.97744 11.8656228,146.97744 C7.6595843,146.97744 4.40946365,150.39964 4.40946365,154.392207 C4.40946365,158.384773 7.6595843,161.806973 11.8656228,161.806973 Z M11.8656228,149.829273 C14.3510092,149.829273 16.4540284,151.920618 16.4540284,154.392207 C16.4540284,156.863796 14.3510092,158.95514 11.8656228,158.95514 C9.3802364,158.95514 7.27721716,156.863796 7.27721716,154.392207 C7.27721716,151.920618 9.18905283,149.829273 11.8656228,149.829273 Z" id="Shape"></path>
                        <path d="M194.828297,11.8005406 L222.932281,11.8005406 C223.697015,11.8005406 224.46175,11.230174 224.46175,10.2795628 C224.46175,9.32895173 223.888199,8.75858507 222.932281,8.75858507 L194.828297,8.75858507 C194.063562,8.75858507 193.298828,9.32895173 193.298828,10.2795628 C193.298828,11.230174 194.063562,11.8005406 194.828297,11.8005406 Z" id="Shape"></path>
                        <path d="M232.300276,11.8005406 L241.477087,11.8005406 C242.241821,11.8005406 243.006556,11.230174 243.006556,10.2795628 C243.006556,9.32895173 242.433005,8.75858507 241.477087,8.75858507 L232.300276,8.75858507 C231.535542,8.75858507 230.770807,9.32895173 230.770807,10.2795628 C230.770807,11.230174 231.535542,11.8005406 232.300276,11.8005406 Z" id="Shape"></path>
                        <path d="M241.285904,18.6449406 L221.593996,18.6449406 C220.829262,18.6449406 220.064528,19.2153073 220.064528,20.1659184 C220.064528,21.1165295 220.638078,21.6868961 221.593996,21.6868961 L241.285904,21.6868961 C242.050638,21.6868961 242.815372,21.1165295 242.815372,20.1659184 C242.815372,19.2153073 242.241821,18.6449406 241.285904,18.6449406 Z" id="Shape"></path>
                        <path d="M213.181919,18.6449406 L206.872861,18.6449406 C206.108127,18.6449406 205.343393,19.2153073 205.343393,20.1659184 C205.343393,21.1165295 205.916944,21.6868961 206.872861,21.6868961 L213.181919,21.6868961 C213.946653,21.6868961 214.711388,21.1165295 214.711388,20.1659184 C214.711388,19.2153073 214.137837,18.6449406 213.181919,18.6449406 Z" id="Shape"></path>
                        <path d="M47.999317,199.831418 L19.8953326,199.831418 C19.1305983,199.831418 18.3658641,200.401784 18.3658641,201.352396 C18.3658641,202.112884 18.9394148,202.873373 19.8953326,202.873373 L47.999317,202.873373 C48.7640513,202.873373 49.5287855,202.303007 49.5287855,201.352396 C49.5287855,200.591907 48.7640513,199.831418 47.999317,199.831418 Z" id="Shape"></path>
                        <path d="M10.5273378,199.831418 L1.54171014,199.831418 C0.776975872,199.831418 0.0122416023,200.401784 0.0122416023,201.352396 C0.0122416023,202.112884 0.585792304,202.873373 1.54171014,202.873373 L10.5273378,202.873373 C11.2920721,202.873373 12.0568063,202.303007 12.0568063,201.352396 C12.0568063,200.591907 11.2920721,199.831418 10.5273378,199.831418 Z" id="Shape"></path>
                        <path d="M1.54171014,193.17714 L21.2336176,193.17714 C21.9983518,193.17714 22.7630861,192.606773 22.7630861,191.656162 C22.7630861,190.705551 22.1895354,190.135184 21.2336176,190.135184 L1.54171014,190.135184 C0.776975872,190.135184 0.0122416023,190.705551 0.0122416023,191.656162 C0.0122416023,192.606773 0.585792304,193.17714 1.54171014,193.17714 Z" id="Shape"></path>
                        <path d="M35.9547523,193.17714 C36.7194865,193.17714 37.4842208,192.606773 37.4842208,191.656162 C37.4842208,190.705551 36.9106701,190.135184 35.9547523,190.135184 L29.6456945,190.135184 C28.8809603,190.135184 28.116226,190.705551 28.116226,191.656162 C28.116226,192.606773 28.6897767,193.17714 29.6456945,193.17714 L35.9547523,193.17714 Z" id="Shape"></path>
                        <path d="M63.2940024,45.8324183 C61.7645338,44.5015627 60.808616,42.6003405 60.808616,40.6991183 C60.808616,39.9386294 60.2350653,39.1781405 59.2791475,39.1781405 C58.5144132,39.1781405 57.7496789,39.7485072 57.7496789,40.6991183 C57.7496789,43.3608294 58.8967803,46.0225405 61.1909831,47.9237627 C63.1028188,49.4447405 65.3970216,50.3953516 67.882408,50.775596 L67.882408,55.7187738 C67.882408,56.4792627 68.4559587,57.2397516 69.4118765,57.2397516 C70.1766108,57.2397516 70.9413451,56.6693849 70.9413451,55.7187738 L70.9413451,50.775596 C73.4267315,50.5854738 75.7209343,49.6348627 77.6327699,47.9237627 C79.9269727,46.0225405 81.0740741,43.3608294 81.0740741,40.6991183 C81.0740741,38.0374072 79.9269727,35.3756961 77.6327699,33.4744739 C75.7209343,31.9534961 73.4267315,31.002885 70.9413451,30.6226405 L70.9413451,16.1733517 C72.6619972,16.3634739 74.3826493,17.1239628 75.7209343,18.2646961 C77.2504028,19.5955517 78.2063206,21.4967739 78.2063206,23.3979961 C78.2063206,24.158485 78.7798713,24.9189739 79.7357892,24.9189739 C80.5005234,24.9189739 81.2652577,24.3486072 81.2652577,23.3979961 C81.2652577,20.736285 80.1181563,18.0745739 77.8239535,16.1733517 C75.9121178,14.6523739 73.617915,13.7017628 71.1325286,13.3215184 L71.1325286,8.56846285 C71.1325286,7.80797396 70.5589779,7.04748508 69.6030601,7.04748508 C68.8383258,7.04748508 68.0735916,7.61785174 68.0735916,8.56846285 L68.0735916,13.5116406 C65.5882052,13.7017628 63.2940024,14.6523739 61.3821667,16.3634739 C59.0879639,18.2646961 57.9408625,20.9264072 57.9408625,23.5881184 C57.9408625,26.2498295 59.0879639,28.9115406 61.3821667,30.8127628 C63.2940024,32.3337405 65.5882052,33.2843517 68.0735916,33.6645961 L68.0735916,48.1138849 C66.1617559,47.5435183 64.4411038,46.9731516 63.2940024,45.8324183 Z M75.5297507,35.7559405 C77.0592192,37.0867961 78.0151371,38.9880183 78.0151371,40.8892405 C78.0151371,42.7904627 77.0592192,44.5015627 75.5297507,46.0225405 C74.1914657,47.1632738 72.6619972,47.9237627 70.7501615,48.1138849 L70.7501615,33.8547183 C72.6619972,33.8547183 74.3826493,34.6152072 75.5297507,35.7559405 Z M63.2940024,28.3411739 C61.7645338,27.0103183 60.808616,25.1090961 60.808616,23.2078739 C60.808616,21.3066517 61.7645338,19.5955517 63.2940024,18.0745739 C64.6322874,16.9338406 66.1617559,16.1733517 68.0735916,15.9832295 L68.0735916,30.2423961 C66.1617559,30.2423961 64.4411038,29.4819072 63.2940024,28.3411739 Z" id="Shape"></path>
                        <path d="M69.4118765,63.7039071 C87.0007647,63.7039071 101.339532,49.4447405 101.339532,31.9534961 C101.339532,14.4622517 87.0007647,0.2030851 69.4118765,0.2030851 C51.8229883,0.2030851 37.4842208,14.4622517 37.4842208,31.9534961 C37.4842208,49.4447405 51.8229883,63.7039071 69.4118765,63.7039071 Z M69.4118765,3.24504065 C85.4712962,3.24504065 98.4717788,16.1733517 98.4717788,32.1436183 C98.4717788,48.1138849 85.4712962,61.042196 69.4118765,61.042196 C53.3524569,61.042196 40.3519743,48.1138849 40.3519743,32.1436183 C40.3519743,16.1733517 53.3524569,3.24504065 69.4118765,3.24504065 Z" id="Shape"></path>
                        <path d="M161.179989,170.362473 L153.341463,177.967362 C150.856076,180.248829 149.517791,183.671029 149.517791,186.903107 L149.517791,197.169707 C149.517791,197.930196 150.091342,198.690684 151.04726,198.690684 C152.003178,198.690684 152.576728,198.120318 152.576728,197.169707 L152.576728,186.903107 C152.576728,184.241396 153.72383,181.769807 155.444482,179.868584 L163.283008,172.263696 C163.856559,171.693329 163.856559,170.742718 163.283008,170.172351 C162.709457,169.792107 161.75354,169.792107 161.179989,170.362473 Z" id="Shape"></path>
                        <path d="M219.299793,94.3135848 C217.005591,92.2222403 213.75547,91.6518737 209.931799,92.2222403 C204.769842,92.9827292 201.519722,98.1160292 201.519722,105.340674 L201.519722,138.802185 C201.519722,139.562674 202.093272,140.323162 203.04919,140.323162 C203.813924,140.323162 204.578659,139.752796 204.578659,138.802185 L204.578659,105.150551 C204.578659,99.4468848 206.872861,95.4543181 210.505349,94.8839514 C213.373103,94.503707 215.667306,94.8839514 217.387958,96.4049292 C219.490977,98.1160292 220.446895,101.157985 220.446895,105.150551 L220.446895,158.765018 C220.446895,162.947707 218.726243,166.750151 215.858489,169.792107 L191.76936,193.747507 C189.66634,195.838851 188.519239,198.690684 188.519239,201.73264 L188.519239,204.774595 L144.547019,204.774595 L144.547019,186.903107 C144.547019,182.150051 146.458854,177.587118 149.900158,174.35504 L182.018998,143.365118 C185.269118,140.13304 190.622258,140.323162 193.872379,143.55524 C195.401847,145.076218 196.357765,147.167562 196.166582,149.449029 C196.166582,151.730496 195.210664,153.82184 193.681195,155.342818 L178.38651,170.172351 C177.812959,170.742718 177.812959,171.693329 178.38651,172.263696 C178.960061,172.834062 179.915978,172.834062 180.489529,172.263696 L195.784215,157.434162 C197.887234,155.342818 199.225519,152.490985 199.225519,149.639151 C199.225519,146.597196 198.078417,143.745362 195.975398,141.654018 C193.872379,139.562674 191.004625,138.231818 188.136872,138.231818 C185.077935,138.231818 182.210181,139.372551 180.107162,141.463896 L147.988323,172.453818 C143.973468,176.256262 141.870449,181.579684 141.870449,187.093229 L141.870449,205.15484 C137.66441,205.535084 134.605473,209.147407 134.605473,213.330095 L134.605473,227.779384 C134.605473,228.539873 135.179024,229.300362 136.134942,229.300362 C136.899676,229.300362 137.66441,228.729995 137.66441,227.779384 L137.66441,213.330095 C137.66441,210.28814 140.149796,208.006673 143.01755,208.006673 L191.195809,208.006673 C194.254746,208.006673 196.548949,210.478262 196.548949,213.330095 L196.548949,227.779384 C196.548949,228.539873 197.1225,229.300362 198.078417,229.300362 C198.843152,229.300362 199.607886,228.729995 199.607886,227.779384 L199.607886,213.330095 C199.607886,208.957284 196.357765,205.535084 192.151727,205.15484 L192.151727,202.112884 C192.151727,199.831418 193.107645,197.740073 194.637113,196.219096 L218.726243,172.263696 C222.167547,168.841496 224.079383,164.08844 224.079383,159.145262 L224.079383,105.150551 C223.505832,100.397496 222.167547,96.5950514 219.299793,94.3135848 Z" id="Shape"></path>
                        <path d="M186.033853,215.42144 L173.03337,215.42144 C172.268636,215.42144 171.503901,215.991807 171.503901,216.942418 C171.503901,217.893029 172.077452,218.463395 173.03337,218.463395 L186.033853,218.463395 C186.798587,218.463395 187.563321,217.893029 187.563321,216.942418 C187.563321,215.991807 186.798587,215.42144 186.033853,215.42144 Z" id="Shape"></path>
                        <path d="M100.383614,198.690684 C101.148349,198.690684 101.913083,198.120318 101.913083,197.169707 L101.913083,186.903107 C101.913083,183.480907 100.574798,180.248829 98.0894116,177.967362 L90.2508854,170.362473 C89.6773347,169.792107 88.7214168,169.792107 88.1478661,170.362473 C87.5743154,170.93284 87.5743154,171.883451 88.1478661,172.453818 L95.9863924,180.058707 C97.8982281,181.959929 98.8541459,184.431518 98.8541459,187.093229 L98.8541459,197.359829 C99.0453295,198.120318 99.6188802,198.690684 100.383614,198.690684 Z" id="Shape"></path>
                        <path d="M109.751609,204.964718 L109.751609,186.903107 C109.751609,181.389562 107.457406,176.06614 103.633735,172.263696 L71.5148958,141.463896 C69.4118765,139.372551 66.544123,138.231818 63.485186,138.231818 C60.4262489,138.231818 57.7496789,139.562674 55.6466597,141.654018 C53.5436405,143.745362 52.3965391,146.597196 52.3965391,149.639151 C52.3965391,152.681107 53.734824,155.342818 55.8378433,157.434162 L71.1325286,172.263696 C71.7060794,172.834062 72.6619972,172.834062 73.2355479,172.263696 C73.8090986,171.693329 73.8090986,170.742718 73.2355479,170.172351 L57.9408625,155.342818 C56.411394,153.82184 55.4554761,151.730496 55.4554761,149.449029 C55.4554761,147.167562 56.2202104,145.076218 57.7496789,143.55524 C59.2791475,142.034262 61.3821667,141.083651 63.6763695,141.083651 C65.9705723,141.083651 68.0735916,141.84414 69.6030601,143.365118 L101.721899,174.35504 C105.163204,177.587118 107.075039,182.150051 107.075039,186.903107 L107.075039,204.774595 L63.1028188,204.774595 L63.1028188,201.73264 C63.1028188,198.690684 61.9557174,195.838851 59.8526982,193.747507 L35.3812016,169.792107 C32.513448,166.940273 30.7927959,162.947707 30.7927959,158.765018 L30.7927959,105.150551 C30.7927959,101.157985 31.9398973,98.1160292 33.851733,96.4049292 C35.5723851,94.8839514 38.0577715,94.503707 40.7343414,94.8839514 C44.3668292,95.4543181 46.661032,99.4468848 46.661032,105.150551 L46.661032,138.612062 C46.661032,139.372551 47.2345827,140.13304 48.1905006,140.13304 C48.9552348,140.13304 49.7199691,139.562674 49.7199691,138.612062 L49.7199691,105.150551 C49.7199691,98.1160292 46.4698485,92.792607 41.3078921,92.0321181 C37.6754044,91.4617514 34.4252837,92.2222403 31.9398973,94.1234625 C29.2633274,96.4049292 27.7338589,100.207374 27.7338589,105.150551 L27.7338589,158.765018 C27.7338589,163.708196 29.6456945,168.271129 33.0869988,171.883451 L57.1761282,195.838851 C58.7055968,197.359829 59.6615146,199.451173 59.6615146,201.73264 L59.6615146,204.774595 C55.4554761,205.15484 52.2053555,208.57704 52.2053555,212.949851 L52.2053555,227.39914 C52.2053555,228.159629 52.7789062,228.920118 53.734824,228.920118 C54.4995583,228.920118 55.2642926,228.349751 55.2642926,227.39914 L55.2642926,212.949851 C55.2642926,209.907895 57.7496789,207.626429 60.6174324,207.626429 L108.795691,207.626429 C111.854628,207.626429 114.148831,210.098018 114.148831,212.949851 L114.148831,227.39914 C114.148831,228.159629 114.722382,228.920118 115.6783,228.920118 C116.443034,228.920118 117.207768,228.349751 117.207768,227.39914 L117.207768,212.949851 C117.016585,208.767162 113.766464,205.344962 109.751609,204.964718 Z" id="Shape"></path>
                        <path d="M78.2063206,215.42144 L65.2058381,215.42144 C64.4411038,215.42144 63.6763695,215.991807 63.6763695,216.942418 C63.6763695,217.893029 64.2499202,218.463395 65.2058381,218.463395 L78.2063206,218.463395 C78.9710549,218.463395 79.7357892,217.893029 79.7357892,216.942418 C79.7357892,215.991807 78.9710549,215.42144 78.2063206,215.42144 Z" id="Shape"></path>
                    </g>
                </g>
            </g>
        </g>
    </g>
</svg>