<?xml version="1.0" encoding="UTF-8"?>
<svg width="20px" height="15px" viewBox="0 0 20 15" version="1.1" xmlns="http://www.w3.org/2000/svg" xmlns:xlink="http://www.w3.org/1999/xlink">
    <!-- Generator: Sketch 47.1 (45422) - http://www.bohemiancoding.com/sketch -->
    <title>Group</title>
    <desc>Created with Sketch.</desc>
    <defs></defs>
    <g id="Pages" stroke="none" stroke-width="1" fill="none" fill-rule="evenodd">
        <g id="Quote-Full-Page" transform="translate(-200.000000, -3540.000000)" fill-rule="nonzero" fill="#000000">
            <g id="Group" transform="translate(200.000000, 3540.000000)">
                <path d="M19.2499811,0.00503981138 C19.2312723,0.00873493394 19.2127367,0.0132034864 19.1944257,0.0184331071 L3.70139309,3.21943079 L0.666675372,3.21943079 C0.643542974,3.21826751 0.620363428,3.21826751 0.59723103,3.21943079 C0.256413937,3.25387824 -0.00182299465,3.53185707 9.69387825e-06,3.86230899 L9.69387825e-06,9.00533456 C4.65057605e-05,9.36037168 0.298501334,9.64817726 0.666675372,9.64821276 L3.73611526,9.64821276 L5.7777789,10.0701016 L5.7777789,12.648311 C5.7791789,12.9343704 6.00292101,13.2055257 6.29166703,13.2710993 L13.8472114,14.9854411 C14.2359935,15.0736654 14.6647466,14.7478012 14.6666546,14.3626529 L14.6666546,11.9049831 L19.1944257,12.8425138 C19.3901342,12.8826982 19.5942111,12.8359969 19.7503283,12.7152999 C19.9064455,12.594603 19.9980949,12.4126731 19.99998,12.2197255 L19.99998,0.647918008 C20.0014666,0.462540807 19.9199041,0.285566607 19.7762205,0.162405015 C19.6325369,0.0392434238 19.4407175,-0.0181177209 19.2499811,0.00503981138 Z M18.6666487,1.43812246 L18.6666487,11.4228244 L4.44444755,8.48299603 L4.44444755,4.37795088 L18.6666487,1.43812246 Z M1.33334105,4.50518719 L3.11111619,4.50518719 L3.11111619,8.36245637 L1.33334105,8.36245637 L1.33334105,4.50518719 Z M7.11111026,10.3446641 L13.3333232,11.6304205 L13.3333232,13.5523585 L7.11111026,12.1393658 L7.11111026,10.3446641 Z" id="Shape"></path>
            </g>
        </g>
    </g>
</svg>