<?xml version="1.0" encoding="UTF-8"?>
<svg width="25px" height="25px" viewBox="0 0 25 25" version="1.1" xmlns="http://www.w3.org/2000/svg" xmlns:xlink="http://www.w3.org/1999/xlink">
    <!-- Generator: Sketch 47.1 (45422) - http://www.bohemiancoding.com/sketch -->
    <title>Group</title>
    <desc>Created with Sketch.</desc>
    <defs></defs>
    <g id="Pages" stroke="none" stroke-width="1" fill="none" fill-rule="evenodd">
        <g id="Quote-Full-Page" transform="translate(-200.000000, -3202.000000)" fill-rule="nonzero" fill="#000000">
            <g id="Group" transform="translate(200.000000, 3202.000000)">
                <path d="M24.7487389,23.5504627 L18.665061,17.5245807 C18.6488051,17.5078211 18.6269094,17.5025632 18.6093265,17.488104 C20.2621177,15.6304222 21.2736311,13.2009438 21.2736311,10.5361744 C21.2736311,4.72652348 16.5020345,0 10.6373132,0 C4.77192842,0 0,4.72652348 0,10.5361744 C0,16.3461538 4.77226018,21.0726773 10.6373132,21.0726773 C13.2070683,21.0726773 15.5661606,20.1650323 17.4063919,18.6566723 C17.4246383,18.6780325 17.4322686,18.7046506 17.453169,18.725025 L23.5361834,24.7512356 C23.7040502,24.9168595 23.9230069,25 24.142627,25 C24.3615837,25 24.5812039,24.9171881 24.7484072,24.7512356 C25.083809,24.4196593 25.083809,23.8823676 24.7487389,23.5504627 Z M10.6376449,19.3747042 C5.71709139,19.3747042 1.71482884,15.409919 1.71482884,10.5361744 C1.71482884,5.66308691 5.71709139,1.69797308 10.6376449,1.69797308 C15.5568715,1.69797308 19.5601293,5.66275829 19.5601293,10.5361744 C19.5597976,15.4095904 15.5568715,19.3747042 10.6376449,19.3747042 Z" id="Shape"></path>
                <rect id="Rectangle-path" x="6.08108108" y="8.78378378" width="2.02702703" height="5.40540541"></rect>
                <rect id="Rectangle-path" x="9.45945946" y="10.1351351" width="2.02702703" height="4.05405405"></rect>
                <rect id="Rectangle-path" x="12.8378378" y="7.43243243" width="2.02702703" height="6.75675676"></rect>
            </g>
        </g>
    </g>
</svg>