<?xml version="1.0" encoding="UTF-8"?>
<svg width="215px" height="230px" viewBox="0 0 215 230" version="1.1" xmlns="http://www.w3.org/2000/svg" xmlns:xlink="http://www.w3.org/1999/xlink">
    <!-- Generator: Sketch 47.1 (45422) - http://www.bohemiancoding.com/sketch -->
    <title>Currency</title>
    <desc>Created with Sketch.</desc>
    <defs></defs>
    <g id="Welcome" stroke="none" stroke-width="1" fill="none" fill-rule="evenodd">
        <g id="What-We-Offer" transform="translate(-853.000000, -1489.000000)" fill-rule="nonzero" fill="#96CCFF">
            <g id="Group-10" transform="translate(193.000000, 1489.000000)">
                <g id="Currency" transform="translate(660.000000, 0.000000)">
                    <g id="Group">
                        <path d="M162.819418,147.885224 C168.418097,147.885224 172.933162,143.368438 172.933162,137.767623 C172.933162,132.166808 168.418097,127.650022 162.819418,127.650022 C157.220738,127.650022 152.705674,132.166808 152.705674,137.767623 C152.705674,143.368438 157.220738,147.885224 162.819418,147.885224 Z M162.819418,130.360094 C166.973277,130.360094 170.224123,133.61218 170.224123,137.767623 C170.224123,141.923066 166.973277,145.175152 162.819418,145.175152 C158.665559,145.175152 155.414712,141.923066 155.414712,137.767623 C155.414712,133.61218 158.665559,130.360094 162.819418,130.360094 Z" id="Shape"></path>
                        <path d="M60.9595676,147.885224 C66.5582473,147.885224 71.0733116,143.368438 71.0733116,137.767623 C71.0733116,132.166808 66.5582473,127.650022 60.9595676,127.650022 C55.3608879,127.650022 50.8458236,132.166808 50.8458236,137.767623 C50.8458236,143.368438 55.3608879,147.885224 60.9595676,147.885224 Z M60.9595676,130.360094 C65.1134267,130.360094 68.364273,133.61218 68.364273,137.767623 C68.364273,141.923066 65.1134267,145.175152 60.9595676,145.175152 C56.8057084,145.175152 53.5548621,141.923066 53.5548621,137.767623 C53.5548621,133.61218 56.8057084,130.360094 60.9595676,130.360094 Z" id="Shape"></path>
                        <path d="M4.9727705,142.826424 C4.25036021,142.826424 3.52794993,143.368438 3.52794993,144.271795 L3.52794993,168.301098 C3.52794993,169.023784 4.06975764,169.74647 4.9727705,169.74647 C5.69518078,169.74647 6.41759107,169.204455 6.41759107,168.301098 L6.41759107,144.271795 C6.2369885,143.549109 5.69518078,142.826424 4.9727705,142.826424 Z" id="Shape"></path>
                        <path d="M4.9727705,174.985942 C4.25036021,174.985942 3.52794993,175.527956 3.52794993,176.431313 L3.52794993,184.200186 C3.52794993,184.922872 4.06975764,185.645557 4.9727705,185.645557 C5.69518078,185.645557 6.41759107,185.103543 6.41759107,184.200186 L6.41759107,176.250642 C6.2369885,175.527956 5.69518078,174.985942 4.9727705,174.985942 Z" id="Shape"></path>
                        <path d="M121.822634,50.322641 L124.892878,53.3940556 C125.07348,53.5747271 125.434685,53.7553985 125.795891,53.7553985 C126.157096,53.7553985 126.518301,53.5747271 126.698903,53.3940556 C127.240711,52.8520413 127.240711,51.948684 126.698903,51.4066697 L123.809262,48.335255 C123.267455,47.7932407 122.364442,47.7932407 121.822634,48.335255 C121.280826,48.8772694 121.280826,49.7806266 121.822634,50.322641 Z" id="Shape"></path>
                        <path d="M135.187224,63.6923283 C135.367827,63.8729998 135.729032,64.0536712 136.090237,64.0536712 C136.451442,64.0536712 136.812647,63.8729998 136.99325,63.6923283 C137.535058,63.150314 137.535058,62.2469567 136.99325,61.7049424 L133.923006,58.6335277 C133.381199,58.0915134 132.478186,58.0915134 131.936378,58.6335277 C131.39457,59.1755421 131.39457,60.0788993 131.936378,60.6209137 L135.187224,63.6923283 Z" id="Shape"></path>
                        <path d="M125.07348,58.6335277 L122.003237,61.7049424 C121.461429,62.2469567 121.461429,63.150314 122.003237,63.6923283 C122.183839,63.8729998 122.545044,64.0536712 122.906249,64.0536712 C123.267455,64.0536712 123.62866,63.8729998 123.809262,63.6923283 L126.879506,60.6209137 C127.421314,60.0788993 127.421314,59.1755421 126.879506,58.6335277 C126.337698,58.0915134 125.615288,58.0915134 125.07348,58.6335277 Z" id="Shape"></path>
                        <path d="M133.019993,53.93607 C133.381199,53.93607 133.742404,53.7553985 133.923006,53.5747271 L136.99325,50.5033124 C137.535058,49.9612981 137.535058,49.0579408 136.99325,48.5159265 C136.451442,47.9739121 135.548429,47.9739121 135.006622,48.5159265 L132.116981,51.5873411 C131.575173,52.1293555 131.575173,53.0327127 132.116981,53.5747271 C132.297583,53.7553985 132.658788,53.93607 133.019993,53.93607 Z" id="Shape"></path>
                        <path d="M201.287765,203.35136 C200.745958,202.809345 199.842945,202.809345 199.301137,203.35136 C198.759329,203.893374 198.759329,204.796731 199.301137,205.338746 L202.371381,208.41016 C202.551983,208.590832 202.913189,208.771503 203.274394,208.771503 C203.635599,208.771503 203.996804,208.590832 204.177407,208.41016 C204.719214,207.868146 204.719214,206.964789 204.177407,206.422774 L201.287765,203.35136 Z" id="Shape"></path>
                        <path d="M211.401509,213.468961 C210.859702,212.926946 209.956689,212.926946 209.414881,213.468961 C208.873073,214.010975 208.873073,214.914332 209.414881,215.456347 L212.485125,218.527761 C212.665727,218.708433 213.026933,218.889104 213.388138,218.889104 C213.749343,218.889104 214.110548,218.708433 214.291151,218.527761 C214.832958,217.985747 214.832958,217.08239 214.291151,216.540375 L211.401509,213.468961 Z" id="Shape"></path>
                        <path d="M202.371381,213.468961 L199.301137,216.540375 C198.759329,217.08239 198.759329,217.985747 199.301137,218.527761 C199.48174,218.708433 199.842945,218.889104 200.20415,218.889104 C200.565355,218.889104 200.92656,218.708433 201.107163,218.527761 L204.177407,215.456347 C204.719214,214.914332 204.719214,214.010975 204.177407,213.468961 C203.816201,212.926946 202.913189,212.926946 202.371381,213.468961 Z" id="Shape"></path>
                        <path d="M212.665727,203.35136 L209.595484,206.422774 C209.053676,206.964789 209.053676,207.868146 209.595484,208.41016 C209.776086,208.590832 210.137291,208.771503 210.498497,208.771503 C210.859702,208.771503 211.220907,208.590832 211.401509,208.41016 L214.471753,205.338746 C215.013561,204.796731 215.013561,203.893374 214.471753,203.35136 C213.929945,202.809345 213.026933,202.809345 212.665727,203.35136 Z" id="Shape"></path>
                        <path d="M29.3541176,172.456542 C28.8123099,171.914527 27.909297,171.914527 27.3674893,172.456542 C26.8256816,172.998556 26.8256816,173.901913 27.3674893,174.443927 L30.437733,177.515342 C30.6183356,177.696014 30.9795407,177.876685 31.3407459,177.876685 C31.701951,177.876685 32.0631562,177.696014 32.2437587,177.515342 C32.7855665,176.973328 32.7855665,176.069971 32.2437587,175.527956 L29.3541176,172.456542 Z" id="Shape"></path>
                        <path d="M41.6350924,188.174958 C41.9962976,188.174958 42.3575027,187.994286 42.5381053,187.813615 C43.079913,187.2716 43.079913,186.368243 42.5381053,185.826229 L39.4678616,182.754814 C38.9260539,182.2128 38.023041,182.2128 37.4812333,182.754814 C36.9394256,183.296829 36.9394256,184.200186 37.4812333,184.7422 L40.551477,187.813615 C40.9126822,187.994286 41.2738873,188.174958 41.6350924,188.174958 Z" id="Shape"></path>
                        <path d="M30.437733,182.754814 L27.3674893,185.826229 C26.8256816,186.368243 26.8256816,187.2716 27.3674893,187.813615 C27.5480919,187.994286 27.909297,188.174958 28.2705022,188.174958 C28.6317073,188.174958 28.9929125,187.994286 29.173515,187.813615 L32.2437587,184.7422 C32.7855665,184.200186 32.7855665,183.296829 32.2437587,182.754814 C31.8825536,182.2128 30.9795407,182.2128 30.437733,182.754814 Z" id="Shape"></path>
                        <path d="M38.5648487,178.057356 C38.9260539,178.057356 39.287259,177.876685 39.4678616,177.696014 L42.5381053,174.443927 C43.079913,173.901913 43.079913,172.998556 42.5381053,172.456542 C41.9962976,171.914527 41.0932847,171.914527 40.551477,172.456542 L37.4812333,175.527956 C36.9394256,176.069971 36.9394256,176.973328 37.4812333,177.515342 C37.8424385,177.876685 38.2036436,178.057356 38.5648487,178.057356 Z" id="Shape"></path>
                        <path d="M7.32060392,54.6587558 C3.52794993,54.6587558 0.277103647,57.7301705 0.277103647,61.7049424 C0.277103647,65.4990428 3.34734736,68.7511289 7.32060392,68.7511289 C11.1132579,68.7511289 14.3641042,65.6797143 14.3641042,61.7049424 C14.3641042,57.7301705 11.1132579,54.6587558 7.32060392,54.6587558 Z M7.32060392,66.0410572 C4.9727705,66.0410572 2.98614221,64.0536712 2.98614221,61.7049424 C2.98614221,59.3562135 4.9727705,57.3688276 7.32060392,57.3688276 C9.66843735,57.3688276 11.6550656,59.3562135 11.6550656,61.7049424 C11.6550656,64.0536712 9.66843735,66.0410572 7.32060392,66.0410572 Z" id="Shape"></path>
                        <path d="M150.719045,21.7765518 C154.511699,21.7765518 157.762546,18.7051371 157.762546,14.7303652 C157.762546,10.9362648 154.692302,7.68417867 150.719045,7.68417867 C146.926391,7.68417867 143.675545,10.7555933 143.675545,14.7303652 C143.675545,18.7051371 146.926391,21.7765518 150.719045,21.7765518 Z M150.719045,10.5749219 C153.066879,10.5749219 155.053507,12.5623078 155.053507,14.9110367 C155.053507,17.2597655 153.066879,19.2471515 150.719045,19.2471515 C148.371212,19.2471515 146.384584,17.2597655 146.384584,14.9110367 C146.384584,12.3816364 148.371212,10.5749219 150.719045,10.5749219 Z" id="Shape"></path>
                        <path d="M124.35107,209.494189 C120.558416,209.494189 117.30757,212.565604 117.30757,216.540375 C117.30757,220.334476 120.377813,223.586562 124.35107,223.586562 C128.143724,223.586562 131.39457,220.515147 131.39457,216.540375 C131.39457,212.746275 128.324327,209.494189 124.35107,209.494189 Z M124.35107,220.87649 C122.003237,220.87649 120.016608,218.889104 120.016608,216.540375 C120.016608,214.191647 122.003237,212.204261 124.35107,212.204261 C126.698903,212.204261 128.685532,214.191647 128.685532,216.540375 C128.685532,218.889104 126.698903,220.87649 124.35107,220.87649 Z" id="Shape"></path>
                        <path d="M72.5181321,11.6589506 L102.136954,11.6589506 C102.859364,11.6589506 103.581774,11.1169362 103.581774,10.213579 C103.581774,9.31022172 102.859364,8.94887882 102.136954,8.94887882 L72.5181321,8.94887882 C71.7957218,8.94887882 71.0733116,9.49089317 71.0733116,10.3942504 C71.0733116,11.2976077 71.7957218,11.6589506 72.5181321,11.6589506 Z" id="Shape"></path>
                        <path d="M111.889493,11.6589506 L121.461429,11.6589506 C122.183839,11.6589506 122.906249,11.1169362 122.906249,10.213579 C122.906249,9.31022172 122.364442,8.76820737 121.461429,8.76820737 L111.889493,8.76820737 C111.167082,8.76820737 110.444672,9.31022172 110.444672,10.213579 C110.444672,11.1169362 111.167082,11.6589506 111.889493,11.6589506 Z" id="Shape"></path>
                        <path d="M122.906249,20.5118517 C122.906249,19.7891658 122.364442,19.06648 121.461429,19.06648 L100.872736,19.06648 C100.150326,19.06648 99.4279152,19.6084944 99.4279152,20.5118517 C99.4279152,21.4152089 99.9697229,21.9572233 100.872736,21.9572233 L121.461429,21.9572233 C122.183839,21.7765518 122.906249,21.2345375 122.906249,20.5118517 Z" id="Shape"></path>
                        <path d="M85.3409147,19.06648 C84.6185044,19.06648 83.8960941,19.6084944 83.8960941,20.5118517 C83.8960941,21.4152089 84.4379018,21.9572233 85.3409147,21.9572233 L92.0232098,21.9572233 C92.7456201,21.9572233 93.4680304,21.4152089 93.4680304,20.5118517 C93.4680304,19.6084944 92.7456201,19.06648 92.0232098,19.06648 L85.3409147,19.06648 Z" id="Shape"></path>
                        <path d="M88.9529661,218.166418 L59.3341444,218.166418 C58.6117341,218.166418 57.8893239,218.708433 57.8893239,219.61179 C57.8893239,220.334476 58.4311316,221.057162 59.3341444,221.057162 L88.9529661,221.057162 C89.6753764,221.057162 90.3977867,220.515147 90.3977867,219.61179 C90.3977867,218.708433 89.6753764,218.166418 88.9529661,218.166418 Z" id="Shape"></path>
                        <path d="M49.5816056,218.166418 L40.0096693,218.166418 C39.287259,218.166418 38.5648487,218.708433 38.5648487,219.61179 C38.5648487,220.334476 39.1066565,221.057162 40.0096693,221.057162 L49.5816056,221.057162 C50.3040159,221.057162 51.0264262,220.515147 51.0264262,219.61179 C51.0264262,218.708433 50.4846184,218.166418 49.5816056,218.166418 Z" id="Shape"></path>
                        <path d="M38.7454513,209.313517 C38.7454513,210.036203 39.287259,210.758889 40.1902719,210.758889 L60.778965,210.758889 C61.5013753,210.758889 62.2237856,210.216875 62.2237856,209.313517 C62.2237856,208.590832 61.6819779,207.868146 60.778965,207.868146 L40.0096693,207.868146 C39.287259,208.048817 38.7454513,208.590832 38.7454513,209.313517 Z" id="Shape"></path>
                        <path d="M76.3107861,210.758889 C77.0331964,210.758889 77.7556067,210.216875 77.7556067,209.313517 C77.7556067,208.590832 77.213799,207.868146 76.3107861,207.868146 L69.628491,207.868146 C68.9060807,207.868146 68.1836704,208.41016 68.1836704,209.313517 C68.1836704,210.036203 68.7254781,210.758889 69.628491,210.758889 L76.3107861,210.758889 Z" id="Shape"></path>
                        <path d="M187.56197,43.8184688 C189.006791,45.0831689 189.729201,46.5285405 189.729201,48.335255 C189.729201,49.0579408 190.271009,49.7806266 191.174021,49.7806266 C191.896432,49.7806266 192.618842,49.2386123 192.618842,48.335255 C192.618842,45.8058547 191.535227,43.6377973 189.548598,41.8310828 C187.923175,40.3857112 185.936547,39.6630254 183.769316,39.3016825 L183.769316,34.9655677 C183.769316,34.2428819 183.227508,33.5201961 182.324495,33.5201961 C181.602085,33.5201961 180.879675,34.0622104 180.879675,34.9655677 L180.879675,39.3016825 C178.712444,39.482354 176.545213,40.3857112 175.100393,41.8310828 C173.113764,43.6377973 172.030149,45.8058547 172.030149,48.335255 C172.030149,50.8646553 173.113764,53.0327127 175.100393,54.8394272 C176.725816,56.2847988 178.712444,57.0074847 180.879675,57.3688276 L180.879675,70.1965005 C179.254252,70.0158291 177.990034,69.2931433 176.725816,68.389786 C175.280995,67.1250859 174.558585,65.6797143 174.558585,63.8729998 C174.558585,63.150314 174.016777,62.4276282 173.113764,62.4276282 C172.391354,62.4276282 171.668944,62.9696425 171.668944,63.8729998 C171.668944,66.4024001 172.752559,68.5704575 174.739187,70.377172 C176.364611,71.8225436 178.351239,72.5452294 180.51847,72.9065723 L180.51847,77.2426871 C180.51847,77.9653729 181.060277,78.6880587 181.96329,78.6880587 C182.685701,78.6880587 183.408111,78.1460444 183.408111,77.2426871 L183.408111,72.9065723 C185.575342,72.7259008 187.742573,71.8225436 189.187393,70.377172 C191.174021,68.5704575 192.257637,66.4024001 192.257637,63.8729998 C192.257637,61.3435995 191.174021,59.1755421 189.187393,57.3688276 C187.56197,55.9234559 185.575342,55.2007701 183.408111,54.8394272 L183.408111,42.0117543 C185.033534,42.1924257 186.478355,42.9151115 187.56197,43.8184688 Z M176.725816,52.6713698 C175.280995,51.4066697 174.558585,49.9612981 174.558585,48.1545836 C174.558585,46.3478691 175.280995,44.9024975 176.725816,43.6377973 C177.809431,42.7344401 179.254252,42.0117543 180.879675,41.8310828 L180.879675,54.2974129 C179.254252,54.2974129 177.809431,53.7553985 176.725816,52.6713698 Z M187.56197,59.3562135 C189.006791,60.6209137 189.729201,62.0662853 189.729201,63.8729998 C189.729201,65.4990428 189.006791,67.1250859 187.56197,68.389786 C186.478355,69.2931433 185.033534,70.0158291 183.408111,70.1965005 L183.408111,57.7301705 C185.033534,57.7301705 186.478355,58.2721848 187.56197,59.3562135 Z" id="Shape"></path>
                        <path d="M102.52844,127.226265 L110.128023,127.226265 C111.872189,127.226265 113.367189,128.48768 113.990106,130.12752 L102.52844,130.12752 L102.52844,133.281058 L113.990106,133.281058 C113.367189,134.920898 111.872189,136.182313 110.128023,136.182313 L100.908856,136.182313 L115.485106,151.823862 L117.603023,149.553314 L108.134689,139.20971 L110.377189,139.20971 C113.740939,139.083568 116.481773,136.560738 117.104689,133.281058 L121.714273,133.281058 L121.714273,130.12752 L116.980106,130.12752 C116.730939,128.992246 116.357189,128.109256 115.734273,127.226265 L121.465106,127.226265 L121.465106,124.072727 L102.52844,124.072727 L102.52844,127.226265 Z" id="Shape"></path>
                        <path d="M14.1835016,27.7387097 L8.58482192,33.3395246 C8.04301421,33.881539 8.04301421,34.7848962 8.58482192,35.3269106 L35.1333999,61.8856138 L32.6049639,64.4150141 C32.2437587,64.776357 32.0631562,65.3183714 32.2437587,65.8603857 C32.4243613,66.4024001 32.966169,66.763743 33.5079767,66.763743 L49.5816056,66.763743 C50.3040159,66.763743 51.0264262,66.2217286 51.0264262,65.3183714 L51.0264262,64.4150141 L57.8893239,71.2805292 L52.1100416,77.0620157 C51.7488364,77.4233586 51.5682339,77.9653729 51.7488364,78.5073873 C51.929439,79.0494016 52.4712467,79.4107445 53.0130544,79.4107445 L83.7154915,79.4107445 C84.4379018,79.4107445 85.1603121,78.8687302 85.1603121,77.9653729 L85.1603121,47.2512263 C85.1603121,46.709212 84.799107,46.1671976 84.2572992,45.9865262 C83.7154915,45.8058547 83.1736838,45.8058547 82.8124787,46.3478691 L77.213799,52.1293555 L25.5614636,0.457320647 C25.0196559,-0.0846937045 24.116643,-0.0846937045 23.5748353,0.457320647 L6.05638592,17.9824513 C5.51457821,18.5244657 5.51457821,19.4278229 6.05638592,19.9698373 L14.1835016,27.7387097 Z M48.3173876,64.0536712 L36.758823,64.0536712 L37.8424385,62.9696425 C38.3842462,62.4276282 38.3842462,61.5242709 37.8424385,60.9822566 L11.2938605,34.4235533 L16.8925402,28.8227384 L16.8925402,28.8227384 L18.5179633,27.1966953 L45.0665413,53.7553985 C45.608349,54.2974129 46.5113619,54.2974129 47.0531696,53.7553985 L48.3173876,52.4906984 L48.3173876,61.162928 L48.3173876,64.0536712 Z M24.6584508,3.34806385 L76.1301835,54.8394272 C76.3107861,55.0200987 76.6719913,55.2007701 77.0331964,55.2007701 L77.0331964,55.2007701 C77.3944015,55.2007701 77.7556067,55.0200987 77.9362093,54.8394272 L82.270671,50.5033124 L82.270671,76.7006728 L56.2639007,76.7006728 L60.5983624,72.3645579 C60.778965,72.1838865 60.9595676,71.8225436 60.9595676,71.4612007 C60.9595676,71.0998578 60.778965,70.7385149 60.5983624,70.5578434 L51.0264262,60.6209137 L51.0264262,49.2386123 C51.0264262,48.6965979 50.665221,48.1545836 50.1234133,47.9739121 C49.5816056,47.7932407 49.0397979,47.7932407 48.6785927,48.335255 L46.1501567,50.8646553 L19.6015788,24.3059521 C19.0597711,23.7639378 18.1567582,23.7639378 17.6149505,24.3059521 L15.9895273,25.9319952 L9.12662963,19.06648 L24.6584508,3.34806385 Z" id="Shape"></path>
                        <path d="M159.026764,192.14973 L210.137291,192.14973 C210.859702,192.14973 211.582112,191.607715 211.582112,190.704358 L211.582112,84.6502166 C211.582112,83.9275308 211.040304,83.204845 210.137291,83.204845 L200.20415,83.204845 C209.234279,77.2426871 215.013561,66.9444144 215.013561,55.9234559 C215.013561,37.8563109 200.384753,23.2219234 182.324495,23.2219234 C164.264238,23.2219234 149.63543,37.8563109 149.63543,55.9234559 C149.63543,67.1250859 155.23411,77.2426871 164.444841,83.204845 L13.6416939,83.204845 C12.9192836,83.204845 12.1968733,83.7468593 12.1968733,84.6502166 L12.1968733,126.927336 C12.1968733,127.288679 12.3774759,127.650022 12.5580785,127.830693 L34.9527973,150.233953 L56.6251059,171.914527 L76.4913887,191.788387 C76.6719913,191.969058 77.0331964,192.14973 77.3944015,192.14973 L132.839391,192.14973 L132.839391,199.376588 C132.839391,199.918602 133.200596,200.460616 133.742404,200.641288 C134.284211,200.821959 134.826019,200.821959 135.187224,200.279945 L138.438071,197.027859 L170.224123,228.826034 C170.404726,229.006706 170.765931,229.187377 171.127136,229.187377 C171.488341,229.187377 171.849546,229.006706 172.030149,228.826034 L182.866303,217.985747 C183.046906,217.805076 183.227508,217.443733 183.227508,217.08239 C183.227508,216.721047 183.046906,216.359704 182.866303,216.179033 L159.026764,192.14973 Z M152.163866,56.1041274 C152.163866,39.482354 165.709059,26.1126666 182.143893,26.1126666 C198.759329,26.1126666 212.12392,39.6630254 212.12392,56.1041274 C212.12392,67.8477717 205.261022,78.5073873 194.424868,83.3855164 L169.682315,83.3855164 C159.026764,78.5073873 152.163866,67.8477717 152.163866,56.1041274 Z M180.879675,114.280334 C182.505098,115.364363 184.311124,116.26772 186.478355,116.448392 L186.478355,159.267526 C181.060277,159.80954 176.725816,164.145655 176.003405,169.74647 L58.250529,169.74647 L37.3006307,148.788582 L37.3006307,116.448392 C42.7187079,115.906378 47.0531696,111.570263 47.7755799,105.969448 L176.003405,105.969448 C176.364611,109.402205 178.170636,112.292949 180.879675,114.280334 Z M78.1168118,189.439658 L60.9595676,172.27587 L177.267623,172.27587 C177.990034,172.27587 178.712444,171.733856 178.712444,170.830498 C178.712444,165.771698 182.866303,161.796926 187.923175,161.796926 C188.645585,161.796926 189.367996,161.254912 189.367996,160.351554 L189.367996,115.00302 C189.367996,114.280334 188.826188,113.557649 187.923175,113.557649 C182.866303,113.557649 178.712444,109.402205 178.712444,104.343405 C178.712444,103.620719 178.170636,102.898033 177.267623,102.898033 L46.5113619,102.898033 C45.7889516,102.898033 45.0665413,103.440047 45.0665413,104.343405 C45.0665413,104.524076 45.0665413,104.704748 45.0665413,104.885419 L45.0665413,105.246762 C44.5247336,109.94422 40.7320796,113.376977 36.0364127,113.376977 C35.3140025,113.376977 34.5915922,113.918992 34.5915922,114.822349 L34.5915922,145.717167 L15.0865145,126.385322 L15.0865145,86.0955882 L169.501713,86.0955882 L194.966675,86.0955882 L208.873073,86.0955882 L208.873073,189.439658 L156.317725,189.439658 L151.260853,184.380857 L154.511699,181.128771 C154.872905,180.767428 155.053507,180.225414 154.872905,179.6834 C154.692302,179.141385 154.150494,178.780042 153.608687,178.780042 L134.284211,178.780042 C133.561801,178.780042 132.839391,179.322057 132.839391,180.225414 L132.839391,189.439658 L78.1168118,189.439658 L78.1168118,189.439658 Z M171.307739,226.296634 L139.341083,194.317787 C139.160481,194.137116 138.799276,193.956444 138.438071,193.956444 C138.076865,193.956444 137.71566,194.137116 137.535058,194.317787 L135.729032,196.124502 L135.729032,190.704358 L135.729032,181.670785 L150.35784,181.670785 L148.551815,183.4775 C148.371212,183.658171 148.190609,184.019514 148.190609,184.380857 C148.190609,184.7422 148.371212,185.103543 148.551815,185.284215 L180.337867,217.08239 L171.307739,226.296634 Z" id="Shape"></path>
                    </g>
                </g>
            </g>
        </g>
    </g>
</svg>