<?xml version="1.0" encoding="UTF-8"?>
<svg width="241px" height="230px" viewBox="0 0 241 230" version="1.1" xmlns="http://www.w3.org/2000/svg" xmlns:xlink="http://www.w3.org/1999/xlink">
    <!-- Generator: Sketch 47.1 (45422) - http://www.bohemiancoding.com/sketch -->
    <title>Equities</title>
    <desc>Created with Sketch.</desc>
    <defs></defs>
    <g id="Welcome" stroke="none" stroke-width="1" fill="none" fill-rule="evenodd">
        <g id="What-We-Offer" transform="translate(-193.000000, -591.000000)" fill-rule="nonzero" fill="#99CDFF">
            <g id="Equities" transform="translate(193.000000, 591.000000)">
                <g id="Equity">
                    <path d="M42.4150739,134.294314 C41.6610282,134.294314 40.9069824,134.858575 40.9069824,135.799012 L40.9069824,161.190794 C40.9069824,161.943143 41.4725167,162.695492 42.4150739,162.695492 C43.1691197,162.695492 43.9231655,162.13123 43.9231655,161.190794 L43.9231655,135.799012 C43.9231655,135.046663 43.1691197,134.294314 42.4150739,134.294314 Z" id="Shape"></path>
                    <path d="M42.4150739,171.535594 C41.6610282,171.535594 40.9069824,172.099856 40.9069824,173.040292 L40.9069824,182.068481 C40.9069824,182.82083 41.4725167,183.573179 42.4150739,183.573179 C43.1691197,183.573179 43.9231655,183.008917 43.9231655,182.068481 L43.9231655,173.040292 C43.9231655,172.099856 43.1691197,171.535594 42.4150739,171.535594 Z" id="Shape"></path>
                    <path d="M229.229911,61.3164513 C228.475865,61.3164513 227.721819,61.8807131 227.721819,62.8211495 L227.721819,88.2129314 C227.721819,88.9652805 228.287354,89.7176296 229.229911,89.7176296 C229.983956,89.7176296 230.738002,89.1533678 230.738002,88.2129314 L230.738002,62.6330622 C230.549491,61.8807131 229.983956,61.3164513 229.229911,61.3164513 Z" id="Shape"></path>
                    <path d="M229.229911,98.5577315 C228.475865,98.5577315 227.721819,99.1219933 227.721819,100.06243 L227.721819,109.090619 C227.721819,109.842968 228.287354,110.595317 229.229911,110.595317 C229.983956,110.595317 230.738002,110.031055 230.738002,109.090619 L230.738002,100.06243 C230.549491,99.1219933 229.983956,98.5577315 229.229911,98.5577315 Z" id="Shape"></path>
                    <path d="M8.10599191,86.1439714 C4.14725167,86.1439714 0.942557199,89.3414551 0.942557199,93.2912878 C0.942557199,97.2411206 4.14725167,100.438604 8.10599191,100.438604 C12.0647321,100.438604 15.2694266,97.2411206 15.2694266,93.2912878 C15.2694266,89.3414551 12.0647321,86.1439714 8.10599191,86.1439714 Z M8.10599191,97.6172951 C5.65534319,97.6172951 3.77022879,95.7364224 3.77022879,93.2912878 C3.77022879,90.8461533 5.65534319,88.9652805 8.10599191,88.9652805 C10.5566406,88.9652805 12.441755,90.8461533 12.441755,93.2912878 C12.441755,95.7364224 10.3681292,97.6172951 8.10599191,97.6172951 Z" id="Shape"></path>
                    <path d="M227.344796,18.4325528 C227.344796,14.4827201 224.140102,11.2852364 220.181362,11.2852364 C216.222621,11.2852364 213.017927,14.4827201 213.017927,18.4325528 C213.017927,22.3823856 216.222621,25.5798692 220.181362,25.5798692 C224.140102,25.5798692 227.344796,22.3823856 227.344796,18.4325528 Z M220.181362,22.7585601 C217.730713,22.7585601 215.845598,20.8776874 215.845598,18.4325528 C215.845598,15.9874183 217.730713,14.1065455 220.181362,14.1065455 C222.63201,14.1065455 224.517125,15.9874183 224.517125,18.4325528 C224.517125,20.8776874 222.63201,22.7585601 220.181362,22.7585601 Z" id="Shape"></path>
                    <path d="M104.81236,14.1065455 L134.597168,14.1065455 C135.351214,14.1065455 136.105259,13.5422837 136.105259,12.6018473 C136.105259,11.8494983 135.539725,11.0971492 134.597168,11.0971492 L104.81236,11.0971492 C104.058315,11.0971492 103.304269,11.661411 103.304269,12.6018473 C103.304269,13.5422837 103.869803,14.1065455 104.81236,14.1065455 Z" id="Shape"></path>
                    <path d="M144.211251,14.1065455 L153.825335,14.1065455 C154.579381,14.1065455 155.333426,13.5422837 155.333426,12.6018473 C155.333426,11.8494983 154.579381,11.2852364 153.825335,11.2852364 L144.211251,11.2852364 C143.457206,11.2852364 142.70316,11.8494983 142.70316,12.7899346 C142.70316,13.5422837 143.457206,14.1065455 144.211251,14.1065455 Z" id="Shape"></path>
                    <path d="M153.825335,21.4419492 L133.089076,21.4419492 C132.335031,21.4419492 131.580985,22.006211 131.580985,22.9466474 C131.580985,23.8870838 132.146519,24.4513456 133.089076,24.4513456 L153.825335,24.4513456 C154.579381,24.4513456 155.333426,23.8870838 155.333426,22.9466474 C155.333426,22.006211 154.579381,21.4419492 153.825335,21.4419492 Z" id="Shape"></path>
                    <path d="M117.442627,21.4419492 C116.688581,21.4419492 115.934535,22.006211 115.934535,22.9466474 C115.934535,23.8870838 116.50007,24.4513456 117.442627,24.4513456 L124.229039,24.4513456 C124.983085,24.4513456 125.73713,23.8870838 125.73713,22.9466474 C125.73713,22.006211 125.171596,21.4419492 124.229039,21.4419492 L117.442627,21.4419492 L117.442627,21.4419492 Z" id="Shape"></path>
                    <path d="M6.22087751,193.917979 C5.65534319,193.353718 4.71278599,193.353718 4.14725167,193.917979 C3.58171735,194.482241 3.58171735,195.422678 4.14725167,195.986939 L7.16343471,198.996336 C7.35194615,199.184423 7.72896903,199.37251 8.10599191,199.37251 C8.48301479,199.37251 8.86003767,199.184423 9.04854911,198.996336 C9.61408343,198.432074 9.61408343,197.491638 9.04854911,196.927376 L6.22087751,193.917979 Z" id="Shape"></path>
                    <path d="M16.2119838,203.698518 C15.6464495,203.134256 14.7038923,203.134256 14.138358,203.698518 C13.5728237,204.262779 13.5728237,205.203216 14.138358,205.767478 L17.154541,208.776874 C17.3430525,208.964961 17.7200753,209.153049 18.0970982,209.153049 C18.4741211,209.153049 18.851144,208.964961 19.0396554,208.776874 C19.6051897,208.212612 19.6051897,207.272176 19.0396554,206.707914 L16.2119838,203.698518 Z" id="Shape"></path>
                    <path d="M7.35194615,203.698518 L4.33576311,206.896001 C3.77022879,207.460263 3.77022879,208.400699 4.33576311,208.964961 C4.52427455,209.153049 4.90129743,209.341136 5.27832031,209.341136 C5.65534319,209.341136 6.03236607,209.153049 6.22087751,208.964961 L9.23706055,205.955565 C9.80259487,205.391303 9.80259487,204.450867 9.23706055,203.886605 C8.86003767,203.134256 7.91748047,203.134256 7.35194615,203.698518 Z" id="Shape"></path>
                    <path d="M17.3430525,193.917979 L14.3268694,196.927376 C13.7613351,197.491638 13.7613351,198.432074 14.3268694,198.996336 C14.5153809,199.184423 14.8924037,199.37251 15.2694266,199.37251 C15.6464495,199.37251 16.0234724,199.184423 16.2119838,198.996336 L19.2281669,195.986939 C19.7937012,195.422678 19.7937012,194.482241 19.2281669,193.917979 C18.6626325,193.353718 17.9085868,193.353718 17.3430525,193.917979 Z" id="Shape"></path>
                    <path d="M152.505755,104.388437 C151.94022,104.952699 151.94022,105.893135 152.505755,106.457397 L155.521938,109.466793 C155.710449,109.654881 156.087472,109.842968 156.464495,109.842968 C156.841518,109.842968 157.218541,109.654881 157.407052,109.466793 C157.972586,108.902532 157.972586,107.962095 157.407052,107.397833 L154.579381,104.388437 C154.013846,103.824175 153.071289,103.824175 152.505755,104.388437 Z" id="Shape"></path>
                    <path d="M162.496861,116.426023 L165.513044,119.435419 C165.701556,119.623506 166.078578,119.811593 166.455601,119.811593 C166.832624,119.811593 167.209647,119.623506 167.398158,119.435419 C167.963693,118.871157 167.963693,117.930721 167.398158,117.366459 L164.381975,114.357062 C163.816441,113.792801 162.873884,113.792801 162.30835,114.357062 C161.931327,114.921324 161.931327,115.861761 162.496861,116.426023 Z" id="Shape"></path>
                    <path d="M155.521938,114.357062 L152.505755,117.366459 C151.94022,117.930721 151.94022,118.871157 152.505755,119.435419 C152.694266,119.623506 153.071289,119.811593 153.448312,119.811593 C153.825335,119.811593 154.202358,119.623506 154.390869,119.435419 L157.407052,116.426023 C157.972586,115.861761 157.972586,114.921324 157.407052,114.357062 C157.030029,113.792801 156.087472,113.792801 155.521938,114.357062 Z" id="Shape"></path>
                    <path d="M163.439418,109.842968 C163.816441,109.842968 164.193464,109.654881 164.381975,109.466793 L167.398158,106.457397 C167.963693,105.893135 167.963693,104.952699 167.398158,104.388437 C166.832624,103.824175 165.890067,103.824175 165.324533,104.388437 L162.30835,107.397833 C161.742815,107.962095 161.742815,108.902532 162.30835,109.466793 C162.685372,109.842968 163.062395,109.842968 163.439418,109.842968 Z" id="Shape"></path>
                    <path d="M226.967773,200.877208 C226.402239,200.312947 225.459682,200.312947 224.894148,200.877208 C224.328613,201.44147 224.328613,202.381907 224.894148,202.946168 L227.910331,205.955565 C228.098842,206.143652 228.475865,206.331739 228.852888,206.331739 C229.229911,206.331739 229.606934,206.143652 229.795445,205.955565 C230.360979,205.391303 230.360979,204.450867 229.795445,203.886605 L226.967773,200.877208 Z" id="Shape"></path>
                    <path d="M236.95888,210.657747 C236.393345,210.093485 235.450788,210.093485 234.885254,210.657747 C234.31972,211.222009 234.31972,212.162445 234.885254,212.726707 L237.901437,215.736103 C238.089948,215.92419 238.466971,216.112278 238.843994,216.112278 C239.221017,216.112278 239.59804,215.92419 239.786551,215.736103 C240.352086,215.171841 240.352086,214.231405 239.786551,213.667143 L236.95888,210.657747 Z" id="Shape"></path>
                    <path d="M227.910331,210.657747 L224.894148,213.667143 C224.328613,214.231405 224.328613,215.171841 224.894148,215.736103 C225.082659,215.92419 225.459682,216.112278 225.836705,216.112278 C226.213728,216.112278 226.590751,215.92419 226.779262,215.736103 L229.795445,212.726707 C230.360979,212.162445 230.360979,211.222009 229.795445,210.657747 C229.418422,210.093485 228.475865,210.093485 227.910331,210.657747 Z" id="Shape"></path>
                    <path d="M235.827811,206.331739 C236.204834,206.331739 236.581857,206.143652 236.770368,205.955565 L239.786551,202.946168 C240.352086,202.381907 240.352086,201.44147 239.786551,200.877208 C239.221017,200.312947 238.27846,200.312947 237.712926,200.877208 L234.696742,203.886605 C234.131208,204.450867 234.131208,205.391303 234.696742,205.955565 C235.073765,206.143652 235.450788,206.331739 235.827811,206.331739 Z" id="Shape"></path>
                    <path d="M58.0615234,39.4983275 L91.9935826,53.9810476 C92.182094,53.9810476 92.3706055,54.1691349 92.5591169,54.1691349 C92.7476283,54.1691349 92.9361398,54.1691349 93.1246512,53.9810476 C93.5016741,53.7929603 93.6901855,53.604873 93.878697,53.2286985 C102.1732,33.8557093 92.9361398,11.2852364 73.5194615,3.00939638 C68.6181641,0.940436369 63.9053781,0 58.4385463,0 C57.6845006,0 56.9304548,0.564261822 56.9304548,1.50469819 L56.9304548,38.3698039 C57.1189662,38.9340657 57.4959891,39.3102402 58.0615234,39.4983275 Z M59.9466378,2.82130911 C64.2824009,3.00939638 68.2411412,3.94983275 72.3883929,5.64261822 C89.9199568,13.1661092 98.4029715,33.1033602 91.8050711,50.7835639 L59.9466378,37.2412802 L59.9466378,2.82130911 Z" id="Shape"></path>
                    <path d="M12.441755,44.7647712 C12.441755,44.9528584 12.441755,45.1409457 12.441755,45.5171203 C12.6302665,50.7835639 13.9498465,55.8619203 16.2119838,60.3760149 C16.4004953,60.7521895 16.5890067,60.9402767 16.5890067,61.3164513 C16.7775181,61.6926258 16.9660296,62.0688004 17.154541,62.4449749 C17.3430525,62.8211495 17.5315639,63.0092367 17.7200753,63.3854113 C17.7200753,63.3854113 17.7200753,63.5734986 17.9085868,63.5734986 C18.2856097,64.1377604 18.4741211,64.5139349 18.851144,65.0781968 C21.4903041,69.2161168 24.88351,72.6016877 29.0307617,75.2349095 C29.2192732,75.4229968 29.4077846,75.6110841 29.7848075,75.6110841 C30.1618304,75.7991714 30.5388532,76.1753459 30.9158761,76.3634332 C31.1043876,76.5515205 31.292899,76.5515205 31.4814104,76.7396077 L31.6699219,76.927695 C31.8584333,77.1157823 32.0469448,77.1157823 32.2354562,77.1157823 C32.6124791,77.3038695 32.989502,77.4919568 33.3665248,77.6800441 C33.7435477,77.8681314 34.1205706,78.0562186 34.6861049,78.2443059 C38.0793108,79.9370914 41.8495396,81.065615 45.8082799,81.4417896 C45.9967913,81.4417896 45.9967913,81.4417896 46.1853027,81.4417896 C47.1278599,81.6298768 47.8819057,81.6298768 48.8244629,81.6298768 C49.0129743,81.6298768 49.2014858,81.6298768 49.3899972,81.6298768 C49.3899972,81.6298768 49.3899972,81.6298768 49.3899972,81.6298768 C49.3899972,81.6298768 49.3899972,81.6298768 49.3899972,81.6298768 C49.9555315,81.6298768 50.3325544,81.6298768 50.8980887,81.6298768 C58.4385463,81.6298768 65.601981,79.3728296 72.01137,75.4229968 C72.1998814,75.4229968 72.1998814,75.2349095 72.1998814,75.2349095 C78.6092704,70.9089022 83.5105678,64.8901095 86.5267508,57.7427931 C86.7152623,57.3666185 86.7152623,56.990444 86.5267508,56.6142694 C86.3382394,56.2380949 86.149728,56.0500076 85.7727051,55.8619203 L52.4061802,42.5077239 L52.4061802,6.58305458 C52.4061802,5.83070549 51.8406459,5.07835639 50.8980887,5.07835639 C45.6197684,5.07835639 40.9069824,6.01879276 35.8171735,8.08775278 C30.5388532,10.3448001 25.8260672,13.730371 22.0558384,18.0563783 C18.6626325,21.8181238 16.2119838,26.1441311 14.5153809,31.0344002 C13.1958008,34.9842329 12.6302665,38.9340657 12.441755,43.0719857 C12.441755,43.260073 12.441755,43.260073 12.441755,43.4481603 C12.441755,44.0124221 12.441755,44.3885966 12.441755,44.7647712 Z M69.3722098,73.7302113 C69.3722098,73.7302113 69.3722098,73.7302113 69.3722098,73.7302113 C63.7168666,77.1157823 57.3074777,78.996655 50.8980887,78.996655 C50.144043,78.996655 49.5785086,78.996655 49.0129743,78.8085677 C48.0704171,78.8085677 47.3163714,78.6204805 46.3738142,78.6204805 C46.3738142,78.6204805 46.1853027,78.6204805 46.1853027,78.6204805 C43.1691197,78.2443059 40.3414481,77.4919568 37.5137765,76.3634332 C36.9482422,76.1753459 36.1941964,75.7991714 35.6286621,75.6110841 C35.2516392,75.4229968 34.8746164,75.2349095 34.6861049,75.0468223 C34.309082,74.858735 33.9320592,74.6706477 33.5550363,74.4825604 C32.8009905,74.1063859 32.0469448,73.5421241 31.292899,73.1659495 C31.1043876,72.9778623 30.9158761,72.9778623 30.7273647,72.789775 C26.2030901,69.7803786 22.6213728,65.6424586 19.9822126,60.9402767 C19.7937012,60.5641022 19.6051897,60.1879276 19.4166783,59.8117531 C19.2281669,59.6236658 19.2281669,59.4355785 19.0396554,59.059404 C19.0396554,58.8713167 18.851144,58.6832294 18.851144,58.4951422 L50.8980887,44.9528584 L83.3220564,57.9308803 C80.1173619,64.7020222 75.4045759,69.9684659 69.3722098,73.7302113 Z M17.154541,32.1629238 C18.6626325,27.6488293 20.9247698,23.6989965 24.1294643,20.1253383 C27.7111816,16.1755056 32.0469448,12.9780219 36.9482422,10.9090619 C41.0954939,9.21627642 45.0542341,8.27584005 49.3899972,8.08775278 L49.3899972,42.5077239 L17.5315639,56.0500076 C14.7038923,48.3384294 14.5153809,39.8745021 17.154541,32.1629238 Z" id="Shape"></path>
                    <path d="M180.262709,55.2698068 L188.039552,55.2698068 C189.824402,55.2698068 191.354273,56.5601525 191.991719,58.2376019 L180.262709,58.2376019 L180.262709,61.4634661 L191.991719,61.4634661 C191.354273,63.1409155 189.824402,64.4312611 188.039552,64.4312611 L178.605348,64.4312611 L193.52159,80.4315476 L195.688907,78.1089254 L185.999725,67.5280908 L188.294531,67.5280908 C191.736741,67.3990562 194.541504,64.8183648 195.17895,61.4634661 L199.896052,61.4634661 L199.896052,58.2376019 L195.051461,58.2376019 C194.796482,57.0762907 194.414015,56.1730488 193.776568,55.2698068 L199.641074,55.2698068 L199.641074,52.0439426 L180.262709,52.0439426 L180.262709,55.2698068 Z" id="Shape"></path>
                    <path d="M189.453997,34.9842329 C173.053502,34.9842329 159.480678,48.3384294 159.480678,64.8901095 C159.480678,81.2537023 172.86499,94.795986 189.453997,94.795986 C206.043004,94.795986 219.427316,81.4417896 219.427316,64.8901095 C219.427316,48.5265167 205.854492,34.9842329 189.453997,34.9842329 Z M189.453997,91.7865896 C174.561593,91.7865896 162.30835,79.7490041 162.30835,64.8901095 C162.30835,50.0312148 174.373082,37.805542 189.453997,37.805542 C204.534912,37.805542 216.411133,49.8431276 216.411133,64.8901095 C216.599644,79.7490041 204.346401,91.7865896 189.453997,91.7865896 Z" id="Shape"></path>
                    <path d="M47.6933943,208.024525 L78.4207589,177.366299 L89.5429339,188.463448 C90.1084682,189.02771 91.0510254,189.02771 91.6165597,188.463448 C91.6165597,188.463448 91.6165597,188.463448 91.6165597,188.275361 L114.991978,164.952539 L126.114153,176.049688 C126.679687,176.61395 127.622245,176.61395 128.187779,176.049688 C128.187779,176.049688 128.187779,175.861601 128.37629,175.861601 C128.37629,175.861601 128.564802,175.861601 128.564802,175.673514 L163.439418,140.877368 L176.258196,153.667303 C176.258196,153.667303 176.258196,153.667303 176.258196,153.667303 C176.446708,153.85539 176.82373,154.043477 177.200753,154.043477 C177.577776,154.043477 177.954799,153.85539 178.143311,153.667303 L199.445103,132.413441 L209.43621,142.382066 C209.624721,142.570154 210.001744,142.758241 210.378767,142.758241 C210.567278,142.758241 210.75579,142.758241 210.944301,142.570154 C211.509835,142.382066 211.886858,141.817804 211.886858,141.253543 L211.886858,119.435419 C211.886858,118.68307 211.321324,117.930721 210.378767,117.930721 L188.51144,117.930721 C187.945905,117.930721 187.380371,118.306895 187.19186,118.871157 C187.003348,119.435419 187.003348,119.999681 187.568883,120.375855 L197.559989,130.344481 L177.012242,150.469819 L164.193464,137.679884 C163.62793,137.115623 162.685372,137.115623 162.119838,137.679884 L138.178885,161.755056 L138.178885,98.5577315 C142.326137,97.8053824 145.530831,94.2317242 145.530831,89.9057169 C145.530831,85.0154478 141.572091,81.065615 136.670794,81.065615 C132.335031,81.065615 128.564802,84.2630987 127.999268,88.4010187 L86.5267508,88.4010187 C85.7727051,88.4010187 85.0186593,88.9652805 85.0186593,89.9057169 C85.0186593,90.8461533 85.5841936,91.4104151 86.5267508,91.4104151 L127.999268,91.4104151 C128.564802,95.1721606 131.580985,97.9934697 135.351214,98.7458188 L135.351214,164.952539 L127.05671,173.228379 L115.934535,162.13123 C115.369001,161.566968 114.426444,161.566968 113.86091,162.13123 L100.099574,175.861601 L100.099574,128.087433 C104.246826,127.335084 107.451521,123.761426 107.451521,119.435419 C107.451521,114.54515 103.49278,110.595317 98.591483,110.595317 C94.2557199,110.595317 90.4854911,113.792801 89.9199568,117.930721 L23.9409528,117.930721 C23.1869071,117.930721 22.4328613,118.494983 22.4328613,119.435419 C22.4328613,120.187768 22.9983956,120.940117 23.9409528,120.940117 L90.1084682,120.940117 C90.6740025,124.701863 93.6901855,127.523172 97.4604143,128.275521 L97.4604143,177.930561 C97.4604143,178.118648 97.4604143,178.306736 97.6489258,178.494823 L90.4854911,185.642139 L79.5518276,174.733077 C78.9862932,174.168816 78.043736,174.168816 77.4782017,174.733077 L45.8082799,206.331739 C45.2427455,206.896001 45.2427455,207.836438 45.8082799,208.400699 C45.9967913,208.588787 46.3738142,208.776874 46.7508371,208.776874 C47.1278599,208.400699 47.5048828,208.212612 47.6933943,208.024525 Z M208.870675,120.75203 L208.870675,137.679884 L200.38766,129.215957 L200.38766,129.215957 L200.38766,129.215957 L191.904646,120.75203 L208.870675,120.75203 Z M130.638428,89.7176296 C130.638428,86.3320587 133.277588,83.6988369 136.670794,83.6988369 C140.064,83.6988369 142.70316,86.3320587 142.70316,89.7176296 C142.70316,93.1032006 140.064,95.7364224 136.670794,95.7364224 C136.670794,95.7364224 136.670794,95.7364224 136.670794,95.7364224 C136.670794,95.7364224 136.670794,95.7364224 136.670794,95.7364224 C133.466099,95.7364224 130.638428,93.1032006 130.638428,89.7176296 Z M92.7476283,119.435419 C92.7476283,116.049848 95.3867885,113.416626 98.7799944,113.416626 C102.1732,113.416626 104.81236,116.049848 104.81236,119.435419 C104.81236,122.82099 102.1732,125.454212 98.7799944,125.454212 C98.7799944,125.454212 98.7799944,125.454212 98.7799944,125.454212 C98.7799944,125.454212 98.7799944,125.454212 98.7799944,125.454212 C95.5752999,125.266124 92.7476283,122.632903 92.7476283,119.435419 Z" id="Shape"></path>
                    <path d="M215.468576,164.012103 C215.468576,164.012103 215.468576,164.012103 215.468576,164.012103 L201.707241,150.281732 C201.141706,149.71747 200.199149,149.71747 199.633615,150.281732 L178.331822,171.535594 L165.513044,158.745659 C164.94751,158.181397 164.004953,158.181397 163.439418,158.745659 L128.187779,193.917979 L117.065604,182.82083 C116.50007,182.256568 115.557513,182.256568 114.991978,182.82083 L91.4280483,206.331739 L80.4943848,195.422678 C79.9288504,194.858416 78.9862932,194.858416 78.4207589,195.422678 L47.1278599,226.833252 C47.1278599,226.833252 47.1278599,226.833252 47.1278599,226.833252 C46.7508371,227.02134 46.5623256,227.397514 46.5623256,227.961776 C46.5623256,228.714125 47.1278599,229.466474 48.0704171,229.466474 L214.526018,229.466474 C215.280064,229.466474 216.03411,228.902212 216.03411,227.961776 L216.03411,164.952539 C216.03411,164.764452 216.03411,164.576365 215.845598,164.388277 C215.657087,164.20019 215.657087,164.20019 215.468576,164.012103 Z M51.463623,226.645165 L79.740339,198.432074 L90.862514,209.529223 C91.4280483,210.093485 92.3706055,210.093485 92.9361398,209.529223 C92.9361398,209.529223 92.9361398,209.529223 92.9361398,209.341136 L116.311558,186.018314 L127.433733,197.115463 C127.999268,197.679725 128.941825,197.679725 129.507359,197.115463 C129.507359,197.115463 129.507359,196.927376 129.695871,196.927376 C129.695871,196.927376 129.884382,196.927376 129.884382,196.739288 L164.570487,161.755056 L177.389265,174.54499 C177.389265,174.54499 177.389265,174.54499 177.389265,174.54499 C177.577776,174.733077 177.954799,174.921165 178.331822,174.921165 C178.708845,174.921165 179.085868,174.733077 179.274379,174.54499 L200.576172,153.291128 L213.017927,165.516801 L213.017927,226.645165 L51.463623,226.645165 Z" id="Shape"></path>
                    <path d="M202.649798,210.469659 L117.442627,210.469659 C116.688581,210.469659 115.934535,211.033921 115.934535,211.974358 C115.934535,212.914794 116.50007,213.479056 117.442627,213.479056 L202.838309,213.479056 C203.592355,213.479056 204.346401,212.914794 204.346401,211.974358 C204.346401,211.033921 203.403843,210.469659 202.649798,210.469659 Z" id="Shape"></path>
                    <path d="M202.649798,199.936772 L152.128732,199.936772 C151.374686,199.936772 150.62064,200.501034 150.62064,201.44147 C150.62064,202.193819 151.186175,202.946168 152.128732,202.946168 L202.649798,202.946168 C203.403843,202.946168 204.157889,202.381907 204.157889,201.44147 C204.157889,200.501034 203.403843,199.936772 202.649798,199.936772 Z" id="Shape"></path>
                </g>
            </g>
        </g>
    </g>
</svg>