<?xml version="1.0" encoding="UTF-8"?>
<svg width="250px" height="223px" viewBox="0 0 250 223" version="1.1" xmlns="http://www.w3.org/2000/svg" xmlns:xlink="http://www.w3.org/1999/xlink">
    <!-- Generator: Sketch 47.1 (45422) - http://www.bohemiancoding.com/sketch -->
    <title>Equity Research</title>
    <desc>Created with Sketch.</desc>
    <defs></defs>
    <g id="Welcome" stroke="none" stroke-width="1" fill="none" fill-rule="evenodd">
        <g id="Research" transform="translate(-835.000000, -887.000000)" fill-rule="nonzero" fill="#96CCFF">
            <g id="Equity-Research" transform="translate(835.000000, 887.000000)">
                <g id="Shape">
                    <path d="M70.2951425,86.4614035 C67.1622114,84.3096491 63.0502392,83.9184211 59.3298835,85.4833333 C57.3718015,86.2657895 54.826295,86.2657895 52.868213,85.4833333 C49.3436655,83.9184211 45.0358852,84.3096491 41.902954,86.4614035 C38.9658311,88.4175439 37.3993655,91.7429825 37.3993655,95.2640351 L38.1825983,108.565789 C38.1825983,109.348246 38.9658311,109.935088 39.7490639,109.935088 L72.4490327,109.935088 C73.2322654,109.935088 73.81969,109.348246 74.0154982,108.565789 L74.798731,95.6552632 L74.798731,95.2640351 C74.9945392,91.7429825 73.4280736,88.4175439 70.2951425,86.4614035 Z M71.8616081,95.4596491 L71.8616081,95.4596491 L71.0783753,107.000877 L41.3155294,107.000877 L40.5322967,95.4596491 L40.5322967,95.0684211 C40.3364885,92.5254386 41.5113376,90.1780702 43.6652278,88.8087719 C46.0149261,87.2438596 49.1478573,87.0482456 51.889172,88.2219298 C54.6304868,89.395614 57.9592261,89.395614 60.7005409,88.2219298 C63.4418556,87.0482456 66.5747868,87.2438596 68.7286769,88.8087719 C70.8825671,90.1780702 72.0574163,92.5254386 71.8616081,95.0684211 L71.8616081,95.4596491 Z"></path>
                    <path d="M46.0149261,69.8342105 C46.0149261,75.8982456 50.5185147,80.5929825 56.1969524,80.5929825 C61.8753901,80.5929825 66.3789786,75.7026316 66.3789786,69.8342105 C66.3789786,63.9657895 61.8753901,59.0754386 56.1969524,59.0754386 C50.5185147,59.0754386 46.0149261,63.7701754 46.0149261,69.8342105 Z M56.1969524,61.8140351 C60.1131163,61.8140351 63.4418556,65.3350877 63.4418556,69.6385965 C63.4418556,73.9421053 60.1131163,77.4631579 56.1969524,77.4631579 C52.0849802,77.4631579 48.9520491,73.9421053 48.9520491,69.6385965 C48.9520491,65.3350877 52.2807884,61.8140351 56.1969524,61.8140351 Z"></path>
                    <path d="M133.345382,63.5745614 L94.771167,63.5745614 C93.9879343,63.5745614 93.2047015,64.1614035 93.2047015,65.1394737 C93.2047015,65.9219298 93.7921261,66.704386 94.771167,66.704386 L133.345382,66.704386 C134.128615,66.704386 134.911847,66.1175439 134.911847,65.1394737 C134.716039,64.1614035 134.128615,63.5745614 133.345382,63.5745614 Z"></path>
                    <path d="M133.345382,78.05 L94.771167,78.05 C93.9879343,78.05 93.2047015,78.6368421 93.2047015,79.6149123 C93.2047015,80.3973684 93.7921261,81.1798246 94.771167,81.1798246 L133.345382,81.1798246 C134.128615,81.1798246 134.911847,80.5929825 134.911847,79.6149123 C134.716039,78.6368421 134.128615,78.05 133.345382,78.05 Z"></path>
                    <path d="M133.345382,92.5254386 L94.771167,92.5254386 C93.9879343,92.5254386 93.2047015,93.1122807 93.2047015,94.0903509 C93.2047015,94.872807 93.7921261,95.6552632 94.771167,95.6552632 L133.345382,95.6552632 C134.128615,95.6552632 134.911847,95.0684211 134.911847,94.0903509 C134.716039,93.1122807 134.128615,92.5254386 133.345382,92.5254386 Z"></path>
                    <path d="M121.401082,107.000877 L94.771167,107.000877 C93.9879343,107.000877 93.2047015,107.587719 93.2047015,108.565789 C93.2047015,109.348246 93.7921261,110.130702 94.771167,110.130702 L121.401082,110.130702 C122.184315,110.130702 122.967547,109.54386 122.967547,108.565789 C122.771739,107.783333 122.184315,107.000877 121.401082,107.000877 Z"></path>
                    <path d="M129.625026,6.25964912 C129.820834,6.45526316 130.212451,6.65087719 130.604067,6.65087719 C130.995683,6.65087719 131.3873,6.45526316 131.583108,6.25964912 C132.170533,5.67280702 132.170533,4.69473684 131.583108,4.10789474 L128.450177,0.978070175 C127.862752,0.39122807 126.883711,0.39122807 126.296287,0.978070175 C125.708862,1.56491228 125.708862,2.54298246 126.296287,3.12982456 L129.625026,6.25964912 Z"></path>
                    <path d="M140.00286,16.627193 C140.198669,16.822807 140.590285,17.0184211 140.981901,17.0184211 C141.373518,17.0184211 141.765134,16.822807 141.960942,16.627193 C142.548367,16.0403509 142.548367,15.0622807 141.960942,14.4754386 L138.828011,11.345614 C138.240587,10.7587719 137.261546,10.7587719 136.674121,11.345614 C136.086696,11.9324561 136.086696,12.9105263 136.674121,13.4973684 L140.00286,16.627193 Z"></path>
                    <path d="M127.471136,17.0184211 C127.862752,17.0184211 128.254369,16.822807 128.450177,16.627193 L131.583108,13.4973684 C132.170533,12.9105263 132.170533,11.9324561 131.583108,11.345614 C130.995683,10.7587719 130.016642,10.7587719 129.429218,11.345614 L126.296287,14.4754386 C125.708862,15.0622807 125.708862,16.0403509 126.296287,16.627193 C126.687903,17.0184211 127.079519,17.0184211 127.471136,17.0184211 Z"></path>
                    <path d="M137.84897,6.65087719 C138.240587,6.65087719 138.632203,6.45526316 138.828011,6.25964912 L141.960942,3.12982456 C142.548367,2.54298246 142.548367,1.56491228 141.960942,0.978070175 C141.373518,0.39122807 140.394477,0.39122807 139.807052,0.978070175 L136.674121,4.10789474 C136.086696,4.69473684 136.086696,5.67280702 136.674121,6.25964912 C137.065737,6.45526316 137.457354,6.65087719 137.84897,6.65087719 Z"></path>
                    <path d="M34.0706262,205.003509 C33.4832016,204.416667 32.5041606,204.416667 31.916736,205.003509 C31.3293114,205.590351 31.3293114,206.568421 31.916736,207.155263 L35.0496672,210.285088 C35.2454753,210.480702 35.6370917,210.676316 36.0287081,210.676316 C36.4203245,210.676316 36.8119409,210.480702 37.0077491,210.285088 C37.5951737,209.698246 37.5951737,208.720175 37.0077491,208.133333 L34.0706262,205.003509 Z"></path>
                    <path d="M44.4484606,215.371053 C43.861036,214.784211 42.881995,214.784211 42.2945704,215.371053 C41.7071458,215.957895 41.7071458,216.935965 42.2945704,217.522807 L45.4275016,220.652632 C45.6233098,220.848246 46.0149261,221.04386 46.4065425,221.04386 C46.7981589,221.04386 47.1897753,220.848246 47.3855835,220.652632 C47.9730081,220.065789 47.9730081,219.087719 47.3855835,218.500877 L44.4484606,215.371053 Z"></path>
                    <path d="M35.2454753,215.371053 L32.1125442,218.500877 C31.5251196,219.087719 31.5251196,220.065789 32.1125442,220.652632 C32.3083524,220.848246 32.6999688,221.04386 33.0915852,221.04386 C33.4832016,221.04386 33.874818,220.848246 34.0706262,220.652632 L37.2035573,217.522807 C37.7909819,216.935965 37.7909819,215.957895 37.2035573,215.371053 C36.6161327,214.784211 35.8328999,214.784211 35.2454753,215.371053 Z"></path>
                    <path d="M45.6233098,205.003509 L42.4903786,208.133333 C41.902954,208.720175 41.902954,209.698246 42.4903786,210.285088 C42.6861868,210.480702 43.0778032,210.676316 43.4694196,210.676316 C43.861036,210.676316 44.2526524,210.480702 44.4484606,210.285088 L47.5813917,207.155263 C48.1688163,206.568421 48.1688163,205.590351 47.5813917,205.003509 C46.9939671,204.416667 46.2107343,204.416667 45.6233098,205.003509 Z"></path>
                    <path d="M206.381839,53.2070175 C206.381839,52.4245614 205.794414,51.6421053 204.815373,51.6421053 C204.032141,51.6421053 203.248908,52.2289474 203.248908,53.2070175 L203.248908,76.8763158 C203.248908,77.6587719 203.836332,78.4412281 204.815373,78.4412281 C205.598606,78.4412281 206.381839,77.854386 206.381839,76.8763158 L206.381839,53.2070175 Z"></path>
                    <path d="M204.815373,86.2657895 C204.032141,86.2657895 203.248908,86.8526316 203.248908,87.8307018 L203.248908,96.2421053 C203.248908,97.0245614 203.836332,97.8070175 204.815373,97.8070175 C205.598606,97.8070175 206.381839,97.2201754 206.381839,96.2421053 L206.381839,87.8307018 C206.381839,87.0482456 205.794414,86.2657895 204.815373,86.2657895 Z"></path>
                    <path d="M2.54550655,99.5675439 C1.76227377,99.5675439 0.979040982,100.154386 0.979040982,101.132456 L0.979040982,124.801754 C0.979040982,125.584211 1.56646557,126.366667 2.54550655,126.366667 C3.52454753,126.366667 3.91616393,125.388596 3.91616393,124.60614 L3.91616393,101.132456 C3.91616393,100.154386 3.32873934,99.5675439 2.54550655,99.5675439 Z"></path>
                    <path d="M2.54550655,134.191228 C1.76227377,134.191228 0.979040982,134.77807 0.979040982,135.75614 L0.979040982,144.167544 C0.979040982,144.95 1.56646557,145.732456 2.54550655,145.732456 C3.52454753,145.732456 3.91616393,144.95 3.91616393,144.167544 L3.91616393,135.75614 C3.91616393,134.973684 3.32873934,134.191228 2.54550655,134.191228 Z"></path>
                    <path d="M242.606355,63.5745614 C238.690191,63.5745614 235.55726,66.704386 235.55726,70.6166667 C235.55726,74.5289474 238.690191,77.6587719 242.606355,77.6587719 C246.522519,77.6587719 249.65545,74.5289474 249.65545,70.6166667 C249.65545,66.704386 246.522519,63.5745614 242.606355,63.5745614 Z M242.606355,74.7245614 C240.452465,74.7245614 238.494383,72.9640351 238.494383,70.6166667 C238.494383,68.2692982 240.256657,66.5087719 242.606355,66.5087719 C244.956054,66.5087719 246.718327,68.2692982 246.718327,70.6166667 C246.718327,72.9640351 244.956054,74.7245614 242.606355,74.7245614 Z"></path>
                    <path d="M21.930518,10.7587719 C21.930518,6.84649123 18.7975869,3.71666667 14.8814229,3.71666667 C10.965259,3.71666667 7.83232786,6.84649123 7.83232786,10.7587719 C7.83232786,14.6710526 11.1610672,17.6052632 15.0772311,17.6052632 C18.993395,17.6052632 21.930518,14.4754386 21.930518,10.7587719 Z M10.965259,10.7587719 C10.965259,8.60701754 12.7275328,6.65087719 15.0772311,6.65087719 C17.4269295,6.65087719 19.1892032,8.41140351 19.1892032,10.7587719 C19.1892032,13.1061404 17.4269295,14.8666667 15.0772311,14.8666667 C12.7275328,14.8666667 10.965259,12.9105263 10.965259,10.7587719 Z"></path>
                    <path d="M191.696224,6.45526316 L222.633919,6.45526316 C223.417152,6.45526316 224.200385,5.86842105 224.200385,4.89035088 C224.200385,4.10789474 223.61296,3.3254386 222.633919,3.3254386 L191.696224,3.3254386 C190.912991,3.3254386 190.129759,3.9122807 190.129759,4.89035088 C190.129759,5.86842105 190.912991,6.45526316 191.696224,6.45526316 Z"></path>
                    <path d="M232.620137,6.45526316 L242.606355,6.45526316 C243.389588,6.45526316 244.172821,5.86842105 244.172821,4.89035088 C244.172821,4.10789474 243.585396,3.3254386 242.606355,3.3254386 L232.620137,3.3254386 C231.836905,3.3254386 231.053672,3.9122807 231.053672,4.89035088 C231.24948,5.86842105 231.836905,6.45526316 232.620137,6.45526316 Z"></path>
                    <path d="M242.606355,14.0842105 L221.067454,14.0842105 C220.284221,14.0842105 219.500988,14.6710526 219.500988,15.6491228 C219.500988,16.4315789 220.088413,17.2140351 221.067454,17.2140351 L242.606355,17.2140351 C243.389588,17.2140351 244.172821,16.627193 244.172821,15.6491228 C244.172821,14.8666667 243.389588,14.0842105 242.606355,14.0842105 Z"></path>
                    <path d="M213.430934,15.6491228 C213.430934,14.8666667 212.843509,14.0842105 211.864468,14.0842105 L204.815373,14.0842105 C204.032141,14.0842105 203.248908,14.6710526 203.248908,15.6491228 C203.248908,16.4315789 203.836332,17.2140351 204.815373,17.2140351 L211.864468,17.2140351 C212.647701,17.0184211 213.430934,16.4315789 213.430934,15.6491228 Z"></path>
                    <path d="M65.3999376,177.813158 L34.4622426,177.813158 C33.6790098,177.813158 32.895777,178.4 32.895777,179.37807 C32.895777,180.160526 33.4832016,180.942982 34.4622426,180.942982 L65.3999376,180.942982 C66.1831704,180.942982 66.9664032,180.35614 66.9664032,179.37807 C66.770595,178.595614 66.1831704,177.813158 65.3999376,177.813158 Z"></path>
                    <path d="M24.2802164,177.813158 L14.2939983,177.813158 C13.5107656,177.813158 12.7275328,178.4 12.7275328,179.37807 C12.7275328,180.160526 13.3149574,180.942982 14.2939983,180.942982 L24.2802164,180.942982 C25.0634491,180.942982 25.8466819,180.35614 25.8466819,179.37807 C25.8466819,178.595614 25.0634491,177.813158 24.2802164,177.813158 Z"></path>
                    <path d="M14.2939983,167.25 C13.5107656,167.25 12.7275328,167.836842 12.7275328,168.814912 C12.7275328,169.597368 13.3149574,170.379825 14.2939983,170.379825 L35.8328999,170.379825 C36.6161327,170.379825 37.3993655,169.792982 37.3993655,168.814912 C37.3993655,168.032456 36.8119409,167.25 35.8328999,167.25 L14.2939983,167.25 Z"></path>
                    <path d="M45.0358852,167.25 C44.2526524,167.25 43.4694196,167.836842 43.4694196,168.814912 C43.4694196,169.597368 44.0568442,170.379825 45.0358852,170.379825 L52.0849802,170.379825 C52.868213,170.379825 53.6514458,169.792982 53.6514458,168.814912 C53.6514458,168.032456 53.0640212,167.25 52.0849802,167.25 L45.0358852,167.25 Z"></path>
                    <path d="M240.452465,108.370175 L219.30518,108.370175 C218.717755,108.370175 218.130331,108.761404 217.934523,109.348246 C217.738714,109.935088 217.738714,110.52193 218.326139,110.913158 L227.920741,120.498246 L208.339921,140.059649 L200.899209,132.626316 C201.682442,131.452632 202.074059,130.083333 202.074059,128.714035 C202.074059,124.60614 198.745319,121.085088 194.437539,121.085088 C190.325567,121.085088 186.801019,124.410526 186.801019,128.714035 C186.801019,130.278947 187.388444,131.84386 188.171677,133.213158 L164.674693,156.686842 C163.304036,155.513158 161.541762,154.730702 159.779488,154.730702 C158.017214,154.730702 156.254941,155.513158 154.884283,156.686842 L149.205846,151.014035 C148.618421,150.427193 147.63938,150.427193 147.051955,151.014035 L124.534013,173.705263 L118.659767,167.836842 C119.247192,166.663158 119.638808,165.489474 119.638808,164.120175 C119.638808,160.012281 116.310069,156.686842 112.198097,156.686842 C108.086124,156.686842 104.561577,160.012281 104.561577,164.120175 C104.561577,165.880702 105.149001,167.445614 106.128042,168.814912 L81.2604015,193.657895 C80.6729769,194.244737 80.6729769,195.222807 81.2604015,195.809649 C81.4562097,196.005263 81.8478261,196.200877 82.2394425,196.200877 C82.6310589,196.200877 83.0226753,196.005263 83.2184835,195.809649 L108.281933,170.771053 C109.456782,171.357895 110.631631,171.749123 112.002288,171.749123 C113.764562,171.749123 115.331028,171.162281 116.701685,170.184211 L123.359164,176.835088 L123.359164,176.835088 L123.554972,177.030702 L123.75078,177.226316 C123.946588,177.226316 123.946588,177.226316 124.142397,177.226316 L124.338205,177.226316 L124.338205,177.226316 C124.729821,177.226316 125.121437,177.030702 125.513054,176.639474 L148.030996,154.14386 L152.926201,159.034211 C152.338777,160.012281 152.142969,161.185965 152.142969,162.359649 C152.142969,166.467544 155.471708,169.792982 159.779488,169.792982 C163.89146,169.792982 167.2202,166.467544 167.2202,162.359649 C167.2202,161.185965 167.024392,160.012281 166.436967,159.034211 L190.325567,135.169298 C191.500416,135.951754 192.871073,136.342982 194.241731,136.342982 C195.808196,136.342982 197.374662,135.75614 198.745319,134.973684 L206.969264,143.189474 L206.969264,143.189474 L206.969264,143.189474 C207.165072,143.385088 207.556688,143.580702 207.948305,143.580702 C208.339921,143.580702 208.731537,143.385088 208.927346,143.189474 L229.487206,122.65 L239.081808,132.235088 C239.277616,132.430702 239.669232,132.626316 240.060849,132.626316 C240.256657,132.626316 240.452465,132.626316 240.648273,132.430702 C241.235698,132.235088 241.627314,131.648246 241.627314,131.061404 L241.627314,109.935088 C241.823123,109.152632 241.235698,108.370175 240.452465,108.370175 Z M109.260974,167.641228 C108.281933,166.858772 107.694508,165.489474 107.694508,164.120175 C107.694508,161.577193 109.848398,159.621053 112.198097,159.621053 C114.743603,159.621053 116.701685,161.577193 116.701685,164.120175 C116.701685,165.29386 116.310069,166.27193 115.722644,167.054386 C113.96037,169.010526 111.023247,169.20614 109.260974,167.641228 Z M159.975296,166.858772 C157.42979,166.858772 155.471708,164.902632 155.471708,162.359649 C155.471708,161.381579 155.863324,160.403509 156.450749,159.621053 C157.233982,158.447368 158.604639,157.664912 160.171105,157.664912 C161.73757,157.664912 162.912419,158.447368 163.89146,159.621053 C164.087269,160.403509 164.478885,161.381579 164.478885,162.359649 C164.478885,164.902632 162.324995,166.858772 159.975296,166.858772 Z M191.304608,132.039474 C190.325567,131.257018 189.738142,130.083333 189.738142,128.714035 C189.738142,126.171053 191.892032,124.214912 194.241731,124.214912 C196.787237,124.214912 198.745319,126.366667 198.745319,128.714035 C198.745319,129.887719 198.353703,130.865789 197.57047,131.84386 C196.199813,133.604386 193.26269,133.8 191.304608,132.039474 Z M238.886,127.540351 L230.857864,119.520175 L230.857864,119.520175 L230.857864,119.520175 L222.829727,111.5 L238.886,111.5 L238.886,127.540351 L238.886,127.540351 Z"></path>
                    <path d="M105.540618,203.242982 L82.4352507,203.242982 C81.6520179,203.242982 80.8687851,203.829825 80.8687851,204.807895 L80.8687851,221.239474 C80.8687851,222.02193 81.4562097,222.804386 82.4352507,222.804386 L105.736426,222.804386 C106.519659,222.804386 107.302892,222.217544 107.302892,221.239474 L107.302892,204.807895 C107.107083,203.829825 106.323851,203.242982 105.540618,203.242982 Z M104.16996,219.478947 L83.8059081,219.478947 L83.8059081,205.981579 L104.16996,205.981579 C104.16996,205.981579 104.16996,219.478947 104.16996,219.478947 Z"></path>
                    <path d="M139.219628,181.921053 L116.11426,181.921053 C115.331028,181.921053 114.547795,182.507895 114.547795,183.485965 L114.547795,221.04386 C114.547795,221.826316 115.135219,222.608772 116.11426,222.608772 L139.415436,222.608772 C140.198669,222.608772 140.981901,222.02193 140.981901,221.04386 L140.981901,183.290351 C140.786093,182.507895 140.198669,181.921053 139.219628,181.921053 Z M137.84897,219.478947 L117.484918,219.478947 L117.484918,184.855263 L137.84897,184.855263 L137.84897,219.478947 Z"></path>
                    <path d="M172.898637,175.857018 L149.79327,175.857018 C149.010037,175.857018 148.226805,176.44386 148.226805,177.42193 L148.226805,221.04386 C148.226805,221.826316 148.814229,222.608772 149.79327,222.608772 L173.094446,222.608772 C173.877678,222.608772 174.660911,222.02193 174.660911,221.04386 L174.660911,177.226316 C174.465103,176.44386 173.877678,175.857018 172.898637,175.857018 Z M171.52798,219.478947 L151.163928,219.478947 L151.163928,178.791228 L171.52798,178.791228 L171.52798,219.478947 L171.52798,219.478947 Z"></path>
                    <path d="M206.773455,154.730702 L183.47228,154.730702 C182.689047,154.730702 181.905814,155.317544 181.905814,156.295614 L181.905814,221.04386 C181.905814,221.826316 182.493239,222.608772 183.47228,222.608772 L206.773455,222.608772 C207.556688,222.608772 208.339921,222.02193 208.339921,221.04386 L208.339921,156.295614 C208.144113,155.513158 207.556688,154.730702 206.773455,154.730702 Z M205.20699,219.478947 L184.842937,219.478947 L184.842937,157.664912 L205.20699,157.664912 L205.20699,219.478947 L205.20699,219.478947 Z"></path>
                    <path d="M240.452465,140.450877 L217.15129,140.450877 C216.368057,140.450877 215.584824,141.037719 215.584824,142.015789 L215.584824,221.04386 C215.584824,221.826316 216.172249,222.608772 217.15129,222.608772 L240.452465,222.608772 C241.235698,222.608772 242.018931,222.02193 242.018931,221.04386 L242.018931,142.015789 C241.823123,141.233333 241.235698,140.450877 240.452465,140.450877 Z M238.886,219.478947 L218.521947,219.478947 L218.521947,143.385088 L238.886,143.385088 L238.886,219.478947 Z"></path>
                    <path d="M55.805336,46.7517544 C55.805336,45.9692982 55.2179114,45.1868421 54.2388704,45.1868421 L29.5670377,45.1868421 C28.7838049,45.1868421 28.0005721,45.7736842 28.0005721,46.7517544 C28.0005721,47.5342105 28.5879967,48.3166667 29.5670377,48.3166667 L54.2388704,48.3166667 C55.0221032,48.3166667 55.805336,47.5342105 55.805336,46.7517544 Z"></path>
                    <path d="M16.6436967,38.927193 L16.6436967,123.62807 C16.6436967,126.953509 19.3850114,129.692105 22.7137508,129.692105 L146.268723,129.692105 C149.597462,129.692105 152.338777,126.953509 152.338777,123.62807 L152.338777,119.715789 L168.003432,119.715789 C171.332172,119.715789 174.073487,116.977193 174.073487,113.651754 L174.073487,40.2964912 C174.073487,36.9710526 171.332172,34.2324561 168.003432,34.2324561 L114.351987,34.2324561 C114.351987,34.2324561 111.219056,34.4280702 109.260974,32.0807018 C108.477741,31.1026316 107.694508,30.1245614 106.715467,28.9508772 C105.540618,27.3859649 104.16996,26.0166667 103.386728,24.6473684 C102.01607,22.8868421 99.8621802,21.7131579 97.5124818,21.7131579 L45.4275016,21.7131579 C41.5113376,21.7131579 38.3784065,24.8429825 38.3784065,28.9508772 L38.3784065,31.8850877 L23.6927918,31.8850877 C19.7766278,31.6894737 16.6436967,34.8192982 16.6436967,38.927193 Z M149.401654,123.432456 C149.401654,125.192982 148.030996,126.562281 146.268723,126.562281 L22.7137508,126.562281 C20.951477,126.562281 19.5808196,125.192982 19.5808196,123.432456 L19.5808196,38.927193 C19.5808196,36.5798246 21.5389016,34.8192982 23.6927918,34.8192982 L75.5819638,34.8192982 C76.9526212,34.8192982 78.1274704,35.4061404 78.9107031,36.5798246 C79.8897441,37.9491228 81.0645933,39.3184211 82.4352507,40.8833333 C83.2184835,41.8614035 84.1975244,42.8394737 84.9807572,43.8175439 C87.9178802,47.5342105 92.4214687,47.1429825 92.6172769,47.1429825 L146.268723,47.1429825 C148.030996,47.1429825 149.401654,48.5122807 149.401654,50.272807 C149.401654,50.272807 149.401654,123.432456 149.401654,123.432456 Z M41.3155294,28.7552632 C41.3155294,26.4078947 43.2736114,24.6473684 45.4275016,24.6473684 L97.3166736,24.6473684 C98.687331,24.6473684 99.8621802,25.2342105 100.645413,26.4078947 C101.624454,27.777193 102.799303,29.1464912 104.16996,30.7114035 C104.953193,31.6894737 105.932234,32.6675439 106.715467,33.645614 C109.65259,37.3622807 114.156178,36.9710526 114.351987,36.9710526 L168.003432,36.9710526 C169.765706,36.9710526 171.136364,38.3403509 171.136364,40.1008772 L171.136364,113.45614 C171.136364,115.216667 169.765706,116.585965 168.003432,116.585965 L152.338777,116.585965 L152.338777,50.272807 C152.338777,46.9473684 149.597462,44.2087719 146.268723,44.2087719 L92.6172769,44.2087719 C92.4214687,44.2087719 89.4843457,44.404386 87.5262638,42.0570175 C86.743031,41.0789474 85.9597982,40.1008772 84.9807572,38.927193 C83.8059081,37.3622807 82.4352507,35.9929825 81.6520179,34.6236842 C80.2813605,32.8631579 78.1274704,31.6894737 75.777772,31.6894737 L41.3155294,31.6894737 L41.3155294,28.7552632 Z"></path>
                </g>
            </g>
        </g>
    </g>
</svg>