<?xml version="1.0" encoding="UTF-8"?>
<svg width="22px" height="30px" viewBox="0 0 22 30" version="1.1" xmlns="http://www.w3.org/2000/svg" xmlns:xlink="http://www.w3.org/1999/xlink">
    <!-- Generator: Sketch 47.1 (45422) - http://www.bohemiancoding.com/sketch -->
    <title>Group</title>
    <desc>Created with Sketch.</desc>
    <defs></defs>
    <g id="Pages" stroke="none" stroke-width="1" fill="none" fill-rule="evenodd">
        <g id="Quote-Full-Page" transform="translate(-200.000000, -1818.000000)" fill-rule="nonzero" fill="#000000">
            <g id="Group" transform="translate(200.000000, 1818.000000)">
                <path d="M21.2666667,5.31521739 L17.6733333,5.31521739 L17.6733333,3.75 C17.6733333,3.39130435 17.3433333,3.09782609 16.94,3.09782609 L14.8866667,3.09782609 C14.6666667,1.36956522 13.0166667,0 11,0 C8.98333333,0 7.33333333,1.33695652 7.11333333,3.09782609 L5.06,3.09782609 C4.65666667,3.09782609 4.32666667,3.39130435 4.32666667,3.75 L4.32666667,5.31521739 L0.733333333,5.31521739 C0.33,5.31521739 0,5.60869565 0,5.9673913 L0,29.3478261 C0,29.7065217 0.33,30 0.733333333,30 L21.2666667,30 C21.67,30 22,29.7065217 22,29.3478261 L22,5.9673913 C22,5.60869565 21.67,5.31521739 21.2666667,5.31521739 Z M11,1.30434783 C12.21,1.30434783 13.2,2.08695652 13.3833333,3.09782609 L8.61666667,3.09782609 C8.8,2.08695652 9.79,1.30434783 11,1.30434783 Z M5.79333333,4.40217391 L16.2066667,4.40217391 L16.2066667,7.23913043 L5.79333333,7.23913043 L5.79333333,4.40217391 Z M20.5333333,28.6956522 L1.46666667,28.6956522 L1.46666667,6.61956522 L4.32666667,6.61956522 L4.32666667,7.85869565 C4.32666667,8.2173913 4.65666667,8.51086957 5.06,8.51086957 L16.94,8.51086957 C17.3433333,8.51086957 17.6733333,8.2173913 17.6733333,7.85869565 L17.6733333,6.61956522 L20.5333333,6.61956522 L20.5333333,28.6956522 Z" id="Shape"></path>
                <path d="M17.2708333,11 L4.72916667,11 C4.328125,11 4,11.45 4,12 C4,12.55 4.328125,13 4.72916667,13 L17.2708333,13 C17.671875,13 18,12.55 18,12 C18,11.45 17.671875,11 17.2708333,11 Z" id="Shape"></path>
                <path d="M17.2708333,15 L4.72916667,15 C4.328125,15 4,15.45 4,16 C4,16.55 4.328125,17 4.72916667,17 L17.2708333,17 C17.671875,17 18,16.55 18,16 C18,15.45 17.671875,15 17.2708333,15 Z" id="Shape"></path>
                <path d="M17.2708333,19 L4.72916667,19 C4.328125,19 4,19.45 4,20 C4,20.55 4.328125,21 4.72916667,21 L17.2708333,21 C17.671875,21 18,20.55 18,20 C18,19.45 17.671875,19 17.2708333,19 Z" id="Shape"></path>
                <path d="M17.2708333,24 L4.72916667,24 C4.328125,24 4,24.45 4,25 C4,25.55 4.328125,26 4.72916667,26 L17.2708333,26 C17.671875,26 18,25.55 18,25 C18,24.45 17.671875,24 17.2708333,24 Z" id="Shape"></path>
            </g>
        </g>
    </g>
</svg>