<?xml version="1.0" encoding="UTF-8"?>
<svg width="218px" height="230px" viewBox="0 0 218 230" version="1.1" xmlns="http://www.w3.org/2000/svg" xmlns:xlink="http://www.w3.org/1999/xlink">
    <!-- Generator: Sketch 47.1 (45422) - http://www.bohemiancoding.com/sketch -->
    <title>Fixed Income</title>
    <desc>Created with Sketch.</desc>
    <defs></defs>
    <g id="Welcome" stroke="none" stroke-width="1" fill="none" fill-rule="evenodd">
        <g id="What-We-Offer" transform="translate(-193.000000, -1820.000000)" fill-rule="nonzero" fill="#96CCFF">
            <g id="Group-11" transform="translate(193.000000, 1820.000000)">
                <g id="Fixed-Income">
                    <g id="Group">
                        <path d="M77.0818418,27.1328125 C77.2620109,27.3125 77.6223491,27.4921875 77.9826873,27.4921875 C78.3430256,27.4921875 78.7033638,27.3125 78.8835329,27.1328125 C79.4240402,26.59375 79.4240402,25.6953125 78.8835329,25.15625 L76.0008271,22.28125 C75.4603198,21.7421875 74.5594743,21.7421875 74.0189669,22.28125 C73.4784596,22.8203125 73.4784596,23.71875 74.0189669,24.2578125 L77.0818418,27.1328125 Z" id="Shape"></path>
                        <path d="M86.2704664,36.296875 C86.4506355,36.4765625 86.8109737,36.65625 87.1713119,36.65625 C87.5316501,36.65625 87.8919884,36.4765625 88.0721575,36.296875 C88.6126648,35.7578125 88.6126648,34.859375 88.0721575,34.3203125 L85.1894517,31.4453125 C84.6489444,30.90625 83.7480988,30.90625 83.2075915,31.4453125 C82.6670842,31.984375 82.6670842,32.8828125 83.2075915,33.421875 L86.2704664,36.296875 Z" id="Shape"></path>
                        <path d="M75.0999816,36.65625 C75.4603198,36.65625 75.820658,36.4765625 76.0008271,36.296875 L78.8835329,33.421875 C79.4240402,32.8828125 79.4240402,31.984375 78.8835329,31.4453125 C78.3430256,30.90625 77.44218,30.90625 76.9016727,31.4453125 L74.0189669,34.3203125 C73.4784596,34.859375 73.4784596,35.7578125 74.0189669,36.296875 C74.3793051,36.65625 74.7396434,36.65625 75.0999816,36.65625 Z" id="Shape"></path>
                        <path d="M84.4687753,27.4921875 C84.8291135,27.4921875 85.1894517,27.3125 85.3696208,27.1328125 L88.2523266,24.2578125 C88.7928339,23.71875 88.7928339,22.8203125 88.2523266,22.28125 C87.7118193,21.7421875 86.8109737,21.7421875 86.2704664,22.28125 L83.3877606,25.15625 C82.8472533,25.6953125 82.8472533,26.59375 83.3877606,27.1328125 C83.7480988,27.3125 84.1084371,27.4921875 84.4687753,27.4921875 Z" id="Shape"></path>
                        <path d="M203.200219,127.757813 C202.659711,127.21875 201.758866,127.21875 201.218358,127.757813 C200.677851,128.296875 200.677851,129.195313 201.218358,129.734375 L204.101064,132.609375 C204.281233,132.789063 204.641571,132.96875 205.00191,132.96875 C205.362248,132.96875 205.722586,132.789063 205.902755,132.609375 C206.443263,132.070313 206.443263,131.171875 205.902755,130.632813 L203.200219,127.757813 Z" id="Shape"></path>
                        <path d="M212.388843,137.101563 C211.848336,136.5625 210.94749,136.5625 210.406983,137.101563 C209.866476,137.640625 209.866476,138.539063 210.406983,139.078125 L213.289689,141.953125 C213.469858,142.132813 213.830196,142.3125 214.190534,142.3125 C214.550872,142.3125 214.911211,142.132813 215.09138,141.953125 C215.631887,141.414063 215.631887,140.515625 215.09138,139.976563 L212.388843,137.101563 Z" id="Shape"></path>
                        <path d="M204.101064,137.101563 L201.218358,139.976563 C200.677851,140.515625 200.677851,141.414063 201.218358,141.953125 C201.398527,142.132813 201.758866,142.3125 202.119204,142.3125 C202.479542,142.3125 202.83988,142.132813 203.020049,141.953125 L205.902755,139.078125 C206.443263,138.539063 206.443263,137.640625 205.902755,137.101563 C205.542417,136.5625 204.641571,136.5625 204.101064,137.101563 Z" id="Shape"></path>
                        <path d="M213.289689,127.757813 L210.406983,130.632813 C209.866476,131.171875 209.866476,132.070313 210.406983,132.609375 C210.587152,132.789063 210.94749,132.96875 211.307828,132.96875 C211.668167,132.96875 212.028505,132.789063 212.208674,132.609375 L215.09138,129.734375 C215.631887,129.195313 215.631887,128.296875 215.09138,127.757813 C214.731042,127.398438 213.830196,127.398438 213.289689,127.757813 Z" id="Shape"></path>
                        <path d="M101.224502,149.140625 C101.404672,149.320313 101.76501,149.5 102.125348,149.5 C102.485686,149.5 102.846024,149.320313 103.026194,149.140625 C103.566701,148.601563 103.566701,147.703125 103.026194,147.164063 L100.143488,144.289063 C99.6029805,143.75 98.7021349,143.75 98.1616276,144.289063 C97.6211203,144.828125 97.6211203,145.726563 98.1616276,146.265625 L101.224502,149.140625 Z" id="Shape"></path>
                        <path d="M110.413127,158.304688 C110.593296,158.484375 110.953634,158.664063 111.313973,158.664063 C111.674311,158.664063 112.034649,158.484375 112.214818,158.304688 C112.755325,157.765625 112.755325,156.867188 112.214818,156.328125 L109.332112,153.453125 C108.791605,152.914063 107.89076,152.914063 107.350252,153.453125 C106.809745,153.992188 106.809745,154.890625 107.350252,155.429688 L110.413127,158.304688 Z" id="Shape"></path>
                        <path d="M99.4228114,158.84375 C99.7831496,158.84375 100.143488,158.664063 100.323657,158.484375 L103.206363,155.609375 C103.74687,155.070313 103.74687,154.171875 103.206363,153.632813 C102.665855,153.09375 101.76501,153.09375 101.224502,153.632813 L98.3417967,156.507813 C97.8012894,157.046875 97.8012894,157.945313 98.3417967,158.484375 C98.7021349,158.664063 99.0624732,158.84375 99.4228114,158.84375 Z" id="Shape"></path>
                        <path d="M108.611436,149.5 C108.971774,149.5 109.332112,149.320313 109.512282,149.140625 L112.394987,146.265625 C112.935495,145.726563 112.935495,144.828125 112.394987,144.289063 C111.85448,143.75 110.953634,143.75 110.413127,144.289063 L107.530421,147.164063 C106.989914,147.703125 106.989914,148.601563 107.530421,149.140625 C107.89076,149.5 108.251098,149.5 108.611436,149.5 Z" id="Shape"></path>
                        <path d="M13.1218079,68.28125 C13.1218079,72.234375 16.3648518,75.46875 20.3285723,75.46875 C24.2922927,75.46875 27.5353366,72.234375 27.5353366,68.28125 C27.5353366,64.328125 24.2922927,61.09375 20.3285723,61.09375 C16.3648518,61.09375 13.1218079,64.328125 13.1218079,68.28125 Z M25.0129691,68.28125 C25.0129691,70.796875 23.0311089,72.7734375 20.5087414,72.7734375 C17.9863738,72.7734375 16.0045136,70.796875 16.0045136,68.28125 C16.0045136,65.765625 17.9863738,63.7890625 20.5087414,63.7890625 C23.0311089,63.7890625 25.0129691,65.9453125 25.0129691,68.28125 Z" id="Shape"></path>
                        <path d="M15.1036681,37.734375 C15.1036681,38.453125 15.6441754,39.171875 16.5450209,39.171875 L39.0661597,39.171875 C39.7868361,39.171875 40.5075125,38.6328125 40.5075125,37.734375 C40.5075125,36.8359375 39.9670052,36.296875 39.0661597,36.296875 L16.3648518,36.296875 C15.6441754,36.4765625 15.1036681,37.015625 15.1036681,37.734375 Z" id="Shape"></path>
                        <path d="M10.4192712,37.734375 C10.4192712,37.015625 9.87876389,36.296875 8.97791834,36.296875 L1.77115396,36.296875 C1.05047752,36.296875 0.329801082,36.8359375 0.329801082,37.734375 C0.329801082,38.6328125 0.870308411,39.171875 1.77115396,39.171875 L9.15808745,39.171875 C9.69859478,39.171875 10.4192712,38.6328125 10.4192712,37.734375 Z" id="Shape"></path>
                        <path d="M1.77115396,31.4453125 L17.4458665,31.4453125 C18.1665429,31.4453125 18.8872194,30.90625 18.8872194,30.0078125 C18.8872194,29.2890625 18.346712,28.5703125 17.4458665,28.5703125 L1.77115396,28.5703125 C1.05047752,28.5703125 0.329801082,29.109375 0.329801082,30.0078125 C0.329801082,30.90625 1.05047752,31.4453125 1.77115396,31.4453125 Z" id="Shape"></path>
                        <path d="M24.2922927,31.4453125 L29.3370277,31.4453125 C30.0577042,31.4453125 30.7783806,30.90625 30.7783806,30.0078125 C30.7783806,29.2890625 30.2378733,28.5703125 29.3370277,28.5703125 L24.2922927,28.5703125 C23.5716162,28.5703125 22.8509398,29.109375 22.8509398,30.0078125 C22.8509398,30.90625 23.3914471,31.4453125 24.2922927,31.4453125 Z" id="Shape"></path>
                        <path d="M178.877389,8.8046875 L201.398527,8.8046875 C202.119204,8.8046875 202.83988,8.265625 202.83988,7.3671875 C202.83988,6.46875 202.299373,5.9296875 201.398527,5.9296875 L178.877389,5.9296875 C178.156712,5.9296875 177.436036,6.46875 177.436036,7.3671875 C177.436036,8.265625 178.156712,8.8046875 178.877389,8.8046875 Z" id="Shape"></path>
                        <path d="M208.96563,8.8046875 L216.352564,8.8046875 C217.07324,8.8046875 217.793916,8.265625 217.793916,7.3671875 C217.793916,6.46875 217.253409,5.9296875 216.352564,5.9296875 L208.96563,5.9296875 C208.244954,5.9296875 207.524277,6.46875 207.524277,7.3671875 C207.524277,8.265625 208.244954,8.8046875 208.96563,8.8046875 Z" id="Shape"></path>
                        <path d="M216.172394,13.8359375 L200.497682,13.8359375 C199.777005,13.8359375 199.056329,14.375 199.056329,15.2734375 C199.056329,16.171875 199.596836,16.7109375 200.497682,16.7109375 L216.172394,16.7109375 C216.893071,16.7109375 217.613747,16.171875 217.613747,15.2734375 C217.613747,14.375 216.893071,13.8359375 216.172394,13.8359375 Z" id="Shape"></path>
                        <path d="M188.606521,13.8359375 C187.885844,13.8359375 187.165168,14.375 187.165168,15.2734375 C187.165168,16.171875 187.705675,16.7109375 188.606521,16.7109375 L193.651256,16.7109375 C194.371932,16.7109375 195.092609,16.171875 195.092609,15.2734375 C195.092609,14.375 194.552101,13.8359375 193.651256,13.8359375 L188.606521,13.8359375 Z" id="Shape"></path>
                        <path d="M82.4869151,186.695313 C82.4869151,185.976563 81.9464077,185.257813 81.0455622,185.257813 L58.7045926,185.257813 C57.9839162,185.257813 57.2632397,185.796875 57.2632397,186.695313 C57.2632397,187.59375 57.8037471,188.132813 58.7045926,188.132813 L81.2257313,188.132813 C81.9464077,187.953125 82.4869151,187.414063 82.4869151,186.695313 Z" id="Shape"></path>
                        <path d="M52.5788429,186.695313 C52.5788429,185.976563 52.0383355,185.257813 51.13749,185.257813 L43.7505565,185.257813 C43.0298801,185.257813 42.3092036,185.796875 42.3092036,186.695313 C42.3092036,187.59375 42.849711,188.132813 43.7505565,188.132813 L51.3176591,188.132813 C52.0383355,187.953125 52.5788429,187.414063 52.5788429,186.695313 Z" id="Shape"></path>
                        <path d="M43.9307256,180.226563 L59.6054382,180.226563 C60.3261146,180.226563 61.046791,179.6875 61.046791,178.789063 C61.046791,177.890625 60.5062837,177.351563 59.6054382,177.351563 L43.9307256,177.351563 C43.2100492,177.351563 42.4893727,177.890625 42.4893727,178.789063 C42.4893727,179.6875 43.2100492,180.226563 43.9307256,180.226563 Z" id="Shape"></path>
                        <path d="M65.0105114,178.96875 C65.0105114,179.6875 65.5510188,180.40625 66.4518643,180.40625 L71.4965994,180.40625 C72.2172758,180.40625 72.9379523,179.867187 72.9379523,178.96875 C72.9379523,178.070312 72.3974449,177.53125 71.4965994,177.53125 L66.4518643,177.53125 C65.7311879,177.53125 65.0105114,178.070312 65.0105114,178.96875 Z" id="Shape"></path>
                        <path d="M55.6417177,70.796875 C56.3623942,70.796875 57.0830706,70.2578125 57.0830706,69.359375 L57.0830706,48.3359375 C57.0830706,47.6171875 56.5425633,46.8984375 55.6417177,46.8984375 C54.9210413,46.8984375 54.2003649,47.4375 54.2003649,48.3359375 L54.2003649,69.5390625 C54.380534,70.2578125 54.9210413,70.796875 55.6417177,70.796875 Z" id="Shape"></path>
                        <path d="M55.6417177,84.8125 C56.3623942,84.8125 57.0830706,84.2734375 57.0830706,83.375 L57.0830706,76.546875 C57.0830706,75.828125 56.5425633,75.109375 55.6417177,75.109375 C54.9210413,75.109375 54.2003649,75.6484375 54.2003649,76.546875 L54.2003649,83.375 C54.380534,84.09375 54.9210413,84.8125 55.6417177,84.8125 Z" id="Shape"></path>
                        <path d="M203.560557,173.9375 C202.83988,173.9375 202.119204,174.476562 202.119204,175.375 L202.119204,196.578125 C202.119204,197.296875 202.659711,198.015625 203.560557,198.015625 C204.281233,198.015625 205.00191,197.476563 205.00191,196.578125 L205.00191,175.195312 C205.00191,174.476562 204.281233,173.9375 203.560557,173.9375 Z" id="Shape"></path>
                        <path d="M203.560557,202.148438 C202.83988,202.148438 202.119204,202.6875 202.119204,203.585938 L202.119204,210.414063 C202.119204,211.132813 202.659711,211.851563 203.560557,211.851563 C204.281233,211.851563 205.00191,211.3125 205.00191,210.414063 L205.00191,203.585938 C205.00191,202.6875 204.281233,202.148438 203.560557,202.148438 Z" id="Shape"></path>
                        <path d="M151.131346,46.359375 C152.572699,46.359375 154.014052,45.8203125 155.095066,44.921875 C157.617434,42.765625 157.977772,38.8125 155.635574,36.296875 C154.554559,35.0390625 153.113206,34.3203125 151.491684,34.140625 C149.870162,33.9609375 148.24864,34.5 146.987456,35.578125 C145.726273,36.65625 145.005596,38.09375 144.825427,39.7109375 C144.645258,41.328125 145.185765,42.9453125 146.26678,44.203125 L146.26678,44.203125 C147.708133,45.640625 149.509824,46.359375 151.131346,46.359375 Z M148.969317,37.5546875 C149.689993,37.015625 150.590839,36.65625 151.491684,36.65625 C152.39253,36.65625 153.293375,37.1953125 153.833882,37.9140625 C155.095066,39.3515625 154.914897,41.5078125 153.473544,42.765625 C152.032191,44.0234375 149.870162,43.84375 148.608978,42.40625 C147.347795,40.96875 147.527964,38.8125 148.969317,37.5546875 Z" id="Shape"></path>
                        <path d="M136.205054,86.968032 L141.774201,86.968032 C143.052366,86.968032 144.147936,87.8871129 144.604423,89.0819181 L136.205054,89.0819181 L136.205054,91.3796204 L144.604423,91.3796204 C144.147936,92.5744256 143.052366,93.4935065 141.774201,93.4935065 L135.018187,93.4935065 L145.699993,104.89011 L147.252051,103.235764 L140.313441,95.6993007 L141.956796,95.6993007 C144.421828,95.6073926 146.430373,93.7692308 146.886861,91.3796204 L150.264868,91.3796204 L150.264868,89.0819181 L146.795563,89.0819181 C146.612968,88.2547453 146.339076,87.6113886 145.882588,86.968032 L150.082273,86.968032 L150.082273,84.6703297 L136.205054,84.6703297 L136.205054,86.968032 Z" id="Shape"></path>
                        <path d="M124.770044,50.3196803 L130.339191,50.3196803 C131.617356,50.3196803 132.712925,51.2387612 133.169413,52.4335664 L124.770044,52.4335664 L124.770044,54.7312687 L133.169413,54.7312687 C132.712925,55.9260739 131.617356,56.8451548 130.339191,56.8451548 L123.583177,56.8451548 L134.264983,68.2417582 L135.81704,66.5874126 L128.878431,59.0509491 L130.521786,59.0509491 C132.986818,58.959041 134.995363,57.1208791 135.45185,54.7312687 L138.829857,54.7312687 L138.829857,52.4335664 L135.360553,52.4335664 C135.177958,51.6063936 134.904065,50.963037 134.447578,50.3196803 L138.647262,50.3196803 L138.647262,48.021978 L124.770044,48.021978 L124.770044,50.3196803 Z" id="Shape-Copy" transform="translate(131.206517, 58.131868) rotate(-43.000000) translate(-131.206517, -58.131868) "></path>
                        <path d="M171.670624,99.90625 C175.093837,99.90625 177.796374,97.2109375 177.796374,93.796875 C177.796374,90.3828125 175.093837,87.6875 171.670624,87.6875 C168.247411,87.6875 165.544875,90.3828125 165.544875,93.796875 C165.544875,97.03125 168.247411,99.90625 171.670624,99.90625 Z M171.670624,90.203125 C173.652485,90.203125 175.093837,91.8203125 175.093837,93.6171875 C175.093837,95.59375 173.472315,97.03125 171.670624,97.03125 C169.688764,97.03125 168.247411,95.4140625 168.247411,93.6171875 C168.247411,91.8203125 169.868933,90.203125 171.670624,90.203125 Z" id="Shape"></path>
                        <path d="M115.8182,99.90625 C119.241413,99.90625 121.94395,97.2109375 121.94395,93.796875 C121.94395,90.3828125 119.241413,87.6875 115.8182,87.6875 C112.394987,87.6875 109.692451,90.3828125 109.692451,93.796875 C109.692451,97.03125 112.394987,99.90625 115.8182,99.90625 Z M115.8182,90.203125 C117.800061,90.203125 119.241413,91.8203125 119.241413,93.6171875 C119.241413,95.59375 117.619891,97.03125 115.8182,97.03125 C113.83634,97.03125 112.394987,95.4140625 112.394987,93.6171875 C112.394987,91.8203125 114.016509,90.203125 115.8182,90.203125 Z" id="Shape"></path>
                        <path d="M197.614976,63.25 L170.949948,63.25 L189.687535,47.078125 C190.228043,46.5390625 190.228043,45.8203125 189.867704,45.1015625 L151.671853,1.4375 C151.491684,1.078125 151.131346,1.078125 150.771008,0.8984375 C150.410669,0.8984375 150.050331,1.078125 149.870162,1.2578125 L68.4337245,71.515625 C68.0733863,71.6953125 68.0733863,72.0546875 67.8932172,72.4140625 C67.8932172,72.7734375 68.0733863,73.1328125 68.2535554,73.3125 L88.4324957,96.4921875 L21.9500942,96.4921875 C13.1218079,96.4921875 5.91504348,103.679688 5.91504348,112.484375 L5.91504348,213.109375 C5.91504348,221.914063 13.1218079,229.101563 21.9500942,229.101563 L167.166397,229.101563 C175.994683,229.101563 183.201447,221.914063 183.201447,213.109375 L183.201447,180.226563 L190.228043,180.226563 C193.110748,180.226563 195.452947,177.890625 195.452947,175.015625 L195.452947,150.757813 C195.452947,147.882813 193.110748,145.546875 190.228043,145.546875 L183.201447,145.546875 L183.201447,123.984375 L197.614976,123.984375 C198.335653,123.984375 199.056329,123.445313 199.056329,122.546875 L199.056329,64.6875 C198.87616,63.96875 198.335653,63.25 197.614976,63.25 Z M150.590839,4.1328125 L186.80483,46 L166.806058,63.25 L154.37439,63.25 L169.868933,49.953125 C170.229271,49.7734375 170.229271,49.4140625 170.409441,49.0546875 C170.409441,48.6953125 170.229271,48.3359375 170.049102,48.15625 C169.328426,47.2578125 168.968088,46.1796875 168.968088,44.921875 C168.968088,43.84375 169.508595,42.765625 170.409441,41.8671875 C170.769779,41.6875 170.769779,41.328125 170.949948,40.96875 C170.949948,40.609375 170.769779,40.25 170.58961,40.0703125 L154.37439,21.203125 C153.833882,20.6640625 153.113206,20.6640625 152.39253,21.0234375 C151.491684,21.7421875 150.410669,22.1015625 149.149486,22.1015625 C148.068471,22.1015625 146.987456,21.5625 146.086611,20.6640625 C145.906442,20.3046875 145.546103,20.3046875 145.185765,20.125 C144.825427,20.125 144.465089,20.3046875 144.28492,20.484375 L94.3780763,63.25 L89.8738486,63.25 C89.1531721,63.25 88.4324957,63.7890625 88.4324957,64.6875 L88.4324957,92.71875 L71.1362612,72.59375 L150.590839,4.1328125 Z M138.879846,63.25 C139.600523,62.4114583 138.879846,62.4114583 136.717817,63.25 C136.717817,63.25 136.537648,63.4296875 136.537648,63.4296875 L132.573928,63.4296875 C132.393758,63.4296875 132.393758,63.25 132.213589,63.25 L132.03342,63.4296875 L98.5219658,63.4296875 L144.825427,23.359375 C145.906442,24.2578125 147.167625,24.796875 148.608978,24.796875 C150.050331,24.9765625 151.491684,24.6171875 152.752868,23.8984375 L167.526735,40.7890625 C166.625889,41.8671875 166.085382,43.3046875 166.085382,44.7421875 C165.905213,46.1796875 166.265551,47.6171875 166.986227,48.6953125 L150.050331,63.25 L138.879846,63.25 Z M190.228043,148.0625 C191.669396,148.0625 192.75041,149.140625 192.75041,150.578125 L192.75041,174.835938 C192.75041,176.273438 191.669396,177.351563 190.228043,177.351563 L183.201447,177.351563 L147.527964,177.351563 C147.167625,177.351563 146.987456,177.171875 146.807287,176.992188 L140.861707,164.59375 L140.14103,162.976563 C140.14103,162.976563 140.14103,162.976563 140.14103,162.976563 C140.14103,162.796875 140.14103,162.617188 140.14103,162.4375 L146.807287,148.601563 C146.987456,148.242188 147.167625,148.0625 147.527964,148.0625 L183.201447,148.0625 L190.228043,148.0625 Z M180.318742,145.367188 L147.527964,145.367188 C146.26678,145.367188 145.005596,146.085938 144.28492,147.34375 L137.618663,161.359375 C137.618663,161.539063 137.618663,161.539063 137.438494,161.71875 C137.078155,162.617188 137.078155,163.515625 137.618663,164.414063 L144.28492,178.429688 C144.825427,179.6875 146.086611,180.40625 147.527964,180.40625 L180.498911,180.40625 L180.498911,213.289063 C180.498911,220.65625 174.55333,226.585938 167.346566,226.585938 L21.9500942,226.585938 C14.5631607,226.585938 8.79774924,220.65625 8.79774924,213.289063 L8.79774924,112.664063 C8.79774924,105.296875 14.7433299,99.3671875 21.9500942,99.3671875 L88.6126648,99.3671875 L88.6126648,122.726563 C88.6126648,123.445313 89.1531721,124.164063 90.0540177,124.164063 L180.498911,124.164063 L180.498911,145.367188 L180.318742,145.367188 Z M196.173623,121.289063 L91.3152014,121.289063 L91.3152014,96.3125 L91.3152014,65.9453125 L94.9185836,65.9453125 L132.573928,65.9453125 C133.474773,66.125 134.375619,66.125 135.096295,65.9453125 L150.590839,65.9453125 L167.166397,65.9453125 L196.173623,65.9453125 L196.173623,121.289063 Z" id="Shape"></path>
                        <path d="M106.629576,75.46875 C106.629576,75.6484375 106.629576,75.828125 106.629576,76.0078125 C106.449407,78.1640625 104.467546,79.9609375 102.305517,79.9609375 C101.584841,79.9609375 100.864164,80.5 100.864164,81.3984375 L100.864164,106.015625 C100.864164,106.734375 101.404672,107.453125 102.305517,107.453125 C104.647716,107.453125 106.629576,109.429688 106.629576,111.765625 C106.629576,112.484375 107.170083,113.203125 108.070929,113.203125 L179.778234,113.203125 C180.498911,113.203125 181.219587,112.664063 181.219587,111.765625 C181.219587,109.429688 183.201447,107.453125 185.543646,107.453125 C186.264322,107.453125 186.984999,106.914063 186.984999,106.015625 L186.984999,81.21875 C186.984999,80.5 186.444491,79.78125 185.543646,79.78125 C183.201447,79.78125 181.219587,77.8046875 181.219587,75.46875 C181.219587,74.75 180.67908,74.03125 179.778234,74.03125 L107.89076,74.03125 C107.170083,74.2109375 106.629576,74.75 106.629576,75.46875 Z M178.336881,76.90625 C178.877389,79.78125 181.039418,81.9375 183.922124,82.4765625 L183.922124,104.9375 C181.039418,105.476563 178.877389,107.632813 178.336881,110.507813 L109.151943,110.507813 C108.611436,107.632813 106.449407,105.476563 103.566701,104.9375 L103.566701,82.4765625 C106.449407,81.9375 108.611436,79.78125 109.151943,76.90625 L178.336881,76.90625 Z" id="Shape"></path>
                        <path d="M158.518279,171.0625 C163.022507,171.0625 166.806058,167.46875 166.806058,162.796875 C166.806058,158.304688 163.202676,154.53125 158.518279,154.53125 C154.014052,154.53125 150.2305,158.125 150.2305,162.796875 C150.410669,167.289063 154.014052,171.0625 158.518279,171.0625 Z M158.518279,157.40625 C161.581154,157.40625 164.103522,159.921875 164.103522,162.976563 C164.103522,166.03125 161.581154,168.546875 158.518279,168.546875 C155.455404,168.546875 152.933037,166.03125 152.933037,162.976563 C153.113206,159.742188 155.455404,157.40625 158.518279,157.40625 Z" id="Shape"></path>
                        <path d="M45.0117403,114.101563 L50.4168136,114.101563 C51.13749,114.101563 51.8581664,113.5625 51.8581664,112.664063 C51.8581664,111.765625 51.13749,111.40625 50.4168136,111.40625 L45.0117403,111.40625 C44.2910638,111.40625 43.5703874,111.945313 43.5703874,112.84375 C43.5703874,113.742188 44.2910638,114.101563 45.0117403,114.101563 Z" id="Shape"></path>
                        <path d="M75.820658,114.101563 L81.2257313,114.101563 C81.9464077,114.101563 82.6670842,113.5625 82.6670842,112.664063 C82.6670842,111.765625 81.9464077,111.40625 81.2257313,111.40625 L75.820658,111.40625 C75.0999816,111.40625 74.3793051,111.945313 74.3793051,112.84375 C74.3793051,113.742188 75.0999816,114.101563 75.820658,114.101563 Z" id="Shape"></path>
                        <path d="M60.3261146,114.101563 L65.7311879,114.101563 C66.4518643,114.101563 67.1725408,113.5625 67.1725408,112.664063 C67.1725408,111.765625 66.6320334,111.40625 65.911357,111.40625 L60.5062837,111.40625 C59.7856073,111.40625 59.0649308,111.945313 59.0649308,112.84375 C59.0649308,113.742188 59.6054382,114.101563 60.3261146,114.101563 Z" id="Shape"></path>
                        <path d="M36.363623,112.84375 C36.363623,112.125 35.8231157,111.40625 34.9222701,111.40625 L29.5171968,111.40625 C28.7965204,111.40625 28.075844,111.945313 28.075844,112.84375 C28.075844,113.742188 28.6163513,114.28125 29.5171968,114.28125 L34.9222701,114.28125 C35.8231157,114.101563 36.363623,113.5625 36.363623,112.84375 Z" id="Shape"></path>
                        <path d="M141.041876,214.1875 L146.446949,214.1875 C147.167625,214.1875 147.888302,213.648438 147.888302,212.75 C147.888302,211.851563 147.347795,211.3125 146.446949,211.3125 L141.041876,211.3125 C140.321199,211.3125 139.600523,211.851563 139.600523,212.75 C139.600523,213.648438 140.321199,214.1875 141.041876,214.1875 Z" id="Shape"></path>
                        <path d="M125.547332,214.1875 L130.952406,214.1875 C131.673082,214.1875 132.393758,213.648438 132.393758,212.75 C132.393758,211.851563 131.853251,211.3125 130.952406,211.3125 L125.547332,211.3125 C124.826656,211.3125 124.105979,211.851563 124.105979,212.75 C124.105979,213.648438 124.826656,214.1875 125.547332,214.1875 Z" id="Shape"></path>
                        <path d="M156.35625,214.1875 L161.761323,214.1875 C162.482,214.1875 163.202676,213.648438 163.202676,212.75 C163.202676,211.851563 162.662169,211.3125 161.761323,211.3125 L156.35625,211.3125 C155.635574,211.3125 154.914897,211.851563 154.914897,212.75 C154.914897,213.648438 155.635574,214.1875 156.35625,214.1875 Z" id="Shape"></path>
                        <path d="M94.9185836,214.1875 L100.323657,214.1875 C101.044333,214.1875 101.76501,213.648438 101.76501,212.75 C101.76501,211.851563 101.224502,211.3125 100.323657,211.3125 L94.9185836,211.3125 C94.1979072,211.3125 93.4772308,211.851563 93.4772308,212.75 C93.4772308,213.648438 94.1979072,214.1875 94.9185836,214.1875 Z" id="Shape"></path>
                        <path d="M108.971774,212.929688 C108.971774,213.648438 109.512282,214.367188 110.413127,214.367188 L115.8182,214.367188 C116.538877,214.367188 117.259553,213.828125 117.259553,212.929688 C117.259553,212.03125 116.719046,211.492188 115.8182,211.492188 L110.413127,211.492188 C109.512282,211.492188 108.971774,212.03125 108.971774,212.929688 Z" id="Shape"></path>
                        <path d="M38.7058214,211.492188 L33.3007481,211.492188 C32.5800717,211.492188 31.8593953,212.03125 31.8593953,212.929688 C31.8593953,213.828125 32.3999026,214.367188 33.3007481,214.367188 L38.7058214,214.367188 C39.4264979,214.367188 40.1471743,213.828125 40.1471743,212.929688 C40.1471743,212.03125 39.606667,211.492188 38.7058214,211.492188 Z" id="Shape"></path>
                        <path d="M54.2003649,211.492188 L48.7952916,211.492188 C48.0746151,211.492188 47.3539387,212.03125 47.3539387,212.929688 C47.3539387,213.828125 47.894446,214.367188 48.7952916,214.367188 L54.2003649,214.367188 C54.9210413,214.367188 55.6417177,213.828125 55.6417177,212.929688 C55.6417177,212.03125 54.9210413,211.492188 54.2003649,211.492188 Z" id="Shape"></path>
                        <path d="M23.3914471,211.492188 L21.0492487,211.492188 C20.3285723,211.492188 19.6078958,212.03125 19.6078958,212.929688 C19.6078958,213.828125 20.1484031,214.367188 21.0492487,214.367188 L23.3914471,214.367188 C24.1121236,214.367188 24.8328,213.828125 24.8328,212.929688 C24.8328,212.03125 24.1121236,211.492188 23.3914471,211.492188 Z" id="Shape"></path>
                        <path d="M84.8291135,211.492188 L79.4240402,211.492188 C78.7033638,211.492188 77.9826873,212.03125 77.9826873,212.929688 C77.9826873,213.828125 78.5231947,214.367188 79.4240402,214.367188 L84.8291135,214.367188 C85.5497899,214.367188 86.2704664,213.828125 86.2704664,212.929688 C86.2704664,212.03125 85.7299591,211.492188 84.8291135,211.492188 Z" id="Shape"></path>
                        <path d="M69.5147392,211.492188 L64.1096659,211.492188 C63.3889895,211.492188 62.668313,212.03125 62.668313,212.929688 C62.668313,213.828125 63.2088203,214.367188 64.1096659,214.367188 L69.5147392,214.367188 C70.2354156,214.367188 70.9560921,213.828125 70.9560921,212.929688 C70.9560921,212.03125 70.2354156,211.492188 69.5147392,211.492188 Z" id="Shape"></path>
                    </g>
                </g>
            </g>
        </g>
    </g>
</svg>