<?xml version="1.0" encoding="UTF-8"?>
<svg width="240px" height="223px" viewBox="0 0 240 223" version="1.1" xmlns="http://www.w3.org/2000/svg" xmlns:xlink="http://www.w3.org/1999/xlink">
    <!-- Generator: Sketch 47.1 (45422) - http://www.bohemiancoding.com/sketch -->
    <title>FNO</title>
    <desc>Created with Sketch.</desc>
    <defs></defs>
    <g id="Welcome" stroke="none" stroke-width="1" fill="none" fill-rule="evenodd">
        <g id="Research" transform="translate(-198.000000, -1300.000000)" fill-rule="nonzero" fill="#96CCFF">
            <g id="noun_749756_cc" transform="translate(198.000000, 1300.000000)">
                <g id="FNO">
                    <path d="M8.86931818,58.3310185 C8.86931818,57.5801768 8.3262987,57.0170455 7.60227273,57.0170455 C6.87824675,57.0170455 6.33522727,57.5801768 6.33522727,58.3310185 L6.33522727,75.9757997 C6.33522727,76.7266414 6.87824675,77.2897727 7.60227273,77.2897727 C8.3262987,77.2897727 8.86931818,76.7266414 8.86931818,75.9757997 L8.86931818,58.3310185 Z" id="Shape"></path>
                    <path d="M7.60227273,82.3579545 C6.87824675,82.3579545 6.33522727,82.9240812 6.33522727,83.6789168 L6.33522727,89.9063104 C6.33522727,90.661146 6.87824675,91.2272727 7.60227273,91.2272727 C8.3262987,91.2272727 8.86931818,90.661146 8.86931818,89.9063104 L8.86931818,83.6789168 C8.86931818,82.9240812 8.3262987,82.3579545 7.60227273,82.3579545 Z" id="Shape"></path>
                    <path d="M228.068182,160.9617 C228.068182,160.210859 227.525162,159.647727 226.801136,159.647727 C226.07711,159.647727 225.534091,160.210859 225.534091,160.9617 L225.534091,178.606481 C225.534091,179.357323 226.07711,179.920455 226.801136,179.920455 C227.525162,179.920455 228.068182,179.357323 228.068182,178.606481 L228.068182,160.9617 Z" id="Shape"></path>
                    <path d="M226.801136,186.255682 C226.07711,186.255682 225.534091,186.821809 225.534091,187.576644 L225.534091,193.804038 C225.534091,194.558873 226.07711,195.125 226.801136,195.125 C227.525162,195.125 228.068182,194.558873 228.068182,193.804038 L228.068182,187.576644 C228.068182,186.821809 227.525162,186.255682 226.801136,186.255682 Z" id="Shape"></path>
                    <path d="M100.730114,13.9375 C104.601641,13.9375 107.698864,10.8402778 107.698864,6.96875 C107.698864,3.09722222 104.601641,0 100.730114,0 C96.8585859,0 93.7613636,3.09722222 93.7613636,6.96875 C93.7613636,10.8402778 96.8585859,13.9375 100.730114,13.9375 Z M100.730114,2.90364583 C103.05303,2.90364583 104.795218,4.83940972 104.795218,6.96875 C104.795218,9.29166667 102.859454,11.0338542 100.730114,11.0338542 C98.407197,11.0338542 96.6650095,9.09809028 96.6650095,6.96875 C96.4714331,4.64583333 98.407197,2.90364583 100.730114,2.90364583 Z" id="Shape"></path>
                    <path d="M9.49820836,184.988636 C6.37400759,184.988636 3.80113636,187.5636 3.80113636,190.690341 C3.80113636,193.817082 6.37400759,196.392045 9.49820836,196.392045 C12.6224091,196.392045 15.1952803,193.817082 15.1952803,190.690341 C15.3790569,187.747526 12.8061856,184.988636 9.49820836,184.988636 Z M9.49820836,194.001008 C7.84421971,194.001008 6.37400759,192.5296 6.37400759,190.874267 C6.37400759,189.218933 7.84421971,187.747526 9.49820836,187.747526 C11.152197,187.747526 12.6224091,189.218933 12.6224091,190.874267 C12.6224091,192.5296 11.3359735,194.001008 9.49820836,194.001008 Z" id="Shape"></path>
                    <path d="M13.9375,12.687561 C13.9375,13.4018119 14.4930507,13.9375 15.233785,13.9375 L36.7150787,13.9375 C37.4558129,13.9375 38.0113636,13.4018119 38.0113636,12.687561 C38.0113636,11.9733102 37.4558129,11.437622 36.7150787,11.437622 L15.233785,11.437622 C14.4930507,11.2590593 13.9375,11.7947474 13.9375,12.687561 Z" id="Shape"></path>
                    <path d="M10.1363636,12.6704545 C10.1363636,11.9464286 9.55157343,11.4034091 8.77185315,11.4034091 L1.36451049,11.4034091 C0.58479021,11.4034091 0,11.9464286 0,12.6704545 C0,13.3944805 0.58479021,13.9375 1.36451049,13.9375 L8.77185315,13.9375 C9.55157343,13.9375 10.1363636,13.3944805 10.1363636,12.6704545 Z" id="Shape"></path>
                    <path d="M1.30705742,6.33522727 L16.4315789,6.33522727 C17.1784689,6.33522727 17.7386364,5.79220779 17.7386364,5.06818182 C17.7386364,4.34415584 17.1784689,3.80113636 16.4315789,3.80113636 L1.30705742,3.80113636 C0.560167464,3.80113636 0,4.34415584 0,5.06818182 C0,5.79220779 0.560167464,6.33522727 1.30705742,6.33522727 Z" id="Shape"></path>
                    <path d="M22.8701705,6.33522727 L27.8116477,6.33522727 C28.571875,6.33522727 29.1420455,5.79220779 29.1420455,5.06818182 C29.1420455,4.34415584 28.571875,3.80113636 27.8116477,3.80113636 L22.8701705,3.80113636 C22.1099432,3.80113636 21.5397727,4.34415584 21.5397727,5.06818182 C21.5397727,5.79220779 22.1099432,6.33522727 22.8701705,6.33522727 Z" id="Shape"></path>
                    <path d="M225.534091,214.130682 C225.534091,213.406656 224.953765,212.863636 224.179997,212.863636 L201.547276,212.863636 C200.773508,212.863636 200.193182,213.406656 200.193182,214.130682 C200.193182,214.854708 200.773508,215.397727 201.547276,215.397727 L224.179997,215.397727 C224.953765,215.397727 225.534091,214.854708 225.534091,214.130682 Z" id="Shape"></path>
                    <path d="M229.335227,214.144593 C229.335227,214.86067 229.920017,215.397727 230.699738,215.397727 L238.10708,215.397727 C238.886801,215.397727 239.471591,214.86067 239.471591,214.144593 C239.471591,213.428517 238.886801,212.891459 238.10708,212.891459 L230.699738,212.891459 C229.920017,212.71244 229.335227,213.428517 229.335227,214.144593 Z" id="Shape"></path>
                    <path d="M238.164533,220.465909 L223.040012,220.465909 C222.293122,220.465909 221.732955,221.008929 221.732955,221.732955 C221.732955,222.456981 222.293122,223 223.040012,223 L238.164533,223 C238.911423,223 239.471591,222.456981 239.471591,221.732955 C239.471591,221.189935 238.911423,220.465909 238.164533,220.465909 Z" id="Shape"></path>
                    <path d="M216.60142,220.465909 L211.659943,220.465909 C210.899716,220.465909 210.329545,221.008929 210.329545,221.732955 C210.329545,222.456981 210.899716,223 211.659943,223 L216.60142,223 C217.361648,223 217.931818,222.456981 217.931818,221.732955 C217.931818,221.189935 217.361648,220.465909 216.60142,220.465909 Z" id="Shape"></path>
                    <path d="M208.224961,5.98868493 C208.396764,6.1619561 208.74037,6.33522727 209.083975,6.33522727 C209.427581,6.33522727 209.771186,6.1619561 209.942989,5.98868493 C210.458398,5.46887141 210.458398,4.60251554 209.942989,4.25597319 L207.365948,1.65690559 C206.850539,1.13709207 205.991525,1.13709207 205.64792,1.65690559 C205.132512,2.17671911 205.132512,3.04307498 205.64792,3.38961733 L208.224961,5.98868493 Z" id="Shape"></path>
                    <path d="M217.09428,16.1250486 C217.266082,16.2983197 217.609688,16.4715909 217.953294,16.4715909 C218.296899,16.4715909 218.640505,16.2983197 218.812307,16.1250486 C219.327716,15.605235 219.327716,14.7388792 218.812307,14.3923368 L216.235266,11.7932692 C215.719857,11.2734557 214.860844,11.2734557 214.517238,11.7932692 C214.00183,12.3130828 214.00183,13.1794386 214.517238,13.525981 L217.09428,16.1250486 Z" id="Shape"></path>
                    <path d="M206.506934,16.4715909 C206.850539,16.4715909 207.194145,16.2983197 207.365948,16.1250486 L209.942989,13.525981 C210.458398,13.0061674 210.458398,12.1398116 209.942989,11.7932692 C209.427581,11.2734557 208.568567,11.2734557 208.224961,11.7932692 L205.64792,14.3923368 C205.132512,14.9121503 205.132512,15.7785062 205.64792,16.1250486 C205.819723,16.4715909 206.163328,16.4715909 206.506934,16.4715909 Z" id="Shape"></path>
                    <path d="M215.376252,6.33522727 C215.719857,6.33522727 216.063463,6.1619561 216.235266,5.98868493 L218.812307,3.38961733 C219.327716,2.86980381 219.327716,2.00344794 218.812307,1.65690559 C218.296899,1.13709207 217.437885,1.13709207 217.09428,1.65690559 L214.517238,4.25597319 C214.00183,4.77578671 214.00183,5.64214258 214.517238,5.98868493 C214.860844,6.1619561 215.204449,6.33522727 215.376252,6.33522727 Z" id="Shape"></path>
                    <path d="M48.9852658,200.583042 C48.4698575,200.063228 47.6108436,200.063228 47.2672381,200.583042 C46.7518297,201.102855 46.7518297,201.969211 47.2672381,202.315754 L49.8442797,204.914821 C50.0160824,205.088092 50.359688,205.261364 50.7032935,205.261364 C51.0468991,205.261364 51.3905046,205.088092 51.5623074,204.914821 C52.0777157,204.395008 52.0777157,203.528652 51.5623074,203.18211 L48.9852658,200.583042 Z" id="Shape"></path>
                    <path d="M57.8183203,209.45236 C57.2966053,208.932547 56.4270802,208.932547 56.0792702,209.45236 C55.7314601,209.972174 55.5575551,210.83853 56.0792702,211.185072 L58.6878454,213.784139 C58.8617504,213.957411 59.2095604,214.130682 59.5573705,214.130682 C59.9051805,214.130682 60.2529905,213.957411 60.4268955,213.784139 C60.9486106,213.264326 60.9486106,212.39797 60.4268955,212.051428 L57.8183203,209.45236 Z" id="Shape"></path>
                    <path d="M49.8442797,209.45236 L47.2672381,212.051428 C46.7518297,212.571241 46.7518297,213.437597 47.2672381,213.784139 C47.4390408,213.957411 47.7826464,214.130682 48.1262519,214.130682 C48.4698575,214.130682 48.813463,213.957411 48.9852658,213.784139 L51.5623074,211.185072 C52.0777157,210.665258 52.0777157,209.798902 51.5623074,209.45236 C51.2187018,208.932547 50.359688,208.932547 49.8442797,209.45236 Z" id="Shape"></path>
                    <path d="M58.7135978,200.459928 L56.1365562,203.127392 C55.6211479,203.660885 55.6211479,204.55004 56.1365562,204.905702 C56.308359,205.083533 56.6519646,205.261364 56.9955701,205.261364 C57.3391757,205.261364 57.6827812,205.083533 57.854584,204.905702 L60.4316256,202.238238 C60.9470339,201.704745 60.9470339,200.81559 60.4316256,200.459928 C59.9162173,200.104266 59.2290062,200.104266 58.7135978,200.459928 Z" id="Shape"></path>
                    <path d="M27.2649411,27.6951613 C24.0738636,30.8913856 22.3844697,35.027676 22.3844697,39.5399927 C22.3844697,43.1122434 23.5107323,46.4964809 25.5755471,49.3166789 L20.3196549,49.3166789 C19.5688131,49.3166789 19.0056818,49.8807185 19.0056818,50.6327713 C19.0056818,51.384824 19.5688131,51.9488636 20.3196549,51.9488636 L58.2371633,51.9488636 C58.9880051,51.9488636 59.5511364,51.384824 59.5511364,50.6327713 C59.5511364,49.8807185 58.9880051,49.3166789 58.2371633,49.3166789 L52.981271,49.3166789 C55.0460859,46.4964809 56.1723485,43.1122434 56.1723485,39.5399927 C56.1723485,35.027676 54.4829545,30.8913856 51.2918771,27.6951613 C48.1007997,24.498937 43.97117,22.8068182 39.4661195,22.8068182 C34.7733586,22.8068182 30.4560185,24.498937 27.2649411,27.6951613 Z M53.1689815,39.5399927 C53.1689815,43.1122434 51.8550084,46.6844941 49.2270623,49.3166789 L29.1420455,49.3166789 C26.7018098,46.6844941 25.2001263,43.3002566 25.2001263,39.5399927 C25.2001263,35.7797287 26.7018098,32.207478 29.3297559,29.5752933 C31.957702,26.9431085 35.5242003,25.4390029 39.2784091,25.4390029 C43.0326178,25.4390029 46.5991162,26.9431085 49.2270623,29.5752933 C51.667298,32.3954912 53.1689815,35.7797287 53.1689815,39.5399927 Z" id="Shape"></path>
                    <path d="M51.9849676,61.0626994 C51.9849676,60.6848086 51.9849676,60.3069179 51.6081166,59.9290271 C51.4196911,59.5511364 51.0428402,59.5511364 50.6659892,59.5511364 L26.7359531,59.5511364 C26.3591021,59.5511364 25.9822512,59.7400817 25.7938257,59.9290271 C25.6054002,60.3069179 25.4169747,60.6848086 25.4169747,61.0626994 C27.1128041,78.4456738 27.866506,100.930173 17.8799555,122.281001 C17.69153,122.658892 17.69153,123.225728 17.8799555,123.603618 C18.068381,123.981509 18.6336574,124.170455 19.0105084,124.170455 L58.2030085,124.170455 C58.7682849,124.170455 59.1451359,123.981509 59.3335614,123.603618 C59.5219868,123.225728 59.7104123,122.658892 59.3335614,122.281001 C49.5354363,100.930173 50.2891383,78.4456738 51.9849676,61.0626994 Z M56.1303282,121.525219 L21.2716141,121.525219 C30.3160372,100.741228 29.9391863,79.2014553 28.4317824,62.1963716 L49.1585854,62.1963716 C47.462756,79.2014553 47.0859051,100.741228 56.1303282,121.525219 Z" id="Shape"></path>
                    <path d="M65.9769924,144.443182 L11.4659024,144.443182 C10.706166,144.443182 10.1363636,145.001147 10.1363636,145.7451 L10.1363636,163.413991 C10.1363636,164.157944 10.706166,164.715909 11.4659024,164.715909 L65.7870583,164.715909 C66.5467947,164.715909 67.116597,164.157944 67.116597,163.413991 L67.116597,145.931088 C67.3065312,145.187135 66.7367288,144.443182 65.9769924,144.443182 Z M64.4575195,162.112073 L12.9853753,162.112073 L12.9853753,147.233007 L64.4575195,147.233007 L64.4575195,162.112073 Z" id="Shape"></path>
                    <path d="M15.2045455,134.32073 C15.2045455,135.036806 15.7653689,135.573864 16.5131334,135.573864 L59.5095939,135.573864 C60.2573584,135.573864 60.8181818,135.036806 60.8181818,134.32073 C60.8181818,133.604653 60.2573584,133.067595 59.5095939,133.067595 L16.5131334,133.067595 C15.95231,132.888576 15.2045455,133.604653 15.2045455,134.32073 Z" id="Shape"></path>
                    <path d="M135.490086,154.542142 C135.679631,154.916177 136.248263,155.103195 136.627351,155.103195 C137.00644,155.103195 137.195984,154.916177 137.575072,154.72916 C138.143705,154.168106 138.333249,153.420035 137.764616,152.858982 L131.320115,145.004235 C131.13057,144.6302 130.751482,144.443182 130.18285,144.443182 C129.803761,144.443182 129.424673,144.6302 129.045585,145.004235 L122.601083,152.858982 C122.03245,153.420035 122.221994,154.355124 122.790627,154.72916 C123.359259,155.290213 124.30698,155.103195 124.686069,154.542142 L128.476952,149.866697 C126.960599,173.617955 106.868916,192.506751 82.4177183,192.506751 C81.6595416,192.506751 81.0909091,193.067804 81.0909091,193.815876 C81.0909091,194.563947 81.6595416,195.125 82.4177183,195.125 C108.574814,195.125 129.993305,174.92708 131.320115,149.492662 L135.490086,154.542142 Z" id="Shape"></path>
                    <path d="M87.4261364,159.647727 C87.4261364,163.936189 90.9348776,167.25 95.0284091,167.25 C99.3168706,167.25 102.630682,163.741259 102.630682,159.647727 C102.630682,155.359266 99.1219406,152.045455 95.0284091,152.045455 C90.9348776,152.045455 87.4261364,155.554196 87.4261364,159.647727 Z M99.9016608,159.647727 C99.9016608,162.181818 97.7574301,164.326049 95.2233392,164.326049 C92.6892483,164.326049 90.5450175,162.181818 90.5450175,159.647727 C90.5450175,157.113636 92.6892483,154.969406 95.2233392,154.969406 C97.7574301,154.969406 99.9016608,157.113636 99.9016608,159.647727 Z" id="Shape"></path>
                    <path d="M144.007383,184.158782 C143.426317,183.57586 142.457875,183.57586 142.070498,184.158782 L136.840909,189.405079 L131.61132,184.158782 C131.030255,183.57586 130.061812,183.57586 129.674435,184.158782 C129.09337,184.741704 129.09337,185.713241 129.674435,186.101855 L134.904024,191.348152 L129.674435,196.594449 C129.09337,197.177371 129.09337,198.148907 129.674435,198.537522 C129.868124,198.731829 130.255501,198.926136 130.642878,198.926136 C131.030255,198.926136 131.417632,198.731829 131.61132,198.537522 L136.840909,193.291225 L142.070498,198.537522 C142.264186,198.731829 142.651563,198.926136 143.03894,198.926136 C143.426317,198.926136 143.813694,198.731829 144.007383,198.537522 C144.588448,197.9546 144.588448,196.983063 144.007383,196.594449 L138.777794,191.348152 L144.007383,186.101855 C144.39476,185.713241 144.39476,184.741704 144.007383,184.158782 Z" id="Shape"></path>
                    <path d="M225.910934,121.636364 C228.937054,121.636364 231.206643,119.184486 231.206643,116.355396 L231.206643,36.3864504 L234.611028,36.3864504 C236.502353,36.3864504 238.204545,34.8776024 238.204545,32.8029363 L238.204545,26.3903322 C238.204545,24.5042722 236.691486,22.8068182 234.611028,22.8068182 L73.2810172,22.8068182 C71.3896924,22.8068182 69.6875,24.3156662 69.6875,26.3903322 L69.6875,32.8029363 C69.6875,34.6889964 71.2005599,36.3864504 73.2810172,36.3864504 L76.685402,36.3864504 L76.685402,116.355396 C76.685402,119.373092 79.1441243,121.636364 81.9811116,121.636364 L225.910934,121.636364 Z M72.5244873,32.8029363 L72.5244873,26.3903322 C72.5244873,26.0131202 72.9027523,25.6359082 73.2810172,25.6359082 L234.800161,25.6359082 C235.178426,25.6359082 235.556691,26.0131202 235.556691,26.3903322 L235.556691,32.8029363 C235.556691,33.1801483 235.178426,33.5573603 234.800161,33.5573603 L229.882716,33.5573603 L78.1984619,33.5573603 L73.2810172,33.5573603 C72.9027523,33.5573603 72.5244873,33.1801483 72.5244873,32.8029363 Z M79.5223893,116.16679 L79.5223893,36.3864504 L228.369656,36.3864504 L228.369656,116.355396 C228.369656,117.864244 227.234861,118.99588 225.721801,118.99588 L81.9811116,118.99588 C80.6571842,118.807274 79.5223893,117.675638 79.5223893,116.16679 Z" id="Shape"></path>
                    <path d="M100.006941,108.965909 C103.41362,108.965909 106.252519,106.148206 106.252519,102.766963 C106.252519,101.639882 105.873999,100.512801 105.30622,99.5735663 L121.582574,83.4187368 C122.528874,83.9822774 123.664433,84.3579711 124.989253,84.3579711 C126.124812,84.3579711 127.260372,83.9822774 128.395932,83.4187368 L138.615968,93.562467 C138.805228,93.7503138 139.183748,93.9381607 139.562268,93.9381607 C139.940788,93.9381607 140.319307,93.7503138 140.508567,93.562467 L167.004958,67.2639072 C167.951258,67.8274478 169.086817,68.2031415 170.222377,68.2031415 C171.357937,68.2031415 172.493496,67.8274478 173.439796,67.2639072 L182.335013,76.0927094 C182.524273,76.2805563 182.902793,76.4684031 183.281313,76.4684031 L183.281313,76.4684031 C183.659832,76.4684031 184.038352,76.2805563 184.227612,76.0927094 L204.667685,55.8052491 C205.613985,56.3687896 206.749544,56.7444834 207.885104,56.7444834 C211.291783,56.7444834 214.130682,53.9267805 214.130682,50.5455371 C214.130682,47.1642937 211.291783,44.3465909 207.885104,44.3465909 C204.478425,44.3465909 201.639526,47.1642937 201.639526,50.5455371 C201.639526,51.6726183 202.018046,52.7996994 202.585826,53.7389337 L183.281313,73.2750066 L175.332395,65.3854387 C175.900175,64.4462044 176.278695,63.3191233 176.278695,62.1920422 C176.278695,58.8107988 173.439796,55.9930959 170.033117,55.9930959 C166.626438,55.9930959 163.787539,58.8107988 163.787539,62.1920422 C163.787539,63.3191233 164.166059,64.4462044 164.733839,65.3854387 L139.562268,90.5569173 L130.288531,81.3524214 C130.856311,80.4131871 131.234831,79.286106 131.234831,78.1590248 C131.234831,74.7777814 128.395932,71.9600786 124.989253,71.9600786 C121.582574,71.9600786 118.743675,74.7777814 118.743675,78.1590248 C118.743675,79.286106 119.122195,80.4131871 119.689975,81.3524214 L103.22436,97.5072509 C102.278061,96.9437104 101.142501,96.5680166 100.006941,96.5680166 C96.6002627,96.5680166 93.7613636,99.3857195 93.7613636,102.766963 C93.7613636,106.148206 96.6002627,108.965909 100.006941,108.965909 Z M207.885104,47.3521406 C209.777703,47.3521406 211.291783,48.8549154 211.291783,50.733384 C211.291783,52.6118525 209.777703,54.1146274 207.885104,54.1146274 C206.938804,54.1146274 206.181765,53.7389337 205.424725,53.1753931 C204.856945,52.6118525 204.478425,51.6726183 204.478425,50.733384 C204.478425,48.8549154 206.181765,47.3521406 207.885104,47.3521406 Z M170.222377,58.6229519 C172.114976,58.6229519 173.629056,60.1257267 173.629056,62.0041953 C173.629056,62.9434296 173.250536,63.694817 172.682756,64.4462044 C171.357937,65.7611324 169.086817,65.7611324 167.761998,64.4462044 C167.194218,63.8826638 166.815698,62.9434296 166.815698,62.0041953 C166.815698,60.1257267 168.329778,58.6229519 170.222377,58.6229519 Z M124.989253,74.7777814 C126.881852,74.7777814 128.395932,76.2805563 128.395932,78.1590248 C128.395932,79.0982591 128.017412,79.8496465 127.449632,80.601034 C126.124812,81.9159619 123.853693,81.9159619 122.528874,80.601034 C121.961094,80.0374934 121.582574,79.0982591 121.582574,78.1590248 C121.582574,76.2805563 123.096653,74.7777814 124.989253,74.7777814 Z M100.006941,99.3857195 C100.953241,99.3857195 101.710281,99.7614132 102.467321,100.324954 C102.84584,100.700647 103.41362,101.639882 103.41362,102.766963 C103.41362,104.645431 101.899541,106.148206 100.006941,106.148206 C98.1143421,106.148206 96.6002627,104.645431 96.6002627,102.766963 C96.6002627,100.888494 98.1143421,99.3857195 100.006941,99.3857195 Z" id="Shape"></path>
                    <path d="M201.441379,162.641975 C201.441379,162.641975 201.253747,162.452693 201.441379,162.641975 C201.066114,161.884848 200.315582,161.695567 199.565051,162.07413 C198.814519,162.452693 198.626886,163.399102 199.002152,163.966947 C200.503215,166.806173 201.066114,170.023962 201.066114,173.241751 C201.066114,184.977217 191.496837,194.630584 179.863599,194.630584 C168.230361,194.630584 158.661084,184.977217 158.661084,173.241751 C158.661084,161.506285 168.230361,151.852918 179.863599,151.852918 C185.304952,151.852918 190.183407,153.935017 194.123697,157.531369 L188.307078,163.399102 C185.867851,161.317003 182.865725,160.181313 179.863599,160.181313 C172.73355,160.181313 166.916931,166.049046 166.916931,173.241751 C166.916931,180.434456 172.73355,186.302188 179.863599,186.302188 C186.993648,186.302188 192.810267,180.434456 192.810267,173.241751 C192.810267,172.673906 192.810267,172.10606 192.622634,171.538215 C192.622634,170.781089 191.872103,170.213243 191.121571,170.402525 C190.37104,170.402525 189.808141,171.159652 189.995774,171.916779 C189.995774,172.295342 189.995774,172.863187 189.995774,173.241751 C189.995774,178.920202 185.304952,183.652245 179.675966,183.652245 C174.04698,183.652245 169.356158,178.920202 169.356158,173.241751 C169.356158,167.5633 174.04698,162.831257 179.675966,162.831257 C182.115193,162.831257 184.366788,163.588384 186.243117,165.291919 L178.737802,172.863187 C178.174903,173.431032 178.174903,174.377441 178.737802,174.756004 C178.925434,174.945286 179.3007,175.134568 179.675966,175.134568 C180.051232,175.134568 180.426497,174.945286 180.61413,174.756004 L204.06824,151.474354 L209.32196,152.610045 L209.509593,152.610045 C209.884859,152.610045 210.260125,152.420763 210.447757,152.231481 L220.017034,142.578114 C220.3923,142.199551 220.579933,141.631706 220.3923,141.253142 C220.204667,140.685297 219.829401,140.306734 219.266503,140.306734 L214.200415,139.360325 L213.262251,134.249719 C213.074618,133.681874 212.886985,133.303311 212.324086,133.114029 C211.761188,132.924747 211.385922,133.114029 211.010656,133.492592 L201.441379,143.145959 C201.066114,143.524523 201.066114,143.903086 201.066114,144.470931 L202.004278,149.581537 L196.000026,155.638552 C191.496837,151.474354 185.867851,149.202974 179.863599,149.202974 C166.729298,149.202974 155.846591,159.992031 155.846591,173.431032 C155.846591,186.680752 166.541665,197.659091 179.863599,197.659091 C192.9979,197.659091 203.880607,186.870034 203.880607,173.431032 C203.880607,169.645398 202.942442,166.049046 201.441379,162.641975 Z M211.010656,137.088945 L211.761188,140.685297 C211.94882,141.253142 212.324086,141.631706 212.886985,141.820987 L216.452009,142.578114 L209.32196,149.770819 L204.818771,148.824411 L203.880607,144.28165 L211.010656,137.088945 Z" id="Shape"></path>
                </g>
            </g>
        </g>
    </g>
</svg>