<?xml version="1.0" encoding="UTF-8"?>
<svg width="260px" height="230px" viewBox="0 0 260 230" version="1.1" xmlns="http://www.w3.org/2000/svg" xmlns:xlink="http://www.w3.org/1999/xlink">
    <!-- Generator: Sketch 47.1 (45422) - http://www.bohemiancoding.com/sketch -->
    <title>Group</title>
    <desc>Created with Sketch.</desc>
    <defs></defs>
    <g id="Welcome" stroke="none" stroke-width="1" fill="none" fill-rule="evenodd">
        <g id="What-We-Offer" transform="translate(-853.000000, -895.000000)" fill-rule="nonzero" fill="#96CCFF">
            <g id="FNO" transform="translate(853.000000, 895.000000)">
                <g id="Group">
                    <path d="M238.783038,69.5934175 C239.599014,69.5934175 240.41499,68.9800795 240.41499,67.9578495 L240.41499,41.1754238 C240.41499,40.3576399 239.803008,39.5398559 238.783038,39.5398559 C237.967063,39.5398559 237.151087,40.1531939 237.151087,41.1754238 L237.151087,67.9578495 C237.151087,68.7756335 237.967063,69.5934175 238.783038,69.5934175 Z" id="Shape"></path>
                    <path d="M238.783038,86.9713272 C239.599014,86.9713272 240.41499,86.3579892 240.41499,85.3357593 L240.41499,76.7490274 C240.41499,75.9312434 239.803008,75.1134594 238.783038,75.1134594 C237.967063,75.1134594 237.151087,75.7267974 237.151087,76.7490274 L237.151087,85.3357593 C237.151087,86.3579892 237.967063,86.9713272 238.783038,86.9713272 Z" id="Shape"></path>
                    <path d="M36.4210858,171.203078 C35.6051102,171.203078 34.7891346,171.816416 34.7891346,172.838646 L34.7891346,199.621072 C34.7891346,200.438856 35.4011163,201.25664 36.4210858,201.25664 C37.2370614,201.25664 38.053037,200.643302 38.053037,199.621072 L38.053037,172.838646 C37.8490431,172.020862 37.2370614,171.203078 36.4210858,171.203078 Z" id="Shape"></path>
                    <path d="M36.4210858,206.776682 C35.6051102,206.776682 34.7891346,207.39002 34.7891346,208.41225 L34.7891346,216.998981 C34.7891346,217.816765 35.4011163,218.634549 36.4210858,218.634549 C37.2370614,218.634549 38.053037,218.021211 38.053037,216.998981 L38.053037,208.41225 C37.8490431,207.39002 37.2370614,206.776682 36.4210858,206.776682 Z" id="Shape"></path>
                    <path d="M12.9617869,62.6422536 C13.1657808,62.8466996 13.5737686,63.0511456 13.9817564,63.0511456 C14.3897442,63.0511456 14.797732,62.8466996 15.0017259,62.6422536 C15.6137076,62.0289156 15.6137076,61.0066856 15.0017259,60.3933476 L11.3298356,56.7133196 C10.7178539,56.0999817 9.69788441,56.0999817 9.08590269,56.7133196 C8.47392098,57.3266576 8.47392098,58.3488876 9.08590269,58.9622256 L12.9617869,62.6422536 Z" id="Shape"></path>
                    <path d="M21.121543,70.6156475 L24.7934333,74.2956754 C24.9974272,74.5001214 25.405415,74.7045674 25.8134028,74.7045674 C26.2213906,74.7045674 26.6293784,74.5001214 26.8333723,74.2956754 C27.445354,73.6823374 27.445354,72.6601074 26.8333723,72.0467694 L23.1614821,68.3667415 C22.5495004,67.7534035 21.5295308,67.7534035 20.9175491,68.3667415 C20.5095613,69.1845255 20.5095613,70.2067555 21.121543,70.6156475 Z" id="Shape"></path>
                    <path d="M10.51386,74.7045674 C10.9218478,74.7045674 11.3298356,74.5001214 11.5338295,74.2956754 L15.2057198,70.6156475 C15.8177015,70.0023095 15.8177015,68.9800795 15.2057198,68.3667415 C14.5937381,67.7534035 13.5737686,67.7534035 12.9617869,68.3667415 L9.2898966,72.2512154 C8.67791489,72.8645534 8.67791489,73.8867834 9.2898966,74.5001214 C9.69788441,74.7045674 10.1058722,74.7045674 10.51386,74.7045674 Z" id="Shape"></path>
                    <path d="M22.1415125,63.0511456 C22.5495004,63.0511456 22.9574882,62.8466996 23.1614821,62.6422536 L26.8333723,58.9622256 C27.445354,58.3488876 27.445354,57.3266576 26.8333723,56.7133196 C26.2213906,56.0999817 25.2014211,56.0999817 24.5894394,56.7133196 L20.9175491,60.3933476 C20.3055674,61.0066856 20.3055674,62.0289156 20.9175491,62.6422536 C21.3255369,62.8466996 21.7335247,63.0511456 22.1415125,63.0511456 Z" id="Shape"></path>
                    <path d="M237.763069,175.291998 C237.967063,175.496444 238.375051,175.70089 238.783038,175.70089 C239.191026,175.70089 239.599014,175.496444 239.803008,175.291998 C240.41499,174.67866 240.41499,173.65643 239.803008,173.043092 L236.131118,169.363064 C235.519136,168.749726 234.499166,168.749726 233.887185,169.363064 C233.275203,169.976402 233.275203,170.998632 233.887185,171.61197 L237.763069,175.291998 Z" id="Shape"></path>
                    <path d="M247.962764,181.220932 C247.350782,180.607594 246.330813,180.607594 245.718831,181.220932 C245.106849,181.83427 245.106849,182.8565 245.718831,183.469838 L249.390721,187.149866 C249.594715,187.354312 250.002703,187.558758 250.410691,187.558758 C250.818679,187.558758 251.226667,187.354312 251.430661,187.149866 C252.042642,186.536528 252.042642,185.514298 251.430661,184.90096 L247.962764,181.220932 Z" id="Shape"></path>
                    <path d="M234.091179,186.94542 C234.295173,187.149866 234.70316,187.354312 235.111148,187.354312 C235.519136,187.354312 235.927124,187.149866 236.131118,186.94542 L239.803008,183.265392 C240.41499,182.652054 240.41499,181.629824 239.803008,181.016486 C239.191026,180.403148 238.171057,180.403148 237.559075,181.016486 L233.887185,184.696514 C233.479197,185.514298 233.479197,186.332082 234.091179,186.94542 Z" id="Shape"></path>
                    <path d="M249.390721,169.363064 L245.718831,173.043092 C245.106849,173.65643 245.106849,174.67866 245.718831,175.291998 C245.922825,175.496444 246.330813,175.70089 246.738801,175.70089 C247.146789,175.70089 247.554776,175.496444 247.75877,175.291998 L251.430661,171.61197 C252.042642,170.998632 252.042642,169.976402 251.430661,169.363064 C251.022673,168.954172 250.002703,168.954172 249.390721,169.363064 Z" id="Shape"></path>
                    <path d="M125.97441,11.3263082 C126.178404,11.5307542 126.586391,11.7352002 126.994379,11.7352002 C127.402367,11.7352002 127.810355,11.5307542 128.014349,11.3263082 C128.62633,10.7129703 128.62633,9.69074027 128.014349,9.07740228 L124.342458,5.39737433 C123.730477,4.78403634 122.710507,4.78403634 122.098525,5.39737433 C121.486544,6.01071232 121.486544,7.03294231 122.098525,7.6462803 L125.97441,11.3263082 Z" id="Shape"></path>
                    <path d="M137.602062,22.9797301 C137.806056,23.1841761 138.214044,23.3886221 138.622032,23.3886221 C139.030019,23.3886221 139.438007,23.1841761 139.642001,22.9797301 C140.253983,22.3663921 140.253983,21.3441621 139.642001,20.7308241 L135.970111,17.0507962 C135.358129,16.4374582 134.33816,16.4374582 133.726178,17.0507962 C133.114196,17.6641342 133.114196,18.6863642 133.726178,19.2997021 L137.602062,22.9797301 Z" id="Shape"></path>
                    <path d="M123.322489,23.3886221 C123.730477,23.3886221 124.138464,23.1841761 124.342458,22.9797301 L128.014349,19.2997021 C128.62633,18.6863642 128.62633,17.6641342 128.014349,17.0507962 C127.402367,16.4374582 126.382397,16.4374582 125.770416,17.0507962 L122.098525,20.7308241 C121.486544,21.3441621 121.486544,22.3663921 122.098525,22.9797301 C122.506513,23.1841761 122.914501,23.3886221 123.322489,23.3886221 Z" id="Shape"></path>
                    <path d="M135.154135,11.7352002 C135.562123,11.7352002 135.970111,11.5307542 136.174105,11.3263082 L139.845995,7.6462803 C140.457977,7.03294231 140.457977,6.01071232 139.845995,5.39737433 C139.234013,4.78403634 138.214044,4.78403634 137.602062,5.39737433 L133.930172,9.07740228 C133.31819,9.69074027 133.31819,10.7129703 133.930172,11.3263082 C134.33816,11.5307542 134.746147,11.7352002 135.154135,11.7352002 Z" id="Shape"></path>
                    <path d="M58.6564213,211.683386 C58.0444396,211.070048 57.0244701,211.070048 56.4124884,211.683386 C55.8005067,212.296724 55.8005067,213.318954 56.4124884,213.932292 L60.0843787,217.612319 C60.2883726,217.816765 60.6963604,218.021211 61.1043482,218.021211 C61.512336,218.021211 61.9203238,217.816765 62.1243177,217.612319 C62.7362994,216.998981 62.7362994,215.976752 62.1243177,215.363414 L58.6564213,211.683386 Z" id="Shape"></path>
                    <path d="M70.4880678,223.336807 C69.8760861,222.723469 68.8561165,222.723469 68.2441348,223.336807 C67.6321531,223.950145 67.6321531,224.972375 68.2441348,225.585713 L71.9160251,229.265741 C72.120019,229.470187 72.5280068,229.674633 72.9359946,229.674633 C73.3439824,229.674633 73.7519702,229.470187 73.9559641,229.265741 C74.5679458,228.652403 74.5679458,227.630173 73.9559641,227.016835 L70.4880678,223.336807 Z" id="Shape"></path>
                    <path d="M60.0843787,223.336807 L56.4124884,227.016835 C55.8005067,227.630173 55.8005067,228.652403 56.4124884,229.265741 C56.6164823,229.470187 57.0244701,229.674633 57.4324579,229.674633 C57.8404457,229.674633 58.2484335,229.470187 58.4524274,229.265741 L62.1243177,225.585713 C62.7362994,224.972375 62.7362994,223.950145 62.1243177,223.336807 C61.7163299,222.723469 60.6963604,222.723469 60.0843787,223.336807 Z" id="Shape"></path>
                    <path d="M71.9160251,211.683386 L68.2441348,215.363414 C67.6321531,215.976752 67.6321531,216.998981 68.2441348,217.612319 C68.4481287,217.816765 68.8561165,218.021211 69.2641043,218.021211 C69.6720921,218.021211 70.08008,217.816765 70.2840739,217.612319 L73.9559641,213.932292 C74.5679458,213.318954 74.5679458,212.296724 73.9559641,211.683386 C73.5479763,211.070048 72.5280068,211.070048 71.9160251,211.683386 Z" id="Shape"></path>
                    <path d="M208.183953,17.0507962 C212.875813,17.0507962 216.547703,13.3707682 216.547703,8.66851028 C216.547703,3.96625235 212.875813,0.286224396 208.183953,0.286224396 C203.492093,0.286224396 199.820203,3.96625235 199.820203,8.66851028 C199.820203,13.3707682 203.696087,17.0507962 208.183953,17.0507962 Z M208.183953,3.35291436 C211.039868,3.35291436 213.487794,5.80626632 213.487794,8.66851028 C213.487794,11.5307542 211.039868,13.9841062 208.183953,13.9841062 C205.328038,13.9841062 202.880111,11.5307542 202.880111,8.66851028 C202.880111,5.80626632 205.328038,3.35291436 208.183953,3.35291436 Z" id="Shape"></path>
                    <path d="M8.47392098,170.998632 C3.78206119,170.998632 0.110170924,174.67866 0.110170924,179.380918 C0.110170924,184.083176 3.78206119,187.763204 8.47392098,187.763204 C13.1657808,187.763204 16.837671,184.083176 16.837671,179.380918 C16.837671,174.67866 13.1657808,170.998632 8.47392098,170.998632 Z M8.47392098,184.696514 C5.61800633,184.696514 3.17007948,182.243162 3.17007948,179.380918 C3.17007948,176.518674 5.61800633,174.065322 8.47392098,174.065322 C11.3298356,174.065322 13.7777625,176.518674 13.7777625,179.380918 C13.7777625,182.243162 11.3298356,184.696514 8.47392098,184.696514 Z" id="Shape"></path>
                    <path d="M33.5651712,4.78403634 L65.1842263,4.78403634 C66.0002019,4.78403634 66.8161775,4.17069834 66.8161775,3.14846836 C66.8161775,2.12623837 66.2041958,1.51290038 65.1842263,1.51290038 L33.5651712,1.51290038 C32.7491955,1.51290038 31.9332199,2.12623837 31.9332199,3.14846836 C31.9332199,4.17069834 32.7491955,4.78403634 33.5651712,4.78403634 Z" id="Shape"></path>
                    <path d="M12.9617869,4.78403634 L23.1614821,4.78403634 C23.9774577,4.78403634 24.7934333,4.17069834 24.7934333,3.14846836 C24.7934333,2.12623837 24.1814516,1.51290038 23.1614821,1.51290038 L12.9617869,1.51290038 C12.1458113,1.71734638 11.5338295,2.53513037 11.5338295,3.35291436 C11.5338295,4.17069834 12.1458113,4.78403634 12.9617869,4.78403634 Z" id="Shape"></path>
                    <path d="M12.9617869,15.8241202 L34.9931285,15.8241202 C35.8091041,15.8241202 36.6250797,15.2107822 36.6250797,14.1885522 C36.6250797,13.1663222 36.013098,12.7574302 34.9931285,12.7574302 L12.9617869,12.7574302 C12.1458113,12.7574302 11.3298356,13.3707682 11.3298356,14.3929982 C11.3298356,15.4152282 12.1458113,15.8241202 12.9617869,15.8241202 Z" id="Shape"></path>
                    <path d="M53.1485859,14.1885522 C53.1485859,13.3707682 52.5366042,12.5529842 51.5166347,12.5529842 L44.3768481,12.5529842 C43.5608725,12.5529842 42.7448968,13.1663222 42.7448968,14.1885522 C42.7448968,15.2107822 43.3568785,15.8241202 44.3768481,15.8241202 L51.5166347,15.8241202 C52.5366042,15.8241202 53.1485859,15.0063362 53.1485859,14.1885522 Z" id="Shape"></path>
                    <path d="M224.503465,218.838995 L192.680416,218.838995 C191.864441,218.838995 191.048465,219.452333 191.048465,220.474563 C191.048465,221.292347 191.660447,222.110131 192.680416,222.110131 L224.299471,222.110131 C225.115447,222.110131 225.931423,221.496793 225.931423,220.474563 C225.931423,219.452333 225.319441,218.838995 224.503465,218.838995 Z" id="Shape"></path>
                    <path d="M245.106849,218.838995 L234.907154,218.838995 C234.091179,218.838995 233.275203,219.452333 233.275203,220.474563 C233.275203,221.292347 233.887185,222.110131 234.907154,222.110131 L245.106849,222.110131 C245.922825,222.110131 246.738801,221.496793 246.738801,220.474563 C246.534807,219.452333 245.922825,218.838995 245.106849,218.838995 Z" id="Shape"></path>
                    <path d="M245.106849,208.003358 L223.075508,208.003358 C222.259532,208.003358 221.443557,208.616696 221.443557,209.638926 C221.443557,210.45671 222.055538,211.274494 223.075508,211.274494 L245.106849,211.274494 C245.922825,211.274494 246.738801,210.661156 246.738801,209.638926 C246.534807,208.616696 245.922825,208.003358 245.106849,208.003358 Z" id="Shape"></path>
                    <path d="M213.487794,211.070048 C214.30377,211.070048 215.119746,210.45671 215.119746,209.43448 C215.119746,208.616696 214.507764,207.798912 213.487794,207.798912 L206.348008,207.798912 C205.532032,207.798912 204.716057,208.41225 204.716057,209.43448 C204.716057,210.252264 205.328038,211.070048 206.348008,211.070048 L213.487794,211.070048 Z" id="Shape"></path>
                    <path d="M49.4766957,44.8554518 L49.4766957,49.9666017 C49.4766957,55.2821977 53.7605676,59.3711176 58.8604152,59.3711176 L73.1399885,59.3711176 C73.1399885,59.3711176 73.1399885,59.3711176 73.1399885,59.3711176 C73.1399885,59.3711176 73.1399885,59.3711176 73.1399885,59.3711176 L82.9316959,59.3711176 C82.9316959,59.3711176 82.9316959,59.3711176 82.9316959,59.3711176 C82.9316959,59.3711176 82.9316959,59.3711176 82.9316959,59.3711176 L184.112672,59.3711176 C184.316666,59.3711176 184.316666,59.3711176 184.316666,59.3711176 C184.52066,59.3711176 184.52066,59.3711176 184.724654,59.3711176 C184.928648,59.3711176 185.132642,59.3711176 185.336636,59.1666716 L208.591941,48.7399257 C209.203922,48.5354798 209.407916,47.9221418 209.407916,47.3088038 C209.407916,46.6954658 208.999929,46.0821278 208.591941,45.8776818 L185.336636,35.4509359 C184.928648,35.2464899 184.724654,35.2464899 184.316666,35.4509359 C184.112672,35.4509359 184.112672,35.4509359 183.908678,35.4509359 L58.8604152,35.4509359 C53.7605676,35.4509359 49.4766957,39.7443019 49.4766957,44.8554518 Z M52.5366042,49.9666017 L52.5366042,44.8554518 C52.5366042,41.3798698 55.3925189,38.5176259 58.8604152,38.5176259 L71.7120312,38.5176259 L71.7120312,56.3044276 L58.8604152,56.3044276 C55.3925189,56.3044276 52.5366042,53.4421837 52.5366042,49.9666017 Z M74.7719397,38.5176259 L81.5037386,38.5176259 L81.5037386,56.3044276 L74.7719397,56.3044276 L74.7719397,38.5176259 Z M185.744623,55.8955357 L185.744623,39.1309639 L204.512063,47.5132498 L185.744623,55.8955357 Z M182.684715,56.3044276 L84.5636471,56.3044276 L84.5636471,38.5176259 L182.684715,38.5176259 L182.684715,56.3044276 Z" id="Shape"></path>
                    <path d="M165.345233,48.9443717 L169.425111,48.9443717 C170.241087,48.9443717 171.057062,48.3310338 171.057062,47.3088038 C171.057062,46.4910198 170.445081,45.6732358 169.425111,45.6732358 L165.345233,45.6732358 C164.529257,45.6732358 163.713282,46.2865738 163.713282,47.3088038 C163.713282,48.3310338 164.325264,48.9443717 165.345233,48.9443717 Z" id="Shape"></path>
                    <path d="M144.741849,48.9443717 L152.901605,48.9443717 C153.717581,48.9443717 154.533556,48.3310338 154.533556,47.3088038 C154.533556,46.4910198 153.921574,45.6732358 152.901605,45.6732358 L144.741849,45.6732358 C143.925873,45.6732358 143.109898,46.2865738 143.109898,47.3088038 C143.313891,48.3310338 143.925873,48.9443717 144.741849,48.9443717 Z" id="Shape"></path>
                    <path d="M103.739074,48.9443717 L111.89883,48.9443717 C112.714806,48.9443717 113.530781,48.3310338 113.530781,47.3088038 C113.530781,46.4910198 112.9188,45.6732358 111.89883,45.6732358 L103.739074,45.6732358 C102.923098,45.6732358 102.107123,46.2865738 102.107123,47.3088038 C102.311117,48.3310338 102.923098,48.9443717 103.739074,48.9443717 Z" id="Shape"></path>
                    <path d="M124.342458,48.9443717 L132.502215,48.9443717 C133.31819,48.9443717 134.134166,48.3310338 134.134166,47.3088038 C134.134166,46.4910198 133.522184,45.6732358 132.502215,45.6732358 L124.342458,45.6732358 C123.526483,45.6732358 122.710507,46.2865738 122.710507,47.3088038 C122.710507,48.3310338 123.526483,48.9443717 124.342458,48.9443717 Z" id="Shape"></path>
                    <path d="M258.978435,125.407175 C258.570447,124.793837 257.550478,124.589391 256.938496,124.998283 C246.942795,131.745001 236.947093,139.105057 227.35938,146.465112 C225.523435,147.896234 223.483496,148.509572 221.647551,148.305126 C220.831575,148.10068 219.607612,147.691788 218.791636,146.669558 L184.928648,97.1936271 C184.112672,95.9669511 184.112672,94.7402751 184.316666,93.9224911 C184.724654,92.0824772 186.152611,90.4469092 187.988556,89.2202332 C195.128343,84.9268673 202.26813,80.2246093 209.203922,75.7267974 C209.815904,75.3179054 210.019898,74.2956754 209.61191,73.6823374 C209.203922,73.0689994 208.183953,72.8645534 207.571971,73.2734454 C200.636178,77.7712574 193.496392,82.4735153 186.356605,86.7668812 C183.908678,88.1980032 182.072733,90.4469092 181.460751,92.9002612 L119.242611,92.9002612 L114.550751,92.9002612 L77.8318483,92.9002612 C77.2198666,90.4469092 75.3839215,88.1980032 72.9359946,86.7668812 C65.796208,82.4735153 58.6564213,77.9757034 51.7206286,73.2734454 C51.1086469,72.8645534 50.0886774,73.0689994 49.6806896,73.6823374 C49.2727018,74.2956754 49.4766957,75.3179054 50.0886774,75.7267974 C57.0244701,80.4290553 64.1642567,84.9268673 71.3040434,89.2202332 C73.1399885,90.4469092 74.5679458,92.0824772 74.9759337,93.9224911 C74.9759337,94.1269371 74.9759337,94.1269371 74.9759337,94.3313831 C74.9759337,94.5358291 74.9759337,94.9447211 75.1799276,95.1491671 C75.1799276,95.7625051 74.9759337,96.5802891 74.5679458,97.1936271 L40.7049578,146.669558 C39.8889822,147.691788 38.6650188,148.10068 37.8490431,148.305126 C36.013098,148.509572 33.973159,147.896234 32.1372138,146.465112 C22.5495004,138.900611 12.5537991,131.745001 2.55809777,124.998283 C1.94611606,124.589391 0.926146539,124.793837 0.518158731,125.407175 C0.110170924,126.020513 0.314164828,127.042743 0.926146539,127.451635 C10.9218478,134.198353 20.7135552,141.353963 30.3012687,148.918464 C32.3412077,150.554032 34.7891346,151.371816 37.0330675,151.371816 C37.4410553,151.371816 37.8490431,151.371816 38.4610249,151.16737 C40.5009639,150.758478 42.1329151,149.736248 43.3568785,148.305126 L46.8247749,143.398422 C48.864714,145.03399 53.1485859,148.714018 54.9845311,152.598492 C55.5965128,153.620722 55.8005067,154.438506 56.2084945,155.25629 C56.4124884,155.869628 56.8204762,156.482966 57.0244701,157.096304 C56.0045006,157.709642 54.9845311,158.731872 54.1685555,159.754102 L52.3326103,162.003008 C50.7006591,164.251914 50.0886774,166.909712 50.4966652,169.771956 C50.904653,172.6342 52.3326103,174.883106 54.5765433,176.518674 L57.228464,178.563134 C57.228464,178.563134 57.228464,178.563134 57.228464,178.563134 C59.0644091,179.994256 61.3083421,180.607594 63.3482811,180.607594 C64.3682506,180.607594 65.3882202,180.403148 66.4081897,180.198702 C65.796208,183.87873 67.2241653,187.96765 70.4880678,190.421002 L72.7320007,192.05657 L72.7320007,192.05657 C74.5679458,193.487692 76.8118788,194.10103 79.0558117,194.10103 C80.4837691,194.10103 81.9117264,193.896584 83.1356898,193.283246 C83.1356898,194.10103 83.1356898,194.918814 83.1356898,195.941044 C83.5436776,198.803288 84.9716349,201.25664 87.4195618,202.892208 L89.6634947,204.527776 L89.6634947,204.527776 C91.4994399,205.958898 93.7433728,206.572236 95.9873058,206.572236 C96.5992875,206.572236 97.0072753,206.572236 97.619257,206.36779 C98.6392265,206.163344 99.659196,205.754452 100.679166,205.34556 C100.679166,205.958898 100.679166,206.572236 100.679166,207.185574 C101.087153,209.843372 102.515111,212.092278 104.55505,213.5234 L106.187001,214.750076 L106.187001,214.750076 C107.818952,215.976752 109.858891,216.59009 111.89883,216.59009 C114.958739,216.59009 117.814653,215.158968 119.650599,212.705616 L120.874562,211.070048 C121.078556,211.274494 121.078556,211.683386 121.486544,211.683386 C123.526483,213.114508 125.97441,213.932292 128.62633,213.932292 C129.442306,213.932292 130.258282,213.932292 130.870263,213.727846 C134.134166,213.114508 136.99008,211.274494 138.826026,208.41225 C141.069959,205.141114 141.477946,201.461086 140.661971,197.985504 L146.985782,202.483316 C149.229715,203.914438 151.677642,204.732222 154.125568,204.732222 C158.205446,204.732222 162.081331,202.892208 164.529257,199.21218 C166.77319,196.14549 167.181178,192.261016 166.365203,188.98988 L169.833099,191.443232 C172.077032,192.874354 174.524959,193.692138 176.972886,193.692138 C181.052764,193.692138 184.928648,191.852124 187.376575,188.172096 C189.620508,185.105406 190.028495,181.220932 189.21252,177.74535 L193.700386,180.81204 C195.740325,182.243162 198.188252,183.060946 200.840172,183.060946 C201.656148,183.060946 202.472124,183.060946 203.084105,182.8565 C206.348008,182.243162 209.203922,180.403148 211.039868,177.540904 C214.915752,171.816416 213.487794,164.047468 207.775965,159.958548 L163.1013,129.291649 C162.693312,129.087203 162.285325,128.882757 161.877337,129.087203 L154.125568,129.087203 C137.806056,129.087203 135.766117,115.798213 135.766117,115.184875 C135.766117,114.367091 134.950141,113.753753 134.33816,113.753753 L108.022946,113.753753 C107.20697,113.753753 106.594989,114.367091 106.594989,114.980429 C105.167031,122.749377 102.515111,128.064973 98.2312387,130.518325 C95.1713301,132.358339 91.9074277,132.358339 90.2754764,132.153893 L90.2754764,109.869279 L115.162733,95.9669511 L119.446605,95.9669511 L181.460751,95.9669511 C181.664745,96.9891811 181.868739,98.2158571 182.480721,99.0336411 L216.343709,148.305126 C217.363679,149.940694 219.199624,150.962924 221.239563,151.16737 C221.647551,151.16737 222.055538,151.371816 222.66752,151.371816 C224.911453,151.371816 227.35938,150.554032 229.399319,148.918464 C238.987032,141.558409 248.982734,134.198353 258.774441,127.451635 C259.182429,127.042743 259.386423,126.020513 258.978435,125.407175 Z M58.8604152,176.109782 L56.2084945,174.065322 C54.5765433,172.838646 53.5565737,171.203078 53.3525798,169.158618 C53.1485859,167.318604 53.5565737,165.274144 54.7805372,163.638576 L56.4124884,161.38967 C58.8604152,158.118534 63.3482811,157.505196 66.6121836,159.958548 L69.2641043,162.003008 C72.120019,164.047468 72.9359946,167.727496 71.7120312,170.794186 L68.4481287,175.291998 C68.4481287,175.291998 68.2441348,175.496444 68.2441348,175.70089 C65.5922141,177.949796 61.7163299,178.154242 58.8604152,176.109782 Z M74.5679458,189.398772 L72.3240129,187.763204 C70.6920617,186.536528 69.6720921,184.90096 69.2641043,182.8565 C69.0601104,181.016486 69.4680982,179.176472 70.4880678,177.74535 C70.8960556,177.336458 71.3040434,176.927566 71.7120312,176.518674 L73.3439824,174.269768 C73.7519702,173.65643 74.159958,173.043092 74.3639519,172.429754 L77.2198666,168.54528 C78.44383,166.909712 80.0757812,165.887482 82.1157203,165.47859 C84.1556593,165.274144 86.1955984,165.683036 87.6235557,166.909712 L89.8674886,168.54528 C93.1313911,170.998632 93.9473667,175.70089 91.4994399,179.176472 L85.1756288,187.763204 C82.727702,191.238786 78.0358422,191.852124 74.5679458,189.398772 Z M97.2112692,203.3011 C95.1713301,203.505546 93.1313911,203.096654 91.7034338,201.869978 L89.4595008,200.23441 C87.8275496,199.007734 86.8075801,197.372166 86.3995923,195.327706 C86.1955984,193.283246 86.6035862,191.238786 87.8275496,189.807664 L98.2312387,175.70089 C99.4552021,174.065322 101.087153,173.043092 103.127092,172.6342 C105.167031,172.429754 107.20697,172.838646 108.634928,174.065322 L110.878861,175.70089 C112.510812,176.927566 113.530781,178.563134 113.938769,180.607594 C114.142763,182.652054 113.734775,184.696514 112.510812,186.127636 L102.107123,200.23441 C100.883159,202.074424 99.0472143,203.096654 97.2112692,203.3011 Z M119.650599,207.798912 L117.406666,211.070048 C115.162733,213.932292 111.082855,214.54563 108.22694,212.50117 L106.594989,211.274494 C105.167031,210.252264 104.147062,208.616696 103.943068,206.981128 C103.739074,205.34556 104.147062,203.505546 105.167031,202.074424 L107.614958,198.803288 C109.858891,195.941044 113.938769,195.327706 116.794684,197.372166 L118.426635,198.598842 C121.28255,200.643302 121.894532,204.936668 119.650599,207.798912 Z M87.8275496,107.620373 C87.4195618,107.824819 87.011574,108.438157 87.011574,109.051495 L87.011574,134.198353 C87.011574,134.811691 87.4195618,135.425029 88.0315435,135.629475 C88.2355374,135.629475 89.6634947,136.242813 91.9074277,136.242813 C93.9473667,136.242813 96.8032814,135.833921 99.659196,134.198353 C104.351056,131.336109 107.614958,125.816067 109.24691,117.638227 L132.706208,117.638227 C133.726178,121.522701 138.01005,132.767231 153.921574,132.767231 L161.877337,132.767231 C161.877337,132.767231 161.877337,132.767231 161.877337,132.767231 L205.94002,163.025238 C210.223892,165.887482 211.243861,171.816416 208.387947,176.314228 C205.328038,180.607594 199.616209,181.83427 195.128343,178.76758 L183.908678,171.203078 L183.908678,171.203078 L152.289623,149.12291 C151.677642,148.714018 150.657672,148.918464 150.249684,149.531802 C149.841696,150.14514 150.04569,151.16737 150.657672,151.576262 L182.276727,173.247538 C186.560599,176.109782 187.580569,182.038716 184.724654,186.536528 C181.868739,190.829894 175.952916,191.852124 171.46505,188.98988 L139.845995,167.318604 C139.234013,166.909712 138.418038,167.114158 137.806056,167.52305 C137.602062,167.727496 137.398068,167.727496 137.398068,167.931942 C136.99008,168.54528 137.194074,169.56751 137.806056,169.976402 L159.42941,184.287622 C163.713282,187.149866 164.733251,193.0788 161.877337,197.576612 C159.021422,201.869978 153.105599,202.892208 148.821727,200.029964 L128.422336,185.514298 C127.810355,185.105406 126.790385,185.105406 126.178404,185.92319 C125.770416,186.536528 125.770416,187.558758 126.586391,188.172096 L133.31819,193.0788 C133.522184,193.283246 133.522184,193.692138 133.930172,193.692138 C138.214044,196.554382 139.234013,202.483316 136.378099,206.981128 C134.950141,209.025588 132.706208,210.45671 130.258282,210.865602 C127.810355,211.274494 125.158434,210.865602 123.118495,209.43448 C122.914501,209.230034 122.710507,209.230034 122.302519,209.230034 C123.526483,207.185574 124.138464,204.936668 123.730477,202.483316 C123.322489,199.825518 121.894532,197.576612 119.854593,196.14549 L118.222641,194.918814 C116.182702,193.283246 113.530781,192.669908 111.082855,193.0788 L114.754745,188.172096 C116.386696,185.92319 117.202672,183.060946 116.794684,180.198702 C116.386696,177.336458 114.958739,174.883106 112.510812,173.247538 L110.266879,171.61197 C108.022946,169.976402 105.167031,169.158618 102.311117,169.56751 C99.659196,169.976402 97.4152631,171.407524 95.5793179,173.451984 C95.1713301,170.794186 93.7433728,168.136388 91.295446,166.296374 L89.051513,164.660806 C86.8075801,163.025238 83.9516654,162.207454 81.0957508,162.616346 C78.44383,163.025238 76.1998971,164.251914 74.5679458,166.296374 C74.159958,163.638576 72.7320007,161.38967 70.4880678,159.754102 L67.836147,157.709642 C65.1842263,155.869628 61.9203238,155.25629 59.0644091,156.074074 C58.6564213,155.25629 58.4524274,154.642952 58.2484335,154.029614 C57.8404457,153.21183 57.4324579,152.394046 57.0244701,151.16737 C54.7805372,146.669558 49.8846835,142.580638 47.8447444,140.945071 L76.6078849,99.0336411 C77.2198666,98.2158571 77.6278544,96.9891811 77.6278544,95.9669511 L108.22694,95.9669511 L87.8275496,107.620373 Z" id="Shape"></path>
                    <path d="M226.543404,133.789461 C231.03127,133.789461 234.70316,130.109433 234.70316,125.611621 C234.70316,121.113809 231.03127,117.433781 226.543404,117.433781 C222.055538,117.433781 218.383648,121.113809 218.383648,125.611621 C218.383648,130.109433 222.055538,133.789461 226.543404,133.789461 Z M226.543404,120.500471 C229.399319,120.500471 231.643252,122.749377 231.643252,125.611621 C231.643252,128.473865 229.399319,130.722771 226.543404,130.722771 C223.68749,130.722771 221.443557,128.473865 221.443557,125.611621 C221.443557,122.749377 223.68749,120.500471 226.543404,120.500471 Z" id="Shape"></path>
                    <path d="M32.7491955,133.789461 C37.2370614,133.789461 40.9089517,130.109433 40.9089517,125.611621 C40.9089517,121.113809 37.2370614,117.433781 32.7491955,117.433781 C28.2613297,117.433781 24.5894394,121.113809 24.5894394,125.611621 C24.5894394,130.109433 28.2613297,133.789461 32.7491955,133.789461 Z M32.7491955,120.500471 C35.6051102,120.500471 37.8490431,122.749377 37.8490431,125.611621 C37.8490431,128.473865 35.6051102,130.722771 32.7491955,130.722771 C29.8932809,130.722771 27.6493479,128.269419 27.6493479,125.611621 C27.6493479,122.749377 29.8932809,120.500471 32.7491955,120.500471 Z" id="Shape"></path>
                </g>
            </g>
        </g>
    </g>
</svg>