<?xml version="1.0" encoding="UTF-8"?>
<svg width="27px" height="59px" viewBox="0 0 27 59" version="1.1" xmlns="http://www.w3.org/2000/svg" xmlns:xlink="http://www.w3.org/1999/xlink">
    <!-- Generator: Sketch 48.2 (47327) - http://www.bohemiancoding.com/sketch -->
    <title>noun_1089202_cc</title>
    <desc>Created with Sketch.</desc>
    <defs></defs>
    <g id="IB-MB-Homepage_Offerings_Blue" stroke="none" stroke-width="1" fill="none" fill-rule="evenodd" transform="translate(-944.000000, -4046.000000)">
        <g id="Group-7" transform="translate(880.000000, 4046.000000)" fill="#0062A9" fill-rule="nonzero">
            <g id="noun_1089202_cc" transform="translate(64.000000, 0.000000)">
                <path d="M19.26,10.4616786 C19.4778,7.72482857 18.5742,5.09974142 16.7175,3.06833883 L14.166,0.279630792 C13.8249,-0.0932102639 13.1751,-0.0932102639 12.8349,0.279630792 L10.2834,3.06833883 C8.4249,5.09974142 7.5213,7.72482857 7.7391,10.4616786 C7.9569,13.1985287 9.2664,15.6492657 11.4237,17.3641557 L12.9384,18.5676187 C13.266,18.830485 13.7322,18.8286968 14.0625,18.5685128 L15.5781,17.3650498 C17.7345,15.6501598 19.0422,13.1985287 19.26,10.4616786 Z M14.4531,15.9684605 L13.5,16.7248719 L12.5478,15.9684605 C10.7829,14.5656125 9.7119,12.5592448 9.5337,10.3213044 C9.3546,8.08246987 10.0944,5.93393975 11.6145,4.27269591 L13.5,2.21178792 L15.3864,4.27269591 C16.9056,5.93393975 17.6454,8.08246987 17.4681,10.3213044 C17.2881,12.5601389 16.218,14.5656125 14.4531,15.9684605 Z M25.6464,13.5212999 L19.3113,17.1924879 C16.2819,18.9485067 14.4,22.2030425 14.4,25.688257 L14.4,29.4935604 C14.4,30.1963256 15.1686,30.6076131 15.7536,30.2660656 L22.0887,26.5948777 C25.1181,24.8388589 27,21.5843231 27,18.0991086 L27,14.2938052 C27,13.6053456 26.2485,13.175282 25.6464,13.5212999 Z M25.2,18.0991086 C25.2,20.9504039 23.6601,23.6130433 21.1815,25.0498673 L16.2,27.9369267 L16.2,25.688257 C16.2,22.8369617 17.7399,20.1743222 20.2185,18.7374983 L25.2,15.8504389 L25.2,18.0991086 Z M25.6464,27.826952 L19.3113,31.4981399 C16.2819,33.2541587 14.4,36.5086945 14.4,39.993909 L14.4,43.7992124 C14.4,44.5019776 15.1686,44.9141592 15.7536,44.5717177 L22.0887,40.9005297 C25.1181,39.1445109 27,35.8899751 27,32.4047606 L27,28.5994572 C27,27.9109977 26.2485,27.480934 25.6464,27.826952 Z M25.2,32.4047606 C25.2,35.2560559 23.6601,37.9186954 21.1815,39.3546252 L16.2,42.2425787 L16.2,39.993909 C16.2,37.1426137 17.7399,34.4799743 20.2185,33.0440444 L25.2,30.1560909 L25.2,32.4047606 Z M25.6464,42.132604 L19.3113,45.8037919 C16.2819,47.5598107 14.4,50.8143466 14.4,54.299561 L14.4,58.1048645 C14.4,58.8076296 15.1686,59.2198112 15.7536,58.8773697 L22.0887,55.2061817 C25.1181,53.4501629 27,50.1956271 27,46.7104126 L27,42.9051092 C27,42.2157556 26.2476,41.786586 25.6464,42.132604 Z M25.2,46.7104126 C25.2,49.5617079 23.6601,52.2243474 21.1815,53.6602772 L16.2,56.5482307 L16.2,54.299561 C16.2,51.4482658 17.7399,48.7856263 20.2185,47.3496965 L25.2,44.461743 L25.2,46.7104126 Z M7.6878,17.1924879 L1.3527,13.5212999 C0.7497,13.1743879 0,13.6044515 0,14.2938052 L0,18.0991086 C0,21.583429 1.8819,24.8388589 4.9122,26.5939836 L11.2473,30.2651715 C11.8296,30.6085072 12.6,30.1981138 12.6,29.4935604 L12.6,25.688257 C12.6,22.2039366 10.7181,18.9485067 7.6878,17.1924879 Z M10.8,27.9369267 L5.8185,25.0498673 C3.3399,23.6139374 1.8,20.9504039 1.8,18.0991086 L1.8,15.8504389 L6.7815,18.7374983 C9.2601,20.1734281 10.8,22.8369617 10.8,25.688257 L10.8,27.9369267 Z M7.6878,31.4981399 L1.3527,27.826952 C0.7497,27.4800399 0,27.9101036 0,28.5994572 L0,32.4047606 C0,35.8881869 1.8819,39.1445109 4.9122,40.8996356 L11.2473,44.5708236 C11.8296,44.9141592 12.6,44.5037658 12.6,43.7992124 L12.6,39.993909 C12.6,36.5104827 10.7181,33.2541587 7.6878,31.4981399 Z M10.8,42.2425787 L5.8185,39.3555193 C3.3399,37.9195895 1.8,35.2560559 1.8,32.4047606 L1.8,30.1560909 L6.7815,33.0431503 C9.2601,34.4790802 10.8,37.1426137 10.8,39.993909 L10.8,42.2425787 Z M7.6878,45.8037919 L1.3527,42.132604 C0.7515,41.786586 0,42.2148615 0,42.9051092 L0,46.7104126 C0,50.1938389 1.8819,53.4501629 4.9122,55.2052876 L11.2473,58.8764756 C11.8296,59.2198112 12.6,58.8094178 12.6,58.1048645 L12.6,54.299561 C12.6,50.8161348 10.7181,47.5598107 7.6878,45.8037919 Z M10.8,56.5482307 L5.8185,53.6611713 C3.3399,52.2252415 1.8,49.5617079 1.8,46.7104126 L1.8,44.461743 L6.7815,47.3488024 C9.2601,48.7847322 10.8,51.4482658 10.8,54.299561 L10.8,56.5482307 Z" id="Shape"></path>
            </g>
        </g>
    </g>
</svg>