<?xml version="1.0" encoding="UTF-8"?>
<svg width="258px" height="223px" viewBox="0 0 258 223" version="1.1" xmlns="http://www.w3.org/2000/svg" xmlns:xlink="http://www.w3.org/1999/xlink">
    <!-- Generator: Sketch 48.1 (47250) - http://www.bohemiancoding.com/sketch -->
    <title>Guided SIP</title>
    <desc>Created with Sketch.</desc>
    <defs></defs>
    <g id="Research" stroke="none" stroke-width="1" fill="none" fill-rule="evenodd" transform="translate(-192.000000, -554.000000)">
        <g id="Guided-SIP" transform="translate(191.000000, 554.000000)" fill="#96CCFF" fill-rule="nonzero">
            <path d="M194.158615,68.1163636 L189.893625,68.1163636 L189.893625,63.8590909 C189.893625,63.0481818 189.28434,62.2372727 188.268867,62.2372727 C187.456487,62.2372727 186.644108,62.8454545 186.644108,63.8590909 L186.644108,68.1163636 L182.379118,68.1163636 C181.566739,68.1163636 180.754359,68.7245455 180.754359,69.7381818 C180.754359,70.7518182 181.363644,71.36 182.379118,71.36 L186.847203,71.36 L186.847203,75.6172727 C186.847203,76.4281818 187.456487,77.2390909 188.471961,77.2390909 C189.28434,77.2390909 190.09672,76.6309091 190.09672,75.6172727 L190.09672,71.36 L194.36171,71.36 C195.174089,71.36 195.986468,70.7518182 195.986468,69.7381818 C195.986468,68.7245455 194.970994,68.1163636 194.158615,68.1163636 Z" id="Shape"></path>
            <path d="M193.549331,88.5918182 C192.940047,87.9836364 191.924573,87.9836364 191.315288,88.5918182 L188.268867,91.6327273 L185.222445,88.5918182 C184.61316,87.9836364 183.597686,87.9836364 182.988402,88.5918182 C182.379118,89.2 182.379118,90.2136364 182.988402,90.8218182 L186.034824,93.8627273 L182.988402,96.9036364 C182.379118,97.5118182 182.379118,98.5254545 182.988402,99.1336364 C183.191497,99.3363636 183.597686,99.5390909 184.003876,99.5390909 C184.410066,99.5390909 184.816255,99.3363636 185.01935,99.1336364 L188.065772,96.0927273 L191.112194,99.1336364 C191.315288,99.3363636 191.721478,99.5390909 192.127667,99.5390909 C192.533857,99.5390909 192.940047,99.3363636 193.143141,99.1336364 C193.752426,98.5254545 193.752426,97.5118182 193.143141,96.9036364 L190.09672,93.8627273 L193.143141,90.8218182 C194.158615,90.2136364 194.158615,89.2 193.549331,88.5918182 Z" id="Shape"></path>
            <path d="M220.357843,68.1163636 L208.78144,68.1163636 C207.969061,68.1163636 207.156682,68.7245455 207.156682,69.7381818 C207.156682,70.7518182 207.765966,71.36 208.78144,71.36 L220.357843,71.36 C221.170222,71.36 221.982601,70.7518182 221.982601,69.7381818 C221.982601,68.7245455 221.170222,68.1163636 220.357843,68.1163636 Z" id="Shape"></path>
            <path d="M213.45262,98.3227273 C213.249525,98.5254545 213.04643,98.9309091 213.04643,99.3363636 C213.04643,99.5390909 213.04643,99.7418182 213.249525,99.9445455 C213.249525,100.147273 213.45262,100.35 213.655715,100.552727 C213.85881,100.755455 214.264999,100.958182 214.671189,100.958182 C215.077378,100.958182 215.483568,100.755455 215.686663,100.552727 C215.889757,100.35 215.889757,100.147273 216.092852,99.9445455 C216.092852,99.7418182 216.295947,99.5390909 216.295947,99.3363636 C216.295947,98.9309091 216.092852,98.5254545 215.889757,98.3227273 C214.874283,97.7145455 213.85881,97.7145455 213.45262,98.3227273 Z" id="Shape"></path>
            <path d="M220.357843,92.2409091 L208.78144,92.2409091 C207.969061,92.2409091 207.156682,92.8490909 207.156682,93.8627273 C207.156682,94.8763636 207.765966,95.4845455 208.78144,95.4845455 L220.357843,95.4845455 C221.170222,95.4845455 221.982601,94.8763636 221.982601,93.8627273 C221.982601,92.8490909 221.170222,92.2409091 220.357843,92.2409091 Z" id="Shape"></path>
            <path d="M215.483568,89.2 C215.686663,88.9972727 215.889757,88.5918182 215.889757,88.1863636 C215.889757,87.9836364 215.889757,87.7809091 215.686663,87.5781818 C215.686663,87.3754545 215.483568,87.1727273 215.280473,86.97 C214.671189,86.3618182 213.655715,86.3618182 213.04643,86.97 C212.843336,87.1727273 212.843336,87.3754545 212.640241,87.5781818 C212.640241,87.7809091 212.437146,87.9836364 212.437146,88.1863636 C212.437146,88.5918182 212.640241,88.9972727 212.843336,89.2 C213.04643,89.4027273 213.45262,89.6054545 213.85881,89.6054545 C214.874283,89.6054545 215.280473,89.6054545 215.483568,89.2 Z" id="Shape"></path>
            <path d="M174.052232,111.702727 L229.903298,111.702727 C233.355909,111.702727 236.199236,108.864545 236.199236,105.418182 L236.199236,37.7072727 C236.199236,34.2609091 233.355909,31.4227273 229.903298,31.4227273 L174.052232,31.4227273 C170.59962,31.4227273 167.756293,34.2609091 167.756293,37.7072727 L167.756293,105.418182 C167.756293,108.864545 170.59962,111.702727 174.052232,111.702727 Z M170.802715,37.7072727 C170.802715,35.8827273 172.224378,34.4636364 174.052232,34.4636364 L229.903298,34.4636364 C231.731151,34.4636364 233.152814,35.8827273 233.152814,37.7072727 L233.152814,105.418182 C233.152814,107.242727 231.731151,108.661818 229.903298,108.661818 L174.052232,108.661818 C172.224378,108.661818 170.802715,107.242727 170.802715,105.418182 L170.802715,37.7072727 Z" id="Shape"></path>
            <path d="M177.301748,55.3445455 L226.450686,55.3445455 C227.263065,55.3445455 228.075445,54.7363636 228.075445,53.7227273 L228.075445,40.9509091 C228.075445,40.14 227.46616,39.3290909 226.450686,39.3290909 L177.301748,39.3290909 C176.489369,39.3290909 175.67699,39.9372727 175.67699,40.9509091 L175.67699,53.7227273 C175.880085,54.7363636 176.489369,55.3445455 177.301748,55.3445455 Z M225.029023,52.3036364 L179.535791,52.3036364 L179.535791,42.5727273 L225.029023,42.5727273 L225.029023,52.3036364 Z" id="Shape"></path>
            <path d="M98.5009712,134.408182 C103.98453,134.408182 110.077374,132.583636 115.967123,127.11 C116.576407,126.501818 116.576407,125.488182 116.170218,124.88 C115.560933,124.271818 114.545459,124.271818 113.936175,124.677273 C98.0947816,138.868182 82.0502935,125.285455 81.4410092,124.677273 C80.8317248,124.069091 79.8162509,124.271818 79.2069665,124.88 C78.5976821,125.488182 78.8007769,126.501818 79.4100613,127.11 C79.4100613,127.312727 87.7369475,134.408182 98.5009712,134.408182 Z" id="Shape"></path>
            <path d="M128.15281,192.996364 L135.464222,197.659091 C136.073507,198.064545 136.682791,198.064545 137.08898,197.659091 L143.588014,193.401818 L150.087047,197.659091 C150.493236,198.064545 151.305616,198.064545 151.711805,197.659091 L158.210838,193.401818 L164.709871,197.659091 C164.912966,197.861818 165.319156,197.861818 165.522251,197.861818 C165.92844,197.861818 166.537724,197.659091 166.740819,197.253636 C167.147009,196.645455 166.943914,195.631818 166.33463,195.226364 L159.023217,190.563636 C158.413933,190.158182 157.804649,190.158182 157.398459,190.563636 L150.899426,194.820909 L144.400393,190.563636 C143.791108,190.158182 143.181824,190.158182 142.775634,190.563636 L136.276601,194.820909 L129.777568,190.563636 C129.168284,190.158182 128.15281,190.360909 127.74662,190.969091 C127.137336,191.577273 127.340431,192.590909 128.15281,192.996364 Z" id="Shape"></path>
            <path d="M29.8549335,103.999091 C29.8549335,103.188182 29.2456492,102.377273 28.2301752,102.377273 C27.2147013,102.377273 26.605417,102.985455 26.605417,103.999091 L26.605417,128.529091 C26.605417,129.34 27.2147013,130.150909 28.2301752,130.150909 C29.2456492,130.150909 29.8549335,129.542727 29.8549335,128.529091 L29.8549335,103.999091 Z" id="Shape"></path>
            <path d="M28.2301752,135.016364 C27.4177961,135.016364 26.605417,135.624545 26.605417,136.638182 L26.605417,144.544545 C26.605417,145.355455 27.2147013,146.166364 28.2301752,146.166364 C29.2456492,146.166364 29.8549335,145.558182 29.8549335,144.544545 L29.8549335,136.638182 C29.8549335,135.624545 29.0425544,135.016364 28.2301752,135.016364 Z" id="Shape"></path>
            <path d="M211.624767,8.71727273 C211.827862,8.92 212.234051,9.12272727 212.640241,9.12272727 C213.04643,9.12272727 213.45262,8.92 213.655715,8.71727273 C214.264999,8.10909091 214.264999,7.09545455 213.655715,6.48727273 L210.406198,3.24363636 C209.796914,2.63545455 208.78144,2.63545455 208.172156,3.24363636 C207.562871,3.85181818 207.562871,4.86545455 208.172156,5.47363636 L211.624767,8.71727273 Z" id="Shape"></path>
            <path d="M221.982601,19.0563636 C222.185696,19.2590909 222.591885,19.4618182 222.998075,19.4618182 C223.404265,19.4618182 223.810454,19.2590909 224.013549,19.0563636 C224.622833,18.4481818 224.622833,17.4345455 224.013549,16.8263636 L220.764032,13.5827273 C220.154748,12.9745455 219.139274,12.9745455 218.52999,13.5827273 C217.920705,14.1909091 217.920705,15.2045455 218.52999,15.8127273 L221.982601,19.0563636 Z" id="Shape"></path>
            <path d="M209.390724,19.4618182 C209.796914,19.4618182 210.203103,19.2590909 210.406198,19.0563636 L213.655715,15.8127273 C214.264999,15.2045455 214.264999,14.1909091 213.655715,13.5827273 C213.04643,12.9745455 212.030956,12.9745455 211.421672,13.5827273 L208.172156,16.8263636 C207.562871,17.4345455 207.562871,18.4481818 208.172156,19.0563636 C208.78144,19.2590909 209.187629,19.4618182 209.390724,19.4618182 Z" id="Shape"></path>
            <path d="M219.748558,9.12272727 C220.154748,9.12272727 220.560937,8.92 220.764032,8.71727273 L224.013549,5.47363636 C224.622833,4.86545455 224.622833,3.85181818 224.013549,3.24363636 C223.404265,2.63545455 222.388791,2.63545455 221.779506,3.24363636 L218.52999,6.48727273 C217.920705,7.09545455 217.920705,8.10909091 218.52999,8.71727273 C218.936179,8.92 219.342369,9.12272727 219.748558,9.12272727 Z" id="Shape"></path>
            <path d="M245.947786,116.770909 C246.150881,116.973636 246.55707,117.176364 246.96326,117.176364 C247.369449,117.176364 247.775639,116.973636 247.978734,116.770909 C248.588018,116.162727 248.588018,115.149091 247.978734,114.540909 L244.729217,111.297273 C244.119933,110.689091 243.104459,110.689091 242.495174,111.297273 C241.88589,111.905455 241.88589,112.919091 242.495174,113.527273 L245.947786,116.770909 Z" id="Shape"></path>
            <path d="M255.290146,121.839091 C254.680862,121.230909 253.665388,121.230909 253.056103,121.839091 C252.446819,122.447273 252.446819,123.460909 253.056103,124.069091 L256.30562,127.312727 C256.508715,127.515455 256.914904,127.718182 257.321094,127.718182 C257.727283,127.718182 258.133473,127.515455 258.336568,127.312727 C258.945852,126.704545 258.945852,125.690909 258.336568,125.082727 L255.290146,121.839091 Z" id="Shape"></path>
            <path d="M243.916838,127.718182 C244.323027,127.718182 244.729217,127.515455 244.932312,127.312727 L248.181828,124.069091 C248.791113,123.460909 248.791113,122.447273 248.181828,121.839091 C247.572544,121.230909 246.55707,121.230909 245.947786,121.839091 L242.698269,125.082727 C242.088985,125.690909 242.088985,126.704545 242.698269,127.312727 C243.104459,127.515455 243.510648,127.718182 243.916838,127.718182 Z" id="Shape"></path>
            <path d="M254.274672,117.379091 C254.680862,117.379091 255.087051,117.176364 255.290146,116.973636 L258.539662,113.73 C259.148947,113.121818 259.148947,112.108182 258.539662,111.5 C257.930378,110.891818 256.914904,110.891818 256.30562,111.5 L253.056103,114.743636 C252.446819,115.351818 252.446819,116.365455 253.056103,116.973636 C253.462293,117.176364 253.868482,117.379091 254.274672,117.379091 Z" id="Shape"></path>
            <path d="M16.8568672,49.06 C17.059962,49.2627273 17.4661516,49.4654545 17.8723412,49.4654545 C18.2785307,49.4654545 18.6847203,49.2627273 18.8878151,49.06 C19.4970994,48.4518182 19.4970994,47.4381818 18.8878151,46.83 L15.6382985,43.5863636 C15.0290142,42.9781818 14.0135402,42.9781818 13.4042559,43.5863636 C12.7949715,44.1945455 12.7949715,45.2081818 13.4042559,45.8163636 L16.8568672,49.06 Z" id="Shape"></path>
            <path d="M27.2147013,59.3990909 C27.4177961,59.6018182 27.8239857,59.8045455 28.2301752,59.8045455 C28.6363648,59.8045455 29.0425544,59.6018182 29.2456492,59.3990909 C29.8549335,58.7909091 29.8549335,57.7772727 29.2456492,57.1690909 L25.9961326,53.9254545 C25.3868482,53.3172727 24.3713743,53.3172727 23.76209,53.9254545 C23.1528056,54.5336364 23.1528056,55.5472727 23.76209,56.1554545 L27.2147013,59.3990909 Z" id="Shape"></path>
            <path d="M14.8259194,59.8045455 C15.2321089,59.8045455 15.6382985,59.6018182 15.8413933,59.3990909 L19.0909099,56.1554545 C19.7001942,55.5472727 19.7001942,54.5336364 19.0909099,53.9254545 C18.4816255,53.3172727 17.4661516,53.3172727 16.8568672,53.9254545 L13.6073507,57.1690909 C12.9980663,57.7772727 12.9980663,58.7909091 13.6073507,59.3990909 C14.0135402,59.6018182 14.4197298,59.8045455 14.8259194,59.8045455 Z" id="Shape"></path>
            <path d="M24.9806587,49.4654545 C25.3868482,49.4654545 25.7930378,49.2627273 25.9961326,49.06 L29.2456492,45.8163636 C29.8549335,45.2081818 29.8549335,44.1945455 29.2456492,43.5863636 C28.6363648,42.9781818 27.6208909,42.9781818 27.0116065,43.5863636 L23.76209,46.83 C23.1528056,47.4381818 23.1528056,48.4518182 23.76209,49.06 C24.3713743,49.2627273 24.5744691,49.4654545 24.9806587,49.4654545 Z" id="Shape"></path>
            <path d="M156.382985,20.4754545 C160.241786,20.4754545 163.491303,17.2318182 163.491303,13.38 C163.491303,9.52818182 160.241786,6.28454545 156.382985,6.28454545 C152.524184,6.28454545 149.274668,9.52818182 149.274668,13.38 C149.477762,17.2318182 152.524184,20.4754545 156.382985,20.4754545 Z M156.382985,9.32545455 C158.617028,9.32545455 160.444881,11.15 160.444881,13.38 C160.444881,15.61 158.617028,17.4345455 156.382985,17.4345455 C154.148943,17.4345455 152.321089,15.61 152.321089,13.38 C152.524184,11.15 154.352037,9.32545455 156.382985,9.32545455 Z" id="Shape"></path>
            <path d="M200.860743,162.181818 C197.001942,162.181818 193.752426,165.425455 193.752426,169.277273 C193.752426,173.129091 197.001942,176.372727 200.860743,176.372727 C204.719544,176.372727 207.969061,173.129091 207.969061,169.277273 C207.969061,165.425455 204.719544,162.181818 200.860743,162.181818 Z M200.860743,173.331818 C198.626701,173.331818 196.798848,171.507273 196.798848,169.277273 C196.798848,167.047273 198.626701,165.222727 200.860743,165.222727 C203.094786,165.222727 204.922639,167.047273 204.922639,169.277273 C204.922639,171.507273 203.094786,173.331818 200.860743,173.331818 Z" id="Shape"></path>
            <path d="M45.0870425,11.15 C45.0870425,11.9609091 45.6963268,12.7718182 46.7118008,12.7718182 L72.7079334,12.7718182 C73.5203125,12.7718182 74.3326916,12.1636364 74.3326916,11.15 C74.3326916,10.1363636 73.7234073,9.52818182 72.7079334,9.52818182 L46.7118008,9.52818182 C45.6963268,9.52818182 45.0870425,10.3390909 45.0870425,11.15 Z" id="Shape"></path>
            <path d="M29.6518387,12.5690909 L38.1818198,12.5690909 C38.9941989,12.5690909 39.806578,11.9609091 39.806578,10.9472727 C39.806578,9.93363636 39.1972937,9.32545455 38.1818198,9.32545455 L29.6518387,9.32545455 C28.8394596,9.32545455 28.0270805,9.93363636 28.0270805,10.9472727 C28.0270805,11.9609091 28.8394596,12.5690909 29.6518387,12.5690909 Z" id="Shape"></path>
            <path d="M29.6518387,3.64909091 L47.9303695,3.64909091 C48.7427486,3.64909091 49.5551278,3.04090909 49.5551278,2.02727273 C49.5551278,1.01363636 48.7427486,0.608181818 47.7272747,0.608181818 L29.448744,0.608181818 C28.6363648,0.608181818 27.8239857,1.21636364 27.8239857,2.23 C27.8239857,3.24363636 28.8394596,3.64909091 29.6518387,3.64909091 Z" id="Shape"></path>
            <path d="M55.6479713,3.64909091 L61.5377201,3.64909091 C62.3500993,3.64909091 63.1624784,3.04090909 63.1624784,2.02727273 C63.1624784,1.01363636 62.5531941,0.405454545 61.5377201,0.405454545 L55.6479713,0.405454545 C54.8355922,0.405454545 54.0232131,1.01363636 54.0232131,2.02727273 C54.0232131,3.04090909 54.8355922,3.64909091 55.6479713,3.64909091 Z" id="Shape"></path>
            <path d="M208.37525,138.462727 C208.37525,137.651818 207.765966,136.840909 206.750492,136.840909 L180.957454,136.840909 C180.145075,136.840909 179.332696,137.449091 179.332696,138.462727 C179.332696,139.273636 179.94198,140.084545 180.957454,140.084545 L206.953587,140.084545 C207.765966,140.084545 208.37525,139.273636 208.37525,138.462727 Z" id="Shape"></path>
            <path d="M163.897492,137.043636 C163.085113,137.043636 162.272734,137.651818 162.272734,138.665455 C162.272734,139.476364 162.882018,140.287273 163.897492,140.287273 L172.427473,140.287273 C173.239852,140.287273 174.052232,139.679091 174.052232,138.665455 C174.052232,137.854545 173.442947,137.043636 172.427473,137.043636 L163.897492,137.043636 Z" id="Shape"></path>
            <path d="M162.272734,129.542727 C162.272734,130.353636 162.882018,131.164545 163.897492,131.164545 L182.176023,131.164545 C182.988402,131.164545 183.800781,130.556364 183.800781,129.542727 C183.800781,128.731818 183.191497,127.920909 182.176023,127.920909 L163.897492,127.920909 C163.085113,128.123636 162.272734,128.731818 162.272734,129.542727 Z" id="Shape"></path>
            <path d="M195.783374,131.164545 C196.595753,131.164545 197.408132,130.556364 197.408132,129.542727 C197.408132,128.731818 196.798848,127.920909 195.783374,127.920909 L189.893625,127.920909 C189.081246,127.920909 188.268867,128.529091 188.268867,129.542727 C188.268867,130.353636 188.878151,131.164545 189.893625,131.164545 L195.783374,131.164545 Z" id="Shape"></path>
            <path d="M238.636373,133.191818 C238.230184,132.786364 237.823994,132.583636 237.417805,132.583636 C237.011615,132.583636 236.402331,132.989091 236.199236,133.394545 C234.371383,136.435455 232.746625,138.868182 231.121866,141.503636 C229.700203,143.733636 228.278539,145.963636 226.653781,148.599091 C226.247592,149.41 226.450686,150.220909 227.059971,150.626364 C227.263065,150.829091 227.669255,150.829091 227.87235,150.829091 C228.481634,150.829091 228.887824,150.626364 229.090919,150.018182 C230.715677,147.382727 232.13734,145.152727 233.559004,142.922727 C234.574478,141.300909 235.589952,139.881818 236.605426,138.26 C237.6209,144.747273 236.80852,152.045455 234.371383,159.546364 C234.371383,159.546364 234.371383,159.546364 234.371383,159.546364 C232.949719,163.600909 231.121866,167.858182 228.684729,171.71 C228.684729,171.71 228.684729,171.71 228.684729,171.71 C228.684729,171.71 228.684729,171.71 228.684729,171.71 C225.029023,177.791818 220.560938,183.265455 215.077378,188.130909 C215.077378,188.130909 215.077378,188.130909 215.077378,188.130909 C215.077378,188.130909 215.077378,188.130909 215.077378,188.130909 C215.077378,188.130909 215.077378,188.130909 215.077378,188.130909 C215.077378,188.130909 215.077378,188.130909 215.077378,188.130909 C211.015483,191.78 206.344302,195.226364 201.470028,198.064545 C201.470028,198.064545 201.470028,198.064545 201.470028,198.064545 C197.611227,200.294545 193.346236,202.321818 188.878151,203.943636 C188.065772,201.308182 187.253393,198.47 186.237919,195.834545 C180.754359,176.980909 163.288208,166.236364 141.353971,168.060909 C136.479696,168.466364 131.605421,168.669091 126.731146,168.871818 C126.731146,168.871818 126.528052,168.871818 126.528052,168.871818 C126.528052,168.871818 126.528052,168.871818 126.528052,168.871818 C125.106388,166.033636 120.232113,154.883636 126.324957,138.665455 C133.433274,132.178182 139.119928,123.460909 142.775634,112.716364 C142.978729,112.716364 143.181824,112.716364 143.384919,112.716364 C148.665383,112.716364 152.524184,104.81 152.524184,94.4709091 C152.524184,86.3618182 150.087047,79.8745455 146.431341,77.2390909 C146.634435,77.0363636 146.634435,76.8336364 146.634435,76.8336364 C147.040625,76.0227273 146.83753,75.2118182 146.025151,74.8063636 C145.822056,74.8063636 145.822056,74.6036364 145.618961,74.6036364 C146.228246,69.3327273 147.040625,63.8590909 147.24372,58.3854545 C148.868478,31.8281818 141.557066,29.5981818 129.168284,25.7463636 C128.15281,25.3409091 127.137336,25.1381818 125.918767,24.7327273 C117.591881,22.0972727 107.640237,20.6781818 97.2824025,20.4754545 C89.9709902,20.4754545 79.2069665,21.2863636 68.6460376,24.7327273 C67.6305637,25.1381818 66.411995,25.3409091 65.5996158,25.7463636 C53.4139287,29.5981818 45.8994216,31.8281818 47.5241799,58.3854545 C47.9303695,63.8590909 48.5396538,69.3327273 49.1489382,74.6036364 C48.9458434,74.6036364 48.9458434,74.6036364 48.7427486,74.8063636 C47.9303695,75.2118182 47.7272747,76.2254545 48.1334643,76.8336364 C48.1334643,76.8336364 48.336559,77.0363636 48.336559,77.2390909 C44.6808529,79.6718182 42.2437155,86.3618182 42.2437155,94.4709091 C42.2437155,104.81 46.1025164,112.716364 51.3829808,112.716364 C51.5860756,112.716364 51.7891704,112.716364 51.9922652,112.716364 C55.4448766,123.055455 60.9284358,131.772727 67.8336585,138.26 C73.9265021,154.275455 69.0522272,166.033636 67.6305637,168.871818 C67.6305637,168.871818 67.6305637,168.871818 67.6305637,168.871818 C67.6305637,168.871818 67.4274689,168.871818 67.4274689,168.871818 C62.7562888,168.669091 58.0851088,168.466364 53.4139287,168.060909 C31.8858814,166.236364 14.4197298,176.980909 8.73307579,195.834545 C6.09284358,203.943636 3.65570615,212.052727 1.21856872,220.364545 C1.21856872,220.364545 1.21856872,220.567273 1.21856872,220.567273 C1.21856872,220.567273 1.21856872,220.77 1.21856872,220.77 C1.21856872,220.77 1.21856872,220.77 1.21856872,220.77 C1.21856872,220.972727 1.21856872,220.972727 1.21856872,221.175455 C1.21856872,221.175455 1.21856872,221.378182 1.21856872,221.378182 C1.21856872,221.378182 1.4216635,221.580909 1.4216635,221.580909 C1.4216635,221.580909 1.62475829,221.783636 1.62475829,221.783636 C1.62475829,221.783636 1.82785307,221.986364 1.82785307,221.986364 C1.82785307,221.986364 2.03094786,222.189091 2.03094786,222.189091 C2.03094786,222.189091 2.03094786,222.189091 2.03094786,222.189091 C2.23404265,222.189091 2.23404265,222.189091 2.43713743,222.189091 C2.43713743,222.189091 2.43713743,222.189091 2.43713743,222.189091 L192.533857,222.189091 C192.533857,222.189091 192.736952,222.189091 192.736952,222.189091 L202.282407,222.189091 C202.282407,222.189091 202.282407,222.189091 202.282407,222.189091 C202.282407,222.189091 202.282407,222.189091 202.282407,222.189091 L215.889757,222.189091 C215.889757,222.189091 216.092852,222.189091 216.092852,222.189091 L229.903298,222.189091 C229.903298,222.189091 230.106392,222.189091 230.106392,222.189091 L243.713743,222.189091 C244.526122,222.189091 245.338501,221.580909 245.338501,220.567273 L245.338501,159.749091 C245.338501,158.938182 244.729217,158.127273 243.713743,158.127273 L237.823994,158.127273 C239.854942,151.64 240.464227,145.152727 239.854942,139.273636 C242.088985,142.111818 244.526122,145.558182 247.166354,149.815455 C247.572544,150.626364 248.588018,150.829091 249.197302,150.220909 C250.009681,149.815455 250.212776,148.801818 249.603492,148.193636 C245.541596,141.706364 241.682795,136.840909 238.636373,133.191818 Z M125.512578,92.0381818 C125.512578,97.9172727 120.841398,102.58 114.951649,102.58 C109.0619,102.58 104.39072,97.9172727 104.39072,92.0381818 C104.39072,86.1590909 109.0619,81.4963636 114.951649,81.4963636 C120.638303,81.4963636 125.512578,86.1590909 125.512578,92.0381818 Z M114.951649,78.4554545 C108.249521,78.4554545 102.765962,83.3209091 101.547393,89.6054545 C99.5164451,88.7945455 96.6731181,88.3890909 93.8297911,89.6054545 C92.6112224,83.3209091 87.1276632,78.4554545 80.4255352,78.4554545 C74.941976,78.4554545 70.0677011,81.9018182 68.0367533,86.5645455 C60.9284358,86.5645455 55.4448766,80.8881818 53.0077391,77.6445455 C53.6170235,75.4145455 56.6634453,63.2509091 60.3191514,58.9936364 C62.9593836,55.9527273 73.7234073,57.1690909 79.8162509,58.7909091 C80.4255352,58.9936364 81.2379144,58.5881818 81.6441039,57.98 C82.0502935,57.3718182 81.8471987,56.5609091 81.2379144,56.1554545 C76.9729239,52.9118182 77.785303,49.06 78.5976821,47.0327273 C89.9709902,57.1690909 99.9226347,56.3581818 100.328824,56.3581818 C100.531919,56.3581818 124.294009,56.1554545 132.82399,57.1690909 C138.713739,57.7772727 141.963255,71.36 142.775634,77.2390909 C142.775634,77.2390909 142.775634,77.2390909 142.775634,77.2390909 L142.775634,77.4418182 C142.775634,77.4418182 142.775634,77.6445455 142.775634,77.6445455 C140.135402,80.8881818 134.854938,86.5645455 127.74662,86.5645455 C125.309483,81.9018182 120.435208,78.4554545 114.951649,78.4554545 Z M80.4255352,81.4963636 C86.315284,81.4963636 90.9864641,86.1590909 90.9864641,92.0381818 C90.9864641,97.9172727 86.315284,102.58 80.4255352,102.58 C74.5357864,102.58 69.8646064,97.9172727 69.8646064,92.0381818 C69.8646064,86.1590909 74.5357864,81.4963636 80.4255352,81.4963636 Z M66.6150898,28.7872727 C67.6305637,28.3818182 68.6460376,28.1790909 69.8646064,27.7736364 C77.9883978,25.1381818 87.5338527,23.7190909 97.688592,23.7190909 C107.843331,23.7190909 117.388786,25.1381818 125.512578,27.7736364 C126.528052,28.1790909 127.74662,28.3818182 128.762094,28.7872727 C140.338497,32.4363636 146.228246,34.0581818 144.603488,58.3854545 C144.400393,61.6290909 143.994203,64.8727273 143.791108,67.9136364 C141.963255,61.8318182 138.713739,54.7363636 133.23018,54.1281818 C124.497104,53.1145455 101.344298,53.3172727 100.125729,53.3172727 C100.125729,53.3172727 89.9709902,53.9254545 79.2069665,43.5863636 C78.8007769,43.1809091 78.3945874,43.1809091 77.9883978,43.1809091 C77.5822082,43.1809091 77.1760186,43.3836364 76.9729239,43.7890909 C75.3481656,46.0190909 73.5203125,50.4790909 75.9574499,54.9390909 C70.2707959,53.9254545 61.3346253,53.1145455 57.882014,56.9663636 C55.4448766,59.6018182 53.4139287,64.8727273 51.9922652,69.3327273 C51.5860756,65.6836364 51.179886,61.8318182 50.9767913,58.1827273 C49.352033,34.0581818 55.038687,32.4363636 66.6150898,28.7872727 Z M54.8355922,110.486364 C54.6324974,110.080909 54.4294026,109.675455 54.0232131,109.472727 C53.8201183,109.472727 53.6170235,109.27 53.4139287,109.27 C53.2108339,109.27 53.0077391,109.27 52.8046443,109.472727 C52.3984548,109.675455 52.19536,109.675455 51.7891704,109.675455 C48.9458434,109.675455 45.6963268,103.390909 45.6963268,94.4709091 C45.6963268,86.7672727 47.9303695,81.2936364 50.3675069,79.8745455 C53.2108339,83.5236364 58.8974879,89.2 66.8181846,89.6054545 C66.6150898,90.4163636 66.6150898,91.2272727 66.6150898,92.0381818 C66.6150898,99.5390909 72.7079334,105.620909 80.2224404,105.620909 C87.3307579,105.620909 93.2205067,99.9445455 93.8297911,92.8490909 C97.2824025,90.8218182 100.125729,92.0381818 101.344298,92.8490909 C101.750488,99.9445455 107.640237,105.620909 114.951649,105.620909 C122.466156,105.620909 128.558999,99.5390909 128.558999,92.0381818 C128.558999,91.2272727 128.558999,90.4163636 128.355905,89.6054545 C136.073507,89.2 141.760161,83.5236364 144.806582,79.8745455 C147.24372,81.4963636 149.477762,86.97 149.477762,94.4709091 C149.477762,103.390909 146.228246,109.675455 143.384919,109.675455 C142.978729,109.675455 142.775634,109.675455 142.369445,109.472727 C141.963255,109.27 141.557066,109.27 141.150876,109.472727 C140.744687,109.675455 140.541592,110.080909 140.338497,110.486364 C133.433274,132.786364 116.576407,147.18 97.688592,147.18 C78.5976821,147.382727 61.9439097,132.786364 54.8355922,110.486364 Z M72.7079334,141.909091 C80.0193456,147.382727 88.5493267,150.423636 97.688592,150.423636 C106.421668,150.423636 114.951649,147.585455 122.059966,142.314545 C117.185691,159.546364 124.090914,170.696364 124.294009,171.101818 C124.294009,171.304545 124.497104,171.304545 124.497104,171.304545 C119.825924,180.427273 116.576407,184.076364 112.514511,188.739091 C112.311417,188.941818 112.108322,189.144545 112.108322,189.347273 L108.65571,174.345455 L113.936175,165.425455 C114.13927,165.02 114.13927,164.411818 113.936175,163.803636 C113.73308,163.398182 113.123796,162.992727 112.514511,162.992727 L82.6595779,162.992727 C82.0502935,162.992727 81.6441039,163.195455 81.2379144,163.803636 C81.0348196,164.209091 81.0348196,164.817273 81.2379144,165.425455 L86.7214736,174.548182 L82.6595779,191.171818 C78.8007769,186.306364 74.3326916,180.021818 69.8646064,171.507273 C69.8646064,171.507273 70.0677011,171.304545 70.0677011,171.304545 C70.6769855,170.493636 77.3791134,159.140909 72.7079334,141.909091 Z M97.4854972,203.943636 C95.860739,203.132727 90.9864641,200.294545 85.0967153,193.604545 C85.2998101,193.401818 85.5029049,193.199091 85.5029049,192.793636 L89.7678954,175.561818 L105.812383,175.561818 L109.874279,192.185455 C103.781436,198.875455 99.1102555,202.727273 97.4854972,203.943636 Z M106.015478,172.520909 L89.158611,172.520909 L85.2998101,166.033636 L109.671184,166.033636 L106.015478,172.520909 Z M11.5764028,196.645455 C17.059962,179.210909 33.1044501,169.48 53.6170235,170.899091 C58.0851088,171.101818 62.5531941,171.507273 66.8181846,171.71 C81.8471987,201.308182 96.4700233,206.984545 97.0793077,207.187273 C97.2824025,207.187273 97.4854972,207.187273 97.688592,207.187273 C97.688592,207.187273 97.688592,207.187273 97.688592,207.187273 C97.8916868,207.187273 97.8916868,207.187273 98.0947816,207.187273 C98.0947816,207.187273 98.0947816,207.187273 98.2978764,207.187273 C98.5009712,207.187273 98.5009712,207.187273 98.5009712,206.984545 C98.704066,206.781818 104.593815,202.727273 112.514511,193.401818 C113.326891,192.388182 114.13927,191.577273 114.951649,190.563636 C119.216639,185.698182 122.669251,181.846364 127.74662,171.71 C132.4178,171.507273 136.885886,171.304545 141.557066,170.899091 C162.069639,169.277273 178.114127,179.210909 183.597686,196.645455 C184.61316,199.889091 185.628634,203.132727 186.644108,206.376364 C186.644108,206.579091 186.847203,206.781818 187.050298,206.984545 L187.050298,219.148182 L4.67118008,219.148182 C6.90522272,211.647273 9.13926537,204.146364 11.5764028,196.645455 Z M200.860743,219.148182 L190.09672,219.148182 L190.09672,206.781818 C193.752426,205.362727 197.408132,203.740909 200.860743,201.916364 L200.860743,219.148182 Z M203.907165,200.294545 C207.765966,198.064545 211.218577,195.429091 214.671189,192.793636 L214.671189,219.350909 L203.907165,219.350909 L203.907165,200.294545 Z M217.71761,189.955455 C221.779506,186.306364 225.435212,182.049091 228.481634,177.791818 L228.481634,219.350909 L217.71761,219.350909 L217.71761,189.955455 Z M242.29208,219.148182 L231.528056,219.148182 L231.528056,172.926364 C233.762099,169.277273 235.589952,165.425455 237.011615,161.573636 L242.29208,161.573636 L242.29208,219.148182 Z" id="Shape"></path>
        </g>
    </g>
</svg>