<?xml version="1.0" encoding="UTF-8"?>
<svg width="61px" height="59px" viewBox="0 0 61 59" version="1.1" xmlns="http://www.w3.org/2000/svg" xmlns:xlink="http://www.w3.org/1999/xlink">
    <!-- Generator: Sketch 48.2 (47327) - http://www.bohemiancoding.com/sketch -->
    <title>noun_1136095_cc</title>
    <desc>Created with Sketch.</desc>
    <defs></defs>
    <g id="IB-MB-Homepage_Offerings_Blue" stroke="none" stroke-width="1" fill="none" fill-rule="evenodd" transform="translate(-262.000000, -4044.000000)">
        <g id="noun_1136095_cc" transform="translate(263.000000, 4045.000000)" fill="#8fc355" fill-rule="nonzero" stroke="#8fc355">
            <path d="M57.08835,33.771075 C56.8895625,33.4312125 56.4528,33.3165 56.11365,33.517425 L53.738175,34.90965 C53.3983125,35.1084375 53.285025,35.5452 53.484525,35.88435 C53.6826,36.2235 54.1193625,36.3382125 54.459225,36.138 L55.416825,35.57655 C52.236225,47.331375 41.6192625,55.4895 29.3756625,55.4895 C16.924725,55.4895 6.1503,47.054925 3.1741875,34.97805 C3.0801375,34.59615 2.69325,34.361025 2.3120625,34.4572125 C1.9301625,34.5512625 1.6964625,34.9374375 1.791225,35.3193375 C4.9240875,48.0346125 16.2678,56.9152125 29.376375,56.9152125 C42.2348625,56.9152125 53.38905,48.3680625 56.7670125,36.0411 L57.252225,36.8683125 C57.38475,37.094175 57.622725,37.2202875 57.8671125,37.2202875 C57.9896625,37.2202875 58.1136375,37.1889375 58.226925,37.1219625 C58.5667875,36.923175 58.680075,36.4864125 58.480575,36.1472625 L57.08835,33.771075 Z" id="Shape"></path>
            <path d="M2.0812125,23.4875625 C2.1866625,23.4875625 2.292825,23.46405 2.3904375,23.417025 L4.87065,22.222875 C5.225475,22.051875 5.3743875,21.6258 5.2041,21.2716875 C5.0331,20.91615 4.607025,20.7686625 4.2529125,20.9382375 L3.350175,21.3728625 C6.54645,9.6444 17.1456,1.5105 29.3756625,1.5105 C41.839425,1.5105 52.6167,9.956475 55.58355,22.049025 C55.66335,22.373925 55.9547625,22.59195 56.2753875,22.59195 C56.331675,22.59195 56.388675,22.5855375 56.445675,22.572 C56.827575,22.47795 57.061275,22.091775 56.9679375,21.709875 C53.843625,8.9782125 42.4970625,0.0855 29.37495,0.0855 C16.5186,0.0855 5.3729625,8.622675 1.9885875,20.9410875 L1.5283125,19.9842 C1.3573125,19.6300875 0.93195,19.4804625 0.577125,19.65075 C0.2223,19.82175 0.0733875,20.2471125 0.243675,20.6019375 L1.437825,23.0828625 C1.5197625,23.25315 1.665825,23.38425 1.8446625,23.4462375 C1.9216125,23.474025 2.002125,23.4875625 2.0812125,23.4875625 Z" id="Shape"></path>
            <path d="M22.051875,43.338525 C22.057575,43.358475 22.068975,43.3748625 22.0761,43.3941 C22.08465,43.4169 22.0939125,43.4375625 22.1046,43.4589375 C22.1380875,43.5273375 22.180125,43.589325 22.23285,43.6427625 C22.23855,43.6484625 22.239975,43.6555875 22.245675,43.6612875 C22.2471,43.6627125 22.2492375,43.663425 22.2506625,43.66485 C22.3098,43.720425 22.379625,43.7624625 22.4544375,43.7952375 C22.476525,43.8045 22.4986125,43.8109125 22.5207,43.8180375 C22.5484875,43.8273 22.5741375,43.8408375 22.6040625,43.8465375 C22.8206625,43.8878625 25.1163375,44.3110875 28.1401875,44.3110875 C32.24205,44.3110875 37.6819875,43.5309 41.0820375,39.961275 C46.30395,34.4785875 46.0125375,20.0632875 45.997575,19.452675 C45.9876,19.065075 45.6705375,18.757275 45.285075,18.757275 C45.279375,18.757275 45.273675,18.757275 45.267975,18.757275 C44.800575,18.768675 36.2669625,19.0159125 29.9399625,21.581625 C29.561625,20.179425 28.9738125,18.9639 28.1615625,17.98635 C24.545625,13.6344 13.9215375,12.5777625 13.4712375,12.535725 C13.2831375,12.518625 13.094325,12.575625 12.948975,12.69675 C12.8029125,12.817875 12.711,12.9924375 12.6946125,13.18125 C12.654,13.6322625 11.74485,24.269175 15.360075,28.6218375 C16.782225,30.3332625 18.839925,31.5145875 21.4697625,32.1472875 C20.49435,37.632825 21.95925,43.0086375 22.051875,43.338525 Z M26.0554125,25.6507125 C29.863725,21.65145 39.596475,20.5599 43.5715125,20.276325 L23.1384375,41.694075 C22.5256875,38.584725 21.481875,30.453675 26.0554125,25.6507125 Z M40.049625,38.978025 C35.763225,43.4796 27.446925,43.0157625 24.2086125,42.6367125 L44.5618875,21.3030375 C44.4664125,25.337925 43.8351375,35.0037 40.049625,38.978025 Z M27.0643125,18.8962125 C27.7853625,19.76475 28.3040625,20.8684125 28.6246875,22.1651625 C27.2153625,22.852725 25.967775,23.676375 25.023,24.668175 C25.0037625,24.688125 24.987375,24.7095 24.9681375,24.72945 L15.2368125,14.2065375 C18.4102875,14.7038625 24.6745875,16.018425 27.0643125,18.8962125 Z M16.4559,27.71055 C14.006325,24.7615125 13.91655,18.1138875 14.0227125,14.992425 L24.049725,25.83525 C22.9368,27.3421875 22.2178875,29.0322375 21.7718625,30.75435 C19.46265,30.1921875 17.6707125,29.1726 16.4559,27.71055 Z" id="Shape"></path>
        </g>
    </g>
</svg>