<?xml version="1.0" encoding="UTF-8"?>
<svg width="21px" height="21px" viewBox="0 0 21 21" version="1.1" xmlns="http://www.w3.org/2000/svg" xmlns:xlink="http://www.w3.org/1999/xlink">
    <!-- Generator: Sketch 47.1 (45422) - http://www.bohemiancoding.com/sketch -->
    <title>Group</title>
    <desc>Created with Sketch.</desc>
    <defs></defs>
    <g id="Pages" stroke="none" stroke-width="1" fill="none" fill-rule="evenodd">
        <g id="Quote-Full-Page" transform="translate(-200.000000, -2743.000000)" fill-rule="nonzero" fill="#000000">
            <g id="Group" transform="translate(200.000000, 2743.000000)">
                <path d="M10.4998798,21 C4.71016583,21 0,16.2895938 0,10.4998798 C0,4.71016583 4.71040615,0 10.4998798,0 C16.2895938,0 21,4.71040615 21,10.4998798 C20.9997597,16.2898342 16.2895938,21 10.4998798,21 Z M10.4998798,1.44196107 C5.50516703,1.44196107 1.44196107,5.50540735 1.44196107,10.4998798 C1.44196107,15.4943523 5.50516703,19.5580389 10.4998798,19.5580389 C15.4945926,19.5580389 19.5577986,15.4945926 19.5577986,10.5001202 C19.5577986,5.50564768 15.4943523,1.44196107 10.4998798,1.44196107 Z" id="Shape"></path>
                <g transform="translate(10.000000, 4.000000)" id="Shape">
                    <path d="M1,1.89989091 C1.5175,1.89989091 1.9365,1.50303636 1.9365,1.01470909 C1.9365,0.524727273 1.5175,0.129290909 1,0.129290909 C0.48275,0.129290909 0.064,0.524727273 0.064,1.01470909 C0.06375,1.50303636 0.4825,1.89989091 1,1.89989091 Z"></path>
                    <path d="M1,12.8704727 C0.58575,12.8704727 0.25,12.5530364 0.25,12.1613818 L0.25,4.9478 C0.25,4.55614545 0.58575,4.23870909 1,4.23870909 C1.41425,4.23870909 1.75,4.55614545 1.75,4.9478 L1.75,12.1613818 C1.74975,12.5530364 1.414,12.8704727 1,12.8704727 Z"></path>
                </g>
            </g>
        </g>
    </g>
</svg>