<?xml version="1.0" encoding="UTF-8"?>
<svg width="56px" height="60px" viewBox="0 0 56 60" version="1.1" xmlns="http://www.w3.org/2000/svg" xmlns:xlink="http://www.w3.org/1999/xlink">
    <!-- Generator: Sketch 48.2 (47327) - http://www.bohemiancoding.com/sketch -->
    <title>noun_1286063_cc</title>
    <desc>Created with Sketch.</desc>
    <defs></defs>
    <g id="IB-MB-Homepage_Offerings_Blue" stroke="none" stroke-width="1" fill="none" fill-rule="evenodd" transform="translate(-456.000000, -4043.000000)">
        <g id="Group-3" transform="translate(427.000000, 4044.000000)" fill="#8fc355" fill-rule="nonzero" stroke="#8fc355" stroke-width="0.5">
            <g id="noun_1286063_cc" transform="translate(30.000000, 0.000000)">
                <g id="Group">
                    <rect id="Rectangle-path" x="7.5185567" y="15.9246602" width="8.26701031" height="1.68932039"></rect>
                    <rect id="Rectangle-path" x="19.2556701" y="15.9246602" width="8.26701031" height="1.68932039"></rect>
                    <rect id="Rectangle-path" x="7.5185567" y="22.1638835" width="8.26701031" height="1.68932039"></rect>
                    <rect id="Rectangle-path" x="19.2556701" y="22.1638835" width="8.26701031" height="1.68932039"></rect>
                    <rect id="Rectangle-path" x="7.5185567" y="28.4031068" width="8.26701031" height="1.68932039"></rect>
                    <rect id="Rectangle-path" x="19.2556701" y="28.4031068" width="8.26701031" height="1.68932039"></rect>
                    <rect id="Rectangle-path" x="7.5185567" y="34.6423301" width="8.26701031" height="1.68932039"></rect>
                    <rect id="Rectangle-path" x="19.2556701" y="34.6423301" width="8.26701031" height="1.68932039"></rect>
                    <rect id="Rectangle-path" x="37.8309278" y="23.2563107" width="1.70103093" height="3.28291262"></rect>
                    <rect id="Rectangle-path" x="40.9154639" y="23.2563107" width="1.70103093" height="3.28291262"></rect>
                    <rect id="Rectangle-path" x="44.0056701" y="23.2563107" width="1.70103093" height="3.28291262"></rect>
                    <rect id="Rectangle-path" x="47.0902062" y="23.2563107" width="1.70103093" height="3.28291262"></rect>
                    <rect id="Rectangle-path" x="37.8309278" y="29.163301" width="1.70103093" height="3.28291262"></rect>
                    <rect id="Rectangle-path" x="40.9154639" y="29.163301" width="1.70103093" height="3.28291262"></rect>
                    <rect id="Rectangle-path" x="44.0056701" y="29.163301" width="1.70103093" height="3.28291262"></rect>
                    <rect id="Rectangle-path" x="47.0902062" y="29.163301" width="1.70103093" height="3.28291262"></rect>
                    <rect id="Rectangle-path" x="37.8309278" y="35.0759223" width="1.70103093" height="3.28291262"></rect>
                    <rect id="Rectangle-path" x="40.9154639" y="35.0759223" width="1.70103093" height="3.28291262"></rect>
                    <rect id="Rectangle-path" x="44.0056701" y="35.0759223" width="1.70103093" height="3.28291262"></rect>
                    <rect id="Rectangle-path" x="47.0902062" y="35.0759223" width="1.70103093" height="3.28291262"></rect>
                    <rect id="Rectangle-path" x="37.8309278" y="40.9829126" width="1.70103093" height="3.28291262"></rect>
                    <rect id="Rectangle-path" x="40.9154639" y="40.9829126" width="1.70103093" height="3.28291262"></rect>
                    <rect id="Rectangle-path" x="44.0056701" y="40.9829126" width="1.70103093" height="3.28291262"></rect>
                    <rect id="Rectangle-path" x="47.0902062" y="40.9829126" width="1.70103093" height="3.28291262"></rect>
                    <rect id="Rectangle-path" x="37.8309278" y="46.895534" width="1.70103093" height="3.28291262"></rect>
                    <rect id="Rectangle-path" x="40.9154639" y="46.895534" width="1.70103093" height="3.28291262"></rect>
                    <rect id="Rectangle-path" x="44.0056701" y="46.895534" width="1.70103093" height="3.28291262"></rect>
                    <rect id="Rectangle-path" x="47.0902062" y="46.895534" width="1.70103093" height="3.28291262"></rect>
                    <path d="M51.9324742,56.3106796 L51.9324742,17.895534 L34.6896907,17.895534 L34.6896907,56.3106796 L32.4216495,56.3106796 L32.4216495,10.9974757 L28.7871134,10.9974757 L28.7871134,5.00038835 L24.1603093,5.00038835 L24.1603093,0 L10.8865979,0 L10.8865979,5.00038835 L6.2371134,5.00038835 L6.2371134,10.9974757 L2.61958763,10.9974757 L2.61958763,56.3106796 L0,56.3106796 L0,58 L54.5520619,58 L54.5520619,56.3106796 L51.9324742,56.3106796 Z M12.5876289,1.68932039 L22.4592784,1.68932039 L22.4592784,5.00038835 L12.5876289,5.00038835 L12.5876289,1.68932039 Z M7.93814433,6.68970874 L27.0860825,6.68970874 L27.0860825,10.9974757 L7.93814433,10.9974757 L7.93814433,6.68970874 Z M13.9087629,56.3106796 L13.9087629,47.4699029 C13.9087629,45.4888629 15.5258458,43.8829127 17.5206186,43.8829127 C19.5153913,43.8829127 21.1324742,45.4888629 21.1324742,47.4699029 L21.1324742,56.3106796 L13.9087629,56.3106796 Z M22.8335052,56.3106796 L22.8335052,47.4699029 C22.8335051,44.555877 20.4548448,42.1935923 17.5206186,42.1935923 C14.5863924,42.1935923 12.207732,44.555877 12.207732,47.4699029 L12.207732,56.3106796 L4.32061856,56.3106796 L4.32061856,12.6867961 L30.7206186,12.6867961 L30.7206186,56.3106796 L22.8335052,56.3106796 Z M36.3907216,56.3106796 L36.3907216,19.5848544 L50.2314433,19.5848544 L50.2314433,56.3106796 L36.3907216,56.3106796 Z" id="Shape"></path>
                </g>
            </g>
        </g>
    </g>
</svg>