<svg xmlns="http://www.w3.org/2000/svg" width="16" height="16" viewBox="0 0 16 16">
    <g fill="none" fill-rule="evenodd">
        <path fill="#308CBC" d="M15.898 8.04a7.932 7.932 0 1 1-15.864 0 7.932 7.932 0 0 1 15.864 0"/>
        <path fill="#FFFFFE" d="M3.47 7.734v4.601h2.193V6.071H3.471v1.663M4.567 2.94a1.096 1.096 0 1 0 0 2.192 1.096 1.096 0 0 0 0-2.193M12.819 7.994c-.149-1.18-.691-1.923-2.287-1.923-.947 0-1.583.352-1.843.846h-.027V6.07H6.916v6.264h1.825V9.23c0-.818.155-1.61 1.168-1.61.997 0 1.078.935 1.078 1.663v3.052h1.88V8.893a7.29 7.29 0 0 0-.048-.899"/>
    </g>
</svg>
