<?xml version="1.0" encoding="UTF-8"?>
<svg width="209px" height="223px" viewBox="0 0 209 223" version="1.1" xmlns="http://www.w3.org/2000/svg" xmlns:xlink="http://www.w3.org/1999/xlink">
    <!-- Generator: Sketch 47.1 (45422) - http://www.bohemiancoding.com/sketch -->
    <title>Macro Insight</title>
    <desc>Created with Sketch.</desc>
    <defs></defs>
    <g id="Welcome" stroke="none" stroke-width="1" fill="none" fill-rule="evenodd">
        <g id="Research" transform="translate(-856.000000, -1609.000000)" fill-rule="nonzero" fill="#96CCFF">
            <g id="noun_749680_cc" transform="translate(856.000000, 1609.000000)">
                <g id="Macro-Insight">
                    <path d="M22.8158333,90.9421875 C22.8158333,90.2453125 22.2933333,89.5484375 21.4225,89.5484375 C20.7258333,89.5484375 20.0291667,90.0710938 20.0291667,90.9421875 L20.0291667,110.280469 C20.0291667,110.977344 20.5516667,111.674219 21.4225,111.674219 C22.1191667,111.674219 22.8158333,111.151563 22.8158333,110.280469 L22.8158333,90.9421875 Z" id="Shape"></path>
                    <path d="M22.8158333,116.726563 C22.8158333,116.029687 22.2933333,115.332813 21.4225,115.332813 C20.7258333,115.332813 20.0291667,115.855469 20.0291667,116.726563 L20.0291667,122.998438 C20.0291667,123.695313 20.5516667,124.392188 21.4225,124.392188 C22.1191667,124.392188 22.8158333,123.869531 22.8158333,122.998438 L22.8158333,116.726563 Z" id="Shape"></path>
                    <path d="M178.520833,209.0625 C177.998333,208.539844 177.1275,208.539844 176.605,209.0625 C176.0825,209.585156 176.0825,210.45625 176.605,210.978906 L179.043333,213.592188 C179.2175,213.940625 179.565833,213.940625 179.914167,213.940625 C180.2625,213.940625 180.610833,213.766406 180.785,213.592188 C181.3075,213.069531 181.3075,212.198438 180.785,211.675781 L178.520833,209.0625 Z" id="Shape"></path>
                    <path d="M186.358333,217.425 C185.835833,216.902344 184.965,216.902344 184.4425,217.425 C183.92,217.947656 183.92,218.81875 184.4425,219.341406 L186.880833,221.954688 C187.055,222.303125 187.403333,222.303125 187.751667,222.303125 C188.1,222.303125 188.448333,222.128906 188.6225,221.954688 C189.145,221.432031 189.145,220.560938 188.6225,220.038281 L186.358333,217.425 Z" id="Shape"></path>
                    <path d="M179.043333,217.425 L176.605,220.038281 C176.0825,220.560938 176.0825,221.432031 176.605,221.954688 C176.779167,222.128906 177.1275,222.303125 177.475833,222.303125 C177.824167,222.303125 178.1725,222.128906 178.346667,221.954688 L180.785,219.341406 C181.3075,218.81875 181.3075,217.947656 180.785,217.425 C180.2625,216.902344 179.565833,216.902344 179.043333,217.425 Z" id="Shape"></path>
                    <path d="M186.880833,209.0625 L184.4425,211.675781 C183.92,212.198438 183.92,213.069531 184.4425,213.592188 C184.616667,213.766406 184.965,213.940625 185.313333,213.940625 C185.661667,213.940625 186.01,213.766406 186.184167,213.592188 L188.6225,210.978906 C189.145,210.45625 189.145,209.585156 188.6225,209.0625 C188.1,208.539844 187.403333,208.539844 186.880833,209.0625 Z" id="Shape"></path>
                    <path d="M18.1133333,150.525 C17.5908333,151.047656 17.5908333,151.91875 18.1133333,152.441406 L20.5516667,155.054688 C20.7258333,155.403125 21.0741667,155.403125 21.4225,155.403125 C21.7708333,155.403125 22.1191667,155.228906 22.2933333,155.054688 C22.8158333,154.532031 22.8158333,153.660937 22.2933333,153.138281 L19.855,150.525 C19.5066667,150.002344 18.6358333,150.002344 18.1133333,150.525 Z" id="Shape"></path>
                    <path d="M25.9508333,160.629688 L28.3891667,163.242969 C28.5633333,163.591406 28.9116667,163.591406 29.26,163.591406 C29.6083333,163.591406 29.9566667,163.417188 30.1308333,163.242969 C30.6533333,162.720313 30.6533333,161.849219 30.1308333,161.326563 L27.8666667,158.713281 C27.3441667,158.190625 26.4733333,158.190625 25.9508333,158.713281 C25.4283333,159.235938 25.4283333,160.107031 25.9508333,160.629688 Z" id="Shape"></path>
                    <path d="M22.4675,158.713281 C21.945,158.190625 21.0741667,158.190625 20.5516667,158.713281 L18.1133333,161.326563 C17.5908333,161.849219 17.5908333,162.720313 18.1133333,163.242969 C18.2875,163.417188 18.6358333,163.591406 18.9841667,163.591406 C19.3325,163.591406 19.6808333,163.417188 19.855,163.242969 L22.2933333,160.629688 C22.99,160.107031 22.99,159.235938 22.4675,158.713281 Z" id="Shape"></path>
                    <path d="M26.8216667,155.228906 C27.17,155.228906 27.5183333,155.054688 27.6925,154.880469 L30.1308333,152.267188 C30.6533333,151.744531 30.6533333,150.873437 30.1308333,150.350781 C29.6083333,149.828125 28.7375,149.828125 28.215,150.350781 L25.7766667,152.964063 C25.2541667,153.486719 25.2541667,154.357813 25.7766667,154.880469 C26.2991667,155.228906 26.6475,155.228906 26.8216667,155.228906 Z" id="Shape"></path>
                    <path d="M186.01,75.6109375 L183.571667,72.9976563 C183.049167,72.475 182.178333,72.475 181.655833,72.9976563 C181.133333,73.5203125 181.133333,74.3914063 181.655833,74.9140625 L184.094167,77.5273438 C184.268333,77.8757813 184.616667,77.8757813 184.965,77.8757813 C185.313333,77.8757813 185.661667,77.7015625 185.835833,77.5273438 C186.5325,77.0046875 186.5325,76.1335938 186.01,75.6109375 Z" id="Shape"></path>
                    <path d="M193.8475,83.7992188 L191.409167,81.1859375 C190.886667,80.6632813 190.015833,80.6632813 189.493333,81.1859375 C188.970833,81.7085938 188.970833,82.5796875 189.493333,83.1023438 L191.931667,85.715625 C192.105833,86.0640625 192.454167,86.0640625 192.8025,86.0640625 C193.150833,86.0640625 193.499167,85.8898438 193.673333,85.715625 C194.37,85.1929688 194.37,84.321875 193.8475,83.7992188 Z" id="Shape"></path>
                    <path d="M184.094167,81.1859375 L181.655833,83.7992188 C181.133333,84.321875 181.133333,85.1929688 181.655833,85.715625 C181.83,85.8898438 182.178333,86.0640625 182.526667,86.0640625 C182.875,86.0640625 183.223333,85.8898438 183.3975,85.715625 L185.835833,83.1023438 C186.358333,82.5796875 186.358333,81.7085938 185.835833,81.1859375 C185.4875,80.6632813 184.616667,80.6632813 184.094167,81.1859375 Z" id="Shape"></path>
                    <path d="M189.6675,77.353125 C189.841667,77.5273438 190.19,77.7015625 190.538333,77.7015625 C190.886667,77.7015625 191.235,77.5273438 191.409167,77.353125 L193.8475,74.7398438 C194.37,74.2171875 194.37,73.3460938 193.8475,72.8234375 C193.325,72.3007813 192.454167,72.3007813 191.931667,72.8234375 L189.493333,75.4367188 C188.970833,76.1335938 188.970833,77.0046875 189.6675,77.353125 Z" id="Shape"></path>
                    <path d="M192.454167,128.747656 C192.454167,131.709375 194.718333,134.148438 197.505,134.148438 C200.291667,134.148438 202.555833,131.709375 202.555833,128.747656 C202.555833,125.785938 200.291667,123.346875 197.505,123.346875 C194.718333,123.346875 192.454167,125.785938 192.454167,128.747656 Z M197.505,125.960156 C198.898333,125.960156 199.943333,127.179688 199.943333,128.747656 C199.943333,130.315625 198.898333,131.535156 197.505,131.535156 C196.111667,131.535156 195.066667,130.315625 195.066667,128.747656 C195.066667,127.179688 196.111667,125.960156 197.505,125.960156 Z" id="Shape"></path>
                    <path d="M25.6025,192.163281 C22.6416667,192.163281 20.3775,194.602344 20.3775,197.564062 C20.3775,200.525781 22.8158333,202.964844 25.6025,202.964844 C28.5633333,202.964844 30.8275,200.525781 30.8275,197.564062 C30.8275,194.602344 28.3891667,192.163281 25.6025,192.163281 Z M25.6025,200.525781 C24.2091667,200.525781 22.99,199.30625 22.99,197.738281 C22.99,196.170312 24.2091667,194.950781 25.6025,194.950781 C26.9958333,194.950781 28.215,196.170312 28.215,197.738281 C28.215,199.132031 26.9958333,200.525781 25.6025,200.525781 Z" id="Shape"></path>
                    <path d="M153.789167,35.3664063 L175.734167,35.3664063 C176.430833,35.3664063 177.1275,34.84375 177.1275,33.9726563 C177.1275,33.1015625 176.605,32.5789063 175.734167,32.5789063 L153.789167,32.5789063 C153.0925,32.5789063 152.395833,33.1015625 152.395833,33.9726563 C152.395833,34.84375 153.0925,35.3664063 153.789167,35.3664063 Z" id="Shape"></path>
                    <path d="M183.049167,35.3664063 L190.19,35.3664063 C190.886667,35.3664063 191.583333,34.84375 191.583333,33.9726563 C191.583333,33.1015625 191.060833,32.5789063 190.19,32.5789063 L183.049167,32.5789063 C182.3525,32.5789063 181.655833,33.1015625 181.655833,33.9726563 C181.655833,34.84375 182.3525,35.3664063 183.049167,35.3664063 Z" id="Shape"></path>
                    <path d="M191.409167,41.9867188 C191.409167,41.2898438 190.886667,40.5929688 190.015833,40.5929688 L174.689167,40.5929688 C173.9925,40.5929688 173.295833,41.115625 173.295833,41.9867188 C173.295833,42.6835938 173.818333,43.3804688 174.689167,43.3804688 L190.015833,43.3804688 C190.886667,43.20625 191.409167,42.6835938 191.409167,41.9867188 Z" id="Shape"></path>
                    <path d="M163.194167,40.5929688 C162.4975,40.5929688 161.800833,41.115625 161.800833,41.9867188 C161.800833,42.6835938 162.323333,43.3804688 163.194167,43.3804688 L168.245,43.3804688 C168.941667,43.3804688 169.638333,42.8578125 169.638333,41.9867188 C169.638333,41.2898438 169.115833,40.5929688 168.245,40.5929688 L163.194167,40.5929688 Z" id="Shape"></path>
                    <path d="M112.3375,45.1226563 L90.915,45.1226563 C90.2183333,45.1226563 89.5216667,45.6453125 89.5216667,46.5164063 C89.5216667,47.2132813 90.0441667,47.9101563 90.915,47.9101563 L112.3375,47.9101563 C113.034167,47.9101563 113.730833,47.3875 113.730833,46.5164063 C113.730833,45.8195313 113.208333,45.1226563 112.3375,45.1226563 Z" id="Shape"></path>
                    <path d="M51.9016667,139.723438 L96.6625,139.723438 C97.3591667,139.723438 98.0558333,139.200781 98.0558333,138.329688 C98.0558333,137.632813 97.5333333,136.935938 96.6625,136.935938 L51.9016667,136.935938 C51.205,136.935938 50.5083333,137.458594 50.5083333,138.329688 C50.5083333,139.200781 51.0308333,139.723438 51.9016667,139.723438 Z" id="Shape"></path>
                    <path d="M51.9016667,148.957031 L109.550833,148.957031 C110.2475,148.957031 110.944167,148.434375 110.944167,147.563281 C110.944167,146.866406 110.421667,146.169531 109.550833,146.169531 L51.9016667,146.169531 C51.205,146.169531 50.5083333,146.692187 50.5083333,147.563281 C50.5083333,148.260156 51.0308333,148.957031 51.9016667,148.957031 Z" id="Shape"></path>
                    <path d="M84.9933333,184.149219 C84.9933333,184.846094 85.5158333,185.542969 86.3866667,185.542969 L129.0575,185.542969 C129.754167,185.542969 130.450833,185.020313 130.450833,184.149219 C130.450833,183.452344 129.928333,182.755469 129.0575,182.755469 L86.3866667,182.755469 C85.69,182.929688 84.9933333,183.452344 84.9933333,184.149219 Z" id="Shape"></path>
                    <path d="M51.9016667,185.542969 L75.5883333,185.542969 C76.285,185.542969 76.9816667,185.020313 76.9816667,184.149219 C76.9816667,183.452344 76.4591667,182.755469 75.5883333,182.755469 L51.9016667,182.755469 C51.205,182.755469 50.5083333,183.278125 50.5083333,184.149219 C50.5083333,184.846094 51.0308333,185.542969 51.9016667,185.542969 Z" id="Shape"></path>
                    <path d="M51.9016667,158.016406 L110.073333,158.016406 C110.77,158.016406 111.466667,157.49375 111.466667,156.622656 C111.466667,155.925781 110.944167,155.228906 110.073333,155.228906 L51.9016667,155.228906 C51.205,155.228906 50.5083333,155.751563 50.5083333,156.622656 C50.5083333,157.49375 51.0308333,158.016406 51.9016667,158.016406 Z" id="Shape"></path>
                    <path d="M77.6783333,165.85625 C77.6783333,166.553125 78.2008333,167.25 79.0716667,167.25 L112.685833,167.25 C113.3825,167.25 114.079167,166.727344 114.079167,165.85625 C114.079167,165.159375 113.556667,164.4625 112.685833,164.4625 L79.0716667,164.4625 C78.2008333,164.636719 77.6783333,165.159375 77.6783333,165.85625 Z" id="Shape"></path>
                    <path d="M51.9016667,176.309375 L77.6783333,176.309375 C78.375,176.309375 79.0716667,175.786719 79.0716667,174.915625 C79.0716667,174.21875 78.5491667,173.521875 77.6783333,173.521875 L51.9016667,173.521875 C51.205,173.521875 50.5083333,174.044531 50.5083333,174.915625 C50.5083333,175.786719 51.0308333,176.309375 51.9016667,176.309375 Z" id="Shape"></path>
                    <path d="M88.4766667,173.696094 C87.78,173.696094 87.0833333,174.21875 87.0833333,175.089844 C87.0833333,175.786719 87.6058333,176.483594 88.4766667,176.483594 C88.4766667,176.483594 88.4766667,176.483594 88.4766667,176.483594 L118.085,176.309375 C118.781667,176.309375 119.478333,175.786719 119.478333,174.915625 C119.478333,174.21875 118.955833,173.521875 118.085,173.521875 C118.085,173.521875 118.085,173.521875 118.085,173.521875 L88.4766667,173.696094 Z" id="Shape"></path>
                    <path d="M51.9016667,191.989063 C51.205,191.989063 50.5083333,192.511719 50.5083333,193.382813 C50.5083333,194.079688 51.0308333,194.776563 51.9016667,194.776563 L153.963333,194.776563 C154.66,194.776563 155.356667,194.253906 155.356667,193.382813 C155.356667,192.685938 154.834167,191.989063 153.963333,191.989063 L51.9016667,191.989063 Z" id="Shape"></path>
                    <path d="M127.838333,201.222656 L51.9016667,201.222656 C51.205,201.222656 50.5083333,201.745313 50.5083333,202.616406 C50.5083333,203.313281 51.0308333,204.010156 51.9016667,204.010156 L127.838333,204.010156 C128.535,204.010156 129.231667,203.4875 129.231667,202.616406 C129.0575,201.745313 128.535,201.222656 127.838333,201.222656 Z" id="Shape"></path>
                    <path d="M81.8583333,71.778125 L118.955833,71.778125 L126.619167,71.778125 L132.366667,71.778125 C133.063333,71.778125 133.76,71.2554688 133.76,70.384375 C133.76,69.6875 133.2375,68.990625 132.366667,68.990625 L126.793333,68.990625 L119.13,68.990625 L81.8583333,68.990625 C81.1616667,68.990625 80.465,69.5132813 80.465,70.384375 C80.6391667,71.08125 81.1616667,71.778125 81.8583333,71.778125 Z" id="Shape"></path>
                    <path d="M81.8583333,80.8375 L147.693333,80.8375 C148.39,80.8375 149.086667,80.3148438 149.086667,79.44375 C149.086667,78.746875 148.564167,78.05 147.693333,78.05 L81.8583333,78.05 C81.1616667,78.05 80.465,78.5726563 80.465,79.44375 C80.6391667,80.3148438 81.1616667,80.8375 81.8583333,80.8375 Z" id="Shape"></path>
                    <path d="M81.8583333,90.0710938 L118.955833,90.0710938 L132.366667,90.0710938 L153.615,90.0710938 C154.311667,90.0710938 155.008333,89.5484375 155.008333,88.6773438 C155.008333,87.9804688 154.485833,87.2835938 153.615,87.2835938 L132.366667,87.2835938 L118.955833,87.2835938 L81.8583333,87.2835938 C81.1616667,87.2835938 80.465,87.80625 80.465,88.6773438 C80.6391667,89.3742188 81.1616667,90.0710938 81.8583333,90.0710938 Z" id="Shape"></path>
                    <path d="M81.8583333,99.1304688 L98.7525,99.1304688 C99.4491667,99.1304688 100.145833,98.6078125 100.145833,97.7367188 C100.145833,97.0398438 99.6233333,96.3429688 98.7525,96.3429688 L81.8583333,96.3429688 C81.1616667,96.3429688 80.465,96.865625 80.465,97.7367188 C80.6391667,98.6078125 81.1616667,99.1304688 81.8583333,99.1304688 Z" id="Shape"></path>
                    <path d="M133.76,97.9109375 C133.76,97.2140625 133.2375,96.5171875 132.366667,96.5171875 L110.421667,96.5171875 C109.725,96.5171875 109.028333,97.0398438 109.028333,97.9109375 C109.028333,98.6078125 109.550833,99.3046875 110.421667,99.3046875 L132.366667,99.3046875 C133.063333,99.1304688 133.76,98.6078125 133.76,97.9109375 Z" id="Shape"></path>
                    <path d="M81.8583333,108.364063 L107.635,108.364063 C108.331667,108.364063 109.028333,107.841406 109.028333,106.970313 C109.028333,106.273438 108.505833,105.576563 107.635,105.576563 L81.8583333,105.576563 C81.1616667,105.576563 80.465,106.099219 80.465,106.970313 C80.6391667,107.667188 81.1616667,108.364063 81.8583333,108.364063 Z" id="Shape"></path>
                    <path d="M146.3,105.750781 L120.523333,105.750781 C119.826667,105.750781 119.13,106.273437 119.13,107.144531 C119.13,107.841406 119.6525,108.538281 120.523333,108.538281 L146.3,108.538281 C146.996667,108.538281 147.693333,108.015625 147.693333,107.144531 C147.519167,106.273437 146.996667,105.750781 146.3,105.750781 Z" id="Shape"></path>
                    <path d="M138.636667,133.8 C130.1025,142.336719 130.1025,156.1 138.636667,164.636719 C142.816667,168.817969 148.215833,171.082813 154.1375,171.082813 C159.014167,171.082813 163.890833,169.340625 167.7225,166.204688 C168.419167,165.682031 168.941667,165.159375 169.464167,164.636719 C169.986667,164.114063 170.509167,163.417188 171.031667,162.894531 C177.998333,154.183594 177.301667,141.639844 169.464167,133.8 C165.284167,129.61875 159.885,127.353906 153.963333,127.353906 C148.215833,127.353906 142.816667,129.61875 138.636667,133.8 Z M169.115833,161.326563 C168.7675,161.849219 168.245,162.371875 167.7225,162.894531 C167.2,163.417188 166.6775,163.939844 166.155,164.288281 C162.845833,167.075781 158.491667,168.469531 154.1375,168.469531 C149.086667,168.469531 144.21,166.553125 140.5525,162.894531 C133.063333,155.403125 133.063333,143.207813 140.5525,135.716406 C144.21,132.057813 149.086667,130.141406 154.1375,130.141406 C159.188333,130.141406 164.065,132.057813 167.7225,135.716406 C174.689167,142.510938 175.211667,153.660938 169.115833,161.326563 Z" id="Shape"></path>
                    <path d="M207.258333,191.466406 L178.1725,166.901562 C179.74,164.810937 180.959167,162.546094 182.004167,160.107031 C183.3975,156.622656 184.094167,152.964062 184.094167,149.13125 C184.094167,147.7375 183.92,146.34375 183.745833,144.95 C183.3975,142.859375 182.875,140.76875 182.178333,138.852344 C180.610833,134.845312 178.346667,131.186719 175.211667,128.050781 C171.9025,124.740625 167.7225,122.301562 163.368333,120.733594 L163.368333,57.3179687 C163.368333,54.1820312 160.93,51.56875 157.795,51.56875 L121.22,51.56875 L124.180833,40.2445312 C124.355,39.8960937 124.180833,39.3734375 124.006667,39.025 C123.8325,38.6765625 123.31,38.5023437 122.961667,38.5023437 L108.505833,38.5023437 C108.854167,37.4570312 109.2025,36.4117187 109.2025,35.3664062 C109.2025,31.0109375 105.893333,27.5265625 101.713333,27.5265625 C97.5333333,27.5265625 94.2241667,31.0109375 94.2241667,35.3664062 C94.2241667,36.4117187 94.3983333,37.4570312 94.9208333,38.5023437 L80.465,38.5023437 C80.1166667,38.5023437 79.5941667,38.6765625 79.42,39.025 C79.2458333,39.3734375 79.0716667,39.721875 79.2458333,40.2445312 L82.2066667,51.56875 L74.8916667,51.56875 C75.0658333,50.0007812 75.24,48.4328125 75.0658333,46.8648437 C74.3691667,33.2757812 63.5708333,22.4742187 50.16,21.4289062 C42.6708333,20.90625 35.53,23.5195312 29.9566667,28.571875 C24.5575,33.6242187 21.4225,40.7671875 21.4225,48.2585937 C21.4225,52.4398437 22.2933333,56.446875 24.2091667,60.1054687 C24.2091667,60.1054687 24.2091667,60.1054687 24.2091667,60.2796875 C24.2091667,60.2796875 24.2091667,60.2796875 24.2091667,60.2796875 C24.9058333,61.325 25.6025,62.5445312 26.2991667,63.7640625 C26.2991667,63.7640625 26.2991667,63.7640625 26.2991667,63.7640625 C30.305,70.9070312 33.2658333,79.0953125 34.8333333,87.6320312 C35.3558333,90.0710937 35.7041667,92.5101562 35.8783333,94.775 C35.8783333,94.9492187 35.8783333,94.9492187 35.8783333,95.1234375 C36.575,97.2140625 38.665,98.6078125 40.755,98.7820312 L40.755,211.675781 C40.755,214.811719 43.1933333,217.425 46.3283333,217.425 L157.620833,217.425 C160.755833,217.425 163.194167,214.811719 163.194167,211.675781 L163.194167,177.528906 C166.155,176.483594 168.941667,175.089844 171.554167,173.173437 L196.111667,202.267969 C196.9825,203.139062 198.0275,203.835937 199.246667,203.835937 C199.246667,203.835937 199.420833,203.835937 199.420833,203.835937 C200.64,203.835937 201.685,203.313281 202.555833,202.616406 L207.258333,197.9125 C208.129167,197.041406 208.651667,195.821875 208.4775,194.602344 C208.651667,193.382812 208.129167,192.163281 207.258333,191.466406 Z M179.74,139.723437 C180.436667,141.465625 180.785,143.382031 181.133333,145.298437 C181.3075,146.517969 181.481667,147.7375 181.481667,148.957031 C181.481667,152.441406 180.785,155.751562 179.565833,158.8875 C178.520833,161.500781 177.1275,163.939844 175.385833,166.030469 C175.385833,166.030469 175.385833,166.030469 175.385833,166.030469 C174.863333,166.727344 174.166667,167.598437 173.47,168.295312 C173.295833,168.469531 173.121667,168.64375 172.9475,168.64375 C172.425,169.166406 171.728333,169.689062 171.205833,170.211719 C160.4075,178.922656 144.7325,178.051562 134.979167,168.295312 C132.1925,165.507812 130.276667,162.371875 128.883333,158.8875 C127.664167,155.751562 126.9675,152.267187 126.9675,148.957031 C126.9675,147.563281 127.141667,146.34375 127.315833,145.298437 C127.664167,143.382031 128.0125,141.465625 128.709167,139.723437 C130.1025,136.064844 132.1925,132.754687 134.979167,129.792969 C140.204167,124.566406 146.996667,121.778906 154.311667,121.778906 C161.626667,121.778906 168.419167,124.566406 173.644167,129.792969 C176.256667,132.754687 178.346667,136.064844 179.74,139.723437 Z M96.8366667,35.540625 C96.8366667,32.753125 99.1008333,30.3140625 101.713333,30.3140625 C104.325833,30.3140625 106.59,32.5789062 106.59,35.540625 C106.59,36.5859375 106.241667,37.8054687 105.545,38.6765625 L97.8816667,38.6765625 C97.185,37.8054687 96.8366667,36.7601562 96.8366667,35.540625 Z M82.2066667,41.2898437 L97.185,41.2898437 L106.241667,41.2898437 L121.22,41.2898437 L118.433333,51.56875 L84.8191667,51.56875 L82.2066667,41.2898437 Z M28.5633333,62.3703125 C27.8666667,61.1507812 27.17,59.93125 26.4733333,58.8859375 C24.7316667,55.5757812 24.035,51.9171875 24.035,48.084375 C24.035,41.4640625 26.8216667,35.0179687 31.6983333,30.3140625 C36.575,25.6101562 43.1933333,23.3453125 49.9858333,23.8679687 C62.1775,24.7390625 71.9308333,34.4953125 72.4533333,46.690625 C72.6275,51.3945312 71.5825,55.9242187 69.3183333,59.93125 C69.3183333,59.93125 69.3183333,59.93125 69.3183333,59.93125 C69.1441667,60.2796875 68.7958333,60.628125 68.6216667,60.9765625 C65.3125,66.3773437 62.8741667,72.6492187 60.9583333,78.9210937 L35.53,78.9210937 C33.7883333,73.3460937 31.5241667,67.7710937 28.5633333,62.3703125 C28.5633333,62.5445312 28.5633333,62.3703125 28.5633333,62.3703125 Z M59.3908333,85.3671875 L37.0975,85.3671875 C36.9233333,84.1476562 36.575,83.1023437 36.2266667,81.8828125 L60.0875,81.8828125 C59.9133333,83.1023437 59.565,84.321875 59.3908333,85.3671875 Z M38.4908333,94.4265625 C38.3166667,92.3359375 37.9683333,90.2453125 37.62,87.9804687 L58.8683333,87.9804687 C58.6941667,88.503125 58.6941667,89.0257812 58.52,89.7226562 C58.3458333,91.1164062 58.1716667,92.5101562 57.9975,93.9039062 C57.6491667,95.2976562 56.43,96.16875 55.0366667,96.16875 L41.1033333,96.16875 C40.0583333,96.16875 39.0133333,95.471875 38.4908333,94.4265625 Z M160.755833,211.675781 C160.755833,213.417969 159.3625,214.811719 157.795,214.811719 L46.5025,214.811719 C44.935,214.811719 43.5416667,213.417969 43.5416667,211.675781 L43.5416667,98.7820312 L55.0366667,98.7820312 C57.6491667,98.7820312 59.9133333,97.0398437 60.4358333,94.2523437 C60.61,92.8585937 60.7841667,91.4648437 60.9583333,90.0710937 C62.7,80.3148437 66.1833333,70.7328125 70.8858333,62.71875 C71.06,62.3703125 71.2341667,62.1960937 71.4083333,61.6734375 L71.4083333,61.6734375 C71.4083333,61.6734375 71.4083333,61.4992187 71.5825,61.4992187 C72.8016667,59.234375 73.8466667,56.7953125 74.3691667,54.1820312 L83.7741667,54.1820312 L119.478333,54.1820312 L157.795,54.1820312 C159.3625,54.1820312 160.755833,55.5757812 160.755833,57.3179687 L160.755833,120.036719 C158.665833,119.514062 156.401667,119.339844 154.1375,119.339844 C146.125833,119.339844 138.636667,122.475781 133.063333,128.050781 C129.928333,131.186719 127.664167,134.845312 126.096667,138.852344 C125.4,140.76875 124.8775,142.859375 124.529167,144.95 C124.355,146.34375 124.180833,147.563281 124.180833,148.957031 C124.180833,148.957031 124.180833,148.957031 124.180833,148.957031 C124.180833,152.789844 124.8775,156.448437 126.270833,159.932812 C127.838333,163.765625 130.1025,167.25 133.063333,170.211719 C138.810833,175.960937 146.474167,178.922656 154.1375,178.922656 C156.401667,178.922656 158.665833,178.574219 160.755833,178.225781 L160.755833,211.675781 Z M205.690833,195.996094 L200.988333,200.7 C200.64,201.048437 200.1175,201.222656 199.769167,201.222656 C199.246667,201.222656 198.898333,201.048437 198.55,200.525781 L198.55,200.525781 L173.9925,171.605469 C174.515,171.257031 174.863333,170.734375 175.385833,170.385937 C175.385833,170.385937 175.385833,170.385937 175.385833,170.385937 C175.908333,169.863281 176.256667,169.514844 176.605,168.992187 C176.605,168.992187 176.605,168.992187 176.605,168.817969 L205.516667,193.382812 C205.865,193.73125 206.039167,194.079687 206.213333,194.602344 C206.213333,195.125 206.039167,195.647656 205.690833,195.996094 Z" id="Shape"></path>
                    <path d="M36.575,57.3179687 C38.3166667,59.7570312 40.5808333,61.4992187 43.3675,62.3703125 L42.4966667,65.6804687 C42.3225,66.3773437 42.6708333,67.0742187 43.3675,67.2484375 C43.5416667,67.2484375 43.5416667,67.2484375 43.7158333,67.2484375 C44.2383333,67.2484375 44.7608333,66.9 44.935,66.203125 L45.8058333,62.8929687 C46.5025,63.0671875 47.3733333,63.0671875 48.07,63.0671875 C50.16,63.0671875 52.4241667,62.5445312 54.34,61.6734375 L56.0816667,64.6351562 C56.2558333,64.9835938 56.7783333,65.3320312 57.1266667,65.3320312 C57.3008333,65.3320312 57.6491667,65.3320312 57.8233333,65.1578125 C58.52,64.809375 58.6941667,63.9382812 58.3458333,63.415625 L56.6041667,60.4539062 C58.8683333,58.7117187 60.7841667,56.446875 61.655,53.659375 L64.9641667,54.5304687 C65.1383333,54.5304687 65.1383333,54.5304687 65.3125,54.5304687 C65.835,54.5304687 66.3575,54.1820312 66.5316667,53.4851562 C66.7058333,52.7882812 66.3575,52.0914062 65.6608333,51.9171875 L62.3516667,51.0460937 C62.8741667,48.084375 62.3516667,45.1226562 61.1325,42.6835937 L64.0933333,40.9414062 C64.79,40.5929687 64.9641667,39.721875 64.6158333,39.1992187 C64.2675,38.5023437 63.3966667,38.328125 62.8741667,38.6765625 L59.9133333,40.41875 C58.1716667,38.1539062 55.9075,36.2375 53.1208333,35.3664062 L53.9916667,32.05625 C54.1658333,31.359375 53.8175,30.6625 53.1208333,30.4882812 C52.4241667,30.3140625 51.7275,30.6625 51.5533333,31.359375 L50.5083333,34.6695312 C47.5475,34.146875 44.7608333,34.6695312 41.9741667,35.8890625 L40.2325,33.1015625 C39.8841667,32.4046875 39.0133333,32.2304687 38.4908333,32.5789062 C37.7941667,32.9273437 37.62,33.7984375 37.9683333,34.3210937 L39.71,37.1085937 C37.2716667,38.8507812 35.53,41.115625 34.6591667,43.903125 L31.35,43.20625 C30.6533333,43.0320312 29.9566667,43.3804687 29.7825,44.0773437 C29.6083333,44.7742187 29.9566667,45.4710938 30.6533333,45.6453125 L33.9625,46.5164062 C33.44,49.478125 33.9625,52.265625 35.1816667,54.8789062 L32.2208333,56.6210938 C31.5241667,56.9695313 31.35,57.840625 31.6983333,58.3632812 C31.8725,58.7117188 32.395,59.0601562 32.7433333,59.0601562 C32.9175,59.0601562 33.2658333,59.0601562 33.44,58.8859375 L36.575,57.3179687 Z M42.1483333,38.8507813 C42.1483333,38.8507813 42.1483333,38.8507813 42.1483333,38.8507813 C42.1483333,38.8507813 42.1483333,38.8507813 42.1483333,38.8507813 C44.0641667,37.8054688 45.98,37.1085938 48.07,37.1085938 C49.115,37.1085938 49.9858333,37.2828125 51.0308333,37.4570313 C57.3008333,39.025 61.1325,45.4710938 59.565,51.7429688 C57.9975,58.0148438 51.5533333,61.8476563 45.2833333,60.2796875 C45.2833333,60.2796875 45.2833333,60.2796875 45.2833333,60.2796875 C45.2833333,60.2796875 45.2833333,60.2796875 45.2833333,60.2796875 C42.3225,59.5828125 39.71,57.6664063 38.1425,54.8789063 C36.575,52.265625 36.0525,48.9554688 36.9233333,45.99375 C37.62,43.0320313 39.5358333,40.41875 42.1483333,38.8507813 Z" id="Shape"></path>
                    <path d="M46.5025,55.5757813 C47.025,55.75 47.5475,55.75 48.2441667,55.75 C51.3791667,55.75 54.1658333,53.659375 54.8625,50.5234375 L54.8625,50.5234375 C55.7333333,46.8648438 53.6433333,43.20625 49.9858333,42.1609375 C48.2441667,41.6382813 46.3283333,41.9867188 44.7608333,42.8578125 C43.1933333,43.7289063 42.1483333,45.296875 41.6258333,47.0390625 C41.1033333,48.78125 41.4516667,50.6976563 42.3225,52.265625 C43.1933333,54.0078125 44.7608333,55.053125 46.5025,55.5757813 Z M44.0641667,47.9101563 C44.4125,46.8648438 45.1091667,45.8195313 45.98,45.296875 C46.6766667,44.9484375 47.3733333,44.7742188 48.07,44.7742188 C48.4183333,44.7742188 48.7666667,44.7742188 49.115,44.9484375 C51.3791667,45.4710938 52.7725,47.9101563 52.25,50.0007813 C51.7275,52.265625 49.2891667,53.659375 47.1991667,53.1367188 C46.1541667,52.7882813 45.1091667,52.0914063 44.5866667,51.2203125 C43.89,50.175 43.89,48.9554688 44.0641667,47.9101563 Z" id="Shape"></path>
                    <path d="M75.24,32.753125 C75.4141667,33.1015625 75.9366667,33.45 76.4591667,33.45 C76.6333333,33.45 76.9816667,33.45 77.1558333,33.2757813 L88.9991667,26.3070313 C89.6958333,25.9585938 89.87,25.0875 89.5216667,24.5648438 C89.1733333,23.8679688 88.3025,23.69375 87.78,24.0421875 L75.9366667,31.0109375 C75.0658333,31.359375 74.8916667,32.05625 75.24,32.753125 Z" id="Shape"></path>
                    <path d="M70.5375,26.3070312 C70.7116667,26.48125 71.06,26.6554687 71.4083333,26.6554687 C71.7566667,26.6554687 72.105,26.48125 72.4533333,26.1328125 L77.8525,19.8609375 C78.375,19.3382812 78.2008333,18.4671875 77.6783333,17.9445312 C77.1558333,17.421875 76.285,17.5960938 75.7625,18.11875 L70.3633333,24.390625 C69.8408333,25.0875 70.015,25.784375 70.5375,26.3070312 Z" id="Shape"></path>
                    <path d="M30.1308333,21.2546875 C30.305,21.603125 30.8275,21.9515625 31.1758333,21.9515625 C31.35,21.9515625 31.6983333,21.9515625 31.8725,21.7773438 C32.5691667,21.4289063 32.7433333,20.5578125 32.395,20.0351563 L25.4283333,8.3625 C25.08,7.665625 24.2091667,7.49140625 23.6866667,7.83984375 C22.99,8.18828125 22.8158333,9.059375 23.1641667,9.58203125 L30.1308333,21.2546875 Z" id="Shape"></path>
                    <path d="M6.61833333,27.7007813 L18.6358333,34.3210938 C18.81,34.4953125 18.9841667,34.4953125 19.3325,34.4953125 C19.855,34.4953125 20.2033333,34.3210938 20.5516667,33.7984375 C20.9,33.1015625 20.7258333,32.4046875 20.0291667,32.05625 L8.01166667,25.4359375 C7.315,25.0875 6.61833333,25.2617188 6.27,25.9585938 C5.7475,26.48125 5.92166667,27.3523438 6.61833333,27.7007813 Z" id="Shape"></path>
                    <path d="M16.5458333,49.478125 C16.5458333,48.78125 16.0233333,48.084375 15.1525,48.2585938 L1.39333333,48.6070313 C0.696666667,48.6070313 0.174166667,49.3039063 0.174166667,50.0007813 C0.174166667,50.6976563 0.696666667,51.2203125 1.5675,51.2203125 C1.5675,51.2203125 1.5675,51.2203125 1.5675,51.2203125 L15.3266667,50.871875 C16.0233333,50.6976563 16.5458333,50.175 16.5458333,49.478125 Z" id="Shape"></path>
                    <path d="M21.0741667,64.9835938 C20.7258333,64.2867188 19.855,64.1125 19.3325,64.4609375 L7.66333333,71.6039063 C6.96666667,71.9523438 6.7925,72.8234375 7.14083333,73.3460938 C7.315,73.6945313 7.8375,74.0429688 8.18583333,74.0429688 C8.36,74.0429688 8.70833333,74.0429688 8.8825,73.86875 L20.5516667,66.7257813 C21.2483333,66.5515625 21.4225,65.6804688 21.0741667,64.9835938 Z" id="Shape"></path>
                    <path d="M63.745,21.2546875 C63.9191667,21.4289063 64.0933333,21.4289063 64.4416667,21.4289063 C64.9641667,21.4289063 65.3125,21.2546875 65.6608333,20.7320313 L72.4533333,8.88515625 C72.8016667,8.18828125 72.6275,7.49140625 71.9308333,7.14296875 C71.2341667,6.79453125 70.5375,6.96875 70.1891667,7.665625 L63.3966667,19.5125 C62.8741667,20.209375 63.0483333,20.90625 63.745,21.2546875 Z" id="Shape"></path>
                    <path d="M47.8958333,17.2476562 C47.8958333,17.2476562 47.8958333,17.2476562 47.8958333,17.2476562 C48.5925,17.2476562 49.2891667,16.725 49.2891667,15.8539062 L49.2891667,2.090625 C49.2891667,1.39375 48.7666667,0.696875 47.8958333,0.696875 C47.8958333,0.696875 47.8958333,0.696875 47.8958333,0.696875 C47.1991667,0.696875 46.5025,1.21953125 46.5025,2.090625 L46.5025,15.8539062 C46.6766667,16.5507812 47.1991667,17.2476562 47.8958333,17.2476562 Z" id="Shape"></path>
                    <path d="M24.035,26.1328125 C24.2091667,26.3070313 24.5575,26.48125 24.9058333,26.48125 C25.2541667,26.48125 25.6025,26.3070313 25.9508333,25.9585937 C26.4733333,25.4359375 26.2991667,24.5648438 25.7766667,24.0421875 L19.6808333,18.6414063 C19.1583333,18.11875 18.2875,18.2929688 17.765,18.815625 C17.2425,19.3382813 17.4166667,20.209375 17.9391667,20.7320312 L24.035,26.1328125 Z" id="Shape"></path>
                    <path d="M16.5458333,38.6765625 L8.53416667,37.1085938 C7.8375,36.934375 7.14083333,37.4570313 6.96666667,38.1539063 C6.7925,38.8507813 7.315,39.5476563 8.01166667,39.721875 L16.0233333,41.2898438 C16.1975,41.2898438 16.1975,41.2898438 16.3716667,41.2898438 C17.0683333,41.2898438 17.5908333,40.9414063 17.5908333,40.2445313 C17.765,39.5476563 17.2425,38.8507813 16.5458333,38.6765625 Z" id="Shape"></path>
                    <path d="M15.675,55.75 L7.8375,58.3632812 C7.14083333,58.5375 6.7925,59.4085938 6.96666667,60.1054688 C7.315,60.628125 7.8375,60.9765625 8.36,60.9765625 C8.53416667,60.9765625 8.70833333,60.9765625 8.70833333,60.9765625 L16.5458333,58.3632812 C17.2425,58.1890625 17.5908333,57.3179687 17.4166667,56.6210938 C17.0683333,55.9242188 16.3716667,55.5757813 15.675,55.75 Z" id="Shape"></path>
                    <path d="M56.2558333,18.11875 C56.2558333,18.11875 56.43,18.11875 56.43,18.11875 C57.1266667,18.11875 57.6491667,17.5960937 57.6491667,17.0734375 L59.2166667,9.059375 C59.3908333,8.3625 58.8683333,7.665625 58.1716667,7.49140625 C57.475,7.3171875 56.7783333,7.83984375 56.6041667,8.53671875 L55.0366667,16.5507812 C55.0366667,17.2476562 55.5591667,17.9445312 56.2558333,18.11875 Z" id="Shape"></path>
                    <path d="M38.1425,17.2476563 C38.3166667,17.7703125 38.8391667,18.11875 39.3616667,18.11875 C39.5358333,18.11875 39.71,18.11875 39.71,18.11875 C40.4066667,17.9445313 40.755,17.0734375 40.5808333,16.3765625 L37.9683333,8.7109375 C37.7941667,8.0140625 36.9233333,7.665625 36.2266667,7.83984375 C35.53,8.0140625 35.1816667,8.88515625 35.3558333,9.58203125 L38.1425,17.2476563 Z" id="Shape"></path>
                </g>
            </g>
        </g>
    </g>
</svg>