<?xml version="1.0" encoding="UTF-8"?>
<svg width="217px" height="223px" viewBox="0 0 217 223" version="1.1" xmlns="http://www.w3.org/2000/svg" xmlns:xlink="http://www.w3.org/1999/xlink">
    <!-- Generator: Sketch 47.1 (45422) - http://www.bohemiancoding.com/sketch -->
    <title>MF Research</title>
    <desc>Created with Sketch.</desc>
    <defs></defs>
    <g id="Welcome" stroke="none" stroke-width="1" fill="none" fill-rule="evenodd">
        <g id="Research" transform="translate(-211.000000, -1933.000000)" fill-rule="nonzero" fill="#96CCFF">
            <g id="noun_749570_cc" transform="translate(211.000000, 1933.000000)">
                <g id="MF-Research">
                    <path d="M22.4714612,125.089063 C22.4714612,124.392188 21.9500761,123.695313 21.081101,123.695313 C20.3859209,123.695313 19.6907407,124.217969 19.6907407,125.089063 L19.6907407,144.775781 C19.6907407,145.472656 20.2121258,146.169531 21.081101,146.169531 C21.7762811,146.169531 22.4714612,145.646875 22.4714612,144.775781 L22.4714612,125.089063 Z" id="Shape"></path>
                    <path d="M21.254896,150.002344 C20.5597159,150.002344 19.8645358,150.525 19.8645358,151.396094 L19.8645358,157.667969 C19.8645358,158.364844 20.3859209,159.061719 21.254896,159.061719 C21.9500761,159.061719 22.6452562,158.539063 22.6452562,157.667969 L22.6452562,151.396094 C22.4714612,150.525 21.9500761,150.002344 21.254896,150.002344 Z" id="Shape"></path>
                    <path d="M202.17552,47.3875 C202.17552,46.690625 201.654135,45.99375 200.78516,45.99375 C200.08998,45.99375 199.3948,46.5164063 199.3948,47.3875 L199.3948,67.0742188 C199.3948,67.7710938 199.916185,68.4679688 200.78516,68.4679688 C201.48034,68.4679688 202.17552,67.9453125 202.17552,67.0742188 L202.17552,47.3875 Z" id="Shape"></path>
                    <path d="M200.958955,72.1265625 C200.263775,72.1265625 199.568595,72.6492188 199.568595,73.5203125 L199.568595,79.7921875 C199.568595,80.4890625 200.08998,81.1859375 200.958955,81.1859375 C201.654135,81.1859375 202.349315,80.6632813 202.349315,79.7921875 L202.349315,73.5203125 C202.17552,72.8234375 201.654135,72.1265625 200.958955,72.1265625 Z" id="Shape"></path>
                    <path d="M107.10964,108.364063 C107.283435,108.538281 107.631025,108.7125 107.978615,108.7125 C108.326205,108.7125 108.673795,108.538281 108.84759,108.364063 C109.368975,107.841406 109.368975,106.970313 108.84759,106.447656 L106.240665,103.834375 C105.71928,103.311719 104.850304,103.311719 104.328919,103.834375 C103.807534,104.357031 103.807534,105.228125 104.328919,105.750781 L107.10964,108.364063 Z" id="Shape"></path>
                    <path d="M116.320776,117.075 C116.668366,117.075 117.015956,116.900781 117.189751,116.726563 C117.711136,116.203906 117.711136,115.332813 117.189751,114.810156 L114.582826,112.196875 C114.061441,111.674219 113.192466,111.674219 112.671081,112.196875 C112.149696,112.719531 112.149696,113.590625 112.671081,114.113281 L115.278006,116.726563 C115.625596,116.900781 115.973186,117.075 116.320776,117.075 Z" id="Shape"></path>
                    <path d="M104.502714,116.726563 C104.676509,116.900781 105.024099,117.075 105.371689,117.075 C105.71928,117.075 106.06687,116.900781 106.240665,116.726563 L108.84759,114.113281 C109.368975,113.590625 109.368975,112.719531 108.84759,112.196875 C108.326205,111.674219 107.45723,111.674219 106.935845,112.196875 L104.328919,114.810156 C103.981329,115.332813 103.981329,116.203906 104.502714,116.726563 Z" id="Shape"></path>
                    <path d="M112.844876,108.364063 C113.018671,108.538281 113.366261,108.7125 113.713851,108.7125 C114.061441,108.7125 114.409031,108.538281 114.582826,108.364063 L117.189751,105.750781 C117.711136,105.228125 117.711136,104.357031 117.189751,103.834375 C116.668366,103.311719 115.799391,103.311719 115.278006,103.834375 L112.671081,106.447656 C112.323491,107.144531 112.323491,107.841406 112.844876,108.364063 Z" id="Shape"></path>
                    <path d="M205.477626,190.94375 C204.95624,190.421094 204.087265,190.421094 203.56588,190.94375 C203.044495,191.466406 203.044495,192.3375 203.56588,192.860156 L206.172806,195.473438 C206.346601,195.647656 206.694191,195.821875 207.041781,195.821875 C207.389371,195.821875 207.736961,195.647656 207.910756,195.473438 C208.432141,194.950781 208.432141,194.079688 207.910756,193.557031 L205.477626,190.94375 Z" id="Shape"></path>
                    <path d="M213.819787,199.132031 C213.298402,198.609375 212.429427,198.609375 211.908042,199.132031 C211.386657,199.654688 211.386657,200.525781 211.908042,201.048438 L214.514967,203.661719 C214.688762,203.835938 215.036352,204.010156 215.383942,204.010156 C215.731532,204.010156 216.079122,203.835938 216.252917,203.661719 C216.774302,203.139063 216.774302,202.267969 216.252917,201.745313 L213.819787,199.132031 Z" id="Shape"></path>
                    <path d="M206.172806,199.132031 L203.56588,201.745313 C203.044495,202.267969 203.044495,203.139062 203.56588,203.661719 C203.739675,203.835937 204.087265,204.010156 204.434855,204.010156 C204.782445,204.010156 205.130036,203.835938 205.303831,203.661719 L207.910756,201.048438 C208.432141,200.525781 208.432141,199.654688 207.910756,199.132031 C207.563166,198.783594 206.694191,198.783594 206.172806,199.132031 Z" id="Shape"></path>
                    <path d="M211.908042,195.299219 C212.081837,195.473437 212.429427,195.647656 212.777017,195.647656 C213.124607,195.647656 213.472197,195.473437 213.645992,195.299219 L216.252917,192.685937 C216.774302,192.163281 216.774302,191.292188 216.252917,190.769531 C215.731532,190.246875 214.862557,190.246875 214.341172,190.769531 L211.734247,193.382812 C211.386657,194.079687 211.386657,194.776562 211.908042,195.299219 Z" id="Shape"></path>
                    <path d="M2.48503298,186.7625 C1.96364789,186.239844 1.09467275,186.239844 0.573287671,186.7625 C0.0519025875,187.285156 0.0519025875,188.15625 0.573287671,188.678906 L3.18021309,191.292188 C3.35400812,191.466406 3.70159817,191.640625 4.04918823,191.640625 C4.39677829,191.640625 4.74436834,191.466406 4.91816337,191.292188 C5.43954845,190.769531 5.43954845,189.898438 4.91816337,189.375781 L2.48503298,186.7625 Z" id="Shape"></path>
                    <path d="M10.8271943,195.125 C10.3058092,194.602344 9.43683409,194.602344 8.91544901,195.125 C8.39406393,195.647656 8.39406393,196.51875 8.91544901,197.041406 L11.5223744,199.654688 C11.6961695,199.828906 12.0437595,200.003125 12.3913496,200.003125 C12.7389396,200.003125 13.0865297,199.828906 13.2603247,199.654688 C13.7817098,199.132031 13.7817098,198.260938 13.2603247,197.738281 L10.8271943,195.125 Z" id="Shape"></path>
                    <path d="M3.18021309,195.125 L0.573287671,197.738281 C0.0519025875,198.260938 0.0519025875,199.132031 0.573287671,199.654688 C0.747082699,199.828906 1.09467275,200.003125 1.44226281,200.003125 C1.78985287,200.003125 2.13744292,199.828906 2.31123795,199.654688 L4.91816337,197.041406 C5.43954845,196.51875 5.43954845,195.647656 4.91816337,195.125 C4.57057331,194.602344 3.70159817,194.602344 3.18021309,195.125 Z" id="Shape"></path>
                    <path d="M11.5223744,186.7625 L8.91544901,189.375781 C8.39406393,189.898438 8.39406393,190.769531 8.91544901,191.292188 C9.08924404,191.466406 9.43683409,191.640625 9.78442415,191.640625 C10.1320142,191.640625 10.4796043,191.466406 10.6533993,191.292188 L13.2603247,188.678906 C13.7817098,188.15625 13.7817098,187.285156 13.2603247,186.7625 C12.7389396,186.239844 12.0437595,186.239844 11.5223744,186.7625 Z" id="Shape"></path>
                    <path d="M17.4314054,5.74921875 C17.6052004,5.9234375 17.9527905,6.09765625 18.3003805,6.09765625 C18.6479706,6.09765625 18.9955606,5.9234375 19.1693557,5.74921875 C19.6907407,5.2265625 19.6907407,4.35546875 19.1693557,3.8328125 L16.5624302,1.21953125 C16.0410452,0.696875 15.17207,0.696875 14.6506849,1.21953125 C14.1292998,1.7421875 14.1292998,2.61328125 14.6506849,3.1359375 L17.4314054,5.74921875 Z" id="Shape"></path>
                    <path d="M25.5997717,13.9375 C25.7735667,14.1117187 26.1211568,14.2859375 26.4687468,14.2859375 C26.8163369,14.2859375 27.1639269,14.1117187 27.337722,13.9375 C27.8591071,13.4148437 27.8591071,12.54375 27.337722,12.0210937 L24.7307965,9.4078125 C24.2094115,8.88515625 23.3404363,8.88515625 22.8190512,9.4078125 C22.2976662,9.93046875 22.2976662,10.8015625 22.8190512,11.3242187 L25.5997717,13.9375 Z" id="Shape"></path>
                    <path d="M15.6934551,14.2859375 C16.0410452,14.2859375 16.3886352,14.1117187 16.5624302,13.9375 L19.1693557,11.3242187 C19.6907407,10.8015625 19.6907407,9.93046875 19.1693557,9.4078125 C18.6479706,8.88515625 17.7789954,8.88515625 17.2576104,9.4078125 L14.6506849,12.0210937 C14.1292998,12.54375 14.1292998,13.4148437 14.6506849,13.9375 C15.17207,14.2859375 15.5196601,14.2859375 15.6934551,14.2859375 Z" id="Shape"></path>
                    <path d="M24.0356164,6.09765625 C24.3832065,6.09765625 24.7307965,5.9234375 24.9045916,5.74921875 L27.511517,3.1359375 C28.0329021,2.61328125 28.0329021,1.7421875 27.511517,1.21953125 C26.9901319,0.696875 26.1211568,0.696875 25.5997717,1.21953125 L22.9928463,3.8328125 C22.4714612,4.35546875 22.4714612,5.2265625 22.9928463,5.74921875 C23.3404363,5.9234375 23.6880264,6.09765625 24.0356164,6.09765625 Z" id="Shape"></path>
                    <path d="M107.978615,35.540625 C110.93313,35.540625 113.192466,33.2757813 113.192466,30.3140625 C113.192466,27.3523437 110.93313,25.0875 107.978615,25.0875 C105.024099,25.0875 102.764764,27.3523437 102.764764,30.3140625 C102.764764,33.1015625 105.024099,35.540625 107.978615,35.540625 Z M107.978615,27.7007812 C109.368975,27.7007812 110.58554,28.9203125 110.58554,30.3140625 C110.58554,31.7078125 109.368975,32.9273438 107.978615,32.9273438 C106.588255,32.9273438 105.371689,31.7078125 105.371689,30.3140625 C105.371689,28.7460938 106.588255,27.7007812 107.978615,27.7007812 Z" id="Shape"></path>
                    <path d="M36.5488584,138.852344 C36.5488584,141.814063 38.8081938,144.078906 41.7627093,144.078906 C44.7172248,144.078906 46.9765601,141.814063 46.9765601,138.852344 C46.9765601,135.890625 44.7172248,133.625781 41.7627093,133.625781 C38.9819888,133.625781 36.5488584,135.890625 36.5488584,138.852344 Z M41.9365043,136.239063 C43.3268645,136.239063 44.5434297,137.458594 44.5434297,138.852344 C44.5434297,140.246094 43.3268645,141.465625 41.9365043,141.465625 C40.5461441,141.465625 39.3295789,140.246094 39.3295789,138.852344 C39.3295789,137.284375 40.3723491,136.239063 41.9365043,136.239063 Z" id="Shape"></path>
                    <path d="M206.520396,125.4375 C202.8707,125.4375 199.74239,128.399219 199.74239,132.232031 C199.74239,135.890625 202.696905,139.026563 206.520396,139.026563 C210.170091,139.026563 213.298402,136.064844 213.298402,132.232031 C213.124607,128.399219 210.170091,125.4375 206.520396,125.4375 Z M206.520396,136.413281 C204.26106,136.413281 202.349315,134.496875 202.349315,132.232031 C202.349315,129.967187 204.26106,128.050781 206.520396,128.050781 C208.779731,128.050781 210.691476,129.967187 210.691476,132.232031 C210.517681,134.496875 208.779731,136.413281 206.520396,136.413281 Z" id="Shape"></path>
                    <path d="M136.133409,16.5507813 C136.133409,17.2476563 136.654795,17.9445313 137.52377,17.9445313 L158.379173,17.9445313 C159.074353,17.9445313 159.769533,17.421875 159.769533,16.5507813 C159.769533,15.8539063 159.248148,15.1570312 158.379173,15.1570312 L137.52377,15.1570312 C136.654795,15.33125 136.133409,15.8539063 136.133409,16.5507813 Z" id="Shape"></path>
                    <path d="M130.571969,17.9445313 C131.267149,17.9445313 131.962329,17.421875 131.962329,16.5507813 C131.962329,15.8539063 131.440944,15.1570312 130.571969,15.1570312 L123.793962,15.1570312 C123.098782,15.1570312 122.403602,15.6796875 122.403602,16.5507813 C122.403602,17.2476563 122.924987,17.9445313 123.793962,17.9445313 L130.571969,17.9445313 Z" id="Shape"></path>
                    <path d="M123.793962,10.8015625 L138.392745,10.8015625 C139.087925,10.8015625 139.783105,10.2789063 139.783105,9.4078125 C139.783105,8.7109375 139.26172,8.0140625 138.392745,8.0140625 L123.793962,8.0140625 C123.098782,8.0140625 122.403602,8.53671875 122.403602,9.4078125 C122.577397,10.1046875 123.098782,10.8015625 123.793962,10.8015625 Z" id="Shape"></path>
                    <path d="M144.649366,10.8015625 L149.341832,10.8015625 C150.037012,10.8015625 150.732192,10.2789063 150.732192,9.4078125 C150.732192,8.7109375 150.210807,8.0140625 149.341832,8.0140625 L144.649366,8.0140625 C143.954186,8.18828125 143.259006,8.7109375 143.259006,9.4078125 C143.259006,10.1046875 143.954186,10.8015625 144.649366,10.8015625 Z" id="Shape"></path>
                    <path d="M38.6343988,26.8296875 C38.8081938,26.8296875 38.9819888,26.8296875 39.1557839,26.6554687 C42.4578894,25.4359375 45.7599949,24.5648437 49.2358955,24.2164062 C49.9310756,24.0421875 50.4524607,23.5195312 50.4524607,22.8226563 C50.2786657,22.1257813 49.7572806,21.603125 49.0621005,21.603125 C45.4124049,22.1257813 41.7627093,22.996875 38.4606038,24.2164062 C37.7654236,24.390625 37.4178336,25.2617187 37.7654236,25.9585937 C37.5916286,26.48125 38.1130137,26.8296875 38.6343988,26.8296875 Z" id="Shape"></path>
                    <path d="M59.4898021,24.2164062 C62.9657027,24.5648437 66.2678082,25.4359375 69.5699137,26.6554687 C69.7437088,26.6554687 69.9175038,26.6554687 70.0912988,26.6554687 C70.6126839,26.6554687 71.134069,26.3070312 71.307864,25.784375 C71.4816591,25.0875 71.134069,24.390625 70.6126839,24.0421875 C67.1367834,22.8226562 63.6608828,21.9515625 60.0111872,21.4289062 C59.3160071,21.4289062 58.620827,21.7773437 58.620827,22.6484375 C58.2732369,23.5195312 58.794622,24.2164062 59.4898021,24.2164062 Z" id="Shape"></path>
                    <path d="M39.1557839,107.31875 C35.8536783,106.099219 32.8991629,104.53125 29.9446474,102.440625 C29.4232623,102.092188 28.5542872,102.092188 28.2066971,102.789062 C27.8591071,103.311719 28.0329021,104.182812 28.5542872,104.53125 C31.5088026,106.621875 34.8109082,108.364062 38.2868087,109.583594 C38.4606038,109.583594 38.6343988,109.583594 38.8081938,109.583594 C39.3295789,109.583594 39.850964,109.235156 40.024759,108.7125 C40.198554,108.364062 39.850964,107.667187 39.1557839,107.31875 Z" id="Shape"></path>
                    <path d="M54.4497463,112.719531 C56.3614916,112.719531 58.0994419,112.545313 60.0111872,112.371094 C60.7063673,112.371094 61.2277524,111.674219 61.2277524,110.977344 C61.0539574,110.280469 60.5325723,109.757813 59.8373922,109.757813 C56.3614916,110.10625 52.8855911,110.10625 49.4096905,109.757813 C48.7145104,109.583594 48.0193303,110.10625 48.0193303,110.977344 C48.0193303,111.674219 48.3669203,112.371094 49.2358955,112.371094 C50.8000507,112.719531 52.538001,112.719531 54.4497463,112.719531 Z" id="Shape"></path>
                    <path d="M88.5135718,97.3882813 C90.9467022,94.6007813 93.0322425,91.6390625 94.7701928,88.3289063 C95.1177829,87.6320313 94.9439878,86.9351563 94.2488077,86.5867188 C93.5536276,86.2382813 92.8584475,86.4125 92.5108574,87.109375 C90.9467022,90.2453125 88.8611618,93.0328125 86.6018265,95.6460938 C86.0804414,96.16875 86.2542364,97.0398438 86.7756215,97.5625 C86.9494165,97.7367188 87.2970066,97.9109375 87.6445967,97.9109375 C87.9921867,97.7367188 88.3397768,97.5625 88.5135718,97.3882813 Z" id="Shape"></path>
                    <path d="M70.0912988,109.932031 C70.2650939,109.932031 70.4388889,109.932031 70.6126839,109.932031 C74.0885845,108.538281 77.39069,106.970313 80.3452055,104.879688 C80.8665906,104.53125 81.0403856,103.660156 80.6927955,103.1375 C80.3452055,102.614844 79.4762303,102.440625 78.9548453,102.789062 C76.1741248,104.705469 73.0458143,106.447656 69.7437088,107.667188 C69.0485287,107.841406 68.7009386,108.7125 69.0485287,109.409375 C69.0485287,109.583594 69.5699137,109.932031 70.0912988,109.932031 Z" id="Shape"></path>
                    <path d="M96.160553,56.6210937 C96.334348,57.14375 96.8557331,57.6664062 97.3771182,57.6664062 C97.5509132,57.6664062 97.5509132,57.6664062 97.7247083,57.6664062 C98.4198884,57.4921875 98.7674784,56.7953125 98.5936834,56.0984375 C97.7247083,52.6140625 96.334348,49.1296875 94.5963978,45.8195312 C94.2488077,45.1226562 93.3798326,44.9484375 92.8584475,45.296875 C92.1632674,45.6453125 91.9894723,46.5164062 92.3370624,47.0390625 C94.0750127,50.0007812 95.2915779,53.1367187 96.160553,56.6210937 Z" id="Shape"></path>
                    <path d="M21.254896,39.025 C21.602486,39.025 21.9500761,38.8507812 22.2976662,38.5023437 C24.5570015,35.8890625 27.1639269,33.6242188 30.1184424,31.5335938 C30.6398275,31.1851563 30.8136225,30.3140625 30.4660325,29.7914063 C30.1184424,29.26875 29.2494673,29.0945313 28.7280822,29.4429688 C25.7735667,31.5335938 22.9928463,33.9726563 20.5597159,36.7601562 C20.0383308,37.2828125 20.2121258,38.1539062 20.7335109,38.6765625 C20.5597159,38.8507812 20.9073059,39.025 21.254896,39.025 Z" id="Shape"></path>
                    <path d="M97.3771182,66.9 L97.3771182,67.0742188 C97.3771182,70.5585938 97.0295282,74.0429688 96.160553,77.353125 C95.986758,78.05 96.334348,78.746875 97.2033232,78.9210937 C97.3771182,78.9210937 97.3771182,78.9210937 97.5509132,78.9210937 C98.0722983,78.9210937 98.5936834,78.5726562 98.7674784,77.8757812 C99.6364536,74.3914063 100.157839,70.5585938 100.157839,66.9 L100.157839,66.7257813 C100.157839,66.0289063 99.6364536,65.3320313 98.7674784,65.3320313 C97.8985033,65.50625 97.3771182,66.203125 97.3771182,66.9 Z" id="Shape"></path>
                    <path d="M86.4280315,38.328125 C86.6018265,38.6765625 87.1232116,38.8507813 87.4708016,38.8507813 C87.8183917,38.8507813 88.1659817,38.6765625 88.3397768,38.5023438 C88.8611618,37.9796875 88.8611618,37.1085938 88.5135718,36.5859375 C86.0804414,33.7984375 83.299721,31.359375 80.3452055,29.26875 C79.8238204,28.9203125 78.9548453,29.0945312 78.6072552,29.6171875 C78.2596651,30.1398437 78.4334602,31.0109375 78.9548453,31.359375 C81.5617707,33.45 84.1686961,35.7148438 86.4280315,38.328125 Z" id="Shape"></path>
                    <path d="M11.0009893,57.840625 C11.1747844,57.840625 11.1747844,57.840625 11.3485794,57.840625 C11.8699645,57.840625 12.3913496,57.4921875 12.5651446,56.7953125 C13.4341197,53.4851563 14.6506849,50.175 16.2148402,47.0390625 C16.5624302,46.3421875 16.3886352,45.6453125 15.6934551,45.296875 C14.998275,44.9484375 14.3030949,45.296875 13.9555048,45.8195313 C12.2175545,49.1296875 11.0009893,52.6140625 10.1320142,56.0984375 C9.95821918,56.9695313 10.3058092,57.6664063 11.0009893,57.840625 Z" id="Shape"></path>
                    <path d="M11.3485794,79.0953125 C11.5223744,79.0953125 11.5223744,79.0953125 11.6961695,79.0953125 C12.3913496,78.9210938 12.9127347,78.2242188 12.7389396,77.5273438 C11.8699645,74.2171875 11.5223744,70.7328125 11.5223744,67.2484375 C11.5223744,66.5515625 11.0009893,65.8546875 10.1320142,65.8546875 C10.1320142,65.8546875 10.1320142,65.8546875 10.1320142,65.8546875 C9.43683409,65.8546875 8.74165398,66.3773438 8.74165398,67.2484375 C8.74165398,70.9070313 9.26303907,74.565625 10.1320142,78.2242188 C10.3058092,78.746875 10.8271943,79.0953125 11.3485794,79.0953125 Z" id="Shape"></path>
                    <path d="M21.254896,97.9109375 C21.602486,97.9109375 21.9500761,97.7367188 22.1238711,97.5625 C22.6452562,97.0398438 22.6452562,96.16875 22.2976662,95.6460938 C20.0383308,93.0328125 17.9527905,90.2453125 16.3886352,87.109375 C16.0410452,86.4125 15.345865,86.2382813 14.6506849,86.5867188 C13.9555048,86.9351563 13.7817098,87.6320313 14.1292998,88.3289063 C15.8672501,91.6390625 17.9527905,94.6007813 20.3859209,97.3882813 C20.5597159,97.7367188 20.9073059,97.9109375 21.254896,97.9109375 Z" id="Shape"></path>
                    <path d="M53.0593861,70.9070313 L53.0593861,80.140625 C53.0593861,80.8375 53.5807712,81.3601563 54.4497463,81.3601563 C54.4497463,81.3601563 54.4497463,81.3601563 54.4497463,81.3601563 C55.1449264,81.3601563 55.8401065,80.8375 55.6663115,79.9664063 L55.6663115,70.7328125 C57.2304668,70.2101563 58.447032,68.6421875 58.447032,66.9 C58.447032,65.8546875 58.0994419,64.809375 57.4042618,64.1125 L65.9202182,47.9101563 C66.2678082,47.2132813 66.0940132,46.5164063 65.3988331,46.1679688 C64.703653,45.8195313 64.0084729,45.99375 63.6608828,46.690625 L55.1449264,62.8929688 C54.9711314,62.8929688 54.6235413,62.8929688 54.4497463,62.8929688 C52.190411,62.8929688 50.2786657,64.809375 50.2786657,67.0742188 C50.2786657,68.8164063 51.4952308,70.384375 53.0593861,70.9070313 Z M55.8401065,67.0742188 C55.8401065,67.2484375 55.8401065,67.596875 55.6663115,67.7710938 L55.6663115,67.4226563 L55.8401065,67.0742188 Z M53.5807712,65.8546875 L53.4069762,66.203125 C53.2331811,66.3773438 53.2331811,66.7257813 53.2331811,66.9 L53.2331811,67.4226563 C53.2331811,67.2484375 53.0593861,67.0742188 53.0593861,66.9 C52.8855911,66.5515625 53.2331811,66.203125 53.5807712,65.8546875 Z" id="Shape"></path>
                    <path d="M54.4497463,101.74375 C73.5671994,101.74375 89.0349569,86.2382813 89.0349569,67.0742188 C89.0349569,47.9101562 73.5671994,32.4046875 54.4497463,32.4046875 C35.3322933,32.4046875 19.8645358,47.9101562 19.8645358,67.0742188 C19.8645358,86.0640625 35.3322933,101.74375 54.4497463,101.74375 Z M54.4497463,35.0179687 C72.0030441,35.0179687 86.4280315,49.3039062 86.4280315,67.0742188 C86.4280315,84.6703125 72.1768392,99.1304688 54.4497463,99.1304688 C36.7226535,99.1304688 22.4714612,84.8445313 22.4714612,67.0742188 C22.4714612,49.478125 36.8964485,35.0179687 54.4497463,35.0179687 Z" id="Shape"></path>
                    <path d="M54.4497463,44.4257813 C55.1449264,44.4257813 55.8401065,43.903125 55.8401065,43.0320313 L55.8401065,39.3734375 C55.8401065,38.6765625 55.3187215,37.9796875 54.4497463,37.9796875 C53.7545662,37.9796875 53.0593861,38.5023437 53.0593861,39.3734375 L53.0593861,43.0320313 C53.0593861,43.7289063 53.7545662,44.4257813 54.4497463,44.4257813 Z" id="Shape"></path>
                    <path d="M30.4660325,65.6804688 L26.8163369,65.6804688 C26.1211568,65.6804688 25.4259767,66.203125 25.4259767,67.0742188 C25.4259767,67.7710938 25.9473617,68.4679688 26.8163369,68.4679688 L30.4660325,68.4679688 C31.1612126,68.4679688 31.8563927,67.9453125 31.8563927,67.0742188 C31.6825977,66.3773438 31.1612126,65.6804688 30.4660325,65.6804688 Z" id="Shape"></path>
                    <path d="M54.4497463,89.7226563 C53.7545662,89.7226563 53.0593861,90.2453125 53.0593861,91.1164063 L53.0593861,94.775 C53.0593861,95.471875 53.5807712,96.16875 54.4497463,96.16875 C55.1449264,96.16875 55.8401065,95.6460938 55.8401065,94.775 L55.8401065,91.1164063 C55.6663115,90.2453125 55.1449264,89.7226563 54.4497463,89.7226563 Z" id="Shape"></path>
                    <path d="M78.4334602,68.29375 L82.0831558,68.29375 C82.7783359,68.29375 83.473516,67.7710937 83.473516,66.9 C83.473516,66.203125 82.9521309,65.50625 82.0831558,65.50625 L78.4334602,65.50625 C77.7382801,65.50625 77.0430999,66.0289063 77.0430999,66.9 C77.0430999,67.7710937 77.564485,68.29375 78.4334602,68.29375 Z" id="Shape"></path>
                    <path d="M150.905987,30.3140625 C150.905987,30.3140625 150.905987,30.3140625 150.905987,30.3140625 C150.905987,30.3140625 150.905987,30.3140625 150.905987,30.3140625 C150.905987,30.3140625 150.905987,30.3140625 150.905987,30.3140625 C150.905987,30.3140625 150.905987,30.3140625 150.905987,30.3140625 C150.037012,30.6625 149.168037,31.1851562 148.472856,31.5335937 C146.734906,32.5789062 145.170751,33.7984375 143.780391,35.1921875 C143.085211,35.8890625 142.563825,36.4117187 142.04244,37.1085937 C140.478285,38.8507812 139.26172,40.9414062 138.392745,43.20625 C137.17618,46.1679687 136.480999,49.478125 136.480999,52.7882812 C136.480999,55.9242187 137.17618,59.0601562 138.21895,62.021875 C139.435515,64.9835937 141.173465,67.596875 143.259006,69.8617187 C145.518341,72.1265625 148.299061,74.0429687 151.253577,75.2625 C154.208092,76.4820312 157.510198,77.1789062 160.638508,77.1789062 C160.638508,77.1789062 160.638508,77.1789062 160.638508,77.1789062 C163.766819,77.1789062 166.895129,76.4820312 169.849645,75.4367187 C172.10898,74.565625 174.194521,73.171875 176.106266,71.778125 C176.627651,71.4296875 177.149036,70.9070312 177.670421,70.384375 C177.844216,70.2101562 178.018011,70.0359375 178.018011,70.0359375 C179.408371,68.6421875 180.624937,67.0742187 181.493912,65.3320312 C182.015297,64.6351562 182.362887,63.7640625 182.710477,62.8929687 C182.710477,62.8929687 182.710477,62.8929687 182.710477,62.8929687 C182.710477,62.71875 182.884272,62.71875 182.884272,62.3703125 C184.100837,59.4085937 184.796017,56.0984375 184.796017,52.7882812 C184.796017,49.6523437 184.100837,46.5164062 183.058067,43.5546875 C182.710477,42.8578125 182.015297,42.509375 181.320117,42.8578125 C180.624937,43.20625 180.277347,43.903125 180.624937,44.6 C181.667707,47.2132812 182.189092,50.0007812 182.189092,52.7882812 C182.189092,55.75 181.667707,58.5375 180.451142,61.325 L180.277347,61.4992187 C180.277347,61.4992187 180.277347,61.4992187 180.277347,61.4992187 C180.277347,61.4992187 180.277347,61.4992187 180.277347,61.4992187 C179.929756,62.3703125 179.582166,63.0671875 179.060781,63.7640625 C178.191806,65.3320312 177.149036,66.7257812 175.932471,67.9453125 L175.584881,68.29375 C175.063496,68.6421875 174.715906,69.1648437 174.194521,69.5132812 C172.45657,70.9070312 170.544825,72.1265625 168.63308,72.8234375 C166.026154,73.86875 163.245434,74.3914062 160.464713,74.3914062 C160.464713,74.3914062 160.464713,74.3914062 160.464713,74.3914062 C157.510198,74.3914062 154.729477,73.86875 152.122552,72.6492187 C149.341832,71.4296875 147.082496,69.8617187 144.996956,67.7710937 C143.085211,65.6804687 141.521055,63.415625 140.478285,60.8023437 C139.435515,58.1890625 138.91413,55.4015625 138.91413,52.6140625 C138.91413,49.6523437 139.435515,46.8648437 140.65208,44.0773437 C141.521055,42.1609375 142.563825,40.2445312 143.954186,38.6765625 C144.475571,38.1539062 144.996956,37.4570312 145.518341,36.934375 C146.734906,35.7148438 148.125266,34.6695312 149.689422,33.7984375 C150.384602,33.45 151.079782,32.9273437 151.948757,32.5789063 C151.948757,32.5789063 151.948757,32.5789063 151.948757,32.5789063 C151.948757,32.5789063 151.948757,32.5789063 151.948757,32.5789063 C152.122552,32.5789063 152.296347,32.4046875 152.470142,32.4046875 C155.077067,31.359375 157.857788,30.8367187 160.638508,30.8367187 C163.593024,30.8367187 166.373744,31.359375 169.154465,32.5789063 C171.587595,33.6242187 173.673135,35.0179687 175.411086,36.7601562 L168.63308,43.5546875 C167.590309,42.6835937 166.547539,41.9867187 165.330974,41.4640625 C164.114409,40.9414062 162.897844,40.5929687 161.681279,40.5929687 C161.681279,40.5929687 161.681279,40.5929687 161.681279,40.5929687 C161.681279,40.5929687 161.681279,40.5929687 161.681279,40.5929687 C161.681279,40.5929687 161.681279,40.5929687 161.681279,40.5929687 C161.681279,40.5929687 161.681279,40.5929687 161.681279,40.5929687 C161.333688,40.5929687 160.986098,40.5929687 160.638508,40.5929687 C160.638508,40.5929687 160.638508,40.5929687 160.638508,40.5929687 C159.769533,40.5929687 158.726763,40.7671875 158.031583,40.9414062 C157.336403,41.115625 156.641223,41.2898437 156.119838,41.4640625 C154.729477,41.9867187 153.339117,42.8578125 152.296347,43.903125 C152.296347,43.903125 152.122552,44.0773437 152.122552,44.0773437 C151.427372,44.7742187 150.905987,45.4710937 150.384602,46.1679687 C150.037012,46.8648437 149.689422,47.3875 149.341832,48.084375 C148.646651,49.6523437 148.299061,51.2203125 148.299061,52.7882812 C148.299061,54.35625 148.646651,55.9242187 149.168037,57.4921875 C149.689422,58.8859375 150.558397,60.2796875 151.774962,61.4992187 C152.991527,62.71875 154.208092,63.5898437 155.772248,64.2867187 C157.336403,64.9835937 158.900558,65.1578125 160.464713,65.1578125 C162.028869,65.1578125 163.593024,64.809375 165.157179,64.2867187 C165.852359,63.9382812 166.547539,63.5898437 167.242719,63.2414062 C167.242719,63.2414062 167.242719,63.2414062 167.416514,63.2414062 C168.111695,62.71875 168.63308,62.3703125 169.32826,61.6734375 C169.502055,61.4992187 169.502055,61.4992187 169.67585,61.325 C170.71862,60.2796875 171.4138,59.0601562 172.10898,57.6664062 C172.45657,56.9695312 172.630365,56.2726562 172.80416,55.5757812 C172.977955,54.7046875 173.15175,53.8335937 173.15175,52.7882812 C173.15175,52.4398437 173.15175,52.0914062 173.15175,51.7429687 C173.15175,51.0460937 172.45657,50.5234375 171.76139,50.5234375 C171.06621,50.5234375 170.544825,51.2203125 170.544825,51.9171875 C170.544825,52.0914062 170.544825,52.4398437 170.544825,52.6140625 C170.544825,53.3109375 170.544825,54.0078125 170.37103,54.7046875 C170.197235,55.2273437 170.02344,55.75 169.849645,56.2726562 C169.32826,57.3179687 168.806875,58.3632812 167.9379,59.234375 C167.9379,59.234375 167.764105,59.4085937 167.764105,59.4085937 C167.416514,59.7570312 166.895129,60.1054687 166.373744,60.4539062 C166.373744,60.4539062 166.373744,60.4539062 166.373744,60.4539062 C165.852359,60.8023437 165.330974,61.1507812 164.809589,61.325 C163.593024,61.8476562 162.376459,62.021875 161.159893,62.021875 C159.769533,62.021875 158.552968,61.8476562 157.336403,61.325 C156.119838,60.8023437 155.077067,60.1054687 154.208092,59.234375 C153.339117,58.3632812 152.643937,57.3179687 152.122552,56.0984375 C151.601167,54.8789062 151.427372,53.659375 151.427372,52.4398437 C151.427372,51.2203125 151.601167,49.8265625 152.122552,48.6070312 C152.296347,48.084375 152.643937,47.5617187 152.991527,47.0390625 C153.339117,46.5164062 153.860502,45.99375 154.381887,45.296875 C155.250863,44.4257812 156.293633,43.903125 157.336403,43.3804687 C157.857788,43.20625 158.379173,43.0320312 158.900558,42.8578125 C159.595738,42.6835937 160.290918,42.6835937 160.986098,42.6835937 C161.333688,42.6835937 161.507484,42.6835937 161.855074,42.6835937 C161.855074,42.6835937 161.855074,42.6835937 161.855074,42.6835937 C161.855074,42.6835937 161.855074,42.6835937 161.855074,42.6835937 C162.897844,42.6835937 163.766819,43.0320312 164.809589,43.3804687 C165.678564,43.7289062 166.547539,44.2515625 167.242719,44.9484375 L160.117123,52.0914062 C159.595738,52.6140625 159.595738,53.4851562 160.117123,54.0078125 C160.290918,54.1820312 160.638508,54.35625 160.986098,54.35625 C161.333688,54.35625 161.681279,54.1820312 161.855074,54.0078125 L185.491197,30.3140625 L191.052638,31.359375 C191.052638,31.359375 191.226433,31.359375 191.226433,31.359375 C191.574023,31.359375 191.921613,31.1851562 192.095408,31.0109375 L201.82793,21.2546875 C202.17552,20.90625 202.349315,20.3835937 202.17552,19.8609375 C202.001725,19.3382812 201.654135,18.9898437 201.13275,18.9898437 L195.745104,17.9445313 L194.702334,12.54375 C194.528539,12.0210938 194.180949,11.6726563 193.833359,11.4984375 C193.311974,11.3242188 192.790589,11.4984375 192.442998,11.846875 L182.710477,21.603125 C182.362887,21.9515625 182.189092,22.3 182.362887,22.8226562 L183.405657,28.3976562 L177.149036,34.6695312 C175.063496,32.753125 172.630365,31.1851562 170.02344,29.965625 C166.895129,28.7460937 163.766819,28.0492187 160.464713,28.0492187 C157.336403,28.0492187 154.208092,28.7460937 151.253577,29.7914062 C151.427372,30.1398437 151.079782,30.1398437 150.905987,30.3140625 Z M192.790589,15.6796875 L193.485769,19.5125 C193.659564,20.0351563 194.007154,20.3835938 194.528539,20.5578125 L198.352029,21.2546875 L190.878843,28.7460938 L186.186377,27.875 L185.317402,23.1710938 L192.790589,15.6796875 Z" id="Shape"></path>
                    <path d="M32.2039827,185.717188 C32.5515728,185.717188 32.8991629,185.542969 33.0729579,185.36875 L62.6181126,155.751563 L73.2196093,166.378906 C73.7409944,166.901563 74.6099696,166.901563 75.1313546,166.378906 C75.1313546,166.378906 75.1313546,166.378906 75.1313546,166.204688 L97.7247083,143.55625 L108.326205,154.183594 C108.84759,154.70625 109.716565,154.70625 110.23795,154.183594 C110.23795,154.183594 110.23795,154.009375 110.411745,154.009375 C110.411745,154.009375 110.58554,154.009375 110.58554,153.835156 L144.301776,120.036719 L156.641223,132.40625 C156.641223,132.40625 156.641223,132.40625 156.641223,132.40625 C156.815018,132.580469 157.162608,132.754688 157.510198,132.754688 C157.857788,132.754688 158.205378,132.580469 158.379173,132.40625 L178.886986,111.848438 L188.445713,121.430469 C188.619508,121.604688 188.967098,121.778906 189.314688,121.778906 C189.488483,121.778906 189.662278,121.778906 189.836073,121.604688 C190.357458,121.430469 190.705048,120.907813 190.705048,120.385156 L190.705048,99.8273438 C190.705048,99.1304688 190.183663,98.4335938 189.314688,98.4335938 L168.28549,98.4335938 C167.764105,98.4335938 167.242719,98.7820313 167.068924,99.3046875 C166.895129,99.8273438 166.895129,100.35 167.416514,100.698438 L176.975241,110.280469 L157.336403,129.967188 L144.996956,117.597656 C144.475571,117.075 143.606596,117.075 143.085211,117.597656 L109.368975,151.570313 L98.7674784,140.942969 C98.2460934,140.420313 97.3771182,140.420313 96.8557331,140.942969 L74.2623795,163.591406 L63.6608828,152.964063 C63.1394977,152.441406 62.2705226,152.441406 61.7491375,152.964063 L31.3350076,183.452344 C30.8136225,183.975 30.8136225,184.846094 31.3350076,185.36875 C31.5088026,185.717188 31.8563927,185.717188 32.2039827,185.717188 Z M171.587595,101.221094 L188.098123,101.221094 L188.098123,117.771875 L171.587595,101.221094 Z" id="Shape"></path>
                    <path d="M33.2467529,206.100781 L193.311974,206.100781 C194.007154,206.100781 194.702334,205.578125 194.702334,204.707031 L194.702334,143.730469 C194.702334,143.55625 194.702334,143.382031 194.528539,143.207813 C194.528539,143.033594 194.354744,142.859375 194.180949,142.859375 L180.972527,129.61875 C180.451142,129.096094 179.582166,129.096094 179.060781,129.61875 L158.726763,150.350781 L146.387316,137.98125 C145.865931,137.458594 144.996956,137.458594 144.475571,137.98125 L110.58554,171.953906 L99.9840436,161.326563 C99.4626585,160.803906 98.5936834,160.803906 98.0722983,161.326563 L75.4789447,183.975 L64.877448,173.347656 C64.3560629,172.825 63.4870878,172.825 62.9657027,173.347656 L32.5515728,203.835937 C32.5515728,203.835937 32.5515728,203.835937 32.5515728,203.835937 C32.2039827,204.010156 32.0301877,204.358594 32.0301877,204.88125 C32.0301877,205.578125 32.5515728,206.100781 33.2467529,206.100781 Z M63.8346778,175.960938 L74.4361745,186.588281 C74.9575596,187.110937 75.8265348,187.110937 76.3479198,186.588281 C76.3479198,186.588281 76.3479198,186.588281 76.3479198,186.414062 L98.9412735,163.765625 L109.54277,174.392969 C110.064155,174.915625 110.93313,174.915625 111.454515,174.392969 C111.454515,174.392969 111.454515,174.21875 111.628311,174.21875 C111.628311,174.21875 111.802106,174.21875 111.802106,174.044531 L145.518341,140.246094 L157.857788,152.615625 C157.857788,152.615625 157.857788,152.615625 157.857788,152.615625 C158.031583,152.789844 158.379173,152.964063 158.726763,152.964063 C159.074353,152.964063 159.421943,152.789844 159.595738,152.615625 L180.103551,132.40625 L192.095408,144.427344 L192.095408,203.4875 L36.3750634,203.4875 L63.8346778,175.960938 Z" id="Shape"></path>
                    <path d="M207.215576,219.515625 L18.3003805,219.515625 C17.6052004,219.515625 16.9100203,220.038281 16.9100203,220.909375 C16.9100203,221.60625 17.4314054,222.303125 18.3003805,222.303125 L207.041781,222.303125 C207.736961,222.303125 208.432141,221.780469 208.432141,220.909375 C208.432141,220.038281 207.910756,219.515625 207.215576,219.515625 Z" id="Shape"></path>
                    <path d="M182.015297,191.814844 L99.9840436,191.814844 C99.2888635,191.814844 98.5936834,192.3375 98.5936834,193.208594 C98.5936834,193.905469 99.1150685,194.602344 99.9840436,194.602344 L182.015297,194.602344 C182.710477,194.602344 183.405657,194.079687 183.405657,193.208594 C183.405657,192.3375 182.710477,191.814844 182.015297,191.814844 Z" id="Shape"></path>
                    <path d="M182.015297,181.710156 L133.526484,181.710156 C132.831304,181.710156 132.136124,182.232812 132.136124,183.103906 C132.136124,183.800781 132.657509,184.497656 133.526484,184.497656 L182.015297,184.497656 C182.710477,184.497656 183.405657,183.975 183.405657,183.103906 C183.405657,182.232812 182.710477,181.710156 182.015297,181.710156 Z" id="Shape"></path>
                </g>
            </g>
        </g>
    </g>
</svg>