<?xml version="1.0" encoding="UTF-8"?>
<svg width="240px" height="229px" viewBox="0 0 240 229" version="1.1" xmlns="http://www.w3.org/2000/svg" xmlns:xlink="http://www.w3.org/1999/xlink">
    <!-- Generator: Sketch 47.1 (45422) - http://www.bohemiancoding.com/sketch -->
    <title>Mutual Funds</title>
    <desc>Created with Sketch.</desc>
    <defs>
        <rect id="path-1" x="128" y="155" width="1024" height="3093"></rect>
        <filter x="-0.7%" y="-0.2%" width="101.4%" height="100.5%" filterUnits="objectBoundingBox" id="filter-2">
            <feOffset dx="0" dy="2" in="SourceAlpha" result="shadowOffsetOuter1"></feOffset>
            <feGaussianBlur stdDeviation="2" in="shadowOffsetOuter1" result="shadowBlurOuter1"></feGaussianBlur>
            <feColorMatrix values="0 0 0 0 0   0 0 0 0 0   0 0 0 0 0  0 0 0 0.5 0" type="matrix" in="shadowBlurOuter1"></feColorMatrix>
        </filter>
    </defs>
    <g id="Welcome" stroke="none" stroke-width="1" fill="none" fill-rule="evenodd">
        <g id="What-We-Offer" transform="translate(-193.000000, -1183.000000)">
            <g id="Rectangle-14">
                <use fill="black" fill-opacity="1" filter="url(#filter-2)" xlink:href="#path-1"></use>
                <use fill="#FFFFFF" fill-rule="evenodd" xlink:href="#path-1"></use>
            </g>
            <g id="Mutual-Funds" transform="translate(193.000000, 1183.000000)" fill-rule="nonzero" fill="#96CCFF">
                <path d="M118.77594,135.176991 C99.7049503,137.923003 85.2654867,154.399071 85.2654867,173.895753 C85.2654867,195.589243 102.70182,213.163717 124.224794,213.163717 C132.670518,213.163717 140.8438,210.417705 147.654867,205.474885 L145.202883,202.179671 C139.209143,206.84789 131.85319,209.0447 124.224794,209.0447 C105.153805,209.0447 89.3521274,193.392434 89.3521274,173.895753 C89.3521274,156.321279 102.156935,141.492818 119.320825,139.021407 L118.77594,135.176991 Z" id="Shape"></path>
                <rect id="Rectangle-path" transform="translate(110.221239, 148.694690) rotate(-30.000728) translate(-110.221239, -148.694690) " x="108.141593" y="145.575221" width="4.15929204" height="6.23893805"></rect>
                <rect id="Rectangle-path" transform="translate(98.783186, 159.092920) rotate(-59.994310) translate(-98.783186, -159.092920) " x="96.7035398" y="155.973451" width="4.15929204" height="6.23893805"></rect>
                <rect id="Rectangle-path" x="91.5044248" y="171.570796" width="6.23893805" height="4.15929204"></rect>
                <rect id="Rectangle-path" transform="translate(98.783186, 189.247788) rotate(59.999272) translate(-98.783186, -189.247788) " x="96.7035398" y="186.128319" width="4.15929204" height="6.23893805"></rect>
                <rect id="Rectangle-path" transform="translate(109.181416, 200.685841) rotate(-149.999272) translate(-109.181416, -200.685841) " x="107.10177" y="197.566372" width="4.15929204" height="6.23893805"></rect>
                <rect id="Rectangle-path" x="122.699115" y="200.685841" width="4.15929204" height="6.23893805"></rect>
                <rect id="Rectangle-path" transform="translate(139.336283, 200.685841) rotate(-30.005690) translate(-139.336283, -200.685841) " x="137.256637" y="197.566372" width="4.15929204" height="6.23893805"></rect>
                <path d="M152.785491,201.67535 C160.182555,194.316925 164.292035,184.505692 164.292035,174.14939 C164.292035,171.424047 164.01807,168.698705 163.470139,165.973362 L162.100313,161.067746 C156.621006,145.533293 141.826877,135.176991 125.388957,135.176991 L123.197234,135.176991 L123.197234,167.881102 C120.45758,168.698705 118.539823,171.151513 118.539823,173.876856 C118.539823,177.419801 121.553442,180.417678 125.114991,180.417678 C126.210853,180.417678 127.032749,180.145143 128.12861,179.600075 L151.415664,202.765487 L152.785491,201.67535 Z M125.114991,176.329664 C123.745165,176.329664 122.649303,175.239527 122.649303,173.876856 C122.649303,172.514184 123.745165,171.424047 125.114991,171.424047 C126.484818,171.424047 127.580679,172.514184 127.580679,173.876856 C127.580679,175.239527 126.210853,176.329664 125.114991,176.329664 Z M130.868263,176.874732 C131.142229,176.05713 131.416194,175.239527 131.416194,174.14939 C131.416194,171.424047 129.772402,168.971239 127.306714,168.153636 L127.306714,139.265005 C141.278947,140.082608 153.607387,149.076238 158.264798,162.157883 L159.634625,166.790965 C160.182555,169.243773 160.456521,171.696582 160.456521,174.14939 C160.456521,182.870486 157.442902,190.773979 151.68963,197.314802 L130.868263,176.874732 Z" id="Shape"></path>
                <path d="M139.336283,93.4631611 L139.336283,92.6651574 C139.336283,89.7391439 136.865664,87.3451327 133.846018,87.3451327 L110.512389,87.3451327 C107.492743,87.3451327 105.022124,89.7391439 105.022124,92.6651574 L105.022124,93.4631611 C105.022124,96.3891747 107.492743,98.7831858 110.512389,98.7831858 L133.846018,98.7831858 C136.865664,98.5171846 139.336283,96.3891747 139.336283,93.4631611 Z M135.218584,93.4631611 C135.218584,94.2611648 134.669558,94.7931673 133.846018,94.7931673 L110.512389,94.7931673 C109.68885,94.7931673 109.139823,94.2611648 109.139823,93.4631611 L109.139823,92.6651574 C109.139823,91.8671537 109.68885,91.3351513 110.512389,91.3351513 L133.846018,91.3351513 C134.669558,91.3351513 135.218584,91.8671537 135.218584,92.6651574 L135.218584,93.4631611 Z" id="Shape"></path>
                <path d="M72.351492,89.914981 L76.4523612,90.4646018 C76.9991438,86.3424463 73.9918397,81.3958597 70.9845356,76.7240834 C69.344188,73.9759798 66.8836664,69.8538243 67.1570577,68.7545828 C67.1570577,68.7545828 67.1570577,68.7545828 67.430449,68.4797724 C68.5240141,67.9301517 69.8909705,68.7545828 71.8047095,69.8538243 C72.8982746,70.6782554 74.265231,71.5026865 75.3587961,71.5026865 C78.6394914,71.7774968 80.5532304,69.8538243 81.9201868,68.4797724 C83.2871432,67.1057206 83.8339257,66.8309102 84.9274909,66.8309102 C85.2008821,67.1057206 85.4742734,67.380531 85.4742734,67.6553413 C86.2944473,68.7545828 87.3880124,70.1286346 88.7549688,70.6782554 C93.4026205,72.3271176 96.6833159,69.5790139 99.6906199,67.380531 C99.6906199,67.380531 99.6906199,67.380531 99.6906199,67.380531 C100.510794,68.7545828 101.330968,69.8538243 102.151141,71.2278761 C102.151141,71.2278761 102.151141,71.5026865 102.424533,71.5026865 C99.1438374,76.7240834 96.9567071,83.0447219 95.863142,89.6401707 L99.9640112,90.1897914 C100.784185,84.9683944 102.424533,79.7469975 104.611663,75.3500316 C106.252011,78.3729456 107.618967,81.3958597 107.345576,83.5943426 L111.446445,84.1439633 C111.993227,79.4721871 108.712532,74.2507901 105.431837,69.0293932 C103.518098,65.7316688 100.784185,61.3347029 101.057576,59.6858407 C101.057576,59.6858407 101.057576,59.4110303 101.604359,59.4110303 C102.971315,58.8614096 104.611663,59.6858407 106.798793,61.0598925 C108.16575,61.8843236 109.532706,62.7087547 110.899662,62.9835651 C114.453749,63.2583755 116.367488,61.3347029 118.281227,59.6858407 C119.921575,58.0369785 120.741748,57.4873578 121.835314,58.0369785 C122.108705,58.3117889 122.382096,58.5865992 122.655487,58.8614096 C123.475661,59.9606511 124.569226,61.6095133 126.209574,62.159134 C131.130617,63.8079962 134.958095,61.0598925 137.965399,58.5865992 C139.879138,57.2125474 141.792877,55.5636852 143.433225,55.5636852 C143.433225,55.5636852 143.433225,55.5636852 143.433225,55.5636852 C145.073572,55.5636852 145.620355,55.8384956 145.620355,55.8384956 C145.620355,56.6629267 143.706616,59.4110303 142.886442,60.2354614 L142.066268,61.3347029 C137.692008,67.380531 134.684704,75.3500316 133.591139,83.5943426 L137.692008,84.1439633 C137.965399,81.3958597 138.785573,78.3729456 139.605747,75.8996523 C139.879138,76.4492731 140.152529,76.7240834 140.425921,77.2737042 C142.886442,81.1210493 145.620355,85.7928255 145.346964,88.5409292 L149.447833,89.0905499 C149.994615,84.9683944 146.987311,80.0218078 143.980007,75.3500316 C143.159833,73.9759798 142.339659,72.6019279 141.519486,71.2278761 C142.066268,69.8538243 142.613051,68.7545828 143.433225,67.6553413 C143.980007,67.9301517 144.253398,68.2049621 144.800181,68.4797724 C146.167137,69.3042035 147.260702,70.1286346 148.627659,70.1286346 C151.634963,70.1286346 153.822093,68.2049621 155.18905,66.8309102 C156.556006,65.4568584 157.37618,65.182048 158.196354,65.182048 C158.469745,65.4568584 158.469745,65.7316688 158.743136,66.0064791 C159.56331,67.1057206 160.656875,68.4797724 162.023832,69.0293932 C166.671483,70.6782554 170.22557,67.9301517 172.959483,65.7316688 C174.59983,64.3576169 176.240178,63.2583755 177.880526,63.2583755 C177.880526,63.2583755 177.880526,63.2583755 177.880526,63.2583755 C178.974091,63.2583755 179.520873,63.5331858 179.794265,63.5331858 C179.520873,64.3576169 178.153917,66.5560999 177.607134,67.380531 L177.060352,68.2049621 C173.232874,73.7011694 170.498961,80.8462389 169.405396,88.5409292 L173.506265,89.0905499 C174.326439,82.2202908 176.786961,75.624842 180.341047,70.6782554 L180.88783,69.8538243 C182.801569,67.380531 184.988699,64.3576169 183.621743,61.6095133 C182.528178,59.13622 179.247482,59.13622 178.153917,59.13622 C178.153917,59.13622 178.153917,59.13622 178.153917,59.13622 C175.420004,59.13622 172.959483,60.7850822 170.772352,62.7087547 C168.03844,64.9072377 166.124701,66.2812895 163.664179,65.4568584 C163.390788,65.4568584 162.570614,64.3576169 162.297223,63.8079962 C161.477049,62.9835651 160.930266,61.8843236 159.836701,61.6095133 C156.282615,60.5102718 154.095484,62.4339444 152.728528,64.0828066 C151.361572,65.4568584 150.541398,66.0064791 149.174441,66.0064791 C148.90105,66.0064791 148.080876,65.4568584 147.534094,64.9072377 C146.987311,64.6324273 146.71392,64.3576169 146.167137,64.0828066 L146.71392,63.2583755 C148.627659,60.5102718 151.08818,57.2125474 149.721224,54.4644437 C148.354268,51.9911504 144.800181,51.9911504 143.706616,51.9911504 C143.706616,51.9911504 143.706616,51.9911504 143.706616,51.9911504 C140.699312,51.9911504 138.23879,53.914823 135.778269,55.8384956 C132.497573,58.3117889 130.583834,59.6858407 127.849922,58.8614096 C127.303139,58.5865992 126.756357,57.7621681 126.209574,56.937737 C125.3894,55.8384956 124.842618,55.0140645 123.749052,54.7392541 C120.194966,53.6400126 117.734444,55.8384956 115.820705,57.2125474 C113.633575,58.0369785 112.813401,59.13622 111.173054,58.8614096 C110.899662,58.8614096 109.806097,58.0369785 109.259315,57.7621681 C107.072184,56.3881163 103.791489,54.1896334 100.237402,55.8384956 C98.5970548,56.6629267 97.776881,57.7621681 97.5034897,58.8614096 C96.9567071,60.2354614 97.2300984,61.8843236 98.0502723,63.8079962 C97.776881,64.0828066 97.5034897,64.0828066 97.2300984,64.3576169 C94.4961856,66.5560999 92.5824467,67.6553413 90.3953164,66.8309102 C90.1219252,66.8309102 89.3017513,65.7316688 89.0283601,65.182048 C88.2081862,64.3576169 87.6614037,63.2583755 86.5678385,62.9835651 C83.2871432,61.8843236 81.100013,63.8079962 79.4596653,65.4568584 C78.0927089,66.8309102 77.272535,67.380531 75.9055787,67.380531 C75.6321874,67.380531 74.8120135,66.8309102 74.265231,66.2812895 C72.351492,64.9072377 69.344188,62.9835651 66.0634926,64.3576169 C64.4231449,65.182048 63.8763624,66.2812895 63.6029711,67.1057206 C62.7827973,70.1286346 64.9699275,73.9759798 67.9772316,78.647756 C69.8909705,82.7699115 72.6248833,87.1668774 72.351492,89.914981 Z" id="Shape"></path>
                <path d="M74.8672566,92.5442478 C72.1308803,92.5442478 69.6681416,94.8318584 69.6681416,97.977323 L69.6681416,98.5492257 C69.6681416,101.408739 71.8572427,103.982301 74.8672566,103.982301 L95.6637168,103.982301 C98.4000932,103.982301 100.862832,101.69469 100.862832,98.5492257 L100.862832,97.977323 C100.862832,95.1178097 98.6737308,92.5442478 95.6637168,92.5442478 L74.8672566,92.5442478 L74.8672566,92.5442478 Z M96.4846297,97.6913717 L96.4846297,98.2632743 C96.4846297,98.835177 95.9373544,99.4070796 95.3900792,99.4070796 L74.593619,99.4070796 C74.0463437,99.4070796 73.4990685,98.835177 73.4990685,98.2632743 L73.4990685,97.6913717 C73.4990685,97.119469 74.0463437,96.5475664 74.593619,96.5475664 L95.6637168,96.5475664 C96.2109921,96.8335177 96.4846297,97.119469 96.4846297,97.6913717 Z" id="Shape"></path>
                <path d="M204.956276,147.968818 C200.04162,139.478786 194.034818,131.810369 188.301053,124.689697 C183.113361,118.116769 177.652632,111.269968 173.011013,103.875424 L169.461539,105.792528 C174.103159,113.460944 179.563887,120.307745 185.024616,127.154545 C190.758381,134.549089 196.765183,141.943634 201.406802,150.159794 C205.502349,157.280467 217.515952,181.381204 203.045021,198.909013 C195.673037,207.672917 183.386397,213.424229 169.188503,214.793589 C171.099758,213.150357 173.011013,211.233253 174.649231,209.316149 C192.3966,187.68026 177.925669,158.649827 173.011013,150.159794 C167.550284,140.848146 160.99741,132.358113 154.444535,124.141953 C148.71077,116.747409 142.703969,109.078992 137.516276,100.862832 L134.239839,103.053808 C139.427531,111.54384 145.434333,119.212257 151.441135,126.606801 C157.720973,134.549089 164.273847,143.039122 169.734576,152.076898 C174.376195,160.019187 187.75498,186.858644 171.645831,206.577429 C156.082754,225.474598 125.77571,227.939446 103.932795,220.544902 C83.4550624,213.698101 71.1684229,199.456757 70.3493136,181.381204 C69.5302043,162.210163 80.1786252,148.516562 91.373119,134.001345 C98.7451027,124.415825 106.390123,114.556433 110.485669,103.053808 L106.663159,101.684448 C102.567613,112.639328 95.1956291,122.224849 88.0966818,131.536497 C76.902188,146.051714 65.4346577,160.840803 66.2537671,181.655076 C66.7998399,195.074804 73.0796779,206.577429 84.0011353,214.793589 C61.6121477,212.602613 40.3153058,199.730629 39.4961965,176.999251 C38.6770872,160.019187 47.960326,147.694946 58.062674,134.822961 C64.6155484,126.332929 71.4414593,117.569025 75.2639694,107.161888 L71.4414593,105.792528 C67.8919857,115.651921 61.3391112,124.141953 54.7862368,132.358113 C44.6838887,145.230098 34.5815407,158.649827 35.40065,177.273123 C36.7658321,204.934197 64.0694756,219.449414 90.5540097,219.449414 C90.5540097,219.449414 90.5540097,219.449414 90.8270461,219.449414 C94.3765198,221.366518 98.4720663,223.283622 102.840649,224.652982 C110.485669,227.11783 119.222835,228.761062 127.960001,228.761062 C140.519677,228.761062 153.35239,225.74847 163.727774,219.175541 C163.727774,219.175541 163.727774,219.175541 164.000811,219.175541 C182.021215,219.175541 197.584292,212.876485 206.594494,201.647733 C222.430608,181.928948 209.324859,155.637234 204.956276,147.968818 Z" id="Shape"></path>
                <path d="M148.69469,91.5044248 C145.958314,91.5044248 143.495575,93.7920354 143.495575,96.9375 L143.495575,97.5094027 C143.495575,100.368916 145.684676,102.942478 148.69469,102.942478 L169.49115,102.942478 C172.227527,102.942478 174.690265,100.654867 174.690265,97.5094027 L174.690265,96.9375 C174.690265,94.0779867 172.501164,91.5044248 169.49115,91.5044248 L148.69469,91.5044248 L148.69469,91.5044248 Z M170.585701,96.9375 L170.585701,97.5094027 C170.585701,98.0813053 170.038426,98.653208 169.49115,98.653208 L148.69469,98.653208 C148.147415,98.653208 147.60014,98.0813053 147.60014,97.5094027 L147.60014,96.9375 C147.60014,96.3655973 148.147415,95.7936947 148.69469,95.7936947 L169.49115,95.7936947 C170.038426,95.7936947 170.585701,96.3655973 170.585701,96.9375 Z" id="Shape"></path>
                <path d="M196.086652,58.5185174 C196.824578,58.5185174 197.562503,57.9638465 197.562503,57.039395 L197.562503,32.8187666 C197.562503,32.0792054 197.009059,31.3396443 196.086652,31.3396443 C195.348726,31.3396443 194.6108,31.8943151 194.6108,32.8187666 L194.6108,57.039395 C194.6108,57.7789562 195.348726,58.5185174 196.086652,58.5185174 Z" id="Shape"></path>
                <path d="M196.086652,74.2341923 C196.824578,74.2341923 197.562503,73.6795214 197.562503,72.7550699 L197.562503,64.9896776 C197.562503,64.2501164 197.009059,63.5105553 196.086652,63.5105553 C195.348726,63.5105553 194.6108,64.0652261 194.6108,64.9896776 L194.6108,72.7550699 C194.6108,73.6795214 195.348726,74.2341923 196.086652,74.2341923 Z" id="Shape"></path>
                <path d="M33.87752,67.2231524 C33.1395942,67.2231524 32.4016684,67.7778232 32.4016684,68.7022747 L32.4016684,92.9229031 C32.4016684,93.6624643 32.9551127,94.4020255 33.87752,94.4020255 C34.6154457,94.4020255 35.3533715,93.8473546 35.3533715,92.9229031 L35.3533715,68.7022747 C35.1688901,67.9627135 34.6154457,67.2231524 33.87752,67.2231524 Z" id="Shape"></path>
                <path d="M33.87752,99.3940634 C33.1395942,99.3940634 32.4016684,99.9487342 32.4016684,100.873186 L32.4016684,108.638578 C32.4016684,109.378139 32.9551127,110.1177 33.87752,110.1177 C34.6154457,110.1177 35.3533715,109.563029 35.3533715,108.638578 L35.3533715,100.873186 C35.1688901,99.9487342 34.6154457,99.3940634 33.87752,99.3940634 Z" id="Shape"></path>
                <path d="M189.432065,104.223398 C189.616547,104.408288 189.98551,104.593178 190.354473,104.593178 C190.723436,104.593178 191.092398,104.408288 191.27688,104.223398 C191.830324,103.668727 191.830324,102.744275 191.27688,102.189605 L187.956214,98.8615793 C187.40277,98.3069084 186.480362,98.3069084 185.926918,98.8615793 C185.373474,99.4162502 185.373474,100.340702 185.926918,100.895373 L189.432065,104.223398 Z" id="Shape"></path>
                <path d="M196.811323,111.434119 L200.131989,114.762145 C200.316471,114.947035 200.685434,115.131925 201.054396,115.131925 C201.423359,115.131925 201.792322,114.947035 201.976804,114.762145 C202.530248,114.207474 202.530248,113.283022 201.976804,112.728351 L198.656138,109.400326 C198.102693,108.845655 197.180286,108.845655 196.626842,109.400326 C196.257879,110.139887 196.257879,111.064339 196.811323,111.434119 Z" id="Shape"></path>
                <path d="M187.218288,115.131925 C187.587251,115.131925 187.956214,114.947035 188.140695,114.762145 L191.461361,111.434119 C192.014806,110.879448 192.014806,109.954997 191.461361,109.400326 C190.907917,108.845655 189.98551,108.845655 189.432065,109.400326 L186.111399,112.913242 C185.557955,113.467912 185.557955,114.392364 186.111399,114.947035 C186.480362,115.131925 186.849325,115.131925 187.218288,115.131925 Z" id="Shape"></path>
                <path d="M197.73373,104.593178 C198.102693,104.593178 198.471656,104.408288 198.656138,104.223398 L201.976804,100.895373 C202.530248,100.340702 202.530248,99.4162502 201.976804,98.8615793 C201.423359,98.3069084 200.500952,98.3069084 199.947508,98.8615793 L196.626842,102.189605 C196.073397,102.744275 196.073397,103.668727 196.626842,104.223398 C196.995805,104.408288 197.364768,104.593178 197.73373,104.593178 Z" id="Shape"></path>
                <path d="M226.358935,153.066976 C226.543416,153.251866 226.912379,153.436757 227.281342,153.436757 C227.650305,153.436757 228.019268,153.251866 228.203749,153.066976 C228.757194,152.512305 228.757194,151.587854 228.203749,151.033183 L224.883083,147.705157 C224.329639,147.150487 223.407232,147.150487 222.853787,147.705157 C222.300343,148.259828 222.300343,149.18428 222.853787,149.738951 L226.358935,153.066976 Z" id="Shape"></path>
                <path d="M235.583007,158.428794 C235.029563,157.874124 234.107155,157.874124 233.553711,158.428794 C233.000267,158.983465 233.000267,159.907917 233.553711,160.462588 L236.874377,163.790613 C237.058859,163.975503 237.427821,164.160394 237.796784,164.160394 C238.165747,164.160394 238.53471,163.975503 238.719192,163.790613 C239.272636,163.235942 239.272636,162.311491 238.719192,161.75682 L235.583007,158.428794 Z" id="Shape"></path>
                <path d="M223.038269,163.605723 C223.22275,163.790613 223.591713,163.975503 223.960676,163.975503 C224.329639,163.975503 224.698602,163.790613 224.883083,163.605723 L228.203749,160.277697 C228.757194,159.723026 228.757194,158.798575 228.203749,158.243904 C227.650305,157.689233 226.727898,157.689233 226.174453,158.243904 L222.853787,161.571929 C222.484824,162.311491 222.484824,163.051052 223.038269,163.605723 Z" id="Shape"></path>
                <path d="M236.874377,147.705157 L233.553711,151.033183 C233.000267,151.587854 233.000267,152.512305 233.553711,153.066976 C233.738193,153.251866 234.107155,153.436757 234.476118,153.436757 C234.845081,153.436757 235.214044,153.251866 235.398526,153.066976 L238.719192,149.738951 C239.272636,149.18428 239.272636,148.259828 238.719192,147.705157 C238.350229,147.335377 237.427821,147.335377 236.874377,147.705157 Z" id="Shape"></path>
                <path d="M135.661334,5.8247838 C135.845815,6.00967409 136.214778,6.19456438 136.583741,6.19456438 C136.952704,6.19456438 137.321667,6.00967409 137.506148,5.8247838 C138.059593,5.27011292 138.059593,4.34566145 137.506148,3.79099057 L134.185482,0.462965294 C133.632038,-0.0917055854 132.709631,-0.0917055854 132.156186,0.462965294 C131.602742,1.01763617 131.602742,1.94208764 132.156186,2.49675852 L135.661334,5.8247838 Z" id="Shape"></path>
                <path d="M146.176776,16.3635305 C146.361258,16.5484208 146.73022,16.7333111 147.099183,16.7333111 C147.468146,16.7333111 147.837109,16.5484208 148.021591,16.3635305 C148.575035,15.8088596 148.575035,14.8844082 148.021591,14.3297373 L144.700925,11.001712 C144.14748,10.4470411 143.225073,10.4470411 142.671629,11.001712 C142.118184,11.5563829 142.118184,12.4808344 142.671629,13.0355052 L146.176776,16.3635305 Z" id="Shape"></path>
                <path d="M133.263075,16.7333111 C133.632038,16.7333111 134.001001,16.5484208 134.185482,16.3635305 L137.506148,13.0355052 C138.059593,12.4808344 138.059593,11.5563829 137.506148,11.001712 C136.952704,10.4470411 136.030297,10.4470411 135.476852,11.001712 L132.156186,14.3297373 C131.602742,14.8844082 131.602742,15.8088596 132.156186,16.3635305 C132.525149,16.5484208 132.894112,16.7333111 133.263075,16.7333111 Z" id="Shape"></path>
                <path d="M143.962999,6.19456438 C144.331962,6.19456438 144.700925,6.00967409 144.885406,5.8247838 L148.206072,2.49675852 C148.759516,1.94208764 148.759516,1.01763617 148.206072,0.462965294 C147.652628,-0.0917055854 146.73022,-0.0917055854 146.176776,0.462965294 L142.85611,3.79099057 C142.302666,4.34566145 142.302666,5.27011292 142.85611,5.8247838 C143.225073,6.00967409 143.594036,6.19456438 143.962999,6.19456438 Z" id="Shape"></path>
                <path d="M12.3930769,187.017271 C11.8396326,186.4626 10.9172254,186.4626 10.3637811,187.017271 C9.81033673,187.571942 9.81033673,188.496393 10.3637811,189.051064 L13.684447,192.37909 C13.8689285,192.56398 14.2378914,192.74887 14.6068543,192.74887 C14.9758172,192.74887 15.34478,192.56398 15.5292615,192.37909 C16.0827058,191.824419 16.0827058,190.899967 15.5292615,190.345296 L12.3930769,187.017271 Z" id="Shape"></path>
                <path d="M23.0930007,197.556018 C22.5395563,197.001347 21.6171491,197.001347 21.0637048,197.556018 C20.5102605,198.110689 20.5102605,199.03514 21.0637048,199.589811 L24.3843708,202.917836 C24.5688522,203.102727 24.9378151,203.287617 25.306778,203.287617 C25.6757409,203.287617 26.0447038,203.102727 26.2291852,202.917836 C26.7826295,202.363165 26.7826295,201.438714 26.2291852,200.884043 L23.0930007,197.556018 Z" id="Shape"></path>
                <path d="M13.684447,197.556018 L10.3637811,200.884043 C9.81033673,201.438714 9.81033673,202.363165 10.3637811,202.917836 C10.5482625,203.102727 10.9172254,203.287617 11.2861883,203.287617 C11.6551512,203.287617 12.0241141,203.102727 12.2085955,202.917836 L15.5292615,199.589811 C16.0827058,199.03514 16.0827058,198.110689 15.5292615,197.556018 C15.1602986,197.001347 14.2378914,197.001347 13.684447,197.556018 Z" id="Shape"></path>
                <path d="M24.3843708,187.017271 L21.0637048,190.345296 C20.5102605,190.899967 20.5102605,191.824419 21.0637048,192.37909 C21.2481862,192.56398 21.6171491,192.74887 21.986112,192.74887 C22.3550749,192.74887 22.7240378,192.56398 22.9085192,192.37909 L26.2291852,189.051064 C26.7826295,188.496393 26.7826295,187.571942 26.2291852,187.017271 C25.8602223,186.4626 24.9378151,186.4626 24.3843708,187.017271 Z" id="Shape"></path>
                <path d="M219.365763,21.3999421 C223.608836,21.3999421 226.929502,18.0719168 226.929502,13.8194401 C226.929502,9.56696333 223.608836,6.23893805 219.365763,6.23893805 C215.122689,6.23893805 211.802023,9.56696333 211.802023,13.8194401 C211.802023,18.0719168 215.307171,21.3999421 219.365763,21.3999421 Z M219.365763,9.01229245 C221.948503,9.01229245 224.16228,11.230976 224.16228,13.8194401 C224.16228,16.4079042 221.948503,18.6265877 219.365763,18.6265877 C216.783022,18.6265877 214.569245,16.4079042 214.569245,13.8194401 C214.569245,11.230976 216.783022,9.01229245 219.365763,9.01229245 Z" id="Shape"></path>
                <path d="M8.60356219,129.427643 C4.36048899,129.427643 1.03982301,132.755668 1.03982301,137.008145 C1.03982301,141.260621 4.36048899,144.588647 8.60356219,144.588647 C12.8466354,144.588647 16.1673014,141.260621 16.1673014,137.008145 C16.1673014,132.755668 12.8466354,129.427643 8.60356219,129.427643 Z M8.60356219,141.815292 C6.02082198,141.815292 3.80704466,139.596609 3.80704466,137.008145 C3.80704466,134.419681 6.02082198,132.200997 8.60356219,132.200997 C11.1863024,132.200997 13.4000797,134.419681 13.4000797,137.008145 C13.4000797,139.596609 11.1863024,141.815292 8.60356219,141.815292 Z" id="Shape"></path>
                <path d="M20.8965497,10.3065245 L49.4911734,10.3065245 C50.2290992,10.3065245 50.9670249,9.75185362 50.9670249,8.82740216 C50.9670249,7.90295069 50.4135806,7.34827981 49.4911734,7.34827981 L20.8965497,7.34827981 C20.1586239,7.34827981 19.4206981,7.90295069 19.4206981,8.82740216 C19.4206981,9.75185362 20.1586239,10.3065245 20.8965497,10.3065245 Z" id="Shape"></path>
                <path d="M2.26392386,10.3065245 L11.487996,10.3065245 C12.2259218,10.3065245 12.9638476,9.75185362 12.9638476,8.82740216 C12.9638476,7.90295069 12.4104033,7.34827981 11.487996,7.34827981 L2.26392386,7.34827981 C1.52599809,7.53317011 0.972553757,8.27273128 0.972553757,9.01229245 C0.972553757,9.75185362 1.52599809,10.3065245 2.26392386,10.3065245 Z" id="Shape"></path>
                <path d="M2.26392386,20.2906003 L22.1879198,20.2906003 C22.9258455,20.2906003 23.6637713,19.7359295 23.6637713,18.811478 C23.6637713,17.8870265 23.110327,17.5172459 22.1879198,17.5172459 L2.26392386,17.5172459 C1.52599809,17.5172459 0.788072314,18.0719168 0.788072314,18.9963683 C0.788072314,19.9208197 1.52599809,20.2906003 2.26392386,20.2906003 Z" id="Shape"></path>
                <path d="M38.6067682,18.811478 C38.6067682,18.0719168 38.0533239,17.3323556 37.1309167,17.3323556 L30.6740662,17.3323556 C29.9361404,17.3323556 29.1982146,17.8870265 29.1982146,18.811478 C29.1982146,19.7359295 29.7516589,20.2906003 30.6740662,20.2906003 L37.1309167,20.2906003 C38.0533239,20.2906003 38.6067682,19.5510392 38.6067682,18.811478 Z" id="Shape"></path>
            </g>
        </g>
    </g>
</svg>