<?xml version="1.0" encoding="UTF-8"?>
<svg width="22px" height="21px" viewBox="0 0 22 21" version="1.1" xmlns="http://www.w3.org/2000/svg" xmlns:xlink="http://www.w3.org/1999/xlink">
    <!-- Generator: Sketch 47.1 (45422) - http://www.bohemiancoding.com/sketch -->
    <title>Group</title>
    <desc>Created with Sketch.</desc>
    <defs></defs>
    <g id="Pages" stroke="none" stroke-width="1" fill="none" fill-rule="evenodd">
        <g id="Quote-Full-Page" transform="translate(-200.000000, -3912.000000)" fill-rule="nonzero" fill="#000000">
            <g id="Group" transform="translate(200.000000, 3912.000000)">
                <path d="M4.4,0 C4.110205,0.00964864604 3.856765,0.311900997 3.85,0.567567414 L3.85,6.81080897 L0.55,6.81080897 C0.2524775,6.81818735 0.006765,7.12271564 0,7.37837638 L0,18.4459466 C0,19.8510733 1.113365,21 2.475,21 L19.525,21 C20.886635,21 22,19.8510733 22,18.4459466 L22,0.567567414 C21.9999725,0.27039763 21.73798,2.83783707e-05 21.45,3.22624723e-14 L4.4,0 Z M4.95,1.13513483 L20.9,1.13513483 L20.9,18.4459466 C20.9,19.2418464 20.296265,19.8648652 19.525,19.8648652 L4.46875,19.8648652 C4.74694,19.4519315 4.95,18.9842843 4.95,18.4459466 L4.95,1.13513483 Z M7.15,2.83783707 C6.85883,2.83868842 6.606765,3.14973807 6.6,3.40540449 L6.6,7.37837638 C6.6000275,7.67555468 6.86202,7.94591542 7.15,7.9459438 L12.65,7.9459438 C12.93798,7.94591542 13.1999725,7.67555468 13.2,7.37837638 L13.2,3.40540449 C13.1999725,3.1082347 12.93798,2.83786545 12.65,2.83783707 L7.15,2.83783707 Z M14.85,3.40540449 C14.546235,3.40540449 14.3,3.65950442 14.3,3.9729719 C14.3,4.28643938 14.546235,4.54053931 14.85,4.54053931 L18.7,4.54053931 C19.003765,4.54053931 19.25,4.28643938 19.25,3.9729719 C19.25,3.65950442 19.003765,3.40540449 18.7,3.40540449 L14.85,3.40540449 Z M7.7,3.9729719 L12.1,3.9729719 L12.1,6.81080897 L7.7,6.81080897 L7.7,3.9729719 Z M14.85,6.24324156 C14.546235,6.24324156 14.3,6.49734149 14.3,6.81080897 C14.3,7.12427645 14.546235,7.37837638 14.85,7.37837638 L18.7,7.37837638 C19.003765,7.37837638 19.25,7.12427645 19.25,6.81080897 C19.25,6.49734149 19.003765,6.24324156 18.7,6.24324156 L14.85,6.24324156 Z M1.1,7.9459438 L3.85,7.9459438 L3.85,18.4459466 C3.85,19.2418464 3.246265,19.8648652 2.475,19.8648652 C1.703735,19.8648652 1.1,19.2418464 1.1,18.4459466 L1.1,7.9459438 Z M7.15,9.64864604 C6.846235,9.64864604 6.6,9.90275165 6.6,10.2162191 C6.6,10.5296866 6.846235,10.7837865 7.15,10.7837865 L18.7,10.7837865 C19.003765,10.7837865 19.25,10.5296866 19.25,10.2162191 C19.25,9.90275165 19.003765,9.64864604 18.7,9.64864604 L7.15,9.64864604 Z M7.15,12.7702725 C6.846235,12.7702725 6.6,13.0243724 6.6,13.3378399 C6.6,13.6513074 6.846235,13.9054073 7.15,13.9054073 L18.7,13.9054073 C19.003765,13.9054073 19.25,13.6513074 19.25,13.3378399 C19.25,13.0243724 19.003765,12.7702725 18.7,12.7702725 L7.15,12.7702725 Z M7.15,15.8918933 C6.846235,15.8918933 6.6,16.1459932 6.6,16.4594607 C6.6,16.7729282 6.846235,17.0270281 7.15,17.0270281 L18.7,17.0270281 C19.003765,17.0270281 19.25,16.7729282 19.25,16.4594607 C19.25,16.1459932 19.003765,15.8918933 18.7,15.8918933 L7.15,15.8918933 Z" id="Shape"></path>
            </g>
        </g>
    </g>
</svg>