<svg id="Layer_1" data-name="Layer 1" xmlns="http://www.w3.org/2000/svg" viewBox="0 0 271.84 310.93"><defs><style>.cls-1{opacity:0.5;}.cls-2{fill:#447abd;}.cls-3{fill:#85bee7;}</style></defs><title>parachute</title><g class="cls-1"><path class="cls-2" d="M136.35.43C61.4.43.43,61.4.43,136.35a5.44,5.44,0,1,0,10.87,0,27.18,27.18,0,1,1,54.37,0,5.44,5.44,0,1,0,10.87,0,27.18,27.18,0,1,1,54.37,0,5.44,5.44,0,1,0,10.87,0,27.18,27.18,0,1,1,54.37,0,5.44,5.44,0,0,0,10.87,0,27.18,27.18,0,1,1,54.37,0,5.44,5.44,0,1,0,10.87,0C272.27,61.4,211.29.43,136.35.43Zm0,0" transform="translate(-0.43 -0.43)"/><path class="cls-3" d="M234.21,98.3a38.08,38.08,0,0,0-32.62,18.47,38,38,0,0,0-65.24,0,38,38,0,0,0-65.24,0A38,38,0,0,0,14.9,106.5a125.07,125.07,0,0,1,242.9,0,37.85,37.85,0,0,0-23.58-8.21Zm0,0" transform="translate(-0.43 -0.43)"/><path class="cls-2" d="M117.85,242.2a6.57,6.57,0,0,0,4.69-1.94,6,6,0,0,0-.26-8.75L11.3,130.78a6.63,6.63,0,0,0-9.11.25,6,6,0,0,0,.26,8.75l111,100.73a6.58,6.58,0,0,0,4.43,1.69Zm0,0" transform="translate(-0.43 -0.43)"/><path class="cls-2" d="M261.66,130.78,153.49,231.51a6.12,6.12,0,0,0-.25,8.75,6.35,6.35,0,0,0,8.88.25L270.3,139.78a6.12,6.12,0,0,0,.25-8.75,6.36,6.36,0,0,0-8.88-.25Zm0,0" transform="translate(-0.43 -0.43)"/><path class="cls-2" d="M69.84,132.18c-2.56,2-3.26,6.22-1.57,9.32L121.49,239a5.36,5.36,0,0,0,4.63,3,4.86,4.86,0,0,0,3.06-1.12,7.64,7.64,0,0,0,1.57-9.32L77.54,134.07c-1.69-3.1-5.13-3.95-7.69-1.9Zm0,0" transform="translate(-0.43 -0.43)"/><path class="cls-2" d="M144.54,242a6.14,6.14,0,0,0,5.13-3.14l57.07-98.42a7,7,0,0,0-2-9.19,6,6,0,0,0-8.6,2.13L139,231.82a7,7,0,0,0,2,9.19,6,6,0,0,0,3.48,1Zm0,0" transform="translate(-0.43 -0.43)"/><path class="cls-2" d="M136.35,243.53c3,0,5.44-4.12,5.44-9.23V135.09c0-5.1-2.43-9.23-5.44-9.23s-5.44,4.13-5.44,9.23v99.21c0,5.1,2.44,9.23,5.44,9.23Zm0,0" transform="translate(-0.43 -0.43)"/><path class="cls-2" d="M116.16,234.93H165.4v.1a76.37,76.37,0,0,1-4.91,7.17H147.33a17.19,17.19,0,0,1,3.69,7.73h14q.26.05.26.2-4.71,7.06-4.81,7.06h-9.11q-.31,3.63-3.48,8.75-4.2,5.17-8,6.71a31.78,31.78,0,0,1-13.72,3.43v.1q0,.51,3.22,4.25l24.32,29.33v1.38q0,.2-.26.2h-10.7q-28.87-33.63-28.87-33.79v-6.81l.1-.26a43.77,43.77,0,0,0,6,.36q16.18,0,20.12-10.49a8.47,8.47,0,0,0,.61-3.17H111.4a.18.18,0,0,1-.2-.2q4.86-7.06,5-7.06H139.4v-.1q-2-4-7.73-6.3a24.13,24.13,0,0,0-7.37-1.33h-13v-.26Q116,234.93,116.16,234.93Z" transform="translate(-0.43 -0.43)"/></g></svg>