<?xml version="1.0" encoding="UTF-8"?>
<svg width="222px" height="230px" viewBox="0 0 222 230" version="1.1" xmlns="http://www.w3.org/2000/svg" xmlns:xlink="http://www.w3.org/1999/xlink">
    <!-- Generator: Sketch 47.1 (45422) - http://www.bohemiancoding.com/sketch -->
    <title>PMS</title>
    <desc>Created with Sketch.</desc>
    <defs></defs>
    <g id="Welcome" stroke="none" stroke-width="1" fill="none" fill-rule="evenodd">
        <g id="What-We-Offer" transform="translate(-198.000000, -2444.000000)" fill-rule="nonzero" fill="#96CCFF">
            <g id="Group-13" transform="translate(198.000000, 2444.000000)">
                <g id="PMS">
                    <g id="Group">
                        <path d="M88.4330612,66.6640625 C90.2268353,66.6640625 92.1999867,66.484375 93.9937608,66.125 C109.778973,63.4296875 121.259127,49.7734375 121.259127,33.6015625 C121.259127,15.453125 106.550179,0.71875 88.4330612,0.71875 C70.3159432,0.71875 55.6069959,15.453125 55.6069959,33.6015625 C55.6069959,36.296875 55.9657507,38.8125 56.5038829,41.328125 C60.091431,56.421875 73.1859817,66.6640625 88.4330612,66.6640625 Z M88.4330612,3.59375 C105.11516,3.59375 118.568465,17.0703125 118.568465,33.78125 C118.568465,48.515625 107.985198,61.09375 93.635006,63.609375 C91.8412319,63.96875 90.2268353,63.96875 88.4330612,63.96875 C74.4416235,63.96875 62.4233373,54.4453125 59.194544,40.96875 C58.6564118,38.6328125 58.297657,36.296875 58.297657,33.78125 C58.1182796,17.0703125 71.7509624,3.59375 88.4330612,3.59375 Z" id="Shape"></path>
                        <path d="M88.4330612,37.734375 C88.6124386,37.734375 88.6124386,37.734375 88.791816,37.734375 L92.5587415,45.640625 C92.7381189,46.1796875 93.2762512,46.359375 93.8143834,46.359375 C93.9937608,46.359375 94.1731382,46.359375 94.3525156,46.1796875 C95.0700252,45.8203125 95.2494026,45.1015625 94.8906478,44.3828125 L91.1237223,36.65625 C91.3030997,36.4765625 91.3030997,36.4765625 91.4824771,36.296875 C91.4824771,36.1171875 91.6618545,36.1171875 91.8412319,35.9375 C92.0206093,35.7578125 92.0206093,35.578125 92.1999867,35.21875 C92.1999867,35.0390625 92.3793641,35.0390625 92.3793641,34.859375 C92.5587415,34.5 92.5587415,34.140625 92.5587415,33.78125 C92.5587415,33.6015625 92.5587415,33.6015625 92.5587415,33.421875 L108.164576,26.234375 C108.882085,25.875 109.061463,25.15625 108.882085,24.4375 C108.523331,23.71875 107.805821,23.5390625 107.088311,23.71875 L91.4824771,30.90625 C90.7649675,30.1875 89.688703,29.6484375 88.6124386,29.6484375 C86.4599097,29.6484375 84.6661357,31.4453125 84.6661357,33.6015625 C84.3073809,35.9375 86.1011549,37.734375 88.4330612,37.734375 Z" id="Shape"></path>
                        <path d="M88.4330612,12.3984375 C89.1505708,12.3984375 89.8680804,11.859375 89.8680804,10.9609375 L89.8680804,7.3671875 C89.8680804,6.6484375 89.3299482,5.9296875 88.4330612,5.9296875 C87.7155516,5.9296875 86.9980419,6.46875 86.9980419,7.3671875 L86.9980419,10.9609375 C86.9980419,11.859375 87.5361742,12.3984375 88.4330612,12.3984375 Z" id="Shape"></path>
                        <path d="M62.0645825,35.21875 L65.6521306,35.21875 C66.3696402,35.21875 67.0871499,34.6796875 67.0871499,33.78125 C67.0871499,33.0625 66.5490177,32.34375 65.6521306,32.34375 L62.0645825,32.34375 C61.3470729,32.34375 60.6295633,32.8828125 60.6295633,33.78125 C60.8089407,34.5 61.3470729,35.21875 62.0645825,35.21875 Z" id="Shape"></path>
                        <path d="M88.4330612,55.1640625 C87.7155516,55.1640625 86.9980419,55.703125 86.9980419,56.6015625 L86.9980419,60.1953125 C86.9980419,60.9140625 87.5361742,61.6328125 88.4330612,61.6328125 C89.1505708,61.6328125 89.8680804,61.09375 89.8680804,60.1953125 L89.8680804,56.6015625 C89.688703,55.8828125 89.1505708,55.1640625 88.4330612,55.1640625 Z" id="Shape"></path>
                        <path d="M111.034614,35.21875 L114.622162,35.21875 C115.339672,35.21875 116.057182,34.6796875 116.057182,33.78125 C116.057182,33.0625 115.51905,32.34375 114.622162,32.34375 L111.034614,32.34375 C110.317105,32.34375 109.599595,32.8828125 109.599595,33.78125 C109.778973,34.5 110.317105,35.21875 111.034614,35.21875 Z" id="Shape"></path>
                        <path d="M11.3007766,44.5625 C12.0182862,44.5625 12.7357958,44.0234375 12.7357958,43.125 L12.7357958,21.0234375 C12.7357958,20.3046875 12.1976636,19.5859375 11.3007766,19.5859375 C10.583267,19.5859375 9.86575733,20.125 9.86575733,21.0234375 L9.86575733,43.3046875 C10.0451347,44.0234375 10.583267,44.5625 11.3007766,44.5625 Z" id="Shape"></path>
                        <path d="M11.3007766,59.1171875 C12.0182862,59.1171875 12.7357958,58.578125 12.7357958,57.6796875 L12.7357958,50.4921875 C12.7357958,49.7734375 12.1976636,49.0546875 11.3007766,49.0546875 C10.583267,49.0546875 9.86575733,49.59375 9.86575733,50.4921875 L9.86575733,57.6796875 C10.0451347,58.578125 10.583267,59.1171875 11.3007766,59.1171875 Z" id="Shape"></path>
                        <path d="M194.445108,70.6171875 L191.57507,67.7421875 C191.036937,67.203125 190.14005,67.203125 189.601918,67.7421875 C189.063786,68.28125 189.063786,69.1796875 189.601918,69.71875 L192.471957,72.59375 C192.651334,72.7734375 193.010089,72.953125 193.368844,72.953125 C193.727599,72.953125 194.086353,72.7734375 194.265731,72.59375 C194.98324,71.875 194.98324,71.15625 194.445108,70.6171875 Z" id="Shape"></path>
                        <path d="M201.082072,77.0859375 C200.54394,76.546875 199.647053,76.546875 199.108921,77.0859375 C198.570789,77.625 198.570789,78.5234375 199.108921,79.0625 L201.978959,81.9375 C202.158337,82.1171875 202.517091,82.296875 202.875846,82.296875 C203.234601,82.296875 203.593356,82.1171875 203.772733,81.9375 C204.310866,81.3984375 204.310866,80.5 203.772733,79.9609375 L201.082072,77.0859375 Z" id="Shape"></path>
                        <path d="M192.651334,77.0859375 L189.781296,79.9609375 C189.243163,80.5 189.243163,81.3984375 189.781296,81.9375 C189.960673,82.1171875 190.319428,82.296875 190.678183,82.296875 C191.036937,82.296875 191.395692,82.1171875 191.57507,81.9375 L194.445108,79.0625 C194.98324,78.5234375 194.98324,77.625 194.445108,77.0859375 C193.906976,76.546875 193.189466,76.546875 192.651334,77.0859375 Z" id="Shape"></path>
                        <path d="M203.952111,67.7421875 C203.413978,67.203125 202.517091,67.203125 201.978959,67.7421875 L199.108921,70.6171875 C198.570789,71.15625 198.570789,72.0546875 199.108921,72.59375 C199.288298,72.7734375 199.647053,72.953125 200.005808,72.953125 C200.364563,72.953125 200.723317,72.7734375 200.902695,72.59375 L203.772733,69.71875 C204.490243,69 204.490243,68.28125 203.952111,67.7421875 Z" id="Shape"></path>
                        <path d="M41.4361808,131.710938 L38.5661423,128.835938 C38.0280101,128.296875 37.1311231,128.296875 36.5929908,128.835938 C36.0548586,129.375 36.0548586,130.273438 36.5929908,130.8125 L39.4630293,133.6875 C39.6424067,133.867188 40.0011616,134.046875 40.3599164,134.046875 C40.7186712,134.046875 41.077426,133.867188 41.2568034,133.6875 C41.974313,133.148438 41.974313,132.25 41.4361808,131.710938 Z" id="Shape"></path>
                        <path d="M45.920616,140.15625 L48.7906545,143.03125 C48.9700319,143.210937 49.3287867,143.390625 49.6875415,143.390625 C50.0462963,143.390625 50.4050511,143.210937 50.5844285,143.03125 C51.1225607,142.492187 51.1225607,141.59375 50.5844285,141.054687 L47.71439,138.179688 C47.1762578,137.640625 46.2793708,137.640625 45.7412386,138.179688 C45.3824837,138.71875 45.3824837,139.617187 45.920616,140.15625 Z" id="Shape"></path>
                        <path d="M39.4630293,138.179688 L36.5929908,141.054687 C36.0548586,141.59375 36.0548586,142.492187 36.5929908,143.03125 C36.7723682,143.210937 37.1311231,143.390625 37.4898779,143.390625 C37.8486327,143.390625 38.2073875,143.210937 38.3867649,143.03125 L41.2568034,140.15625 C41.7949356,139.617188 41.7949356,138.71875 41.2568034,138.179688 C40.8980486,137.640625 40.0011616,137.640625 39.4630293,138.179688 Z" id="Shape"></path>
                        <path d="M46.9968804,134.046875 C47.3556352,134.046875 47.71439,133.867188 47.8937674,133.6875 L50.7638059,130.8125 C51.3019381,130.273438 51.3019381,129.375 50.7638059,128.835938 C50.2256737,128.296875 49.3287867,128.296875 48.7906545,128.835938 L45.920616,131.710938 C45.3824837,132.25 45.3824837,133.148438 45.920616,133.6875 C46.2793708,133.867188 46.6381256,134.046875 46.9968804,134.046875 Z" id="Shape"></path>
                        <path d="M150.497644,35.21875 C153.726437,35.21875 156.237721,32.5234375 156.237721,29.46875 C156.237721,26.234375 153.54706,23.71875 150.497644,23.71875 C147.26885,23.71875 144.757567,26.4140625 144.757567,29.46875 C144.578189,32.703125 147.26885,35.21875 150.497644,35.21875 Z M150.497644,26.234375 C152.291418,26.234375 153.54706,27.671875 153.54706,29.2890625 C153.54706,31.0859375 152.11204,32.34375 150.497644,32.34375 C148.70387,32.34375 147.448228,30.90625 147.448228,29.2890625 C147.26885,27.671875 148.70387,26.234375 150.497644,26.234375 Z" id="Shape"></path>
                        <path d="M45.5618611,178.96875 C42.3330678,178.96875 39.8217841,181.664062 39.8217841,184.71875 C39.8217841,187.953125 42.5124452,190.46875 45.5618611,190.46875 C48.7906545,190.46875 51.3019381,187.773437 51.3019381,184.71875 C51.4813155,181.664062 48.7906545,178.96875 45.5618611,178.96875 Z M45.5618611,187.953125 C43.7680871,187.953125 42.5124452,186.515625 42.5124452,184.898437 C42.5124452,183.101562 43.9474645,181.84375 45.5618611,181.84375 C47.3556352,181.84375 48.611277,183.28125 48.611277,184.898437 C48.7906545,186.515625 47.3556352,187.953125 45.5618611,187.953125 Z" id="Shape"></path>
                        <path d="M177.763009,22.28125 L201.440827,22.28125 C202.158337,22.28125 202.875846,21.7421875 202.875846,20.84375 C202.875846,19.9453125 202.337714,19.40625 201.440827,19.40625 L177.763009,19.40625 C177.0455,19.40625 176.32799,19.9453125 176.32799,20.84375 C176.32799,21.7421875 177.0455,22.28125 177.763009,22.28125 Z" id="Shape"></path>
                        <path d="M209.333433,22.28125 L217.046661,22.28125 C217.764171,22.28125 218.481681,21.7421875 218.481681,20.84375 C218.481681,19.9453125 217.943548,19.40625 217.046661,19.40625 L209.333433,19.40625 C208.615923,19.40625 207.898414,19.9453125 207.898414,20.84375 C207.898414,21.7421875 208.615923,22.28125 209.333433,22.28125 Z" id="Shape"></path>
                        <path d="M218.302303,29.109375 C218.302303,28.390625 217.764171,27.671875 216.867284,27.671875 L200.364563,27.671875 C199.647053,27.671875 198.929543,28.2109375 198.929543,29.109375 C198.929543,29.828125 199.467676,30.546875 200.364563,30.546875 L216.867284,30.546875 C217.764171,30.546875 218.302303,29.828125 218.302303,29.109375 Z" id="Shape"></path>
                        <path d="M194.624486,29.109375 C194.624486,28.390625 194.086353,27.671875 193.189466,27.671875 L187.808144,27.671875 C187.090635,27.671875 186.373125,28.2109375 186.373125,29.109375 C186.373125,29.828125 186.911257,30.546875 187.808144,30.546875 L193.189466,30.546875 C194.086353,30.546875 194.624486,29.828125 194.624486,29.109375 Z" id="Shape"></path>
                        <path d="M41.6155582,214.726562 L17.9377406,214.726562 C17.220231,214.726562 16.5027214,215.265625 16.5027214,216.164062 C16.5027214,217.0625 17.0408536,217.601562 17.9377406,217.601562 L41.6155582,217.601562 C42.3330678,217.601562 43.0505775,217.0625 43.0505775,216.164062 C43.0505775,215.265625 42.3330678,214.726562 41.6155582,214.726562 Z" id="Shape"></path>
                        <path d="M10.0451347,214.726562 L2.33190628,214.726562 C1.61439665,214.726562 0.89688703,215.265625 0.89688703,216.164062 C0.89688703,217.0625 1.43501925,217.601562 2.33190628,217.601562 L10.0451347,217.601562 C10.7626444,217.601562 11.480154,217.0625 11.480154,216.164062 C11.480154,215.265625 10.7626444,214.726562 10.0451347,214.726562 Z" id="Shape"></path>
                        <path d="M2.33190628,209.15625 L18.8346276,209.15625 C19.5521373,209.15625 20.2696469,208.617188 20.2696469,207.71875 C20.2696469,207 19.7315147,206.28125 18.8346276,206.28125 L2.33190628,206.28125 C1.61439665,206.28125 0.89688703,206.820312 0.89688703,207.71875 C1.07626444,208.617187 1.61439665,209.15625 2.33190628,209.15625 Z" id="Shape"></path>
                        <path d="M31.3910461,209.15625 C32.1085557,209.15625 32.8260653,208.617188 32.8260653,207.71875 C32.8260653,207 32.2879331,206.28125 31.3910461,206.28125 L26.0097239,206.28125 C25.2922143,206.28125 24.5747046,206.820312 24.5747046,207.71875 C24.5747046,208.4375 25.1128369,209.15625 26.0097239,209.15625 L31.3910461,209.15625 Z" id="Shape"></path>
                        <path d="M63.4996018,90.3828125 L69.2396787,82.296875 C69.5984336,81.9375 69.5984336,81.3984375 69.4190562,80.859375 C69.2396787,80.5 68.7015465,80.140625 68.3427917,80.140625 L42.5124452,79.0625 L32.6466879,71.875 C28.5210076,68.8203125 22.6015532,69.8984375 19.5521373,74.03125 C18.117118,76.0078125 17.5789858,78.5234375 17.9377406,81.0390625 C18.2964954,83.5546875 19.7315147,85.7109375 21.7046661,87.1484375 L24.3953272,88.9453125 L6.09883181,115.71875 C3.22879331,116.078125 1.07626444,118.59375 1.07626444,121.46875 C1.07626444,124.34375 3.22879331,126.859375 6.09883181,127.21875 L23.4984402,152.734375 L17.0408536,152.734375 C14.5295699,152.734375 12.5564184,154.890625 12.5564184,157.40625 L12.5564184,161.898438 L6.63696402,161.898438 C5.9194544,161.898438 5.20194478,162.4375 5.20194478,163.335938 C5.20194478,164.054688 5.74007699,164.773438 6.63696402,164.773438 L13.9914377,164.773438 L38.3867649,164.773438 L45.7412386,164.773438 C46.4587482,164.773438 47.1762578,164.234375 47.1762578,163.335938 C47.1762578,162.617188 46.6381256,161.898438 45.7412386,161.898438 L39.8217841,161.898438 L39.8217841,157.40625 C39.8217841,154.890625 37.8486327,152.914063 35.337349,152.914063 L27.0859883,152.914063 L9.14824771,126.859375 C11.3007766,125.960938 12.7357958,123.984375 12.7357958,121.46875 C12.7357958,119.132812 11.3007766,116.976562 9.14824771,116.078125 L26.5478561,90.5625 L31.3910461,94.15625 L40.8980486,118.234375 C41.077426,118.773438 41.4361808,118.953125 41.974313,119.132812 C41.974313,119.132812 42.1536904,119.132812 42.1536904,119.132812 C42.5124452,119.132812 43.0505775,118.953125 43.2299549,118.59375 L48.9700319,110.507812 C50.2256737,111.046875 51.4813155,111.40625 52.9163348,111.40625 C53.8132218,111.40625 54.8894863,111.226562 55.9657507,111.046875 C58.8357892,110.148438 61.5264503,108.351562 63.3202243,105.65625 C67.2665273,100.445312 67.0871499,93.9765625 63.4996018,90.3828125 Z M36.9517457,157.40625 L36.9517457,161.898438 L15.2470795,161.898438 L15.2470795,157.40625 C15.2470795,156.328125 16.1439665,155.609375 17.0408536,155.609375 L35.1579716,155.609375 C36.0548586,155.429687 36.9517457,156.328125 36.9517457,157.40625 Z M6.81634143,124.703125 C5.02256737,124.703125 3.76692553,123.265625 3.76692553,121.648437 C3.76692553,120.03125 5.20194478,118.59375 6.81634143,118.59375 C6.81634143,118.59375 6.81634143,118.59375 6.81634143,118.59375 C6.81634143,118.59375 6.81634143,118.59375 6.81634143,118.59375 C8.43073809,118.59375 9.86575733,120.03125 9.86575733,121.648437 C10.0451347,123.265625 8.61011549,124.703125 6.81634143,124.703125 Z M42.5124452,115 L33.7229523,92.71875 C33.5435749,92.5390625 33.5435749,92.1796875 33.1848201,92.1796875 L23.1396854,84.9921875 C21.7046661,83.9140625 20.8077791,82.4765625 20.4490243,80.6796875 C20.0902695,78.8828125 20.6284017,77.0859375 21.5252887,75.6484375 C22.7809306,73.8515625 24.9334594,72.7734375 27.0859883,72.7734375 C28.3416302,72.7734375 29.7766494,73.1328125 31.0322913,74.03125 L41.077426,81.21875 C41.2568034,81.3984375 41.6155582,81.3984375 41.7949356,81.3984375 L65.6521306,82.65625 L60.6295633,89.84375 L60.6295633,89.84375 L60.6295633,89.84375 L47.71439,107.992188 C47.71439,107.992188 47.71439,107.992188 47.71439,107.992188 C47.71439,107.992188 47.71439,107.992188 47.71439,107.992188 L42.5124452,115 Z M61.3470729,104.039062 C59.7326762,106.195312 57.7595248,107.8125 55.4276185,108.351562 C53.8132218,108.890625 52.1988252,108.710937 50.7638059,108.171875 L61.8852051,92.5390625 C64.2171114,95.234375 64.037734,100.085937 61.3470729,104.039062 Z" id="Shape"></path>
                        <path d="M146.910096,66.84375 C146.192586,66.84375 145.475076,67.3828125 145.475076,68.28125 C145.475076,69 146.013209,69.71875 146.910096,69.71875 L150.677021,69.71875 C151.394531,69.71875 152.11204,69.1796875 152.11204,68.28125 C152.11204,67.5625 151.573908,66.84375 150.677021,66.84375 L146.910096,66.84375 Z" id="Shape"></path>
                        <path d="M216.149774,124.34375 L183.682464,124.34375 L176.686745,106.375 C175.789858,104.039063 173.637329,102.601563 171.126045,102.601563 L163.412817,102.601563 L163.412817,99.546875 C163.412817,99.1875 164.130327,90.203125 163.054062,85.890625 C162.157175,82.1171875 161.080911,80.140625 160.004646,78.5234375 C159.825269,78.1640625 159.645891,77.8046875 159.287137,77.4453125 C158.569627,76.1875 158.39025,74.03125 158.39025,73.3125 C158.39025,73.3125 158.39025,73.3125 158.39025,73.3125 C159.107759,72.4140625 159.287137,71.515625 159.287137,70.2578125 C159.107759,66.125 158.928382,61.9921875 158.928382,57.859375 C158.928382,57.140625 158.39025,56.421875 157.493363,56.421875 C157.493363,56.421875 157.493363,56.421875 157.493363,56.421875 C156.775853,56.421875 156.058343,56.9609375 156.058343,57.859375 C156.058343,61.9921875 156.237721,66.3046875 156.417098,70.4375 C156.417098,70.9765625 156.237721,71.3359375 156.058343,71.6953125 C156.237721,71.875 155.878966,71.875 155.699588,71.875 L132.73928,71.875 C132.559903,71.875 132.201148,71.6953125 132.021771,71.515625 C131.663016,71.15625 131.663016,70.796875 131.663016,70.2578125 C131.842393,67.3828125 132.021771,64.5078125 132.021771,61.6328125 C132.021771,60.9140625 131.483639,60.1953125 130.766129,60.1953125 C130.048619,60.1953125 129.33111,60.734375 129.33111,61.453125 C129.33111,64.328125 129.151732,67.203125 128.972355,70.078125 C128.972355,71.3359375 129.33111,72.59375 130.048619,73.3125 C130.227997,73.4921875 130.227997,73.4921875 130.407374,73.671875 L130.407374,75.6484375 C130.407374,77.625 129.510487,79.6015625 127.716713,80.6796875 C124.846675,82.65625 123.052901,85.890625 122.873523,89.3046875 C122.873523,89.3046875 122.873523,89.484375 122.873523,89.484375 L122.873523,102.421875 L115.339672,102.421875 C112.828388,102.421875 110.67586,104.039063 109.778973,106.195313 L102.603876,124.164063 L70.3159432,124.164063 C67.4459047,124.164063 65.1139984,126.5 65.1139984,129.375 L65.1139984,223.890625 C65.1139984,226.765625 67.4459047,229.101563 70.3159432,229.101563 L216.149774,229.101563 C219.019813,229.101563 221.351719,226.765625 221.351719,223.890625 L221.351719,129.554688 C221.351719,126.679688 219.019813,124.34375 216.149774,124.34375 Z M218.661058,187.054688 L179.377406,226.40625 L107.985198,226.40625 L68.3427917,186.695313 C68.1634143,186.515625 68.1634143,186.515625 67.9840369,186.335938 L67.9840369,142.3125 C76.414775,161.71875 103.859518,176.453125 137.58247,177.890625 L137.58247,180.226563 L135.968074,180.226563 C135.250564,180.226563 134.533055,180.765625 134.533055,181.664063 L134.533055,188.3125 C134.533055,189.03125 135.071187,189.75 135.968074,189.75 L137.58247,189.75 L137.58247,215.445313 C137.58247,218.5 140.093754,221.015625 143.14317,221.015625 C146.192586,221.015625 148.70387,218.5 148.70387,215.445313 L148.70387,189.75 L150.318266,189.75 C151.035776,189.75 151.753286,189.210938 151.753286,188.3125 L151.753286,181.484375 C151.753286,180.765625 151.215153,180.046875 150.318266,180.046875 L148.883247,180.046875 L148.883247,177.890625 C182.606199,176.453125 210.23032,161.71875 218.661058,142.3125 L218.661058,187.054688 Z M140.273132,189.570313 L146.013209,189.570313 L146.013209,215.265625 C146.013209,216.882813 144.757567,218.140625 143.14317,218.140625 C141.528773,218.140625 140.273132,216.882812 140.273132,215.265625 L140.273132,189.570313 L140.273132,189.570313 Z M147.448228,186.695313 L139.01749,186.695313 L137.403093,186.695313 L137.403093,182.742188 L139.01749,182.742188 L147.448228,182.742188 L149.062624,182.742188 L149.062624,186.695313 L147.448228,186.695313 Z M146.192586,180.226563 L140.452509,180.226563 L140.452509,159.203125 L146.192586,159.203125 L146.192586,180.226563 Z M174.175461,107.273438 L180.812425,124.34375 L170.946668,124.34375 L170.946668,112.484375 C170.946668,110.328125 168.794139,108.53125 166.282855,108.53125 L163.23344,108.53125 L163.23344,105.117188 L170.946668,105.117188 C172.381687,105.117188 173.637329,106.015625 174.175461,107.273438 Z M135.609319,119.492188 C136.506206,119.492188 137.403093,119.3125 138.120603,118.773438 C138.658735,120.929688 140.631886,122.546875 143.14317,122.546875 C144.578189,122.546875 145.833831,122.007813 146.730718,121.109375 C147.26885,120.570313 147.627605,119.851563 147.98636,119.132813 C148.165737,119.132813 148.345115,119.3125 148.345115,119.3125 C149.062624,119.671875 149.780134,119.851563 150.677021,119.851563 C151.753286,119.851563 152.82955,119.492188 153.54706,118.953125 C153.726437,118.773438 154.085192,118.59375 154.264569,118.414063 C154.443947,118.234375 154.623324,117.875 154.802701,117.695313 C154.802701,117.695313 154.982079,117.515625 154.982079,117.515625 C155.161456,117.335938 155.161456,117.15625 155.340834,116.976563 C155.340834,116.976563 155.340834,116.796875 155.520211,116.796875 C155.699588,116.4375 155.699588,116.257813 155.699588,115.898438 C155.699588,115.898438 155.699588,115.898438 155.699588,115.898438 C157.493363,116.976563 160.184024,116.617188 161.79842,115 C162.695307,114.101563 163.23344,112.664063 163.23344,111.40625 L163.23344,111.226563 L166.282855,111.226563 C167.35912,111.226563 168.256007,111.945313 168.256007,112.484375 L168.256007,124.34375 L118.030333,124.34375 L118.030333,112.484375 C118.030333,111.945313 118.747843,111.226563 120.003485,111.226563 L130.407374,111.226563 L130.407374,114.28125 C130.407374,117.15625 132.73928,119.492188 135.609319,119.492188 Z M129.33111,83.015625 C131.663016,81.3984375 133.098035,78.703125 133.098035,75.828125 L133.098035,74.75 L155.699588,74.75 C155.699588,74.75 155.878966,74.75 155.878966,74.75 C156.058343,75.828125 156.237721,77.625 156.95523,78.8828125 C157.134608,79.2421875 157.313985,79.6015625 157.67274,80.140625 C158.569627,81.7578125 159.645891,83.375 160.363401,86.7890625 C161.260288,90.5625 160.542778,99.546875 160.542778,99.7265625 L160.542778,104.21875 C160.542778,104.21875 160.542778,104.21875 160.542778,104.21875 L160.542778,110.328125 L160.542778,111.40625 C160.542778,112.304688 160.184024,112.84375 159.825269,113.203125 C159.287137,113.742188 158.749004,113.921875 158.031495,113.921875 C156.775853,113.921875 155.699588,112.84375 155.699588,111.585938 L155.699588,104.039063 L155.699588,101.882813 L155.699588,99.546875 C155.699588,98.828125 155.161456,98.109375 154.264569,98.109375 C153.54706,98.109375 152.82955,98.6484375 152.82955,99.546875 L152.82955,101.882813 L152.82955,104.039063 L152.82955,111.40625 L152.82955,114.820313 C152.82955,115.539063 152.650173,116.078125 152.11204,116.617188 C151.753286,116.976563 151.215153,117.335938 150.318266,117.335938 C149.062624,117.335938 147.98636,116.257813 147.98636,114.820313 L147.98636,103.859375 L147.98636,101.703125 C147.98636,100.984375 147.448228,100.265625 146.551341,100.265625 C145.833831,100.265625 145.116322,100.804688 145.116322,101.703125 L145.116322,103.859375 L145.116322,114.820313 L145.116322,117.515625 C145.116322,118.234375 144.936944,118.773438 144.398812,119.3125 C143.86068,119.851563 143.322547,120.03125 142.605038,120.03125 C141.349396,120.03125 140.273132,118.953125 140.273132,117.695313 L140.273132,115 L140.273132,114.640625 L140.273132,101.523438 C140.273132,100.804688 139.734999,100.085938 138.838112,100.085938 C138.120603,100.085938 137.403093,100.625 137.403093,101.523438 L137.403093,114.640625 C137.403093,115.359375 137.223716,115.898438 136.685583,116.4375 C136.326829,116.796875 135.609319,117.15625 135.071187,117.15625 C133.815545,117.15625 132.73928,116.078125 132.73928,114.820313 L132.73928,110.328125 L132.73928,104.21875 L132.73928,104.039063 L132.73928,101.703125 L132.73928,95.0546875 C132.73928,94.3359375 132.201148,93.6171875 131.304261,93.6171875 C130.586752,93.6171875 129.869242,94.15625 129.869242,95.0546875 L129.869242,101.703125 C129.869242,101.703125 129.869242,101.703125 129.869242,101.703125 L129.869242,102.421875 L125.564184,102.421875 L125.564184,90.203125 C125.564184,87.328125 126.999204,84.6328125 129.33111,83.015625 Z M112.290256,107.273438 C112.828388,106.015625 114.08403,105.117188 115.339672,105.117188 L123.949788,105.117188 C124.129165,105.117188 124.129165,105.117188 124.308542,105.117188 C124.48792,105.117188 124.48792,105.117188 124.667297,105.117188 C124.667297,105.117188 124.667297,105.117188 124.667297,105.117188 L130.407374,105.117188 L130.407374,108.53125 L120.003485,108.53125 C117.492201,108.53125 115.339672,110.328125 115.339672,112.484375 L115.339672,124.34375 L105.473915,124.34375 L112.290256,107.273438 Z M70.3159432,127.039063 L103.680141,127.039063 L116.774691,127.039063 L169.691026,127.039063 L182.785577,127.039063 L216.149774,127.039063 C217.584794,127.039063 218.661058,128.117188 218.661058,129.554688 L218.661058,129.914063 C218.661058,129.914063 218.661058,129.914063 218.661058,129.914063 C218.661058,153.8125 188.166899,173.578125 148.883247,175.375 L148.883247,159.382813 L153.008927,159.382813 C153.726437,159.382813 154.443947,158.84375 154.443947,157.945313 C154.443947,157.226563 153.905814,156.507813 153.008927,156.507813 L147.448228,156.507813 L139.01749,156.507813 L133.45679,156.507813 C132.73928,156.507813 132.021771,157.046875 132.021771,157.945313 C132.021771,158.664063 132.559903,159.382813 133.45679,159.382813 L137.58247,159.382813 L137.58247,175.375 C98.2988185,173.578125 67.8046595,153.8125 67.8046595,129.914063 C67.8046595,129.914063 67.8046595,129.914063 67.8046595,129.914063 L67.8046595,129.554688 C67.8046595,128.117188 69.0603013,127.039063 70.3159432,127.039063 Z M67.8046595,223.890625 L67.8046595,190.109375 L104.038896,226.40625 L70.3159432,226.40625 C69.0603013,226.40625 67.8046595,225.328125 67.8046595,223.890625 Z M216.149774,226.40625 L183.144332,226.40625 L218.661058,190.828125 L218.661058,223.890625 C218.661058,225.328125 217.584794,226.40625 216.149774,226.40625 Z" id="Shape"></path>
                    </g>
                </g>
            </g>
        </g>
    </g>
</svg>