<?xml version="1.0" encoding="UTF-8"?>
<svg width="240px" height="230px" viewBox="0 0 240 230" version="1.1" xmlns="http://www.w3.org/2000/svg" xmlns:xlink="http://www.w3.org/1999/xlink">
    <!-- Generator: Sketch 47.1 (45422) - http://www.bohemiancoding.com/sketch -->
    <title>Public Offer</title>
    <desc>Created with Sketch.</desc>
    <defs></defs>
    <g id="Welcome" stroke="none" stroke-width="1" fill="none" fill-rule="evenodd">
        <g id="What-We-Offer" transform="translate(-853.000000, -2148.000000)" fill-rule="nonzero" fill="#96CCFF">
            <g id="Group-12" transform="translate(193.000000, 2148.000000)">
                <g id="Public-Offer" transform="translate(660.000000, 0.000000)">
                    <g id="Group">
                        <path d="M7.25639014,74.9165374 C7.25639014,74.165131 6.6898452,73.4137246 5.74560362,73.4137246 C4.80136204,73.4137246 4.2348171,73.9772794 4.2348171,74.9165374 L4.2348171,98.2101361 C4.2348171,98.9615425 4.80136204,99.7129489 5.74560362,99.7129489 C6.6898452,99.7129489 7.25639014,99.1493941 7.25639014,98.2101361 L7.25639014,74.9165374 Z" id="Shape"></path>
                        <path d="M5.93445194,107.602716 C5.17905867,107.602716 4.42366541,108.166271 4.42366541,109.105529 L4.42366541,117.371 C4.42366541,118.122406 4.99021036,118.873812 5.93445194,118.873812 C6.87869351,118.873812 7.44523846,118.310258 7.44523846,117.371 L7.44523846,109.105529 C7.25639014,108.166271 6.6898452,107.602716 5.93445194,107.602716 Z" id="Shape"></path>
                        <path d="M160.412374,169.969448 C160.412374,173.538629 163.433947,176.544254 167.022065,176.544254 C170.610183,176.544254 173.631756,173.538629 173.631756,169.969448 C173.631756,166.400268 170.610183,163.394642 167.022065,163.394642 C163.245099,163.394642 160.412374,166.400268 160.412374,169.969448 Z M170.799031,169.969448 C170.799031,172.035816 169.099396,173.72648 167.022065,173.72648 C164.944734,173.72648 163.245099,172.035816 163.245099,169.969448 C163.245099,167.903081 164.944734,166.212416 167.022065,166.212416 C169.099396,166.212416 170.799031,167.903081 170.799031,169.969448 Z" id="Shape"></path>
                        <path d="M92.9935254,216.556646 C89.4054074,216.556646 86.3838343,219.562271 86.3838343,223.131452 C86.3838343,226.700632 89.4054074,229.706258 92.9935254,229.706258 C96.5816433,229.706258 99.6032164,226.700632 99.6032164,223.131452 C99.6032164,219.562271 96.5816433,216.556646 92.9935254,216.556646 Z M92.9935254,227.076336 C90.9161939,227.076336 89.216559,225.385671 89.216559,223.319303 C89.216559,221.252936 90.9161939,219.562271 92.9935254,219.562271 C95.0708568,219.562271 96.7704917,221.252936 96.7704917,223.319303 C96.7704917,225.385671 95.0708568,227.076336 92.9935254,227.076336 Z" id="Shape"></path>
                        <path d="M140.583301,19.5003146 C144.171419,19.5003146 147.192992,16.494689 147.192992,12.9255085 C147.192992,9.35632807 144.171419,6.35070243 140.583301,6.35070243 C136.995183,6.35070243 133.97361,9.35632807 133.97361,12.9255085 C133.97361,16.494689 136.806335,19.5003146 140.583301,19.5003146 Z M140.583301,9.16847647 C142.660632,9.16847647 144.360267,10.8591409 144.360267,12.9255085 C144.360267,14.9918761 142.660632,16.6825406 140.583301,16.6825406 C138.505969,16.6825406 136.806335,14.9918761 136.806335,12.9255085 C136.806335,10.8591409 138.505969,9.16847647 140.583301,9.16847647 Z" id="Shape"></path>
                        <path d="M221.976925,92.7624396 C221.976925,92.0110332 221.41038,91.2596268 220.466138,91.2596268 L193.271981,91.2596268 C192.516588,91.2596268 191.761194,91.8231816 191.761194,92.7624396 C191.761194,93.7016977 192.327739,94.2652525 193.271981,94.2652525 L220.466138,94.2652525 C221.41038,94.2652525 221.976925,93.5138461 221.976925,92.7624396 Z" id="Shape"></path>
                        <path d="M229.530857,91.4474784 C228.775464,91.4474784 228.020071,92.0110332 228.020071,92.9502913 C228.020071,93.8895493 228.586616,94.4531041 229.530857,94.4531041 L238.406728,94.4531041 C239.162122,94.4531041 239.917515,93.8895493 239.917515,92.9502913 C239.917515,92.0110332 239.35097,91.4474784 238.406728,91.4474784 L229.530857,91.4474784 Z" id="Shape"></path>
                        <path d="M238.21788,100.652207 L219.1442,100.652207 C218.388807,100.652207 217.633414,101.215762 217.633414,102.15502 C217.633414,102.906426 218.199958,103.657833 219.1442,103.657833 L238.21788,103.657833 C238.973273,103.657833 239.728666,103.094278 239.728666,102.15502 C239.728666,101.403613 239.162122,100.652207 238.21788,100.652207 Z" id="Shape"></path>
                        <path d="M204.980576,100.652207 C204.225183,100.652207 203.46979,101.215762 203.46979,102.15502 C203.46979,102.906426 204.036335,103.657833 204.980576,103.657833 L211.212571,103.657833 C211.967964,103.657833 212.723357,103.094278 212.723357,102.15502 C212.723357,101.403613 212.156812,100.652207 211.212571,100.652207 L204.980576,100.652207 Z" id="Shape"></path>
                        <path d="M51.8245926,224.446413 L24.6304352,224.446413 C23.8750419,224.446413 23.1196486,225.009968 23.1196486,225.949226 C23.1196486,226.700632 23.6861936,227.452039 24.6304352,227.452039 L51.8245926,227.452039 C52.5799858,227.452039 53.3353791,226.888484 53.3353791,225.949226 C53.3353791,225.19782 52.5799858,224.446413 51.8245926,224.446413 Z" id="Shape"></path>
                        <path d="M15.565716,224.446413 L6.87869351,224.446413 C6.12330025,224.446413 5.36790699,225.009968 5.36790699,225.949226 C5.36790699,226.700632 5.93445194,227.452039 6.87869351,227.452039 L15.7545643,227.452039 C16.5099576,227.452039 17.2653509,226.888484 17.2653509,225.949226 C17.0765025,225.19782 16.5099576,224.446413 15.565716,224.446413 Z" id="Shape"></path>
                        <path d="M6.87869351,218.059459 L25.9523734,218.059459 C26.7077666,218.059459 27.4631599,217.495904 27.4631599,216.556646 C27.4631599,215.805239 26.8966149,215.053833 25.9523734,215.053833 L6.87869351,215.053833 C6.12330025,215.053833 5.36790699,215.617388 5.36790699,216.556646 C5.36790699,217.495904 6.12330025,218.059459 6.87869351,218.059459 Z" id="Shape"></path>
                        <path d="M40.115997,218.059459 C40.8713903,218.059459 41.6267836,217.495904 41.6267836,216.556646 C41.6267836,215.805239 41.0602386,215.053833 40.115997,215.053833 L33.8840026,215.053833 C33.1286094,215.053833 32.3732161,215.617388 32.3732161,216.556646 C32.3732161,217.308052 32.939761,218.059459 33.8840026,218.059459 L40.115997,218.059459 Z" id="Shape"></path>
                        <path d="M114.89993,180.301286 C114.333385,179.737732 113.389143,179.737732 112.822598,180.301286 C112.256054,180.864841 112.256054,181.804099 112.822598,182.367654 L115.655323,185.185428 C115.844172,185.37328 116.221868,185.561131 116.599565,185.561131 C116.977261,185.561131 117.354958,185.37328 117.543806,185.185428 C118.110351,184.621873 118.110351,183.682615 117.543806,183.119061 L114.89993,180.301286 Z" id="Shape"></path>
                        <path d="M126.986222,194.202305 C127.552767,193.63875 127.552767,192.699492 126.986222,192.135937 L124.153497,189.318163 C123.586952,188.754609 122.642711,188.754609 122.076166,189.318163 C121.509621,189.881718 121.509621,190.820976 122.076166,191.384531 L124.908891,194.202305 C125.097739,194.390157 125.475436,194.578008 125.853132,194.578008 C126.230829,194.578008 126.608526,194.390157 126.986222,194.202305 Z" id="Shape"></path>
                        <path d="M115.844172,189.318163 L113.011447,192.135937 C112.444902,192.699492 112.444902,193.63875 113.011447,194.202305 C113.200295,194.390157 113.577992,194.578008 113.955688,194.578008 C114.333385,194.578008 114.711082,194.390157 114.89993,194.202305 L117.732655,191.384531 C118.2992,190.820976 118.2992,189.881718 117.732655,189.318163 C117.16611,188.754609 116.410716,188.754609 115.844172,189.318163 Z" id="Shape"></path>
                        <path d="M124.908891,180.301286 L122.076166,183.119061 C121.509621,183.682615 121.509621,184.621873 122.076166,185.185428 C122.265014,185.37328 122.642711,185.561131 123.020408,185.561131 C123.398104,185.561131 123.775801,185.37328 123.964649,185.185428 L126.797374,182.367654 C127.363919,181.804099 127.363919,180.864841 126.797374,180.301286 C126.419677,179.737732 125.475436,179.737732 124.908891,180.301286 Z" id="Shape"></path>
                        <path d="M144.360267,31.147114 C143.793722,31.7106688 143.793722,32.6499268 144.360267,33.2134816 L147.192992,36.0312556 C147.38184,36.2191072 147.759537,36.4069589 148.137233,36.4069589 C148.51493,36.4069589 148.892627,36.2191072 149.081475,36.0312556 C149.64802,35.4677008 149.64802,34.5284428 149.081475,33.964888 L146.24875,31.147114 C145.871054,30.5835592 144.926812,30.5835592 144.360267,31.147114 Z" id="Shape"></path>
                        <path d="M156.257711,45.0481326 C156.446559,45.2359842 156.824256,45.4238358 157.201953,45.4238358 C157.579649,45.4238358 157.957346,45.2359842 158.146194,45.0481326 C158.712739,44.4845778 158.712739,43.5453198 158.146194,42.9817649 L155.313469,40.1639909 C154.746925,39.6004361 153.802683,39.6004361 153.236138,40.1639909 C152.669593,40.7275457 152.669593,41.6668037 153.236138,42.2303585 L156.257711,45.0481326 Z" id="Shape"></path>
                        <path d="M147.192992,40.1639909 L144.360267,42.9817649 C143.793722,43.5453198 143.793722,44.4845778 144.360267,45.0481326 C144.549115,45.2359842 144.926812,45.4238358 145.304509,45.4238358 C145.682205,45.4238358 146.059902,45.2359842 146.24875,45.0481326 L149.081475,42.2303585 C149.64802,41.6668037 149.64802,40.7275457 149.081475,40.1639909 C148.703778,39.6004361 147.759537,39.6004361 147.192992,40.1639909 Z" id="Shape"></path>
                        <path d="M154.558076,36.4069589 C154.935773,36.4069589 155.313469,36.2191072 155.502318,36.0312556 L158.335042,33.2134816 C158.901587,32.6499268 158.901587,31.7106688 158.335042,31.147114 C157.768498,30.5835592 156.824256,30.5835592 156.257711,31.147114 L153.424986,33.964888 C152.858441,34.5284428 152.858441,35.4677008 153.424986,36.0312556 C153.802683,36.2191072 154.18038,36.4069589 154.558076,36.4069589 Z" id="Shape"></path>
                        <path d="M34.0728509,5.59929602 C34.2616993,5.78714762 34.6393959,5.97499922 35.0170925,5.97499922 C35.3947891,5.97499922 35.7724858,5.78714762 35.9613341,5.59929602 C36.527879,5.03574121 36.527879,4.09648319 35.9613341,3.53292839 L33.1286094,0.715154347 C32.5620644,0.151599539 31.6178228,0.151599539 31.0512779,0.715154347 C30.4847329,1.27870915 30.4847329,2.21796717 31.0512779,2.78152198 L34.0728509,5.59929602 Z" id="Shape"></path>
                        <path d="M43.3264184,14.6161729 C43.5152667,14.8040245 43.8929633,14.9918761 44.27066,14.9918761 C44.6483566,14.9918761 45.0260532,14.8040245 45.2149015,14.6161729 C45.7814465,14.0526181 45.7814465,13.1133601 45.2149015,12.5498053 L42.3821768,9.91988288 C41.8156319,9.35632807 40.8713903,9.35632807 40.3048453,9.91988288 C39.7383004,10.4834377 39.7383004,11.4226957 40.3048453,11.9862505 L43.3264184,14.6161729 Z" id="Shape"></path>
                        <path d="M32.3732161,14.9918761 C32.7509127,14.9918761 33.1286094,14.8040245 33.3174577,14.6161729 L36.1501824,11.7983989 C36.7167274,11.2348441 36.7167274,10.4834377 36.1501824,9.91988288 C35.5836375,9.35632807 34.6393959,9.35632807 34.0728509,9.91988288 L31.2401262,12.7376569 C30.6735813,13.3012117 30.6735813,14.2404697 31.2401262,14.8040245 C31.6178228,14.9918761 31.9955195,14.9918761 32.3732161,14.9918761 Z" id="Shape"></path>
                        <path d="M41.4379352,5.97499922 C41.8156319,5.97499922 42.1933285,5.78714762 42.3821768,5.59929602 L45.2149015,2.78152198 C45.7814465,2.21796717 45.7814465,1.27870915 45.2149015,0.715154347 C44.6483566,0.151599539 43.704115,0.151599539 43.1375701,0.715154347 L40.4936937,3.53292839 C39.9271487,4.09648319 39.9271487,5.03574121 40.4936937,5.59929602 C40.682542,5.78714762 41.0602386,5.97499922 41.4379352,5.97499922 Z" id="Shape"></path>
                        <path d="M89.4054074,200.025705 C89.4054074,198.33504 88.8388624,196.832228 87.8946208,195.517266 C89.5942557,195.329415 91.1050422,194.578008 92.4269804,193.450899 C93.7489186,192.135937 94.6931602,190.257421 94.6931602,188.191054 C94.6931602,186.500389 94.1266152,184.809725 92.9935254,183.494764 C94.6931602,183.306912 96.2039467,182.555506 97.5258849,181.428396 C98.8478231,180.113435 99.7920647,178.234919 99.7920647,176.168551 C99.7920647,172.035816 96.5816433,168.842339 92.4269804,168.654487 C93.5600703,167.339526 94.1266152,165.836713 94.1266152,164.146049 C94.1266152,160.013313 90.7273456,156.631985 86.7615309,156.631985 L75.8083286,156.631985 C76.9414185,155.317023 77.5079635,153.814211 77.5079635,152.123546 C77.5079635,148.930069 75.6194803,146.300146 72.7867556,145.173037 L72.7867556,126.200025 L82.0403231,126.200025 L129.818947,151.37214 L131.140885,152.123546 C132.84052,153.062804 134.729003,153.438507 136.617486,153.438507 L146.437599,153.438507 C146.815295,153.438507 147.192992,153.250656 147.38184,153.062804 C147.570689,152.874952 147.759537,152.499249 147.759537,152.123546 L147.759537,150.057178 C147.759537,149.869327 147.759537,149.681475 147.570689,149.305772 C143.038329,141.416005 140.394453,123.945806 140.583301,105.160645 C140.772149,87.1268916 143.416026,70.5959505 147.570689,62.1426284 C147.570689,61.9547768 147.759537,61.7669252 147.759537,61.5790736 L147.759537,60.6398156 C147.759537,60.2641124 147.570689,59.8884092 147.38184,59.7005576 C147.192992,59.512706 146.815295,59.3248544 146.437599,59.3248544 L136.995183,59.3248544 C135.1067,59.3248544 133.218217,59.7005576 131.518582,60.6398156 L81.6626264,85.8119303 L41.4379352,85.6240787 C41.4379352,85.6240787 41.4379352,85.6240787 41.2490869,85.6240787 C30.1070363,85.6240787 21.0423172,94.6409557 20.8534689,105.912052 C20.8534689,116.995296 29.918188,126.200025 41.0602386,126.200025 L50.6915027,126.200025 L50.6915027,144.797334 C45.7814465,145.360888 41.2490869,147.990811 38.4163622,152.123546 C36.3390307,154.94132 33.1286094,156.631985 29.7293397,156.631985 C29.7293397,156.631985 29.7293397,156.631985 29.7293397,156.631985 L26.33007,156.631985 C26.1412217,156.444133 25.9523734,156.06843 25.5746767,155.880578 C24.4415868,154.753469 22.741952,154.189914 20.8534689,154.377765 C16.6988059,154.565617 12.1664463,154.753469 7.63408677,154.753469 C6.87869351,154.753469 6.31214857,155.317023 6.31214857,156.256281 C6.31214857,157.007688 7.06754183,157.571243 7.82293509,157.571243 C12.3552947,157.571243 17.0765025,157.383391 21.6088621,157.007688 C22.5531037,157.007688 23.4973453,157.195539 24.2527385,157.759094 C24.6304352,158.134797 25.0081318,158.510501 25.0081318,159.449759 L25.0081318,195.89297 C25.0081318,196.644376 24.6304352,197.207931 24.2527385,197.583634 C23.6861936,198.147189 22.741952,198.522892 21.6088621,198.33504 C14.8103228,197.959337 8.20063172,197.771486 1.59094068,197.771486 C0.835547418,197.771486 0.0801541564,198.33504 0.0801541564,199.274298 C0.0801541564,200.025705 0.646699103,200.777111 1.59094068,200.777111 C1.59094068,200.777111 1.59094068,200.777111 1.59094068,200.777111 C8.20063172,200.777111 14.8103228,200.964963 21.4200138,201.340666 C21.6088621,201.340666 21.7977104,201.340666 21.7977104,201.340666 C23.308497,201.340666 24.8192835,200.777111 25.9523734,199.837853 C26.1412217,199.837853 26.1412217,199.837853 26.33007,199.837853 C26.33007,199.837853 30.6735813,200.025705 33.3174577,201.340666 C33.8840026,201.716369 34.4505476,201.904221 35.0170925,202.279924 C37.6609689,203.782737 40.682542,205.661253 46.5368398,206.976214 C48.9918679,207.539769 54.6573173,207.72762 60.7004634,207.72762 C70.5205758,207.72762 81.4737781,207.164066 82.0403231,207.164066 C82.0403231,207.164066 82.0403231,207.164066 82.0403231,207.164066 C84.1176545,207.164066 85.8172894,206.412659 87.3280759,204.909846 C88.6500141,203.782737 89.4054074,201.904221 89.4054074,200.025705 Z M23.8750419,105.7242 C23.8750419,96.1437685 31.8066712,88.2540012 41.4379352,88.2540012 C41.4379352,88.2540012 41.4379352,88.2540012 41.4379352,88.2540012 L82.0403231,88.6297044 C82.2291714,88.6297044 82.4180197,88.6297044 82.606868,88.4418528 L130.763188,63.8332928 L132.462823,62.8940348 C133.784761,62.1426284 135.295548,61.9547768 136.617486,61.9547768 L144.360267,61.9547768 C140.394453,70.9716537 137.939424,87.3147432 137.750576,105.160645 C137.561728,124.50936 140.205604,141.791708 144.737964,150.620733 L144.737964,150.808585 L136.428638,150.808585 C134.917851,150.808585 133.407065,150.432882 132.273975,149.681475 L82.606868,123.570102 C82.4180197,123.382251 82.2291714,123.382251 82.0403231,123.382251 L71.2759691,123.382251 C71.2759691,123.382251 71.0871208,123.382251 71.0871208,123.382251 L52.7688342,123.382251 L52.7688342,123.382251 C52.7688342,123.382251 52.7688342,123.382251 52.7688342,123.382251 L41.8156319,123.382251 C31.8066712,123.194399 23.8750419,115.304632 23.8750419,105.7242 Z M69.3874859,126.200025 L69.3874859,144.609482 L53.9019241,144.609482 L53.9019241,126.200025 L69.3874859,126.200025 Z M85.0618961,203.219182 C84.1176545,204.15844 82.9845646,204.534143 81.6626264,204.534143 L81.6626264,204.534143 C81.2849298,204.534143 52.9576825,205.849104 46.7256881,204.346292 C41.2490869,203.03133 38.6052105,201.528518 35.9613341,200.025705 C35.3947891,199.650002 34.8282442,199.274298 34.2616993,199.086447 C31.9955195,197.771486 28.9739464,197.395782 27.2743116,197.207931 C27.2743116,196.832228 27.4631599,196.456524 27.4631599,196.080821 L27.4631599,159.63761 C27.4631599,159.63761 27.4631599,159.63761 27.4631599,159.63761 L29.918188,159.63761 C29.918188,159.63761 29.918188,159.63761 29.918188,159.63761 C34.2616993,159.63761 38.4163622,157.571243 40.8713903,154.002062 C43.704115,150.057178 48.2364746,147.615108 52.9576825,147.615108 C52.9576825,147.615108 52.9576825,147.615108 52.9576825,147.615108 L68.820941,147.615108 C68.820941,147.615108 68.820941,147.615108 68.820941,147.615108 L68.820941,147.615108 L69.1986376,147.615108 C71.6536657,147.615108 73.7309972,149.681475 73.7309972,152.311398 C73.7309972,153.626359 73.1644522,154.753469 72.409059,155.504875 C71.4648174,156.444133 70.3317275,156.819836 69.1986376,156.819836 C69.1986376,156.819836 69.1986376,156.819836 69.1986376,156.819836 L59.9450702,156.819836 C59.9450702,156.819836 59.9450702,156.819836 59.9450702,156.819836 C59.1896769,156.819836 58.4342836,157.383391 58.4342836,158.322649 C58.4342836,159.074055 59.0008286,159.825462 59.9450702,159.825462 L69.1986376,159.825462 C69.1986376,159.825462 69.1986376,159.825462 69.1986376,159.825462 C69.5763342,159.825462 69.7651826,159.825462 70.1428792,159.825462 C70.3317275,159.825462 70.5205758,159.825462 70.5205758,159.825462 L70.5205758,159.825462 L86.0061377,159.825462 C88.4611658,159.825462 90.5384973,161.891829 90.5384973,164.521752 C90.5384973,165.836713 89.9719523,166.963823 89.216559,167.715229 C88.2723175,168.654487 87.1392276,169.03019 86.0061377,169.03019 C86.0061377,169.03019 86.0061377,169.03019 86.0061377,169.03019 L70.5205758,169.03019 C69.7651826,169.03019 69.0097893,169.593745 69.0097893,170.533003 C69.0097893,171.28441 69.5763342,172.035816 70.5205758,172.035816 C70.5205758,172.035816 70.5205758,172.035816 70.5205758,172.035816 L76.1860253,172.035816 C76.1860253,172.035816 76.1860253,172.035816 76.3748736,172.035816 L76.3748736,172.035816 L91.8604355,172.035816 C94.3154636,172.035816 96.392795,174.102184 96.392795,176.732106 C96.392795,178.047067 95.8262501,179.174177 95.0708568,179.925583 C94.1266152,180.864841 92.9935254,181.240544 91.8604355,181.240544 C91.8604355,181.240544 91.8604355,181.240544 91.8604355,181.240544 L87.1392276,181.240544 C87.1392276,181.240544 86.9503793,181.240544 86.9503793,181.240544 L71.4648174,181.240544 C70.7094241,181.240544 69.9540309,181.804099 69.9540309,182.743357 C69.9540309,183.494764 70.5205758,184.24617 71.4648174,184.24617 C71.4648174,184.24617 71.4648174,184.24617 71.4648174,184.24617 L76.3748736,184.24617 C76.3748736,184.24617 76.3748736,184.24617 76.5637219,184.24617 L76.5637219,184.24617 L87.3280759,184.24617 C88.4611658,184.24617 89.5942557,184.809725 90.3496489,185.561131 C91.2938905,186.500389 91.6715871,187.627499 91.6715871,188.754609 C91.6715871,190.06957 91.1050422,191.196679 90.3496489,191.948086 C89.4054074,192.887344 88.2723175,193.263047 87.1392276,193.263047 C87.1392276,193.263047 87.1392276,193.263047 87.1392276,193.263047 L82.2291714,193.263047 C82.2291714,193.263047 82.2291714,193.263047 82.2291714,193.263047 L67.8766994,193.263047 C67.1213061,193.263047 66.3659129,193.826602 66.3659129,194.76586 C66.3659129,195.517266 66.9324578,196.268673 67.8766994,196.268673 L67.8766994,196.268673 L71.6536657,196.268673 C71.6536657,196.268673 71.6536657,196.268673 71.6536657,196.268673 L71.6536657,196.268673 L82.2291714,196.268673 C84.8730478,196.268673 86.7615309,198.147189 86.7615309,200.777111 C86.5726826,201.152814 86.0061377,202.279924 85.0618961,203.219182 Z" id="Shape"></path>
                        <path d="M155.691166,69.8445441 L175.897936,69.8445441 C175.897936,69.8445441 175.897936,69.8445441 175.897936,69.8445441 C176.653329,69.8445441 177.408722,69.2809893 177.408722,68.3417313 C177.408722,67.5903249 176.842177,66.8389185 175.897936,66.8389185 L155.691166,66.8389185 C155.691166,66.8389185 155.691166,66.8389185 155.691166,66.8389185 C154.935773,66.8389185 154.18038,67.4024733 154.18038,68.3417313 C154.369228,69.2809893 154.935773,69.8445441 155.691166,69.8445441 Z" id="Shape"></path>
                        <path d="M155.691166,88.817556 L183.640717,88.817556 C183.640717,88.817556 183.640717,88.817556 183.640717,88.817556 C184.39611,88.817556 185.151503,88.2540012 185.151503,87.3147432 C185.151503,86.5633368 184.584958,85.8119303 183.640717,85.8119303 L155.691166,85.8119303 L155.691166,85.8119303 C154.935773,85.8119303 154.18038,86.3754852 154.18038,87.3147432 C154.18038,88.2540012 154.935773,88.817556 155.691166,88.817556 Z" id="Shape"></path>
                        <path d="M185.906897,107.790568 C186.66229,107.790568 187.417683,107.227013 187.417683,106.287755 C187.417683,105.536349 186.851138,104.784942 185.906897,104.784942 L155.691166,104.784942 L155.691166,104.784942 C154.935773,104.784942 154.18038,105.348497 154.18038,106.287755 C154.18038,107.039161 154.746925,107.790568 155.691166,107.790568 L185.906897,107.790568 L185.906897,107.790568 Z" id="Shape"></path>
                        <path d="M183.640717,126.76358 C184.39611,126.76358 185.151503,126.200025 185.151503,125.260767 C185.151503,124.50936 184.584958,123.757954 183.640717,123.757954 L155.691166,123.757954 L155.691166,123.757954 C154.935773,123.757954 154.18038,124.321509 154.18038,125.260767 C154.18038,126.012173 154.746925,126.76358 155.691166,126.76358 L183.640717,126.76358 C183.640717,126.76358 183.640717,126.76358 183.640717,126.76358 Z" id="Shape"></path>
                        <path d="M175.897936,145.736592 C176.653329,145.736592 177.408722,145.173037 177.408722,144.233779 C177.408722,143.482372 176.842177,142.730966 175.897936,142.730966 L155.691166,142.730966 L155.691166,142.730966 C154.935773,142.730966 154.18038,143.294521 154.18038,144.233779 C154.18038,144.985185 154.746925,145.736592 155.691166,145.736592 L175.897936,145.736592 C175.897936,145.736592 175.897936,145.736592 175.897936,145.736592 Z" id="Shape"></path>
                        <path d="M96.0150984,94.2652525 C96.2039467,94.2652525 96.392795,94.2652525 96.5816433,94.0774009 L128.30816,77.922163 C129.063554,77.5464598 129.252402,76.7950534 128.874705,76.043647 C128.497009,75.2922406 127.741615,75.104389 126.986222,75.4800922 L95.2597051,91.63533 C94.5043119,92.0110332 94.3154636,92.7624396 94.6931602,93.5138461 C95.0708568,93.8895493 95.4485535,94.2652525 96.0150984,94.2652525 Z" id="Shape"></path>
                        <path d="M17.0765025,191.948086 C17.8318958,191.948086 18.5872891,191.384531 18.5872891,190.445273 L18.5872891,184.058319 C18.5872891,183.306912 18.0207441,182.555506 17.0765025,182.555506 C17.0765025,182.555506 17.0765025,182.555506 17.0765025,182.555506 C16.3211093,182.555506 15.565716,183.119061 15.565716,184.058319 L15.565716,190.445273 C15.7545643,191.196679 16.3211093,191.948086 17.0765025,191.948086 L17.0765025,191.948086 Z" id="Shape"></path>
                        <path d="M196.036145,26.3977273 L204.432876,26.3977273 C206.359995,26.3977273 208.011811,27.7568182 208.700067,29.5236364 L196.036145,29.5236364 L196.036145,32.9213636 L208.700067,32.9213636 C208.011811,34.6881818 206.359995,36.0472727 204.432876,36.0472727 L194.246677,36.0472727 L210.351883,52.9 L212.691956,50.4536364 L202.230455,39.3090909 L204.708179,39.3090909 C208.424765,39.1731818 211.453094,36.455 212.14135,32.9213636 L217.23445,32.9213636 L217.23445,29.5236364 L212.003699,29.5236364 C211.728396,28.3004545 211.315442,27.3490909 210.627186,26.3977273 L216.959147,26.3977273 L216.959147,23 L196.036145,23 L196.036145,26.3977273 Z" id="Shape"></path>
                        <path d="M189.872711,66.2753637 C189.872711,67.2146217 188.92847,70.4080989 187.79538,73.0380214 C187.606531,73.4137246 187.606531,73.7894278 187.79538,74.165131 C187.984228,74.5408342 188.173076,74.7286858 188.550773,74.9165374 C188.739621,74.9165374 188.92847,75.104389 189.306166,75.104389 C190.439256,75.104389 192.138891,74.165131 195.538161,72.286615 C197.048947,71.5352085 199.126279,70.2202473 199.881672,70.0323957 C215.367234,73.225873 231.230492,64.208996 236.518245,49.3687194 C242.561391,32.6499268 233.874369,14.2404697 217.066869,8.22921845 C200.259369,2.21796717 181.752234,10.8591409 175.709088,27.5779335 C170.421335,42.2303585 176.275632,58.3855964 189.872711,66.2753637 Z M178.352964,28.5171915 C182.696475,16.494689 194.027374,9.16847647 206.113666,9.16847647 C209.324088,9.16847647 212.723357,9.73203127 216.122627,10.8591409 C231.419341,16.3068374 239.35097,33.2134816 233.874369,48.4294614 C228.964312,62.1426284 214.422992,70.2202473 200.259369,67.2146217 C199.126279,67.0267701 197.80434,67.7781765 194.027374,69.8445441 C193.271981,70.2202473 192.327739,70.7838021 191.572346,71.3473569 C193.649677,65.3361057 192.138891,64.3968476 191.572346,64.0211444 C179.108357,56.8827835 173.442908,42.0425069 178.352964,28.5171915 Z" id="Shape"></path>
                        <path d="M18.0207441,65.7118089 C20.6646205,66.8389185 23.4973453,67.2146217 26.1412217,67.2146217 C28.9739464,67.2146217 31.8066712,66.6510669 34.6393959,65.5239573 C39.9271487,63.269738 44.0818117,59.1370028 46.3479914,53.6893063 C48.6141712,48.4294614 48.4253229,42.4182101 46.1591431,37.1583653 C43.8929633,31.8985204 39.7383004,27.7657851 34.2616993,25.5115659 C28.9739464,23.2573467 22.9308003,23.4451983 17.6430475,25.6994175 C12.3552947,27.9536367 8.20063172,32.086372 5.93445194,37.5340685 C3.66827215,42.7939133 3.85712047,48.8051646 6.12330025,54.0650095 C8.38948004,59.3248544 12.7329913,63.4575896 18.0207441,65.7118089 Z M8.76717667,38.6611781 C10.6556598,33.964888 14.2437778,30.3957076 18.9649857,28.5171915 C21.2311655,27.5779335 23.8750419,27.0143787 26.33007,27.0143787 C28.7850981,27.0143787 31.0512779,27.3900819 33.3174577,28.3293399 C38.0386656,30.207856 41.6267836,33.7770364 43.5152667,38.4733265 C45.4037499,43.1696165 45.5925982,48.2416098 43.704115,52.7500483 C41.8156319,57.4463383 38.2275139,61.0155188 33.506306,62.8940348 C28.7850981,64.7725509 23.6861936,64.9604025 19.153834,63.0818864 C14.4326261,61.2033704 10.8445081,57.63419 8.95602498,52.9378999 C6.87869351,48.4294614 6.87869351,43.3574681 8.76717667,38.6611781 Z" id="Shape"></path>
                        <path d="M14.4326261,50.4958291 C14.2437778,50.8715323 14.2437778,51.2472355 14.4326261,51.6229387 C16.5099576,56.6949319 21.4200138,59.7005576 26.5189183,59.7005576 C28.2185532,59.7005576 29.918188,59.3248544 31.6178228,58.573448 C38.4163622,55.7556739 41.4379352,48.0537582 38.6052105,41.2911005 C38.4163622,40.9153973 38.2275139,40.7275457 37.8498172,40.5396941 C37.4721206,40.3518425 37.094424,40.3518425 36.7167274,40.5396941 L15.1880194,49.7444226 C14.8103228,49.9322742 14.4326261,50.1201258 14.4326261,50.4958291 Z M36.527879,43.921023 C37.094424,45.9873906 36.9055757,48.4294614 36.1501824,50.4958291 C35.0170925,53.1257515 33.1286094,55.0042675 30.6735813,56.1313771 C25.7635251,58.1977448 20.2869239,56.3192287 17.8318958,51.9986419 L36.527879,43.921023 Z" id="Shape"></path>
                        <path d="M25.5746767,38.2854749 C25.7635251,38.2854749 25.9523734,38.4733265 26.1412217,38.4733265 C26.7077666,38.4733265 27.2743116,38.0976233 27.4631599,37.5340685 C28.7850981,34.5284428 31.6178228,35.2798492 32.1843678,35.4677008 C32.939761,35.6555524 33.6951543,35.4677008 34.0728509,34.7162944 C34.2616993,33.964888 34.0728509,33.2134816 33.3174577,32.8377784 C31.2401262,32.086372 26.8966149,31.7106688 25.0081318,36.4069589 C24.4415868,37.1583653 24.8192835,38.0976233 25.5746767,38.2854749 Z" id="Shape"></path>
                        <path d="M12.9218396,43.5453198 C13.1106879,43.7331714 13.2995362,43.7331714 13.4883846,43.7331714 C14.0549295,43.7331714 14.6214744,43.3574681 14.8103228,42.7939133 C16.132261,39.7882877 18.9649857,40.5396941 19.5315306,40.7275457 C20.2869239,40.9153973 21.0423172,40.7275457 21.4200138,39.9761393 C21.6088621,39.2247329 21.4200138,38.4733265 20.6646205,38.0976233 C18.3984408,37.5340685 14.0549295,37.1583653 12.1664463,41.8546553 C11.7887497,42.4182101 12.1664463,43.3574681 12.9218396,43.5453198 Z" id="Shape"></path>
                        <path d="M215.556082,128.829947 C215.178385,128.454244 214.800689,128.266393 214.422992,128.266393 C214.045296,128.266393 213.478751,128.642096 213.289902,129.017799 C211.212571,132.399128 209.512936,135.216902 207.624453,138.034676 C205.924818,140.476747 204.414031,143.106669 202.525548,146.112295 C202.147852,146.863701 202.3367,147.615108 202.903245,147.990811 C203.092093,148.178662 203.46979,148.178662 203.658638,148.178662 C204.225183,148.178662 204.60288,147.990811 204.791728,147.427256 C206.680211,144.42163 208.379846,141.791708 209.890633,139.349637 C211.212571,137.471121 212.345661,135.404753 213.667599,133.526237 C214.989537,141.228153 214.234144,149.681475 211.212571,158.322649 L211.212571,158.322649 C211.212571,158.322649 211.212571,158.322649 211.212571,158.322649 C209.701784,163.018939 207.435605,167.715229 204.791728,172.223668 C204.791728,172.223668 204.791728,172.223668 204.791728,172.223668 C204.791728,172.223668 204.791728,172.223668 204.791728,172.223668 C200.637065,178.986325 195.538161,185.185428 189.495015,190.820976 C189.495015,190.820976 189.495015,190.820976 189.495015,190.820976 C189.495015,190.820976 189.495015,190.820976 189.495015,190.820976 C184.773807,195.141563 179.674902,198.898595 174.198301,201.904221 C174.198301,201.904221 174.198301,201.904221 174.198301,201.904221 C169.477093,204.721995 164.18934,206.976214 158.712739,208.85473 C157.768498,209.230433 156.824256,209.418285 155.880014,209.793988 C155.880014,209.793988 155.880014,209.793988 155.880014,209.793988 L155.880014,209.793988 C151.9142,211.108949 147.570689,212.048207 143.416026,212.799614 C143.416026,212.799614 143.416026,212.799614 143.416026,212.799614 C138.128273,213.738872 132.651672,214.302427 127.17507,214.302427 C126.419677,214.302427 125.853132,214.865981 125.853132,215.805239 C125.853132,216.556646 126.419677,217.120201 127.363919,217.120201 C127.363919,217.120201 127.363919,217.120201 127.363919,217.120201 C132.462823,217.120201 137.372879,216.556646 142.282936,215.805239 L142.282936,227.076336 C142.282936,227.827742 142.849481,228.579148 143.793722,228.579148 L159.468132,228.579148 C159.656981,228.579148 159.656981,228.579148 159.845829,228.579148 L175.142543,228.579148 C175.142543,228.579148 175.142543,228.579148 175.142543,228.579148 C175.142543,228.579148 175.142543,228.579148 175.142543,228.579148 L190.439256,228.579148 C190.628104,228.579148 190.628104,228.579148 190.816953,228.579148 L206.491363,228.579148 C206.491363,228.579148 206.680211,228.579148 206.680211,228.579148 L222.165773,228.579148 C222.921166,228.579148 223.67656,228.015594 223.67656,227.076336 L223.67656,159.074055 C223.67656,158.322649 223.110015,157.571243 222.165773,157.571243 L214.989537,157.571243 C217.444565,149.681475 218.199958,141.97956 217.255717,135.02905 C219.899593,138.410379 222.921166,142.543114 226.131588,147.802959 C226.509284,148.554366 227.453526,148.742217 228.020071,148.178662 C228.775464,147.802959 228.964312,146.863701 228.397768,146.300146 C223.298863,138.598231 219.1442,133.150534 215.556082,128.829947 Z M144.926812,215.805239 C148.892627,215.053833 152.858441,214.114575 156.635408,212.987465 C156.635408,212.987465 156.635408,212.987465 156.635408,212.987465 C157.013104,212.799614 157.390801,212.799614 157.768498,212.611762 L157.768498,226.324929 L144.926812,226.324929 L144.926812,215.805239 Z M173.442908,225.949226 L160.601222,225.949226 L160.601222,211.484653 C165.133582,209.793988 169.288245,207.915472 173.442908,205.849104 L173.442908,225.949226 Z M176.275632,204.15844 C180.807992,201.528518 185.151503,198.522892 189.117318,195.141563 L189.117318,225.949226 L176.275632,225.949226 L176.275632,204.15844 Z M191.950043,192.699492 C196.860099,188.191054 201.014762,183.306912 204.791728,178.047067 L204.791728,226.137078 L191.950043,226.137078 L191.950043,192.699492 Z M220.27729,225.949226 L207.435605,225.949226 L207.435605,173.350777 C209.890633,169.03019 211.967964,164.709603 213.667599,160.201165 L220.27729,160.201165 L220.27729,225.949226 Z" id="Shape"></path>
                        <path d="M62.5889466,49.7444226 L62.5889466,49.7444226 C66.3659129,49.7444226 70.3317275,49.9322742 74.1086938,50.1201258 C74.2975421,50.1201258 74.2975421,50.1201258 74.4863904,50.1201258 C75.430632,50.1201258 76.3748736,49.7444226 76.9414185,49.3687194 C76.9414185,49.3687194 76.9414185,49.3687194 76.9414185,49.3687194 C77.6968118,49.3687194 79.585295,49.556571 80.7183849,50.1201258 C81.0960815,50.3079774 81.2849298,50.4958291 81.6626264,50.6836807 C83.173413,51.6229387 85.0618961,52.7500483 88.6500141,53.5014547 C90.1608006,53.8771579 93.5600703,53.8771579 97.1481883,53.8771579 C102.624789,53.8771579 108.856784,53.6893063 109.801025,53.5014547 C109.801025,53.5014547 109.801025,53.5014547 109.801025,53.5014547 C112.444902,53.5014547 114.711082,51.2472355 114.711082,48.617313 C114.711082,47.8659066 114.522233,47.3023518 114.333385,46.5509454 C116.788413,46.3630938 118.865745,44.2967262 118.865745,41.6668037 C118.865745,40.5396941 118.488048,39.6004361 117.921503,38.8490297 C118.2992,38.6611781 118.488048,38.4733265 118.676896,38.0976233 C119.621138,37.1583653 120.187683,35.843404 120.187683,34.5284428 C120.187683,33.2134816 119.621138,32.086372 118.865745,31.3349656 C119.054593,31.147114 119.054593,31.147114 119.243441,30.9592624 C120.187683,30.0200044 120.754228,28.7050431 120.754228,27.5779335 C120.754228,26.2629723 120.187683,24.9480111 119.243441,24.0087531 C118.2992,23.0694951 116.977261,22.5059403 115.655323,22.5059403 L103.569031,22.5059403 C103.380183,22.130237 102.624789,20.251721 104.135576,13.3012117 C104.890969,10.1077345 104.513273,7.47781204 103.002486,5.41144441 C101.114003,2.59367037 97.7147332,2.03011557 95.8262501,1.65441236 C95.0708568,1.65441236 94.1266152,1.84226396 93.5600703,2.59367037 C92.9935254,3.34507678 92.804677,4.09648319 93.1823737,5.03574121 C93.7489186,6.53855403 94.1266152,13.3012117 92.6158287,16.1189858 C89.783104,15.7432826 85.2507444,16.1189858 83.3622613,20.0638694 C82.2291714,21.5666822 80.7183849,22.3180887 78.8299017,22.3180887 C78.8299017,22.3180887 78.8299017,22.3180887 78.8299017,22.3180887 L77.1302669,22.3180887 C77.1302669,22.130237 76.9414185,22.130237 76.9414185,21.9423854 C76.1860253,21.190979 75.0529354,20.8152758 73.7309972,20.8152758 C71.0871208,21.0031274 68.4432443,21.0031274 65.7993679,21.190979 C65.0439747,21.190979 64.4774297,21.7545338 64.4774297,22.6937919 C64.4774297,23.4451983 65.0439747,24.0087531 65.9882162,24.0087531 C65.9882162,24.0087531 65.9882162,24.0087531 65.9882162,24.0087531 C68.6320927,24.0087531 71.4648174,23.8209015 74.1086938,23.6330499 C74.4863904,23.6330499 74.8640871,23.6330499 75.2417837,24.0087531 C75.430632,24.1966047 75.430632,24.3844563 75.430632,24.5723079 L75.430632,45.799539 C75.430632,45.9873906 75.430632,46.1752422 75.2417837,46.3630938 C75.0529354,46.5509454 74.6752388,46.738797 74.1086938,46.738797 C70.3317275,46.5509454 66.3659129,46.3630938 62.5889466,46.3630938 C61.8335533,46.3630938 61.07816,46.9266486 61.07816,47.8659066 C61.2670084,49.1808678 61.8335533,49.7444226 62.5889466,49.7444226 Z M79.3964466,25.6994175 C82.2291714,25.6994175 84.6841995,24.3844563 86.3838343,22.130237 C86.3838343,22.130237 86.5726826,21.9423854 86.5726826,21.9423854 C88.2723175,18.373205 93.371222,19.5003146 93.5600703,19.6881662 C94.1266152,19.8760178 94.6931602,19.6881662 95.0708568,19.312463 C97.9035816,15.9311342 97.3370366,7.85351525 96.7704917,5.22359281 C98.0924299,5.41144441 100.169761,5.97499922 101.4917,7.66566365 C102.435941,8.98062486 102.624789,10.8591409 102.058244,13.1133601 C100.736306,19.1246114 100.736306,23.0694951 102.058244,24.7601595 C102.247093,25.3237143 102.813638,25.8872691 103.380183,25.8872691 L103.380183,25.8872691 L116.221868,25.8872691 C116.788413,25.8872691 117.354958,26.0751207 117.732655,26.4508239 C118.110351,26.8265271 118.2992,27.3900819 118.2992,27.9536367 C118.2992,28.5171915 118.110351,29.0807463 117.732655,29.4564496 C117.354958,29.8321528 116.788413,30.0200044 116.221868,30.0200044 C116.221868,30.0200044 116.221868,30.0200044 116.221868,30.0200044 L103.380183,30.0200044 C102.624789,30.0200044 101.869396,30.5835592 101.869396,31.5228172 C101.869396,32.2742236 102.435941,33.02563 103.380183,33.02563 L103.380183,33.02563 L106.590604,33.02563 C106.590604,33.02563 106.590604,33.02563 106.590604,33.02563 L106.590604,33.02563 L115.655323,33.02563 C116.788413,33.02563 117.732655,33.964888 117.732655,35.0919976 C117.732655,35.6555524 117.543806,36.2191072 117.16611,36.5948105 C116.788413,36.9705137 116.221868,37.1583653 115.655323,37.1583653 C115.655323,37.1583653 115.655323,37.1583653 115.655323,37.1583653 L114.333385,37.1583653 C114.333385,37.1583653 114.333385,37.1583653 114.333385,37.1583653 L103.757879,37.1583653 C103.002486,37.1583653 102.247093,37.7219201 102.247093,38.6611781 C102.247093,39.4125845 102.813638,40.1639909 103.757879,40.1639909 C103.757879,40.1639909 103.757879,40.1639909 103.757879,40.1639909 L106.590604,40.1639909 C106.590604,40.1639909 106.590604,40.1639909 106.590604,40.1639909 C106.590604,40.1639909 106.590604,40.1639909 106.590604,40.1639909 L114.333385,40.1639909 C114.89993,40.1639909 115.466475,40.3518425 115.844172,40.7275457 C116.221868,41.1032489 116.410716,41.6668037 116.410716,42.2303585 C116.410716,43.3574681 115.466475,44.2967262 114.333385,44.2967262 L114.333385,44.2967262 L110.36757,44.2967262 C110.36757,44.2967262 110.36757,44.2967262 110.36757,44.2967262 L101.680548,44.2967262 C100.925155,44.2967262 100.169761,44.860281 100.169761,45.799539 C100.169761,46.5509454 100.736306,47.3023518 101.680548,47.3023518 L101.680548,47.3023518 L103.946728,47.3023518 C103.946728,47.3023518 103.946728,47.3023518 103.946728,47.3023518 L103.946728,47.3023518 L110.556419,47.3023518 C111.122964,47.3023518 111.689509,47.4902034 112.067205,47.8659066 C112.444902,48.2416098 112.63375,48.8051646 112.63375,49.3687194 C112.63375,50.4958291 111.689509,51.4350871 110.556419,51.4350871 C105.835211,51.6229387 92.9935254,51.9986419 89.9719523,51.4350871 C86.7615309,50.6836807 85.2507444,49.7444226 83.9288062,48.9930162 C83.5511096,48.8051646 83.173413,48.617313 82.9845646,48.4294614 C81.8514747,47.8659066 80.3406882,47.4902034 79.2075983,47.3023518 C79.2075983,47.3023518 79.2075983,47.3023518 79.2075983,47.1145002 L79.2075983,26.4508239 L79.3964466,25.6994175 C79.3964466,25.6994175 79.3964466,25.6994175 79.3964466,25.6994175 Z" id="Shape"></path>
                    </g>
                </g>
            </g>
        </g>
    </g>
</svg>