<?xml version="1.0" encoding="UTF-8"?>
<svg width="200px" height="200px" viewBox="0 0 200 200" version="1.1" xmlns="http://www.w3.org/2000/svg" xmlns:xlink="http://www.w3.org/1999/xlink">
    <!-- Generator: Sketch 48.1 (47250) - http://www.bohemiancoding.com/sketch -->
    <title>pulse</title>
    <desc>Created with Sketch.</desc>
    <defs></defs>
    <g id="Page-1" stroke="none" stroke-width="1" fill="none" fill-rule="evenodd">
        <g id="pulse">
            <rect id="Rectangle-path" fill="#FFFFFF" fill-rule="nonzero" x="0" y="0" width="200" height="200"></rect>
            <g id="heart_1" transform="translate(16.000000, 23.000000)">
                <path d="M167.3,43.7 C167.3,75.6 140.2,95.2 120.6,113.7 C107.3,126 95.1,139.4 83.9,153.7 C72.8,139.4 60.5,126 47.2,113.7 C27.6,95.2 0.5,75.6 0.5,43.7 C0.5,19.8 19.9,0.4 43.8,0.4 C61.3,0.4 77.1,10.9 83.8,27.1 C93,5 118.4,-5.4 140.5,3.8 C156.8,10.4 167.3,26.2 167.3,43.7 Z" id="Shape" fill="#AABFFF" fill-rule="nonzero"></path>
                <path d="M11.4724332,77 L41.2,77 C41.9,77 42.6,76.6 42.9,76 L47.8,66.3 C48.2,65.4 49.3,65.1 50.2,65.5 C50.5,65.6 50.7,65.8 50.9,66.1 L60.2,78.9 C60.8,79.7 61.9,79.9 62.7,79.3 C63.1,79 63.3,78.7 63.4,78.3 L71.8,40.9 C72,39.9 73,39.3 73.9,39.5 C74.7,39.7 75.2,40.3 75.3,41.1 L83,111.5 C83.1,112.5 84,113.2 85,113.1 C85.8,113 86.4,112.5 86.6,111.7 L94.1,78.6 C94.3,77.6 95.3,77 96.2,77.2 C96.7,77.3 97.1,77.6 97.3,78 L99.7,81.6 C100.2,82.4 101.3,82.6 102.2,82.1 C102.5,81.9 102.8,81.6 102.9,81.2 L106.5,71.4 C106.9,70.5 107.9,70.1 108.8,70.5 C109.3,70.7 109.6,71.1 109.8,71.6 L112.9,82.6 C113.2,83.6 114.1,84.1 115.1,83.9 C115.6,83.8 116,83.4 116.3,82.9 L120,75.5 C120.4,74.6 121.5,74.3 122.4,74.7 C122.466667,74.7 123.5,75.3666667 125.5,76.7 C125.8,76.9 126.1,77 126.5,77 L155.72344,77.2" id="Shape" stroke="#FFFFFF" stroke-width="3.3333"></path>
            </g>
        </g>
    </g>
</svg>