<?xml version="1.0" encoding="UTF-8"?>
<svg width="209px" height="223px" viewBox="0 0 209 223" version="1.1" xmlns="http://www.w3.org/2000/svg" xmlns:xlink="http://www.w3.org/1999/xlink">
    <!-- Generator: Sketch 47.1 (45422) - http://www.bohemiancoding.com/sketch -->
    <title>Research Performance</title>
    <desc>Created with Sketch.</desc>
    <defs></defs>
    <g id="Welcome" stroke="none" stroke-width="1" fill="none" fill-rule="evenodd">
        <g id="Research" transform="translate(-192.000000, -535.000000)" fill-rule="nonzero" fill="#96CCFF">
            <g id="Research-Performance" transform="translate(192.000000, 535.000000)">
                <g id="Shape">
                    <path d="M199.595,57.4921875 C199.595,56.7953125 199.0725,56.2726562 198.375833,56.2726562 C197.679167,56.2726562 197.156667,56.7953125 197.156667,57.4921875 L197.156667,73.86875 C197.156667,74.565625 197.679167,75.0882813 198.375833,75.0882813 C199.0725,75.0882813 199.595,74.565625 199.595,73.86875 L199.595,57.4921875 Z"></path>
                    <path d="M198.201667,80.3148438 C197.505,80.3148438 196.9825,80.8375 196.9825,81.534375 L196.9825,87.4578125 C196.9825,88.1546875 197.505,88.6773438 198.201667,88.6773438 C198.898333,88.6773438 199.420833,88.1546875 199.420833,87.4578125 L199.420833,81.534375 C199.595,80.8375 199.0725,80.3148438 198.201667,80.3148438 Z"></path>
                    <path d="M13.0625,147.040625 C12.3658333,147.040625 11.8433333,147.563281 11.8433333,148.260156 L11.8433333,164.636719 C11.8433333,165.333594 12.3658333,165.85625 13.0625,165.85625 C13.7591667,165.85625 14.2816667,165.333594 14.2816667,164.636719 L14.2816667,148.260156 C14.2816667,147.7375 13.7591667,147.040625 13.0625,147.040625 Z"></path>
                    <path d="M13.0625,171.257031 C12.3658333,171.257031 11.8433333,171.779687 11.8433333,172.476563 L11.8433333,178.4 C11.8433333,179.096875 12.3658333,179.619531 13.0625,179.619531 C13.7591667,179.619531 14.2816667,179.096875 14.2816667,178.4 L14.2816667,172.476563 C14.2816667,171.779687 13.7591667,171.257031 13.0625,171.257031 Z"></path>
                    <path d="M13.0625,0.87109375 C9.57916667,0.87109375 6.7925,3.65859375 6.7925,7.14296875 C6.7925,10.6273437 9.57916667,13.4148437 13.0625,13.4148437 C16.5458333,13.4148437 19.3325,10.6273437 19.3325,7.14296875 C19.3325,3.65859375 16.5458333,0.87109375 13.0625,0.87109375 Z M13.0625,10.9757813 C10.9725,10.9757813 9.405,9.23359375 9.405,7.3171875 C9.405,5.2265625 11.1466667,3.65859375 13.0625,3.65859375 C15.1525,3.65859375 16.72,5.40078125 16.72,7.3171875 C16.72,9.23359375 15.1525,10.9757813 13.0625,10.9757813 Z"></path>
                    <path d="M171.9025,209.585156 C168.419167,209.585156 165.6325,212.372656 165.6325,215.857031 C165.6325,219.341406 168.419167,222.128906 171.9025,222.128906 C175.385833,222.128906 178.1725,219.341406 178.1725,215.857031 C178.1725,212.372656 175.385833,209.585156 171.9025,209.585156 Z M171.9025,219.515625 C169.8125,219.515625 168.245,217.773438 168.245,215.857031 C168.245,213.766406 169.986667,212.198438 171.9025,212.198438 C173.9925,212.198438 175.56,213.940625 175.56,215.857031 C175.734167,217.947656 173.9925,219.515625 171.9025,219.515625 Z"></path>
                    <path d="M208.303333,26.6554688 C208.303333,25.9585937 207.780833,25.4359375 207.084167,25.4359375 L186.706667,25.4359375 C186.01,25.4359375 185.4875,25.9585938 185.4875,26.6554688 C185.4875,27.3523438 186.01,27.875 186.706667,27.875 L207.084167,27.875 C207.780833,27.875 208.303333,27.3523437 208.303333,26.6554688 Z"></path>
                    <path d="M173.295833,27.875 L179.914167,27.875 C180.610833,27.875 181.133333,27.3523437 181.133333,26.6554688 C181.133333,25.9585937 180.610833,25.4359375 179.914167,25.4359375 L173.295833,25.4359375 C172.599167,25.4359375 172.076667,25.9585938 172.076667,26.6554688 C171.9025,27.3523437 172.599167,27.875 173.295833,27.875 Z"></path>
                    <path d="M173.295833,20.90625 L187.5775,20.90625 C188.274167,20.90625 188.796667,20.3835937 188.796667,19.6867188 C188.796667,18.9898437 188.274167,18.4671875 187.5775,18.4671875 L173.295833,18.4671875 C172.599167,18.4671875 172.076667,18.9898438 172.076667,19.6867188 C171.9025,20.209375 172.599167,20.90625 173.295833,20.90625 Z"></path>
                    <path d="M193.673333,20.90625 L198.375833,20.90625 C199.0725,20.90625 199.595,20.3835937 199.595,19.6867188 C199.595,18.9898437 199.0725,18.4671875 198.375833,18.4671875 L193.673333,18.4671875 C192.976667,18.4671875 192.454167,18.9898438 192.454167,19.6867188 C192.454167,20.209375 192.976667,20.90625 193.673333,20.90625 Z"></path>
                    <path d="M65.3125,137.632812 C65.3125,138.329687 65.835,138.852344 66.5316667,138.852344 L87.0833333,138.852344 C87.78,138.852344 88.3025,138.329687 88.3025,137.632812 C88.3025,136.935937 87.78,136.413281 87.0833333,136.413281 L66.5316667,136.413281 C65.835,136.239062 65.3125,136.761719 65.3125,137.632812 Z"></path>
                    <path d="M53.295,138.852344 L59.9133333,138.852344 C60.61,138.852344 61.1325,138.329688 61.1325,137.632813 C61.1325,136.935938 60.61,136.413281 59.9133333,136.413281 L53.295,136.413281 C52.5983333,136.413281 52.0758333,136.935938 52.0758333,137.632813 C51.9016667,138.329688 52.4241667,138.852344 53.295,138.852344 Z"></path>
                    <path d="M67.4025,129.270312 L53.1208333,129.270312 C52.4241667,129.270312 51.9016667,129.792969 51.9016667,130.489844 C51.9016667,131.186719 52.4241667,131.709375 53.1208333,131.709375 L67.4025,131.709375 C68.0991667,131.709375 68.6216667,131.186719 68.6216667,130.489844 C68.7958333,129.792969 68.2733333,129.270312 67.4025,129.270312 Z"></path>
                    <path d="M78.2008333,131.883594 C78.8975,131.883594 79.42,131.360938 79.42,130.664063 C79.42,129.967188 78.8975,129.444531 78.2008333,129.444531 L73.4983333,129.444531 C72.8016667,129.444531 72.2791667,129.967188 72.2791667,130.664063 C72.2791667,131.360938 72.8016667,131.883594 73.4983333,131.883594 L78.2008333,131.883594 Z"></path>
                    <path d="M196.808333,152.441406 C196.285833,151.91875 195.415,151.91875 195.066667,152.441406 C194.544167,152.964062 194.544167,153.835156 195.066667,154.183594 L197.679167,156.796875 C197.853333,156.971094 198.201667,157.145313 198.55,157.145313 C198.898333,157.145313 199.246667,156.971094 199.420833,156.796875 C199.943333,156.274219 199.943333,155.403125 199.420833,155.054688 L196.808333,152.441406 Z"></path>
                    <path d="M205.690833,161.152344 C205.168333,160.629688 204.2975,160.629688 203.949167,161.152344 C203.426667,161.675 203.426667,162.546094 203.949167,162.894531 L206.561667,165.507812 C206.735833,165.682031 207.084167,165.85625 207.4325,165.85625 C207.780833,165.85625 208.129167,165.682031 208.303333,165.507812 C208.825833,164.985156 208.825833,164.114063 208.303333,163.765625 L205.690833,161.152344 Z"></path>
                    <path d="M197.679167,161.152344 L195.066667,163.765625 C194.544167,164.288281 194.544167,165.159375 195.066667,165.507812 C195.240833,165.682031 195.589167,165.85625 195.9375,165.85625 C196.285833,165.85625 196.634167,165.682031 196.808333,165.507812 L199.420833,162.894531 C199.943333,162.371875 199.943333,161.500781 199.420833,161.152344 C199.0725,160.629688 198.201667,160.629688 197.679167,161.152344 Z"></path>
                    <path d="M206.561667,152.441406 L203.775,155.054688 C203.2525,155.577344 203.2525,156.448438 203.775,156.796875 C203.949167,156.971094 204.2975,157.145313 204.645833,157.145313 C204.994167,157.145313 205.3425,156.971094 205.516667,156.796875 L208.129167,154.183594 C208.651667,153.660938 208.651667,152.789844 208.129167,152.441406 C207.780833,151.91875 206.91,151.91875 206.561667,152.441406 Z"></path>
                    <path d="M57.475,208.539844 C56.9525,208.017188 56.0816667,208.017188 55.7333333,208.539844 C55.385,209.0625 55.2108333,209.933594 55.7333333,210.282031 L58.3458333,212.895312 C58.52,213.069531 58.8683333,213.24375 59.2166667,213.24375 C59.565,213.24375 59.9133333,213.069531 60.0875,212.895312 C60.61,212.372656 60.61,211.501562 60.0875,211.153125 L57.475,208.539844 Z"></path>
                    <path d="M66.1833333,217.250781 C65.6608333,216.728125 64.79,216.728125 64.4416667,217.250781 C64.0933333,217.773437 63.9191667,218.644531 64.4416667,218.992969 L67.0541667,221.60625 C67.2283333,221.780469 67.5766667,221.954687 67.925,221.954687 C68.2733333,221.954687 68.6216667,221.780469 68.7958333,221.60625 C69.3183333,221.083594 69.3183333,220.2125 68.7958333,219.864062 L66.1833333,217.250781 Z"></path>
                    <path d="M58.3458333,217.250781 L55.7333333,219.864062 C55.2108333,220.386719 55.2108333,221.257812 55.7333333,221.60625 C55.9075,221.780469 56.2558333,221.954687 56.6041667,221.954687 C56.9525,221.954687 57.3008333,221.780469 57.475,221.60625 L60.0875,218.992969 C60.61,218.470312 60.61,217.599219 60.0875,217.250781 C59.565,216.728125 58.8683333,216.728125 58.3458333,217.250781 Z"></path>
                    <path d="M67.0541667,208.539844 L64.4416667,211.153125 C63.9191667,211.675781 63.9191667,212.546875 64.4416667,212.895313 C64.6158333,213.069531 64.9641667,213.24375 65.3125,213.24375 C65.6608333,213.24375 66.0091667,213.069531 66.1833333,212.895313 L68.7958333,210.282031 C69.3183333,209.759375 69.3183333,208.888281 68.7958333,208.539844 C68.2733333,208.191406 67.5766667,208.017188 67.0541667,208.539844 Z"></path>
                    <path d="M2.43833333,98.4335938 C1.91583333,97.9109375 1.045,97.9109375 0.696666667,98.4335938 C0.174166667,98.95625 0.174166667,99.8273437 0.696666667,100.175781 L3.30916667,102.789062 C3.48333333,102.963281 3.83166667,103.1375 4.18,103.1375 C4.52833333,103.1375 4.87666667,102.963281 5.05083333,102.789062 C5.57333333,102.266406 5.57333333,101.395313 5.05083333,101.046875 L2.43833333,98.4335938 Z"></path>
                    <path d="M11.3208333,107.144531 C10.7983333,106.621875 9.9275,106.621875 9.57916667,107.144531 C9.05666667,107.667187 9.05666667,108.538281 9.57916667,108.886719 L12.1916667,111.5 C12.3658333,111.674219 12.7141667,111.848438 13.0625,111.848438 C13.4108333,111.848438 13.7591667,111.674219 13.9333333,111.5 C14.4558333,110.977344 14.4558333,110.10625 13.9333333,109.757812 L11.3208333,107.144531 Z"></path>
                    <path d="M3.30916667,107.144531 L0.696666667,109.757813 C0.174166667,110.280469 0.174166667,111.151563 0.696666667,111.5 C0.870833333,111.674219 1.21916667,111.848438 1.5675,111.848438 C1.91583333,111.848438 2.26416667,111.674219 2.43833333,111.5 L5.225,109.060938 C5.7475,108.538281 5.7475,107.667188 5.225,107.31875 C4.7025,106.621875 3.83166667,106.621875 3.30916667,107.144531 Z"></path>
                    <path d="M12.1916667,98.4335938 L9.57916667,101.046875 C9.05666667,101.569531 9.05666667,102.440625 9.57916667,102.789062 C9.75333333,102.963281 10.1016667,103.1375 10.45,103.1375 C10.7983333,103.1375 11.1466667,102.963281 11.3208333,102.789062 L13.9333333,100.175781 C14.4558333,99.653125 14.4558333,98.7820313 13.9333333,98.4335938 C13.4108333,97.9109375 12.54,97.9109375 12.1916667,98.4335938 Z"></path>
                    <path d="M52.9466667,177.703125 L35.0075,177.703125 C34.3108333,177.703125 33.7883333,178.225781 33.7883333,178.922656 L33.7883333,198.783594 C33.7883333,199.480469 34.3108333,200.003125 35.0075,200.003125 L53.1208333,200.003125 C53.8175,200.003125 54.34,199.480469 54.34,198.783594 L54.34,178.922656 C54.34,178.225781 53.6433333,177.703125 52.9466667,177.703125 Z M51.7275,197.564063 L36.2266667,197.564063 L36.2266667,180.142188 L51.7275,180.142188 L51.7275,197.564063 Z"></path>
                    <path d="M79.0716667,157.842187 L61.1325,157.842187 C60.4358333,157.842187 59.9133333,158.364844 59.9133333,159.061719 L59.9133333,198.957812 C59.9133333,199.654687 60.4358333,200.177344 61.1325,200.177344 L79.2458333,200.177344 C79.9425,200.177344 80.465,199.654687 80.465,198.957812 L80.465,159.061719 C80.465,158.364844 79.7683333,157.842187 79.0716667,157.842187 Z M77.8525,197.564063 L62.3516667,197.564063 L62.3516667,160.28125 L77.8525,160.28125 L77.8525,197.564063 Z"></path>
                    <path d="M105.196667,163.591406 L87.2575,163.591406 C86.5608333,163.591406 86.0383333,164.114062 86.0383333,164.810938 L86.0383333,198.783594 C86.0383333,199.480469 86.5608333,200.003125 87.2575,200.003125 L105.370833,200.003125 C106.0675,200.003125 106.59,199.480469 106.59,198.783594 L106.59,164.985156 C106.59,164.288281 105.893333,163.591406 105.196667,163.591406 Z M103.9775,197.564062 L88.4766667,197.564062 L88.4766667,166.204688 L103.9775,166.204688 L103.9775,197.564062 Z"></path>
                    <path d="M131.495833,150.176562 L113.3825,150.176562 C112.685833,150.176562 112.163333,150.699219 112.163333,151.396094 L112.163333,198.957812 C112.163333,199.654687 112.685833,200.177344 113.3825,200.177344 L131.495833,200.177344 C132.1925,200.177344 132.715,199.654687 132.715,198.957812 L132.715,151.396094 C132.715,150.699219 132.1925,150.176562 131.495833,150.176562 Z M130.1025,197.564062 L114.601667,197.564062 L114.601667,152.615625 L130.1025,152.615625 L130.1025,197.564062 Z"></path>
                    <path d="M183.745833,123.521094 L165.6325,123.521094 C164.935833,123.521094 164.413333,124.04375 164.413333,124.740625 L164.413333,198.957813 C164.413333,199.654688 164.935833,200.177344 165.6325,200.177344 L183.745833,200.177344 C184.4425,200.177344 184.965,199.654688 184.965,198.957813 L184.965,124.740625 C184.965,124.04375 184.4425,123.521094 183.745833,123.521094 Z M182.3525,197.564063 L166.851667,197.564063 L166.851667,125.960156 L182.3525,125.960156 L182.3525,197.564063 Z"></path>
                    <path d="M157.620833,136.239062 L139.5075,136.239062 C138.810833,136.239062 138.288333,136.761719 138.288333,137.458594 L138.288333,198.783594 C138.288333,199.480469 138.810833,200.003125 139.5075,200.003125 L157.620833,200.003125 C158.3175,200.003125 158.84,199.480469 158.84,198.783594 L158.84,137.632812 C158.84,136.761719 158.3175,136.239062 157.620833,136.239062 Z M156.2275,197.564062 L140.726667,197.564062 L140.726667,138.852344 L156.2275,138.852344 L156.2275,197.564062 Z"></path>
                    <path d="M90.2183333,0.87109375 C71.9308333,0.87109375 54.6883333,8.0140625 41.8,20.90625 C28.9116667,33.7984375 21.7708333,51.0460938 21.7708333,69.3390625 C21.7708333,87.6320312 28.9116667,104.879687 41.8,117.771875 C42.3225,118.294531 43.1933333,118.294531 43.5416667,117.771875 L58.52,102.789062 C58.6941667,102.614844 58.8683333,102.266406 58.8683333,101.917969 C58.8683333,101.569531 58.6941667,101.221094 58.52,101.046875 C49.9858333,92.5101562 45.4575,81.3601562 45.4575,69.3390625 C45.4575,57.3179688 50.16,46.1679687 58.52,37.63125 C67.0541667,29.0945312 78.2008333,24.5648437 90.2183333,24.5648437 C98.7525,24.5648437 106.938333,27.0039062 114.253333,31.5335938 L87.78,58.5375 C85.8641667,59.0601563 84.1225,60.1054688 82.9033333,61.8476562 C79.7683333,65.8546875 80.465,71.778125 84.645,74.9140625 C86.2125,76.1335938 88.3025,76.8304688 90.3925,76.8304688 C90.7408333,76.8304688 91.2633333,76.8304688 91.6116667,76.8304688 C94.05,76.4820312 96.3141667,75.2625 97.8816667,73.3460938 C99.1008333,71.778125 99.7975,69.8617188 99.7975,67.7710937 L119.478333,35.3664062 C120.349167,36.2375 121.394167,36.934375 122.265,37.8054687 C130.799167,46.3421875 135.3275,57.4921875 135.3275,69.5132812 C135.3275,81.534375 130.625,92.684375 122.265,101.221094 C121.7425,101.74375 121.7425,102.614844 122.265,102.963281 L137.243333,117.946094 C137.4175,118.120312 137.765833,118.294531 138.114167,118.294531 C138.4625,118.294531 138.810833,118.120313 138.985,117.946094 C151.873333,105.053906 159.014167,87.80625 159.014167,69.5132812 C159.014167,51.2203125 151.873333,33.9726562 138.985,21.0804687 C125.748333,8.0140625 108.68,0.87109375 90.2183333,0.87109375 Z M117.214167,32.2304687 C117.214167,32.2304687 117.214167,32.2304687 117.214167,32.2304687 L119.478333,29.965625 L98.9266667,63.9382812 C98.9266667,63.9382812 98.9266667,63.7640625 98.7525,63.7640625 C98.5783333,63.5898437 98.5783333,63.415625 98.4041667,63.0671875 C98.4041667,62.8929687 98.23,62.8929687 98.23,62.71875 C98.0558333,62.5445312 98.0558333,62.3703125 97.8816667,62.1960937 C97.8816667,62.021875 97.7075,62.021875 97.7075,61.8476562 C97.5333333,61.6734375 97.3591667,61.4992187 97.185,61.325 C97.185,61.1507812 97.0108333,61.1507812 97.0108333,60.9765625 C96.6625,60.628125 96.4883333,60.4539062 96.14,60.2796875 C95.7916667,60.1054687 95.4433333,59.7570312 95.2691667,59.5828125 C95.095,59.5828125 95.095,59.4085937 94.9208333,59.4085937 C94.7466667,59.234375 94.3983333,59.234375 94.2241667,59.0601562 C94.05,59.0601562 94.05,58.8859375 93.8758333,58.8859375 C93.7016667,58.8859375 93.3533333,58.7117187 93.1791667,58.7117187 C93.005,58.7117187 92.8308333,58.7117187 92.8308333,58.5375 C92.6566667,58.5375 92.3083333,58.3632812 92.1341667,58.3632812 C92.1341667,58.3632812 91.96,58.3632812 91.96,58.3632812 L117.214167,32.2304687 Z M95.6175,71.6039062 C94.5725,72.9976562 93.005,73.86875 91.0891667,74.2171875 C89.3475,74.3914063 87.6058333,74.0429688 86.0383333,72.8234375 C83.0775,70.5585938 82.555,66.203125 84.8191667,63.415625 C85.8641667,62.1960938 87.0833333,61.325 88.6508333,60.9765625 C88.6508333,60.9765625 88.6508333,60.9765625 88.825,60.9765625 C89.3475,60.8023438 89.87,60.8023438 90.2183333,60.8023438 C90.7408333,60.8023438 91.0891667,60.8023438 91.6116667,60.9765625 C91.7858333,60.9765625 91.7858333,60.9765625 91.96,61.1507813 C92.3083333,61.1507813 92.6566667,61.325 92.8308333,61.4992188 C93.005,61.4992188 93.005,61.6734375 93.1791667,61.6734375 C93.5275,61.8476563 94.05,62.021875 94.3983333,62.3703125 C95.9658333,63.5898438 97.0108333,65.50625 97.0108333,67.596875 C97.0108333,67.596875 97.0108333,67.596875 97.0108333,67.596875 C97.0108333,68.8164062 96.6625,70.384375 95.6175,71.6039062 Z M137.765833,115.158594 L124.703333,102.092187 C133.063333,93.2070312 137.765833,81.7085937 137.765833,69.5132812 C137.765833,56.7953125 132.889167,44.9484375 123.8325,36.0632812 C122.7875,35.0179687 121.7425,33.9726562 120.523333,33.1015625 L127.315833,21.9515625 C127.664167,21.4289062 127.49,20.7320312 126.9675,20.209375 C126.445,19.8609375 125.748333,19.8609375 125.225833,20.3835937 L116.169167,29.6171875 C108.505833,24.5648437 99.6233333,21.9515625 90.3925,21.9515625 C77.6783333,21.9515625 65.835,26.8296875 56.9525,35.8890625 C48.07,44.7742188 43.0191667,56.7953125 43.0191667,69.3390625 C43.0191667,81.534375 47.5475,93.0328125 56.0816667,101.917969 L43.0191667,114.984375 C30.8275,102.789062 24.3833333,86.5867188 24.3833333,69.5132812 C24.3833333,51.9171875 31.1758333,35.3664062 43.7158333,22.8226562 C56.0816667,10.2789062 72.6275,3.484375 90.2183333,3.484375 C107.983333,3.484375 124.529167,10.2789062 136.895,22.8226562 C149.435,35.3664062 156.2275,51.9171875 156.2275,69.5132812 C156.2275,86.5867188 149.783333,102.789062 137.765833,115.158594 Z"></path>
                </g>
            </g>
        </g>
    </g>
</svg>