<?xml version="1.0" encoding="UTF-8"?>
<svg width="23px" height="23px" viewBox="0 0 23 23" version="1.1" xmlns="http://www.w3.org/2000/svg" xmlns:xlink="http://www.w3.org/1999/xlink">
    <!-- Generator: Sketch 47.1 (45422) - http://www.bohemiancoding.com/sketch -->
    <title>Shape</title>
    <desc>Created with Sketch.</desc>
    <defs></defs>
    <g id="Welcome" stroke="none" stroke-width="1" fill="none" fill-rule="evenodd">
        <g id="Try-it-out---Step-2" transform="translate(-873.000000, -456.000000)" fill-rule="nonzero" fill="#FFFFFF">
            <path d="M884.186555,482.141184 C883.82229,482.12738 883.401271,481.982294 883.13574,481.74063 L874.47449,473.852798 C873.978122,473.318299 873.773217,472.293373 874.347125,471.695969 C874.912372,471.107536 876.008631,471.125037 876.57612,471.711251 L882.65812,477.257383 L882.65812,454.478969 C882.65812,453.662184 883.342428,453 884.186555,453 C885.030681,453 885.71499,453.662184 885.71499,454.478969 L885.71499,477.257383 L891.796989,471.711251 C892.319442,471.206578 893.454267,471.113304 894.025984,471.695969 C894.597651,472.278485 894.415009,473.340237 893.898568,473.852798 L885.23737,481.74063 C884.940965,482.010542 884.593207,482.142071 884.186555,482.141184 Z" id="Shape" transform="translate(884.189227, 467.570594) rotate(-138.000000) translate(-884.189227, -467.570594) "></path>
        </g>
    </g>
</svg>