<?xml version="1.0" encoding="UTF-8"?>
<svg width="9px" height="5px" viewBox="0 0 9 5" version="1.1" xmlns="http://www.w3.org/2000/svg" xmlns:xlink="http://www.w3.org/1999/xlink">
    <!-- Generator: Sketch 47.1 (45422) - http://www.bohemiancoding.com/sketch -->
    <title>Shape Copy 10</title>
    <desc>Created with Sketch.</desc>
    <defs></defs>
    <g id="Pages" stroke="none" stroke-width="1" fill="none" fill-rule="evenodd">
        <g id="Quote-Full-Page" transform="translate(-1156.000000, -3852.000000)" fill-rule="nonzero" fill="#0062A9">
            <g id="Group-15" transform="translate(745.000000, 3578.000000)">
                <g id="Group-6-Copy-2" transform="translate(325.000000, 265.000000)">
                    <path d="M92.8696735,7.1287264 C92.6959344,6.9570912 92.4146087,6.9570912 92.2410474,7.1287264 L88.1301709,11.1892955 C88.0467691,11.2716874 88,11.3832415 88,11.4998902 C88,11.6165389 88.0469469,11.728093 88.1301709,11.8104849 L92.2406917,15.8714054 C92.3274724,15.9571351 92.441283,16 92.5550937,16 C92.6689043,16 92.7825372,15.9571351 92.8694956,15.8714054 C93.0432347,15.6999458 93.0432347,15.4218511 92.8694956,15.2503916 L89.0731989,11.4998902 L92.8698513,7.74974015 C93.0434125,7.5784563 93.0434125,7.3003616 92.8696735,7.1287264 Z" id="Shape-Copy-10" transform="translate(90.500000, 11.500000) rotate(-90.000000) translate(-90.500000, -11.500000) "></path>
                </g>
            </g>
        </g>
    </g>
</svg>