<?xml version="1.0" encoding="UTF-8"?>
<svg width="62px" height="62px" viewBox="0 0 62 62" version="1.1" xmlns="http://www.w3.org/2000/svg" xmlns:xlink="http://www.w3.org/1999/xlink">
    <!-- Generator: Sketch 48.2 (47327) - http://www.bohemiancoding.com/sketch -->
    <title>Group</title>
    <desc>Created with Sketch.</desc>
    <defs></defs>
    <g id="IB-MB-Homepage_Offerings_Blue" stroke="none" stroke-width="1" fill="none" fill-rule="evenodd" transform="translate(-680.000000, -4044.000000)">
        <g id="Group-6" transform="translate(622.000000, 4044.000000)" fill="#0062A9" fill-rule="nonzero">
            <g id="Group" transform="translate(58.000000, 0.000000)">
                <path d="M56.5,37 C56.307,37 56.116,37.01 55.928,37.03 L55.061,25.753 C59.032,24.817 62,21.253 62,17 C62,12.037 57.963,8 53,8 C50.053,8 47.44,9.43 45.797,11.627 L40.476,7.827 C40.809,7.118 41,6.332 41,5.5 C41,2.468 38.532,0 35.5,0 C32.468,0 30,2.468 30,5.5 C30,5.712 30.015,5.921 30.038,6.127 L17.919,7.858 C17.355,3.434 13.575,0 9,0 C4.037,0 0,4.037 0,9 C0,12.877 2.468,16.179 5.913,17.443 L5.15,22.018 C2.281,22.2 0,24.586 0,27.5 C0,30.532 2.468,33 5.5,33 C6.201,33 6.87,32.863 7.487,32.623 L9.814,39.604 C8.681,41.109 8,42.974 8,45 C8,47.122 8.742,49.071 9.975,50.611 L8.614,51.972 C7.728,51.36 6.656,51 5.5,51 C2.468,51 0,53.468 0,56.5 C0,59.532 2.468,62 5.5,62 C8.532,62 11,59.532 11,56.5 C11,55.344 10.64,54.272 10.028,53.386 L11.389,52.025 C12.929,53.258 14.878,54 17,54 C20.32,54 23.218,52.189 24.778,49.507 L31.019,52.627 C31.014,52.752 31,52.874 31,53 C31,57.963 35.037,62 40,62 C44.963,62 49,57.963 49,53 C49,51.712 48.723,50.489 48.234,49.379 L52.66,46.429 C53.651,47.399 55.006,48 56.5,48 C59.532,48 62,45.532 62,42.5 C62,39.468 59.532,37 56.5,37 Z M49.025,22.755 C49.152,21.217 50.43,20 52,20 L54,20 C55.57,20 56.848,21.217 56.975,22.755 C55.845,23.538 54.476,24 53,24 C51.524,24 50.155,23.538 49.025,22.755 Z M53,18 C51.897,18 51,17.103 51,16 C51,14.897 51.897,14 53,14 C54.103,14 55,14.897 55,16 C55,17.103 54.103,18 53,18 Z M53,10 C56.859,10 60,13.141 60,17 C60,18.549 59.488,19.978 58.632,21.139 C58.158,19.965 57.251,19.02 56.11,18.484 C56.659,17.799 57,16.943 57,16 C57,13.794 55.206,12 53,12 C50.794,12 49,13.794 49,16 C49,16.943 49.341,17.799 49.889,18.484 C48.748,19.02 47.841,19.965 47.367,21.139 C46.512,19.978 46,18.549 46,17 C46,13.141 49.141,10 53,10 Z M44,17 C44,17.766 44.107,18.507 44.288,19.218 L38.672,21.625 C37.91,18.848 35.853,16.609 33.189,15.595 L34.74,10.942 C34.989,10.976 35.242,11 35.5,11 C36.981,11 38.325,10.409 39.314,9.453 L44.778,13.356 C44.282,14.471 44,15.702 44,17 Z M17,36 C16.942,36 16.887,36.008 16.829,36.009 L14.958,26.188 L21.084,25.167 C21.409,27.664 22.759,29.838 24.7,31.259 L21.348,37.126 C20.058,36.41 18.577,36 17,36 Z M23,24 C23,20.141 26.141,17 30,17 C33.859,17 37,20.141 37,24 C37,27.859 33.859,31 30,31 C26.141,31 23,27.859 23,24 Z M35.5,2 C37.43,2 39,3.57 39,5.5 C39,7.43 37.43,9 35.5,9 C33.57,9 32,7.43 32,5.5 C32,3.57 33.57,2 35.5,2 Z M2,9 C2,5.141 5.141,2 9,2 C12.859,2 16,5.141 16,9 C16,12.859 12.859,16 9,16 C5.141,16 2,12.859 2,9 Z M9,18 C9.798,18 10.567,17.886 11.304,17.69 L11.589,19.186 L13.554,18.811 L13.2,16.954 C15.807,15.572 17.658,12.948 17.956,9.874 L30.638,8.062 C31.139,9.009 31.907,9.792 32.843,10.312 L31.248,15.097 C30.839,15.04 30.424,15 30,15 C25.325,15 21.475,18.582 21.043,23.146 L14.584,24.223 L13.935,20.817 L11.97,21.192 L12.61,24.552 L10.357,24.928 C9.683,23.661 8.529,22.686 7.138,22.251 L7.86,17.921 C8.235,17.967 8.613,18 9,18 Z M2,27.5 C2,25.57 3.57,24 5.5,24 C7.43,24 9,25.57 9,27.5 C9,29.43 7.43,31 5.5,31 C3.57,31 2,29.43 2,27.5 Z M11,27.5 C11,27.281 10.984,27.066 10.959,26.854 L12.985,26.516 L14.843,36.272 C13.559,36.59 12.382,37.178 11.381,37.981 L9.231,31.53 C10.316,30.524 11,29.092 11,27.5 Z M5.5,60 C3.57,60 2,58.43 2,56.5 C2,54.57 3.57,53 5.5,53 C7.43,53 9,54.57 9,56.5 C9,58.43 7.43,60 5.5,60 Z M17,52 C13.141,52 10,48.859 10,45 C10,41.141 13.141,38 17,38 C20.848,38 23.98,41.122 23.998,44.966 L14,39.412 L14,50.588 L23.998,45.034 C23.98,48.878 20.848,52 17,52 Z M19.94,45 L16,47.189 L16,42.81 L19.94,45 Z M25.593,47.678 C25.857,46.832 26,45.932 26,45 C26,44.24 25.895,43.505 25.717,42.8 L27.352,42.187 L26.649,40.314 L25.015,40.927 C24.505,39.927 23.813,39.037 22.983,38.296 L26.432,32.26 C27.527,32.734 28.733,33 30,33 C34.963,33 39,28.963 39,24 C39,23.887 38.987,23.778 38.983,23.666 L44.993,21.09 C45.645,22.361 46.589,23.454 47.738,24.286 L45.8,28.161 C45.383,28.06 44.949,28 44.5,28 C41.468,28 39,30.468 39,33.5 C39,34.219 39.143,34.904 39.395,35.534 L28.649,39.564 L29.352,41.437 L40.496,37.258 C40.912,37.701 41.397,38.076 41.939,38.363 L41.123,44.078 C40.753,44.031 40.38,44 40,44 C35.885,44 32.415,46.778 31.346,50.555 L25.593,47.678 Z M41,33.5 C41,31.57 42.57,30 44.5,30 C46.43,30 48,31.57 48,33.5 C48,35.43 46.43,37 44.5,37 C42.57,37 41,35.43 41,33.5 Z M40,60 C36.141,60 33,56.859 33,53 C33,49.141 36.141,46 40,46 C43.859,46 47,49.141 47,53 C47,56.859 43.859,60 40,60 Z M43.074,44.552 L43.873,38.961 C44.079,38.985 44.288,39 44.5,39 C47.532,39 50,36.532 50,33.5 C50,31.629 49.059,29.976 47.627,28.982 L49.477,25.281 C50.56,25.743 51.75,26 53,26 C53.025,26 53.049,25.996 53.074,25.996 L53.968,37.623 C52.207,38.541 51,40.381 51,42.5 C51,43.319 51.185,44.094 51.508,44.793 L47.222,47.651 C46.179,46.248 44.743,45.162 43.074,44.552 Z M56.5,46 C54.57,46 53,44.43 53,42.5 C53,40.57 54.57,39 56.5,39 C58.43,39 60,40.57 60,42.5 C60,44.43 58.43,46 56.5,46 Z" id="Shape"></path>
                <path d="M36,57 L44,57 L44,49 L36,49 L36,57 Z M38,51 L42,51 L42,55 L38,55 L38,51 Z" id="Shape"></path>
                <rect id="Rectangle-path" x="8" y="8" width="2" height="2"></rect>
                <rect id="Rectangle-path" x="12" y="8" width="2" height="2"></rect>
                <rect id="Rectangle-path" x="4" y="8" width="2" height="2"></rect>
                <path d="M34,24 C34,21.794 32.206,20 30,20 C27.794,20 26,21.794 26,24 C26,26.206 27.794,28 30,28 C32.206,28 34,26.206 34,24 Z M28,24 C28,22.897 28.897,22 30,22 C31.103,22 32,22.897 32,24 C32,25.103 31.103,26 30,26 C28.897,26 28,25.103 28,24 Z" id="Shape"></path>
            </g>
        </g>
    </g>
</svg>