<?xml version="1.0" encoding="UTF-8"?>
<svg width="88px" height="92px" viewBox="0 0 88 92" version="1.1" xmlns="http://www.w3.org/2000/svg" xmlns:xlink="http://www.w3.org/1999/xlink">
    <!-- Generator: Sketch 47.1 (45422) - http://www.bohemiancoding.com/sketch -->
    <title>Thumbs up</title>
    <desc>Created with Sketch.</desc>
    <defs></defs>
    <g id="Welcome" stroke="none" stroke-width="1" fill="none" fill-rule="evenodd">
        <g id="Try-it-out---Step-3" transform="translate(-640.000000, -321.000000)" fill="#0062A8">
            <g id="ICON" transform="translate(584.000000, 267.000000)">
                <g id="Page-1" transform="translate(56.000000, 54.000000)">
                    <path d="M27.8544658,44.3075513 C32.8693838,43.4218668 37.1021484,40.049539 39.1076699,35.3385944 L47.1620672,18.2190979 C48.1871116,16.0430047 48.8745598,13.721166 49.2010141,11.3354234 L50.0600459,5.67376938 C50.1001563,5.6345302 50.1502943,5.60762332 50.2048891,5.59529101 C52.169186,5.9092045 53.9128756,7.04041419 55.0058848,8.71200354 C56.4766006,11.1111995 56.4766006,14.7548383 55.0058848,19.2393167 C52.8454924,25.7866553 52.1758711,30.9550167 53.0003633,34.6098667 C53.5240272,36.9305843 55.5830293,38.5730245 57.9484306,38.5562077 C65.3120371,38.5562077 69.8578859,38.6234749 76.8894673,40.114564 L76.999771,40.114564 C77.7429281,40.2502195 78.447089,40.5484373 79.0621156,40.9890373 L79.4175386,41.2917396 C82.2709501,43.8815259 80.4659807,47.2000399 80.08716,47.8166557 C79.3506879,48.9747723 79.5579251,50.4983739 80.5762844,51.4154497 C81.6614944,52.5197525 82.3277732,53.9716024 82.4603604,55.5187475 C82.3935097,57.6051511 81.4899108,59.5760794 79.9534585,60.9786 C79.095541,61.8911914 78.9451269,63.2645629 79.5857796,64.3419589 C79.7083392,64.5560927 82.5706641,69.5663763 76.9006091,73.7604848 C75.9257028,74.4981815 75.5301694,75.7796212 75.9201319,76.9433434 C76.2198459,77.840239 77.4019895,82.4368295 71.2840346,85.1387277 C69.3453638,85.9537817 67.257393,86.3517792 65.1560521,86.3046921 L41.5700047,86.3046921 C38.7466761,86.3002077 35.9779422,85.525514 33.5579462,84.0624529 L27.2739787,80.2730686 L27.2739787,44.3972409 L27.8544658,44.3075513 Z M5.57089315,86.3943817 L21.7030855,86.3943817 L21.7030855,37.3341873 L5.57089315,37.3341873 L5.57089315,86.3943817 Z M5.57089315,31.7285893 C2.49353177,31.7285893 0,34.2387761 0,37.3341873 L0,86.3943817 C0,89.4909141 2.49353177,91.9999798 5.57089315,91.9999798 L21.7030855,91.9999798 C24.6344895,92.0078276 27.070084,89.7285915 27.2739787,86.7867736 L30.7279324,88.8720561 C34.0158736,90.8575589 37.7784548,91.908048 41.6145718,91.9102902 L65.1560521,91.9102902 C68.0038927,91.9405605 70.8272214,91.3755162 73.4466553,90.2510332 C80.9673611,86.8876743 82.1472762,80.979374 81.5901869,77.0554553 C85.5466352,73.7133977 86.9950675,68.2344862 85.2112675,63.3553736 C87.0764025,61.0862275 88.0646789,58.2161613 87.9967141,55.2721012 C87.8752686,52.9670793 87.0808592,50.7472624 85.713762,48.8929306 C87.4652508,44.8322353 86.4379781,40.0988683 83.162293,37.143597 C82.931658,36.9272209 82.6898812,36.7209349 82.4369627,36.5269812 C81.1712558,35.578514 79.7083392,34.9282646 78.1585167,34.6210779 L78.0370713,34.6210779 C70.6489528,33.0402992 65.6797161,32.9393984 58.3718184,32.9393984 C58.0932738,31.2465078 58.1033014,27.6925586 60.3104893,20.9994745 C62.3494362,14.7996831 62.1711676,9.67616641 59.7745693,5.76345895 C57.7746187,2.59629604 54.4811067,0.486348919 50.7831478,0.000904125858 L50.4388666,0.000904125858 C47.8105192,-0.0450617784 45.4707441,1.66576676 44.6997325,4.19389149 C44.6607362,4.3261836 44.6317676,4.46071796 44.6117124,4.59749455 L43.7760784,10.6515405 C43.5231598,12.4699965 42.9983817,14.2391232 42.2162283,15.8983803 L34.0938661,33.0627216 C32.8604703,35.9350301 30.3179147,38.024797 27.2739787,38.6683197 L27.2739787,37.3341873 C27.2739787,34.2387761 24.7804469,31.7285893 21.7030855,31.7285893 L5.57089315,31.7285893 Z" id="Thumbs-up"></path>
                </g>
            </g>
        </g>
    </g>
</svg>