<svg xmlns="http://www.w3.org/2000/svg" width="16" height="16" viewBox="0 0 16 16">
    <g fill="none" fill-rule="evenodd">
        <path fill="#4FB5DB" d="M15.826 8A7.862 7.862 0 1 1 .102 8a7.862 7.862 0 0 1 15.724 0"/>
        <path fill="#FFFFFE" d="M12.62 5.601c-.342.15-.71.25-1.097.296.395-.232.697-.6.84-1.04-.368.215-.778.372-1.213.456a1.92 1.92 0 0 0-1.394-.594c-1.056 0-1.91.843-1.91 1.881 0 .148.016.29.048.429a5.453 5.453 0 0 1-3.938-1.966c-.164.278-.26.601-.26.946 0 .652.339 1.228.85 1.565a1.93 1.93 0 0 1-.865-.235v.024c0 .24.047.47.131.681.234.59.759 1.036 1.402 1.164a1.97 1.97 0 0 1-.863.031 1.91 1.91 0 0 0 1.785 1.307 3.87 3.87 0 0 1-2.83.779 5.476 5.476 0 0 0 2.93.845c2.987 0 4.823-2.07 5.307-4.216a5.163 5.163 0 0 0 .125-1.379c.373-.265.697-.596.952-.974"/>
    </g>
</svg>
