<?xml version="1.0" encoding="UTF-8"?>
<svg width="5px" height="9px" viewBox="0 0 5 9" version="1.1" xmlns="http://www.w3.org/2000/svg" xmlns:xlink="http://www.w3.org/1999/xlink">
    <!-- Generator: Sketch 47.1 (45422) - http://www.bohemiancoding.com/sketch -->
    <title>Shape Copy 10</title>
    <desc>Created with Sketch.</desc>
    <defs></defs>
    <g id="Pages" stroke="none" stroke-width="1" fill="none" fill-rule="evenodd">
        <g id="Quote-Full-Page" transform="translate(-1158.000000, -1243.000000)" fill-rule="nonzero" fill="#0062A9">
            <g id="Group-6" transform="translate(1072.000000, 1236.000000)">
                <path d="M90.8696735,7.1287264 C90.6959344,6.9570912 90.4146087,6.9570912 90.2410474,7.1287264 L86.1301709,11.1892955 C86.0467691,11.2716874 86,11.3832415 86,11.4998902 C86,11.6165389 86.0469469,11.728093 86.1301709,11.8104849 L90.2406917,15.8714054 C90.3274724,15.9571351 90.441283,16 90.5550937,16 C90.6689043,16 90.7825372,15.9571351 90.8694956,15.8714054 C91.0432347,15.6999458 91.0432347,15.4218511 90.8694956,15.2503916 L87.0731989,11.4998902 L90.8698513,7.74974015 C91.0434125,7.5784563 91.0434125,7.3003616 90.8696735,7.1287264 Z" id="Shape-Copy-10" transform="translate(88.500000, 11.500000) rotate(-180.000000) translate(-88.500000, -11.500000) "></path>
            </g>
        </g>
    </g>
</svg>