<svg xmlns="http://www.w3.org/2000/svg" width="16" height="16" viewBox="0 0 16 16">
    <g fill="none" fill-rule="evenodd">
        <path fill="#E0564A" d="M16.003 8.01a7.932 7.932 0 1 1-15.864 0 7.932 7.932 0 0 1 15.864 0"/>
        <path fill="#FFFFFE" d="M9.639 7.932L7.1 9.303V6.551l2.538 1.381zm3.035-1.859s-.091-.675-.373-.973c-.357-.39-.758-.392-.94-.414-1.316-.099-3.288-.099-3.288-.099H8.07s-1.973 0-3.287.1c-.184.021-.584.024-.942.414-.281.297-.373.973-.373.973s-.094.792-.094 1.585v.743c0 .793.094 1.586.094 1.586s.092.675.373.972c.358.39.828.378 1.036.419.752.075 3.195.098 3.195.098s1.974-.003 3.29-.102c.182-.023.583-.024.94-.415.282-.297.373-.972.373-.972s.095-.793.095-1.586v-.743c0-.793-.095-1.586-.095-1.586z"/>
    </g>
</svg>
