<svg xmlns="http://www.w3.org/2000/svg" width="19" height="16" viewBox="0 0 19 16">
    <path fill="#626262" fill-rule="nonzero" d="M.73 0C.323 0 0 .32 0 .727v14.546c0 .407.322.727.73.727h17.54c.408 0 .73-.32.73-.727a.722.722 0 0 0-.73-.728H2.513l5.992-5.963 1.637 1.629c.292.29.76.29 1.023 0l5.262-5.236.234 2.734c.029.378.35.67.73.67h.059a.724.724 0 0 0 .672-.786l-.35-4.306a.746.746 0 0 0-.673-.669l-4.326-.349a.725.725 0 0 0-.79.67.724.724 0 0 0 .673.785l2.748.232-4.736 4.713L9.032 7.04c-.263-.262-.76-.262-1.023 0l-6.547 6.487V.727A.722.722 0 0 0 .73 0z"/>
</svg>
