<svg xmlns="http://www.w3.org/2000/svg" width="20" height="23" viewBox="0 0 20 23">
    <g fill="none" fill-rule="nonzero">
        <path fill="#000" d="M13.655 14.884v1.53h.378c.603 0 .69-.488.69-.783 0-.198-.061-.747-.76-.747h-.308zM10.56 14.884v.637h.373c.251 0 .515-.017.515-.334 0-.286-.22-.304-.458-.304h-.43z"/>
        <path fill="#0062A9" d="M18.372 12.33h-.343V6.17L12.516.008H3.11A2.932 2.932 0 0 0 .182 2.937v16.452a2.932 2.932 0 0 0 2.928 2.928H15.1a2.932 2.932 0 0 0 2.929-2.928v-.708h.343c.81 0 1.465-.657 1.465-1.466v-3.42c0-.81-.655-1.465-1.465-1.465zm-5.47-9.798L15.77 5.74H12.9V2.532zm3.731 16.857c0 .845-.687 1.533-1.533 1.533H3.11a1.535 1.535 0 0 1-1.533-1.533V2.937c0-.846.688-1.533 1.533-1.533h8.396v5.73h5.127v5.196H9.334c-.81 0-1.466.656-1.466 1.465v3.42c0 .81.656 1.466 1.466 1.466h7.3v.708zm-.942-3.745c0 .963-.51 1.574-1.605 1.574h-1.398V14.08h1.587c1.046 0 1.416.774 1.416 1.565zm-3.329-.492c0 .76-.51 1.117-1.23 1.117h-.572v.95h-.968v-3.14h1.618c.853 0 1.152.624 1.152 1.073zm6.174-.268h-1.46v.391h1.253v.748h-1.253v1.196h-.967v-3.14h2.427v.805z"/>
    </g>
</svg>
