<?xml version="1.0" encoding="UTF-8"?>
<svg width="16px" height="28px" viewBox="0 0 16 28" version="1.1" xmlns="http://www.w3.org/2000/svg" xmlns:xlink="http://www.w3.org/1999/xlink">
    <!-- Generator: Sketch 47.1 (45422) - http://www.bohemiancoding.com/sketch -->
    <title>Shape Copy 3</title>
    <desc>Created with Sketch.</desc>
    <defs></defs>
    <g id="Pages" stroke="none" stroke-width="1" fill="none" fill-rule="evenodd">
        <g id="Investor-Short-term" transform="translate(-784.000000, -770.000000)" fill-rule="nonzero" fill="#fff">
            <path d="M799.582955,770.400482 C799.02699,769.866506 798.126748,769.866506 797.571352,770.400482 L784.416547,783.033364 C784.149661,783.289694 784,783.636751 784,783.999658 C784,784.362565 784.15023,784.709623 784.416547,784.965953 L797.570214,797.599928 C797.847912,797.866643 798.212106,798 798.5763,798 C798.940494,798 799.304119,797.866643 799.582386,797.599928 C800.138351,797.066498 800.138351,796.201315 799.582386,795.667885 L787.434237,783.999658 L799.583524,772.332525 C800.13892,771.799642 800.13892,770.934458 799.582955,770.400482 Z" id="Shape-Copy-3" transform="translate(792.000000, 784.000000) scale(-1, 1) translate(-792.000000, -784.000000) "></path>
        </g>
    </g>
</svg>