<?xml version="1.0" encoding="UTF-8"?>
<svg width="6px" height="10px" viewBox="0 0 6 10" version="1.1" xmlns="http://www.w3.org/2000/svg" xmlns:xlink="http://www.w3.org/1999/xlink">
    <!-- Generator: Sketch 47.1 (45422) - http://www.bohemiancoding.com/sketch -->
    <title>Group</title>
    <desc>Created with Sketch.</desc>
    <defs></defs>
    <g id="Symbols" stroke="none" stroke-width="1" fill="none" fill-rule="evenodd">
        <g id="Menu" transform="translate(-785.000000, -12.000000)" fill-rule="nonzero" fill="#808080">
            <g id="Group" transform="translate(785.000000, 12.000000)">
                <path d="M4.81220771,9.40336779 L4.81333517,9.40234151 L2.03428495,5.80968864 C2.0632193,5.81069181 2.09226951,5.81119724 2.12142859,5.81119724 C3.47720155,5.81119724 4.59771372,4.71855271 4.77543653,3.30076004 L6,3.30076004 L6,2.37096848 L4.75475348,2.37096848 C4.66033096,1.82026374 4.42271987,1.32414771 4.08540568,0.929791558 L6,0.929791558 L6,0 L0,0 L0,0.929791558 L2.51601954,0.929791558 C3.18662729,1.09045879 3.71842506,1.65205182 3.8868443,2.37096848 L0,2.37096848 L0,3.30076004 L3.89718092,3.30076004 C3.71224583,4.17935015 2.9874132,4.83491613 2.12142859,4.83491613 C1.6921973,4.83491613 1.29764368,4.67385945 0.986323278,4.40441709 L0.963208104,4.4250403 L0.956609525,4.4165099 L0.3,5.01416839 L0.301181702,5.01569608 L0.289870304,5.02578804 C0.315548621,5.05190075 0.341701536,5.0774709 0.368313503,5.10248156 L4.15577997,9.99877744 L4.15564206,9.99890503 L4.15587864,9.99890503 L4.15672565,10 L4.15792866,9.99890503 L5.36121301,9.99890503 L4.81220771,9.40336779 Z" id="Shape"></path>
            </g>
        </g>
    </g>
</svg>