<?xml version="1.0" encoding="UTF-8"?>
<svg width="21px" height="21px" viewBox="0 0 21 21" version="1.1" xmlns="http://www.w3.org/2000/svg" xmlns:xlink="http://www.w3.org/1999/xlink">
    <!-- Generator: Sketch 47.1 (45422) - http://www.bohemiancoding.com/sketch -->
    <title>Shape</title>
    <desc>Created with Sketch.</desc>
    <defs></defs>
    <g id="Symbols" stroke="none" stroke-width="1" fill="none" fill-rule="evenodd">
        <g id="App-Bar" transform="translate(-231.000000, -33.000000)" fill-rule="nonzero" fill="#fff">
            <g id="Group-12-Copy">
                <g id="Group" transform="translate(231.000000, 33.000000)">
                    <path d="M15.6881157,12.5622476 C15.5006278,12.8709775 15.5585233,13.3311369 15.8092216,13.5818352 L20.5386932,18.3113068 C21.1537689,18.9263826 21.1537689,19.9236174 20.5386932,20.5386932 C19.9236174,21.1537689 18.9263826,21.1537689 18.3113068,20.5386932 L13.5818352,15.8092216 C13.3274624,15.5548488 12.8689355,15.5044389 12.5559185,15.6915179 C12.5559185,15.6915179 12.4400338,15.7776022 12.0761783,15.9549812 C10.9658267,16.4962757 9.71838268,16.8 8.4,16.8 C3.7608081,16.8 0,13.0391919 0,8.4 C0,3.7608081 3.7608081,0 8.4,0 C13.0391919,0 16.8,3.7608081 16.8,8.4 C16.8,9.72306127 16.4941163,10.9746795 15.9492094,12.0879942 C15.7732051,12.4475936 15.6881157,12.5622476 15.6881157,12.5622476 Z M8.4,13.65 C11.2994949,13.65 13.65,11.2994949 13.65,8.4 C13.65,5.50050506 11.2994949,3.15 8.4,3.15 C5.50050506,3.15 3.15,5.50050506 3.15,8.4 C3.15,11.2994949 5.50050506,13.65 8.4,13.65 Z" id="Shape"></path>
                </g>
            </g>
        </g>
    </g>
</svg>