<?xml version="1.0" encoding="UTF-8"?>
<svg width="10px" height="5px" viewBox="0 0 10 5" version="1.1" xmlns="http://www.w3.org/2000/svg" xmlns:xlink="http://www.w3.org/1999/xlink">
    <!-- Generator: Sketch 47.1 (45422) - http://www.bohemiancoding.com/sketch -->
    <title>Shape Copy 11</title>
    <desc>Created with Sketch.</desc>
    <defs></defs>
    <g id="Pages" stroke="none" stroke-width="1" fill="none" fill-rule="evenodd">
        <g id="Portfolio-Expanded" transform="translate(-1155.000000, -2178.000000)" fill-rule="nonzero" fill="#0062A9">
            <g id="Mutual-Funds" transform="translate(173.000000, 2148.000000)">
                <path d="M989.769388,28.1287264 C989.595139,27.9570912 989.312987,27.9570912 989.138915,28.1287264 L985.01596,32.1892955 C984.932313,32.2716874 984.885406,32.3832415 984.885406,32.4998902 C984.885406,32.6165389 984.932491,32.728093 985.01596,32.8104849 L989.138559,36.8714054 C989.225594,36.9571351 989.339739,37 989.453884,37 C989.568029,37 989.681996,36.9571351 989.76921,36.8714054 C989.94346,36.6999458 989.94346,36.4218511 989.76921,36.2503916 L985.961759,32.4998902 L989.769567,28.7497401 C989.943638,28.5784563 989.943638,28.3003616 989.769388,28.1287264 Z" id="Shape-Copy-11" transform="translate(987.392752, 32.500000) rotate(-90.000000) translate(-987.392752, -32.500000) "></path>
            </g>
        </g>
    </g>
</svg>